<svg xmlns="http://www.w3.org/2000/svg" xmlns:xlink="http://www.w3.org/1999/xlink" width="136px" height="168px" viewBox="0 0 136 168"><title>bear</title><g id="Home-1" stroke="none" stroke-width="1" fill="none" fill-rule="evenodd"><g id="De-bebe---Home-1-" transform="translate(-654.000000, -4652.000000)" fill-rule="nonzero"><g id="Group-23" transform="translate(-228.000000, 4190.000000)"><g id="bear" transform="translate(882.874210, 462.233333)"><path d="M111.813093,118.079209 C111.813093,118.079209 109.551891,7.91155656 70.6674301,4.17413622 C30.6153667,0.329932429 36.3876,61.2375629 29.8424466,77.723283 C23.2972931,94.2172172 14.548495,140.980149 51.7966673,143.822231 C82.2201193,146.146825 114.76499,148.068927 111.813093,118.079209 Z" id="Path" fill="#EECE78"></path><path d="M55.1359995,46.3549659 C55.1359995,46.3549659 55.6410711,28.5776696 67.696551,27.0487895 C77.0113965,25.8614678 86.6491565,46.7046565 76.978277,50.3316804 C67.3073975,53.9587042 53.480027,51.2343702 55.1359995,46.3549659 Z" id="Path" fill="#FFFFFF"></path><path d="M63,28.6370005 C63,28.6370005 66.1663837,34.5587711 68.4074703,34.9836126 C70.6485569,35.4084541 73,27.4318379 73,27.4318379 C73,27.4318379 68.5432937,25.8885361 63,28.6370005 Z" id="Path" fill="#26192A"></path><path d="M68.6013244,47 C66.4943286,47 64.2689623,41.8622681 64.0243299,41.2778815 C63.9611989,41.1236684 64.0243299,40.9451058 64.1742659,40.880174 C64.3242019,40.8152422 64.4978121,40.8882905 64.560943,41.0343871 C65.200144,42.5440524 67.1887692,46.4643123 68.6249985,46.391264 C69.8876177,46.3425651 71.0081923,41.9921318 71.4106521,39.256878 C71.4343262,39.0945484 71.5921536,38.9728012 71.749981,39.0052671 C71.9156998,39.0296165 72.026179,39.1838297 71.9946135,39.3542757 C71.876243,40.1253414 70.8030166,46.9107187 68.6407813,47 C68.6328899,47 68.6171072,47 68.6013244,47 Z" id="Path" fill="#26192A"></path><path d="M68.7277923,47 C68.5808295,47 68.4559112,46.8711312 68.448563,46.7100452 L68.0003265,34.3144756 C67.9929783,34.1453353 68.1105486,34.0084121 68.2648595,34.0003578 C68.4191705,33.9923035 68.5440888,34.1211724 68.551437,34.2903127 L68.9996735,46.6858823 C69.0070217,46.8550226 68.8894514,46.9919457 68.7351405,47 C68.7351405,47 68.7277923,47 68.7277923,47 Z" id="Path" fill="#26192A"></path><path d="M62.690169,29 C62.5449516,29 62.4158695,28.8937114 62.3916666,28.7383665 L59.003261,5.35487482 C58.9790581,5.18317786 59.092005,5.02783298 59.2614253,5.00330484 C59.4308455,4.97877671 59.5841305,5.09324135 59.6083334,5.26493832 L62.996739,28.64843 C63.0209419,28.820127 62.907995,28.9754719 62.7385747,29 C62.7143718,29 62.7063042,29 62.690169,29 Z" id="Path" fill="#26192A"></path><path d="M72.5,28 C72.29,28 72.12,27.8602074 72.12,27.6875223 L72.12,5.31247765 C72.12,5.13979263 72.29,5 72.5,5 C72.71,5 72.88,5.13979263 72.88,5.31247765 L72.88,27.6875223 C72.88,27.8602074 72.71,28 72.5,28 Z" id="Path" fill="#26192A"></path><path d="M54.6046911,28 C52.3523869,28 51.1446295,22.1236857 51.0059007,21.4318522 C50.9732586,21.2610291 51.0793454,21.090206 51.2425558,21.0560414 C51.4057663,21.0218768 51.5689767,21.1329118 51.6016188,21.3037349 C52.0749291,23.746505 53.3316496,27.5302365 54.7026173,27.3508723 C54.8821488,27.3252488 55.0208777,27.2312961 55.1269645,27.0519318 C55.8614115,25.8390879 54.8903093,21.8503687 54.4496411,20.4154548 C54.400678,20.2446317 54.4904437,20.0652675 54.6454937,20.0140205 C54.8087041,19.9627736 54.9800751,20.0567263 55.0290382,20.2190082 C55.2004092,20.7741833 56.6611427,25.7109706 55.6410774,27.393578 C55.4370644,27.7266831 55.135125,27.9316708 54.776062,27.9829177 C54.7270989,27.9914588 54.6699752,28 54.6046911,28 Z" id="Path" fill="#26192A"></path><path d="M80.1836096,26 C80.1452297,26 80.0991738,26 80.0607938,25.9912393 C77.8270814,25.7108969 77.9882771,19.2367391 78.0113051,18.4920795 C78.0189811,18.3081048 78.1494729,18.1504122 78.3106686,18.1766943 C78.4718644,18.185455 78.5946802,18.3343869 78.5870042,18.5183616 C78.5025683,21.0677255 78.8403118,25.1764941 80.1222017,25.3341867 C80.2910735,25.3604688 80.4369172,25.2991439 80.575085,25.1414513 C81.5038795,24.12521 81.4731756,19.8937916 81.3733877,18.3519083 C81.3657118,18.1679336 81.4808516,18.010241 81.6420473,18.0014803 C81.818595,17.9839589 81.9414108,18.1241301 81.9490868,18.3081048 C81.9874668,18.9038324 82.2638023,24.1952957 80.9742364,25.6145292 C80.7439568,25.8685895 80.4752972,26 80.1836096,26 Z" id="Path" fill="#26192A"></path><path d="M52,10.1169231 C52,10.1169231 46.2735491,2.08258414 42.2739938,3.0868765 C38.2662927,4.09116887 44.9946689,17 44.9946689,17 L52,10.1169231 Z" id="Path" fill="#EECE78"></path><path d="M47.7101403,11 C47.5898349,11 47.4695295,10.9160996 47.4394532,10.7940627 C46.221361,6.33208839 44.3415891,6.5761622 44.326551,6.5761622 C44.1686501,6.59904412 44.0257875,6.49226183 44.0032302,6.3397157 C43.9806729,6.18716956 44.0784211,6.04225074 44.2288028,6.01174151 C44.326551,5.9964869 46.6123536,5.62274888 47.9883466,10.6338893 C48.0334611,10.7864354 47.9432321,10.9466089 47.7928503,10.9847454 C47.7552549,10.9923727 47.7326976,11 47.7101403,11 Z" id="Path" fill="#26192A"></path><path d="M77,7.03942262 C77,7.03942262 81.3963532,-1.19974636 84.5834933,0.149257474 C87.7706334,1.49826131 84.5834933,12 84.5834933,12 L77,7.03942262 Z" id="Path" fill="#EECE78"></path><path d="M80.344827,9 C80.3260471,9 80.2978774,9 80.2790975,8.99175758 C80.091299,8.95878791 79.9692299,8.79393954 80.0067896,8.62909118 C81.1711406,3.56824632 83.3496037,2.1175807 83.443503,2.05988377 C83.6031318,1.96097475 83.8191001,1.985702 83.9317792,2.12582311 C84.0444583,2.26594423 84.0162886,2.45551985 83.8566598,2.55442887 C83.82849,2.5709137 81.8002657,3.97212482 80.6922543,8.75272745 C80.6546946,8.89284856 80.5044558,9 80.344827,9 Z" id="Path" fill="#26192A"></path><path d="M101.365966,51 C101.365966,51 130.081124,79.7819635 130.967698,93.2534986 C131.854273,106.725034 114.278757,93.4669416 104.34584,84.4777088 C94.412924,75.4884761 101.365966,51 101.365966,51 Z" id="Path" fill="#EECE78"></path><path d="M35.2621505,54 C35.2621505,54 5.48052345,81.6684863 4.07797367,95.1084043 C2.66722185,108.548322 20.736328,95.9627756 30.9970869,87.3615567 C41.2496437,78.7603378 35.2621505,54 35.2621505,54 Z" id="Path" fill="#EECE78"></path><path d="M93,126.601014 C93,126.601014 91.6047345,61.4764833 70.1750979,63.0272628 C51.1092052,64.3975282 49.3199824,118.945579 54.5070871,131.294378 C58.2907188,140.320078 91.0794581,141.591881 93,126.601014 Z" id="Path" fill="#FFFFFF"></path><path d="M6.39236185,104 C6.38381254,104 6.38381254,104 6.39236185,104 C5.96489644,104 5.78536097,103.785465 5.71696651,103.650387 C5.44338865,103.133912 5.99909368,102.029452 6.67448902,101.012395 C5.58017758,101.775188 4.30633066,102.434686 3.54544223,102.045344 C3.33170953,101.934103 3.17782198,101.743405 3.10942752,101.497086 C2.94699066,100.893209 3.2975123,99.9079347 3.74207632,98.9941725 C2.70761003,99.9079347 1.43376312,100.750185 0.518987142,100.464138 C0.271057205,100.38468 0.100071042,100.217819 0.0316765768,99.995338 C-0.361591599,98.7001795 3.02393443,94.8623784 3.70787909,94.1075314 C3.81902009,93.9803993 4.02420349,93.9645078 4.16099242,94.0678026 C4.29778135,94.1710975 4.31487997,94.3617957 4.20373896,94.4889278 C2.59646903,96.2687776 0.433494061,99.1054131 0.655776073,99.8284771 C0.664325381,99.8682059 0.681423997,99.8840974 0.732719846,99.8999889 C1.71589029,100.201928 3.88741456,98.1598679 5.03302185,96.7931976 C5.13561355,96.6660655 5.33224764,96.6422282 5.46903657,96.7296315 C5.6058255,96.8170349 5.64857204,96.9997873 5.55452965,97.1348652 C4.73379607,98.3505661 3.511245,100.559487 3.73352701,101.346117 C3.76772424,101.457357 3.81902009,101.497086 3.86176663,101.520924 C4.57135921,101.894374 6.80272864,100.27344 8.17061795,99.0021183 C8.29030826,98.8908777 8.47839304,98.8829319 8.60663267,98.9862268 C8.73487229,99.0895216 8.7519709,99.2643283 8.64937921,99.3914604 C7.18744751,101.179256 6.06748814,103.086238 6.29831946,103.380231 L6.29831946,103.380231 C6.29831946,103.380231 6.32396739,103.396122 6.40091116,103.396122 C7.4866733,103.396122 10.0514657,100.59127 11.4193551,98.8193659 C11.5219468,98.684288 11.7185808,98.6525049 11.8639191,98.747854 C12.0092573,98.8432031 12.0434545,99.0259556 11.9408629,99.1610334 C11.5475947,99.6616162 8.16206864,103.992054 6.39236185,104 Z" id="Path" fill="#26192A"></path><path d="M128.603081,101 C126.823557,101 123.435617,96.6616162 123.059179,96.1689792 C122.956514,96.0339013 122.990736,95.8511489 123.136178,95.7557998 C123.28162,95.6604507 123.478394,95.6922337 123.581059,95.8273116 C124.941368,97.5992156 127.516544,100.404068 128.603081,100.404068 C128.69719,100.404068 128.705746,100.388177 128.705746,100.388177 C128.936741,100.086238 127.815984,98.1872017 126.344454,96.3994062 C126.241789,96.2722741 126.2589,96.0974674 126.387231,95.9941725 C126.515562,95.8908777 126.703781,95.8988234 126.823557,96.010064 C128.183866,97.2734395 130.425382,98.9023199 131.13548,98.5288693 C131.178257,98.505032 131.22959,98.4653032 131.263811,98.3540626 C131.477696,97.5674326 130.262829,95.3505661 129.44151,94.1428109 C129.347401,94.0077331 129.390178,93.8329264 129.527064,93.7375773 C129.663951,93.6501739 129.860725,93.6740112 129.96339,93.8011433 C131.109814,95.1598679 133.299997,97.2098735 134.266758,96.9079347 C134.31809,96.8920432 134.326646,96.8761517 134.343756,96.8364229 C134.566197,96.1054131 132.40168,93.2687776 130.793264,91.4889278 C130.682044,91.3617957 130.699155,91.1710975 130.836041,91.0678026 C130.972927,90.9645078 131.169702,90.9803993 131.289477,91.1075314 C131.97391,91.8623784 135.361849,95.7001795 134.968301,96.995338 C134.899858,97.225765 134.72875,97.3926259 134.480643,97.4641377 C133.565215,97.750185 132.29046,96.8999889 131.255256,95.9941725 C131.700137,96.9079347 132.059464,97.8932087 131.888356,98.4970863 C131.819912,98.7434048 131.665915,98.9341029 131.45203,99.0453436 C130.690599,99.4346857 129.415844,98.7831335 128.320752,98.012395 C128.996629,99.0373978 129.55273,100.133912 129.278958,100.650387 C129.201959,100.777519 129.022295,100.992054 128.603081,101 C128.603081,101 128.603081,101 128.603081,101 Z" id="Path" fill="#26192A"></path><path d="M32,136 C32,136 36.5593158,162.582381 44.1276132,166.558238 C44.1276132,166.558238 45.8779904,167.552202 51.6875755,166.558238 C57.4971607,165.564274 56.9887178,142.924891 56.9887178,142.924891 C56.9887178,142.924891 37.5261908,136.016429 32,136 Z" id="Path" fill="#EECE78"></path><path d="M104,136 C104,136 99.4406842,162.582381 91.8723868,166.558238 C91.8723868,166.558238 90.1220096,167.552202 84.3124245,166.558238 C78.5028393,165.564274 79.0112822,142.924891 79.0112822,142.924891 C79.0112822,142.924891 98.4738092,136.016429 104,136 Z" id="Path" fill="#EECE78"></path><path d="M46.6815869,167 C46.5975246,167 46.5218686,166.966543 46.4546188,166.907993 C44.0756561,164.507435 44,158.568773 44,158.317844 C44,158.142193 44.1429059,158 44.3110305,158 C44.3110305,158 44.3110305,158 44.3110305,158 C44.4875613,158 44.6220609,158.142193 44.6304671,158.30948 C44.6304671,158.36803 44.7061232,164.248141 46.9085551,166.464684 C47.0346485,166.590149 47.0262423,166.782528 46.9085551,166.907993 C46.8413053,166.974907 46.7656492,167 46.6815869,167 Z" id="Path" fill="#26192A"></path><path d="M50.7698215,167 C50.6901561,167 50.6166189,166.95089 50.5737221,166.852671 C49.6116096,164.757325 50.1447547,159.48622 50.1692672,159.265227 C50.1876515,159.093343 50.3040855,158.978754 50.4266476,159.003308 C50.5553378,159.027863 50.6411313,159.183377 50.622747,159.347076 C50.6166189,159.396186 50.0896018,164.618181 50.9659209,166.525273 C51.03333,166.672602 50.9965614,166.860856 50.8923836,166.95089 C50.8494869,166.991815 50.8065901,167 50.7698215,167 Z" id="Path" fill="#26192A"></path><path d="M89.3128062,167 C89.2288314,167 89.153254,166.966543 89.0944717,166.907993 C88.9685094,166.782528 88.9685094,166.590149 89.0944717,166.464684 C91.2946116,164.248141 91.3701889,158.36803 91.3701889,158.30948 C91.3701889,158.133829 91.5129461,158 91.6892932,158 C91.6892932,158 91.6892932,158 91.6892932,158 C91.8656403,158 92,158.142193 92,158.317844 C92,158.568773 91.9244227,164.507435 89.5479356,166.907993 C89.4723583,166.966543 89.3883835,167 89.3128062,167 Z" id="Path" fill="#26192A"></path><path d="M85.2313039,167 C85.1884699,167 85.151755,166.983613 85.108921,166.959032 C84.9987764,166.868904 84.9681806,166.680453 85.0354913,166.53297 C85.9105292,164.615689 85.3842826,159.396426 85.3781635,159.347264 C85.359806,159.175201 85.4454741,159.027718 85.5739761,159.003137 C85.7085974,158.978557 85.818742,159.101459 85.8309803,159.265329 C85.8554569,159.486554 86.3878226,164.763173 85.4271166,166.86071 C85.3842826,166.950839 85.3108528,167 85.2313039,167 Z" id="Path" fill="#26192A"></path><g id="Group" transform="translate(26.000000, 89.000000)" fill="#26192A"><path d="M3.91824844,3.744634 C3.91824844,3.744634 3.91043764,3.744634 3.91043764,3.744634 C3.74641078,3.73631505 3.62143793,3.59489302 3.62924873,3.42019521 C3.69173515,1.19071844 3.89481603,0.267315752 3.90262684,0.23403998 C3.94168085,0.0676611161 4.09789691,-0.0321662019 4.25411297,0.00942851392 C4.41032903,0.0510232298 4.50405867,0.217402093 4.47281545,0.383780957 C4.47281545,0.3920999 4.26973458,1.29054576 4.21505895,3.44515204 C4.19943735,3.61153091 4.0744645,3.744634 3.91824844,3.744634 Z" id="Path"></path><path d="M2.00460171,8.21190648 C2.00460171,8.21190648 1.99679091,8.21190648 1.99679091,8.21190648 C1.83276404,8.20358754 1.70779119,8.0621655 1.715602,7.8874677 C1.77808842,5.65799093 1.9811693,4.73458823 1.9889801,4.70131246 C2.02803412,4.5349336 2.18425018,4.43510628 2.34046624,4.476701 C2.4966823,4.51829571 2.59041193,4.68467458 2.55916872,4.85105344 C2.55916872,4.85937238 2.35608784,5.75781824 2.30141222,7.91242453 C2.29360142,8.07880339 2.16081777,8.21190648 2.00460171,8.21190648 Z" id="Path"></path><path d="M4.25411297,9.30168804 C4.25411297,9.30168804 4.24630217,9.30168804 4.24630217,9.30168804 C4.0822753,9.29336909 3.95730246,9.15194706 3.96511326,8.97724925 C4.02759968,6.74777248 4.23068056,5.82436979 4.23849136,5.79109402 C4.27754538,5.62471515 4.43376144,5.52488784 4.5899775,5.56648255 C4.74619356,5.60807727 4.83992319,5.77445613 4.80867998,5.94083499 C4.80867998,5.94915394 4.6055991,6.8475998 4.55092348,9.00220608 C4.54311268,9.16858494 4.41813983,9.30168804 4.25411297,9.30168804 Z" id="Path"></path><path d="M1.4656563,14.8836989 C1.4656563,14.8836989 1.4578455,14.8836989 1.4578455,14.8836989 C1.29381864,14.87538 1.16884579,14.7339579 1.17665659,14.5592601 C1.23914302,12.3297833 1.44222389,11.4063807 1.4500347,11.3731049 C1.48908871,11.206726 1.64530477,11.1068987 1.80152083,11.1484934 C1.95773689,11.1900881 2.05146653,11.356467 2.02022331,11.5228459 C2.02022331,11.5311648 1.81714244,12.4296107 1.76246682,14.5842169 C1.75465601,14.7422769 1.62187236,14.8836989 1.4656563,14.8836989 Z" id="Path"></path><path d="M5.30076057,15.89861 C5.30076057,15.89861 5.29294977,15.89861 5.29294977,15.89861 C5.1289229,15.890291 5.00395006,15.748869 5.01176086,15.5741712 C5.07424728,13.3446944 5.27732816,12.4212917 5.28513896,12.388016 C5.32419298,12.2216371 5.48040904,12.1218098 5.6366251,12.1634045 C5.79284116,12.2049992 5.88657079,12.3713781 5.85532758,12.5377569 C5.85532758,12.5460759 5.65224671,13.4445217 5.59757108,15.599128 C5.58976028,15.7655069 5.45697663,15.89861 5.30076057,15.89861 Z" id="Path"></path><path d="M5.70692233,21.5721292 C5.55070627,21.5721292 5.42573342,21.4473451 5.41792262,21.2809662 C5.29294977,19.0514894 5.42573342,18.1197678 5.42573342,18.0781731 C5.44916583,17.9117942 5.59757108,17.7870101 5.76159795,17.8202858 C5.91781401,17.8452427 6.03497605,18.0033026 6.00373284,18.1780004 C6.00373284,18.1863193 5.87875999,19.1014031 5.99592204,21.2476904 C6.00373284,21.4223882 5.87875999,21.5638103 5.72254393,21.5804482 C5.72254393,21.5721292 5.71473313,21.5721292 5.70692233,21.5721292 Z" id="Path"></path><path d="M6.46457022,29.5832715 C6.31616496,29.5832715 6.18338131,29.4584873 6.17557051,29.3004274 C5.99592204,27.0792696 6.09746248,26.139229 6.10527328,26.0976343 C6.12870569,25.9312554 6.26930014,25.8147902 6.433327,25.8231092 C6.59735387,25.848066 6.70670511,25.997807 6.6910835,26.1725048 C6.6910835,26.1808237 6.58954306,27.1042264 6.76919153,29.2421948 C6.78481314,29.4168926 6.66765109,29.5666336 6.50362423,29.5832715 C6.48800263,29.5832715 6.48019182,29.5832715 6.46457022,29.5832715 Z" id="Path"></path><path d="M6.29273255,34.9323519 C6.1677597,34.9323519 6.05059766,34.8408436 6.01154364,34.7077405 C5.43354422,32.5614531 5.3710578,31.6214126 5.36324699,31.5798178 C5.35543619,31.40512 5.47259824,31.263698 5.6366251,31.2470601 C5.79284116,31.2304222 5.93343561,31.3635253 5.94905722,31.5382231 C5.94905722,31.5465421 6.01935445,32.4699448 6.57392146,34.5330427 C6.62078628,34.6994215 6.52705664,34.8741193 6.37084058,34.9157141 C6.33959737,34.924033 6.31616496,34.9323519 6.29273255,34.9323519 Z" id="Path"></path><path d="M4.6055991,39.8322095 C4.48062626,39.8322095 4.36346421,39.7407011 4.3244102,39.607598 C3.74641078,37.4613107 3.68392435,36.5212701 3.67611355,36.4796754 C3.66830275,36.3049776 3.78546479,36.1635555 3.94949165,36.1469176 C4.10570771,36.1302798 4.24630217,36.2633829 4.26192377,36.4380807 C4.26192377,36.4463996 4.332221,37.3698023 4.88678801,39.4329002 C4.93365283,39.5992791 4.83992319,39.7739769 4.68370713,39.8155716 C4.65246392,39.8322095 4.62903151,39.8322095 4.6055991,39.8322095 Z" id="Path"></path><path d="M7.58932585,39.2914782 C7.43310979,39.2914782 7.30813694,39.1583751 7.30032614,38.9919962 C7.19097489,36.7625194 7.33156935,35.8307978 7.33938015,35.7892031 C7.36281256,35.6228242 7.51121782,35.506359 7.67524468,35.5313159 C7.83146074,35.5562727 7.94081198,35.7226515 7.91737957,35.8890304 C7.91737957,35.8973494 7.78459592,36.8124331 7.88613636,38.9587204 C7.89394716,39.1334182 7.76897432,39.2748403 7.60494745,39.2831592 C7.60494745,39.2914782 7.59713665,39.2914782 7.58932585,39.2914782 Z" id="Path"></path><path d="M7.70648789,44 C7.60494745,44 7.50340701,43.9417674 7.44873139,43.8419401 C6.44113781,41.8869884 6.18338131,40.9802236 6.17557051,40.9386289 C6.12870569,40.77225 6.21462452,40.5975522 6.37084058,40.5476386 C6.52705664,40.4977249 6.6910835,40.5892333 6.73794832,40.7556122 C6.73794832,40.7639311 6.99570482,41.6457391 7.96424439,43.5341392 C8.04235242,43.6838802 7.9876768,43.8752159 7.84708235,43.9584053 C7.80021753,43.9833621 7.75335271,44 7.70648789,44 Z" id="Path"></path><path d="M2.96533048,18.826878 C2.96533048,18.826878 2.95751967,18.826878 2.95751967,18.826878 C2.79349281,18.818559 2.66851996,18.677137 2.67633077,18.5024392 C2.73881719,16.2729624 2.94189807,15.3495597 2.94970887,15.3162839 C2.98876289,15.1499051 3.14497895,15.0500778 3.301195,15.0916725 C3.45741106,15.1332672 3.5511407,15.2996461 3.51989749,15.4660249 C3.51989749,15.4743439 3.31681661,16.3727897 3.26214099,18.5190771 C3.24651938,18.6854559 3.12154654,18.826878 2.96533048,18.826878 Z" id="Path"></path><path d="M0.481495125,21.0563547 C0.333089868,21.0563547 0.20811702,20.9398895 0.192495414,20.7818296 C-0.0574502813,18.5689907 0.0206577486,17.6206312 0.0206577486,17.5873554 C0.0362793546,17.4126576 0.176873808,17.2961924 0.340900671,17.3045114 C0.504927534,17.3211493 0.622089579,17.4708902 0.606467973,17.645588 C0.606467973,17.653907 0.536170746,18.5773097 0.770494836,20.7069591 C0.786116442,20.8816569 0.6767652,21.0313979 0.512738337,21.0563547 C0.504927534,21.0563547 0.497116731,21.0563547 0.481495125,21.0563547 Z" id="Path"></path><path d="M0.528359943,27.4453031 C0.379954686,27.4453031 0.254981838,27.3288379 0.239360232,27.170778 C-0.0105854634,24.9579391 0.0675225665,24.0095796 0.0675225665,23.9763038 C0.0831441725,23.801606 0.223738626,23.6851408 0.387765489,23.6934597 C0.551792352,23.7100976 0.668954397,23.8598386 0.653332791,24.0345364 C0.653332791,24.0428553 0.583035564,24.966258 0.817359654,27.0959075 C0.83298126,27.2706053 0.723630018,27.4203463 0.559603155,27.4453031 C0.551792352,27.4453031 0.536170746,27.4453031 0.528359943,27.4453031 Z" id="Path"></path><path d="M3.10592493,25.3406105 C2.95751967,25.3406105 2.83254683,25.2241453 2.81692522,25.0660853 C2.56697952,22.8532465 2.64508755,21.9048869 2.64508755,21.8716112 C2.66070916,21.6969134 2.80130361,21.5804482 2.96533048,21.5887671 C3.12935734,21.605405 3.24651938,21.755146 3.23089778,21.9298438 C3.23089778,21.9381627 3.16060055,22.8615654 3.39492464,24.9912149 C3.41054625,25.1659127 3.301195,25.3156536 3.13716814,25.3406105 C3.12935734,25.3406105 3.12154654,25.3406105 3.10592493,25.3406105 Z" id="Path"></path><path d="M2.86379004,30.7895182 C2.71538478,30.7895182 2.59041193,30.673053 2.57479033,30.5149931 C2.32484463,28.3021542 2.40295266,27.3537947 2.40295266,27.3205189 C2.41857427,27.1458211 2.55916872,27.0293559 2.72319558,27.0376749 C2.88722245,27.0543128 3.00438449,27.2040537 2.98876289,27.3787515 C2.98876289,27.3870705 2.91846566,28.3104732 3.15278975,30.4401226 C3.16841135,30.6148204 3.05906011,30.7645614 2.89503325,30.7895182 C2.88722245,30.7895182 2.87160084,30.7895182 2.86379004,30.7895182 Z" id="Path"></path><path d="M2.18425018,34.5829563 C2.04365572,34.5829563 1.91868288,34.4748101 1.89525047,34.3250691 C1.53595353,32.1288681 1.55938594,31.1805086 1.56719674,31.1389139 C1.57500754,30.9642161 1.70779119,30.8394319 1.87181806,30.8394319 C2.03584492,30.8477508 2.16081777,30.9891729 2.15300697,31.1638707 C2.15300697,31.1721896 2.12957456,32.0955923 2.47324989,34.2169228 C2.5044931,34.3833017 2.39514186,34.5496806 2.2389258,34.5746374 C2.21549339,34.5829563 2.19987178,34.5829563 2.18425018,34.5829563 Z" id="Path"></path></g><g id="Group" transform="translate(102.000000, 89.000000)" fill="#26192A"><path d="M4.08175156,3.74220934 C3.9255355,3.74220934 3.79275185,3.60909823 3.78494105,3.44270935 C3.73026542,1.29629274 3.52718455,0.389473313 3.52718455,0.381153869 C3.48813053,0.214764984 3.58186017,0.0483760997 3.74588703,0.0067788785 C3.90210309,-0.0264988984 4.05831915,0.0650149882 4.09737316,0.231403873 C4.10518397,0.273001094 4.31607565,1.18813996 4.37075127,3.41775102 C4.37856207,3.59245934 4.24577842,3.7338899 4.08956236,3.74220934 C4.08956236,3.74220934 4.08956236,3.74220934 4.08175156,3.74220934 Z" id="Path"></path><path d="M5.99539829,8.2097509 C5.83918223,8.2097509 5.70639858,8.07663979 5.69858778,7.9102509 C5.64391216,5.76383429 5.44083128,4.85701487 5.44083128,4.84869542 C5.40177726,4.68230654 5.4955069,4.51591765 5.65953376,4.47432043 C5.81574982,4.44104266 5.97196588,4.53255654 6.0110199,4.69894543 C6.0188307,4.74054265 6.22972238,5.65568151 6.284398,7.88529257 C6.29220881,8.0600009 6.15942515,8.20143145 6.00320909,8.2097509 C6.00320909,8.2097509 5.99539829,8.2097509 5.99539829,8.2097509 Z" id="Path"></path><path d="M3.74588703,9.29959809 C3.58967097,9.29959809 3.45688732,9.16648698 3.44907652,9.0000981 C3.3944009,6.85368148 3.19132002,5.94686206 3.19132002,5.93854262 C3.152266,5.77215373 3.24599564,5.60576485 3.4100225,5.56416763 C3.56623856,5.53088985 3.72245462,5.62240374 3.76150864,5.78879262 C3.76931944,5.83038984 3.98021112,6.74552871 4.03488674,8.97513977 C4.04269754,9.14984809 3.90991389,9.29127865 3.75369783,9.29959809 C3.74588703,9.29959809 3.74588703,9.29959809 3.74588703,9.29959809 Z" id="Path"></path><path d="M6.5343437,14.8819452 C6.37812764,14.8819452 6.24534399,14.7488341 6.23753318,14.5824452 C6.18285756,12.4360286 5.97977669,11.5292091 5.97977669,11.5208897 C5.94072267,11.3545008 6.03445231,11.1881119 6.19847917,11.1465147 C6.35469523,11.1132369 6.51091129,11.2047508 6.5499653,11.3711397 C6.55777611,11.4127369 6.76866779,12.3278758 6.82334341,14.5574868 C6.83115421,14.7321952 6.69837056,14.8736257 6.5421545,14.8819452 C6.5421545,14.8819452 6.5343437,14.8819452 6.5343437,14.8819452 Z" id="Path"></path><path d="M2.69923943,15.8969174 C2.54302337,15.8969174 2.41023972,15.7638063 2.40242892,15.5974174 C2.34775329,13.4510008 2.14467242,12.5441813 2.14467242,12.5358619 C2.1056184,12.369473 2.19934804,12.2030841 2.3633749,12.1614869 C2.51959096,12.1282091 2.67580702,12.219723 2.71486104,12.3861119 C2.72267184,12.4277091 2.93356352,13.342848 2.98823914,15.572459 C2.99604994,15.7471674 2.86326629,15.8885979 2.70705023,15.8969174 C2.70705023,15.8969174 2.69923943,15.8969174 2.69923943,15.8969174 Z" id="Path"></path><path d="M2.29307767,21.5707783 C2.28526687,21.5707783 2.28526687,21.5707783 2.27745607,21.5707783 C2.11342921,21.5624589 1.99626716,21.4127089 2.00407796,21.2380006 C2.12124001,19.091584 2.00407796,18.1764451 1.99626716,18.1681256 C1.97283475,18.0017368 2.08218599,17.8353479 2.23840205,17.8103895 C2.39461811,17.7854312 2.55083417,17.9019034 2.57426658,18.0682923 C2.58207738,18.1098895 2.70705023,19.0416673 2.58207738,21.2712783 C2.57426658,21.4459867 2.44929373,21.5707783 2.29307767,21.5707783 Z" id="Path"></path><path d="M1.53542978,29.5824031 C1.52761898,29.5824031 1.51980818,29.5824031 1.51199737,29.5824031 C1.34797051,29.5657643 1.23080847,29.4160143 1.24643007,29.2413059 C1.42607854,27.1032088 1.3245381,26.1797504 1.3245381,26.171431 C1.30110569,25.9967227 1.41826774,25.8469727 1.5822946,25.8220143 C1.74632146,25.797056 1.88691592,25.9218477 1.91034833,26.0882366 C1.91815913,26.1298338 2.01969957,27.069931 1.8400511,29.2912226 C1.80880789,29.4576115 1.68383504,29.5824031 1.53542978,29.5824031 Z" id="Path"></path><path d="M1.70726745,34.9318058 C1.68383504,34.9318058 1.65259183,34.9318058 1.62915942,34.9234863 C1.47294336,34.8735697 1.38702453,34.6988613 1.42607854,34.5407919 C1.98064555,32.4775697 2.05094278,31.5541114 2.05094278,31.545792 C2.05875358,31.3710836 2.19934804,31.2379725 2.3633749,31.2546114 C2.52740176,31.2629309 2.64456381,31.4126809 2.63675301,31.5873892 C2.63675301,31.6289864 2.56645578,32.5690836 1.98845636,34.7155002 C1.95721315,34.8402919 1.8400511,34.9318058 1.70726745,34.9318058 Z" id="Path"></path><path d="M3.4022117,39.8319584 C3.37877929,39.8319584 3.34753608,39.8319584 3.32410367,39.823639 C3.16788761,39.7737223 3.08196878,39.599014 3.12102279,39.4409446 C3.6755898,37.3777224 3.74588703,36.4542641 3.74588703,36.4459446 C3.75369783,36.2712363 3.90210309,36.1381252 4.05831915,36.1547641 C4.22234601,36.1630835 4.33950806,36.3128335 4.33169725,36.4875419 C4.33169725,36.5291391 4.26140003,37.4692363 3.68340061,39.6156529 C3.64434659,39.7404446 3.52718455,39.8319584 3.4022117,39.8319584 Z" id="Path"></path><path d="M0.410674153,39.2911946 C0.40286335,39.2911946 0.40286335,39.2911946 0.395052547,39.2911946 C0.231025684,39.2828751 0.106052836,39.1331251 0.121674442,38.9667362 C0.223214881,36.8203196 0.0904312304,35.9051808 0.0904312304,35.8968613 C0.0669988214,35.7304724 0.176350063,35.5640835 0.332566123,35.5391252 C0.488782183,35.5141669 0.644998243,35.6306391 0.668430652,35.797028 C0.676241455,35.8386252 0.809025106,36.770403 0.707484667,39.000014 C0.691863061,39.1580835 0.55907941,39.2911946 0.410674153,39.2911946 Z" id="Path"></path><path d="M0.293512108,44 C0.24664729,44 0.199782472,43.9916806 0.152917654,43.9584028 C0.0123232005,43.8752083 -0.0423524204,43.6838611 0.0357556095,43.5341111 C1.00429518,41.6455973 1.26205168,40.7637362 1.26205168,40.7554167 C1.3089165,40.5890279 1.47294336,40.497514 1.62915942,40.5474306 C1.78537548,40.5973473 1.87129431,40.7720556 1.82442949,40.9384445 C1.81661869,40.9717223 1.55886219,41.8785417 0.551268607,43.8419306 C0.496592986,43.9417639 0.395052547,44 0.293512108,44 Z" id="Path"></path><path d="M5.04248033,18.8253617 C4.88626427,18.8253617 4.75348062,18.6922506 4.74566981,18.5258617 C4.69099419,16.3794451 4.48791331,15.4809452 4.48791331,15.4726257 C4.4488593,15.3062368 4.54258894,15.1398479 4.7066158,15.0982507 C4.86283186,15.0566535 5.01904792,15.1564868 5.05810193,15.3228757 C5.06591274,15.3644729 5.27680442,16.2796118 5.33148004,18.5092229 C5.33929084,18.6839312 5.20650719,18.8253617 5.05029113,18.8336812 C5.04248033,18.8253617 5.04248033,18.8253617 5.04248033,18.8253617 Z" id="Path"></path><path d="M7.51850487,21.0549728 C7.51069407,21.0549728 7.49507247,21.0549728 7.48726166,21.0549728 C7.3232348,21.0383339 7.21388356,20.8802645 7.22950516,20.7055561 C7.47164006,18.567459 7.39353203,17.6523201 7.39353203,17.6440007 C7.37791042,17.4692923 7.49507247,17.3195423 7.65909933,17.3029034 C7.81531539,17.2862646 7.96372065,17.4110562 7.97934225,17.5857645 C7.97934225,17.6273618 8.05745028,18.567459 7.80750459,20.7804311 C7.79188298,20.9385006 7.65909933,21.0549728 7.51850487,21.0549728 Z" id="Path"></path><path d="M7.47164006,27.444306 C7.46382925,27.444306 7.44820765,27.444306 7.44039685,27.444306 C7.27636998,27.4276671 7.16701874,27.2695976 7.18264035,27.0948893 C7.42477524,24.9651116 7.34666721,24.0416533 7.34666721,24.0333338 C7.3310456,23.8586255 7.44820765,23.7088755 7.61223451,23.6922366 C7.76845057,23.6755977 7.91685583,23.8003894 7.93247743,23.9750977 C7.93247743,24.0166949 8.01058546,24.9567921 7.76063977,27.1697643 C7.74501816,27.3278338 7.62004531,27.444306 7.47164006,27.444306 Z" id="Path"></path><path d="M4.89407507,25.3394866 C4.88626427,25.3394866 4.87064266,25.3394866 4.86283186,25.3394866 C4.698805,25.3228477 4.58945375,25.1647782 4.60507536,24.9900699 C4.84721025,22.8519728 4.76910222,21.9368339 4.76910222,21.9285144 C4.75348062,21.7538061 4.87064266,21.6040561 5.03466952,21.5874172 C5.19088558,21.5707783 5.33929084,21.69557 5.35491245,21.8702783 C5.35491245,21.9118756 5.43302048,22.8519728 5.18307478,25.0649449 C5.16745317,25.2230144 5.04248033,25.3394866 4.89407507,25.3394866 Z" id="Path"></path><path d="M5.13620996,30.7887226 C5.12839916,30.7887226 5.11277755,30.7887226 5.10496675,30.7887226 C4.94093989,30.7720837 4.83158865,30.6140142 4.84721025,30.4393059 C5.08934514,28.3095282 5.01123711,27.3860699 5.01123711,27.3777504 C4.99561551,27.2030421 5.11277755,27.0532921 5.27680442,27.0366532 C5.43302048,27.0200143 5.58142573,27.144806 5.59704734,27.3195143 C5.59704734,27.3611115 5.67515537,28.3012087 5.42520967,30.5141809 C5.40958807,30.6722503 5.28461522,30.7887226 5.13620996,30.7887226 Z" id="Path"></path><path d="M5.81574982,34.5823891 C5.80012822,34.5823891 5.78450661,34.5823891 5.768885,34.5740697 C5.61266895,34.5407919 5.5033177,34.3827225 5.53456092,34.2163336 C5.88604705,32.1031947 5.85480384,31.171417 5.85480384,31.1630975 C5.84699303,30.9883892 5.97196588,30.8469587 6.13599275,30.8386392 C6.33126282,30.8386392 6.43280326,30.9634309 6.44061406,31.1381392 C6.44061406,31.1797364 6.47185727,32.1198336 6.11256034,34.3244864 C6.08131712,34.4742363 5.95634428,34.5823891 5.81574982,34.5823891 Z" id="Path"></path></g><g id="Group" transform="translate(77.000000, 69.000000)" fill="#26192A"><path d="M1.2515392,3.57351004 C1.1065009,3.57351004 0.978525928,3.47508734 0.935867603,3.3356552 C0.432499376,1.26877867 0.0315111276,0.44858957 0.0315111276,0.440387679 C-0.0452738562,0.284551751 0.0229794627,0.104110149 0.185081095,0.03029313 C0.347182728,-0.0435238889 0.534879355,0.022091239 0.611664338,0.177927168 C0.628727668,0.210734732 1.03824758,1.0555295 1.55867914,3.19622305 C1.60133746,3.36026087 1.49042582,3.52429869 1.31979252,3.56530814 C1.29419753,3.56530814 1.26860253,3.57351004 1.2515392,3.57351004 Z" id="Path"></path><path d="M4.21202691,7.48581204 C4.06698861,7.48581204 3.93901364,7.38738934 3.89635531,7.2479572 C3.39298708,5.18108067 2.99199884,4.36089157 2.99199884,4.35268968 C2.91521385,4.19685375 2.98346717,4.01641215 3.1455688,3.94259513 C3.30767044,3.86877811 3.49536706,3.93439324 3.57215205,4.09022917 C3.58921538,4.12303673 3.99873529,4.9678315 4.51916685,7.10852505 C4.56182517,7.27256287 4.45091353,7.43660069 4.28028023,7.47761014 C4.25468524,7.47761014 4.23762191,7.48581204 4.21202691,7.48581204 Z" id="Path"></path><path d="M2.02792071,9.01136376 C1.8828824,9.01136376 1.75490743,8.91294107 1.71224911,8.77350892 C1.20888088,6.70663239 0.80789263,5.88644329 0.80789263,5.8782414 C0.731107646,5.72240547 0.799360965,5.54196387 0.961462598,5.46814685 C1.12356423,5.39432983 1.31126086,5.45994496 1.38804584,5.61578089 C1.40510917,5.64858845 1.81462908,6.49338323 2.33506064,8.63407677 C2.37771897,8.79811459 2.26680732,8.96215241 2.09617402,9.00316187 C2.0791107,9.01136376 2.0535157,9.01136376 2.02792071,9.01136376 Z" id="Path"></path><path d="M6.1572465,13.80947 C6.0122082,13.80947 5.88423322,13.7110473 5.8415749,13.5716151 C5.33820667,11.5047386 4.93721842,10.6845495 4.93721842,10.6763476 C4.86043344,10.5205117 4.92868676,10.3400701 5.09078839,10.2662531 C5.25289002,10.1924361 5.44058665,10.2580512 5.51737164,10.4138871 C5.53443497,10.4466947 5.94395488,11.2914895 6.46438644,13.432183 C6.50704476,13.5962208 6.39613312,13.7602586 6.22549982,13.8012681 C6.20843649,13.80947 6.1828415,13.80947 6.1572465,13.80947 Z" id="Path"></path><path d="M2.26680732,15.6056841 C2.12176902,15.6056841 1.99379405,15.5072614 1.95113572,15.3678293 C1.4477675,13.3009527 1.04677925,12.4807636 1.04677925,12.4725618 C0.969994263,12.3167258 1.03824758,12.1362842 1.20034921,12.0624672 C1.36245085,11.9886502 1.55014747,12.0542653 1.62693246,12.2101012 C1.64399579,12.2429088 2.0535157,13.0877036 2.57394726,15.2283971 C2.61660558,15.3924349 2.50569394,15.5564728 2.33506064,15.5974822 C2.31799731,15.6056841 2.29240232,15.6056841 2.26680732,15.6056841 Z" id="Path"></path><path d="M3.0005305,21.1665662 C2.84696053,21.1665662 2.7104539,21.0599416 2.6848589,20.9041057 C2.3691873,18.8044216 2.0535157,17.9514249 2.04498404,17.943223 C1.98526238,17.7873871 2.07057903,17.6069455 2.23268066,17.5495323 C2.40331396,17.492119 2.58247892,17.5741379 2.64220058,17.7299739 C2.65926391,17.7627814 2.99199884,18.6403838 3.3162021,20.8220868 C3.3417971,20.9943265 3.22235379,21.1501624 3.04318882,21.1665662 C3.03465716,21.1665662 3.01759383,21.1665662 3.0005305,21.1665662 Z" id="Path"></path><path d="M3.83663366,29.0649872 C3.67453202,29.0649872 3.53802539,28.9501607 3.52096206,28.7943248 C3.26501211,26.6864388 2.97493551,25.8252403 2.96640384,25.8170384 C2.90668219,25.6530006 3.0005305,25.4807609 3.1711638,25.4315495 C3.33326543,25.3741363 3.52096206,25.4643571 3.57215205,25.620193 C3.58068371,25.6530006 3.88782365,26.5388048 4.15230526,28.7287097 C4.16936859,28.9009494 4.04992528,29.0485834 3.87076032,29.0731891 C3.86222865,29.0649872 3.85369699,29.0649872 3.83663366,29.0649872 Z" id="Path"></path><path d="M5.13344672,34.1911691 C5.12491505,34.1911691 5.11638339,34.1911691 5.10785172,34.1911691 C4.92868676,34.1747653 4.80071179,34.0271313 4.81777512,33.8630934 C4.98840841,31.7470056 4.86896511,30.8447976 4.86896511,30.8365957 C4.84337011,30.664356 4.97134508,30.5167219 5.14197838,30.4921162 C5.32967501,30.4757125 5.47471331,30.5905389 5.50030831,30.7545768 C5.50883997,30.7955862 5.62828328,31.7223999 5.44911832,33.9123048 C5.44058665,34.0681407 5.29554835,34.1911691 5.13344672,34.1911691 Z" id="Path"></path><path d="M8.43520102,37.4473198 C8.42666935,37.4473198 8.41813769,37.4473198 8.40960602,37.4473198 C8.23044106,37.430916 8.10246609,37.283282 8.11952942,37.1192442 C8.29016272,35.0031563 8.17071941,34.1009483 8.17071941,34.0927464 C8.14512441,33.9205067 8.27309939,33.7728726 8.44373268,33.748267 C8.62289765,33.7236613 8.77646761,33.8466897 8.80206261,34.0107275 C8.81059427,34.0517369 8.93003758,34.9785506 8.75940428,37.1684555 C8.74234095,37.3242914 8.60583432,37.4473198 8.43520102,37.4473198 Z" id="Path"></path><path d="M11.2421188,43 C11.0885488,43 10.9520422,42.8933754 10.9264472,42.7375395 C10.5937122,40.6460573 10.269509,39.7848587 10.2609773,39.7766568 C10.2012556,39.6208209 10.2780406,39.4403793 10.4486739,39.3829661 C10.6193072,39.3255528 10.7984722,39.3993699 10.8581938,39.5634077 C10.8752572,39.5962152 11.2165238,40.4738176 11.5577904,42.6473187 C11.5833854,42.8195584 11.463942,42.9753943 11.2933087,43 C11.2677138,43 11.2591821,43 11.2421188,43 Z" id="Path"></path><path d="M12.6839701,38.9728715 C12.5133368,38.9728715 12.3682985,38.8416413 12.3597669,38.6776035 C12.2829819,36.5615156 12.0611586,35.6757114 12.0611586,35.6675095 C12.0185003,35.5034716 12.1208802,35.3394338 12.2915135,35.2984244 C12.4621468,35.2574149 12.6327801,35.3558376 12.6754385,35.5198754 C12.6839701,35.5608849 12.9143251,36.4630929 12.9996417,38.6611997 C13.0081734,38.8334394 12.8631351,38.9728715 12.6925018,38.9810734 C12.6839701,38.9728715 12.6839701,38.9728715 12.6839701,38.9728715 Z" id="Path"></path><path d="M5.37233333,17.9350212 C5.22729503,17.9350212 5.09932006,17.8365985 5.05666173,17.6971663 C4.55329351,15.6302898 4.15230526,14.8101007 4.15230526,14.8018988 C4.07552027,14.6460629 4.14377359,14.4656213 4.30587522,14.3918042 C4.46797686,14.3179872 4.65567348,14.3836024 4.73245847,14.5394383 C4.7495218,14.5722458 5.15904171,15.4170406 5.67947327,17.5577342 C5.72213159,17.721772 5.61121995,17.8858098 5.44058665,17.9268193 C5.42352332,17.9350212 5.39792833,17.9350212 5.37233333,17.9350212 Z" id="Path"></path><path d="M8.48639101,19.5671975 C8.32428938,19.5671975 8.17925107,19.4441691 8.17071941,19.2883332 C7.99155445,17.1804472 7.71854117,16.3028448 7.71854117,16.294643 C7.66735118,16.1306051 7.7611995,15.9583654 7.93183279,15.9091541 C8.10246609,15.8599427 8.28163105,15.9501635 8.33282104,16.1142014 C8.34135271,16.1470089 8.62289765,17.0492169 8.81059427,19.2391218 C8.8276576,19.4113615 8.69115097,19.5589956 8.52051767,19.5671975 C8.50345434,19.5671975 8.49492267,19.5671975 8.48639101,19.5671975 Z" id="Path"></path><path d="M9.75760907,25.7514233 C9.59550744,25.7514233 9.45046914,25.6283949 9.44193747,25.472559 C9.26277251,23.3564711 8.98975924,22.4870706 8.98975924,22.4788688 C8.93856925,22.3148309 9.03241756,22.1425912 9.20305086,22.0933799 C9.37368415,22.0441685 9.55284912,22.1343893 9.60403911,22.2984272 C9.61257077,22.3312347 9.89411571,23.2334427 10.0818123,25.4233476 C10.0988757,25.5955873 9.96236903,25.7432214 9.79173573,25.7514233 C9.7746724,25.7514233 9.76614074,25.7514233 9.75760907,25.7514233 Z" id="Path"></path><path d="M6.55823475,24.2586791 C6.39613312,24.2586791 6.25109481,24.1356507 6.24256315,23.9798148 C6.06339819,21.8719288 5.79038491,20.9943265 5.79038491,20.9861246 C5.73919492,20.8220868 5.83304324,20.6498471 6.00367653,20.6006357 C6.17430983,20.5514244 6.35347479,20.6416452 6.40466478,20.805683 C6.41319645,20.8384906 6.69474139,21.7406986 6.88243801,23.9306035 C6.89950134,24.1028432 6.76299471,24.2504772 6.59236141,24.2586791 C6.57529808,24.2586791 6.56676641,24.2586791 6.55823475,24.2586791 Z" id="Path"></path><path d="M7.94889612,29.4668799 C7.78679449,29.4668799 7.64175619,29.3438515 7.63322452,29.1880156 C7.45405956,27.0801296 7.18104628,26.2025273 7.18104628,26.1943254 C7.1298563,26.0302876 7.22370461,25.8580478 7.39433791,25.8088365 C7.5649712,25.7596251 7.74413617,25.849846 7.79532615,26.0138838 C7.80385782,26.0466913 8.08540276,26.9488993 8.27309939,29.1388042 C8.29016272,29.3110439 8.15365608,29.458678 7.98302278,29.4668799 C7.96595945,29.4668799 7.95742779,29.4668799 7.94889612,29.4668799 Z" id="Path"></path><path d="M11.0458905,33.3545762 C10.8752572,33.3545762 10.7302189,33.2233459 10.7216872,33.0593081 C10.6619655,30.9432203 10.4401423,30.057416 10.4401423,30.0410122 C10.3974839,29.8769744 10.4998639,29.7129366 10.6790289,29.6719271 C10.8496622,29.6309177 11.0202955,29.7293404 11.0629538,29.8933782 C11.0714855,29.9343877 11.3018404,30.8365957 11.3615621,33.0347025 C11.3700937,33.2069422 11.2250554,33.3463743 11.0544221,33.3545762 C11.0544221,33.3545762 11.0458905,33.3545762 11.0458905,33.3545762 Z" id="Path"></path></g><path d="M40.2672656,35 C40.156282,35 40.0583553,34.9007304 40.0322415,34.7473136 C39.8559735,33.8177888 40.4565905,31.4894644 40.5284034,31.218729 C40.5741025,31.0472632 40.7177283,30.9570181 40.8417687,31.0201897 C40.9658092,31.0833613 41.0310936,31.2819006 40.9853945,31.4533663 C40.743842,32.3738667 40.3978345,34.0253526 40.5022896,34.5758479 C40.5349318,34.7563381 40.4565905,34.9458529 40.3260216,34.9909755 C40.3064362,35 40.2868509,35 40.2672656,35 Z" id="Path" fill="#26192A"></path><path d="M42.2672656,38 C42.156282,38 42.0583553,37.9007304 42.0322415,37.7473136 C41.8559735,36.8177888 42.4565905,34.4894644 42.5284034,34.218729 C42.5741025,34.0472632 42.7177283,33.9570181 42.8417687,34.0201897 C42.9658092,34.0833613 43.0310936,34.2819006 42.9853945,34.4533663 C42.743842,35.3738667 42.3978345,37.0253526 42.5022896,37.5758479 C42.5349318,37.7563381 42.4565905,37.9458529 42.3260216,37.9909755 C42.3129647,38 42.2933793,38 42.2672656,38 Z" id="Path" fill="#26192A"></path><path d="M42.2672656,44 C42.156282,44 42.0583553,43.9007304 42.0322415,43.7473136 C41.8559735,42.8177888 42.4565905,40.4894644 42.5284034,40.218729 C42.5741025,40.0472632 42.7177283,39.9570181 42.8417687,40.0201897 C42.9658092,40.0833613 43.0310936,40.2819006 42.9853945,40.4533663 C42.743842,41.3738667 42.3978345,43.0253526 42.5022896,43.5758479 C42.5349318,43.7563381 42.4565905,43.9458529 42.3260216,43.9909755 C42.3064362,44 42.2868509,44 42.2672656,44 Z" id="Path" fill="#26192A"></path><path d="M37.2672656,48 C37.156282,48 37.0583553,47.9007561 37.0322415,47.7473791 C36.8559735,46.8180951 37.4565905,44.4903741 37.5284034,44.2197089 C37.5741025,44.0392654 37.7177283,43.9580658 37.8417687,44.021221 C37.9658092,44.0843762 38.0310936,44.2828641 37.9853945,44.4542854 C37.743842,45.3745472 37.3978345,47.0256051 37.5022896,47.5759578 C37.5349318,47.7564013 37.4565905,47.945867 37.3260216,47.9909778 C37.3129647,48 37.2868509,48 37.2672656,48 Z" id="Path" fill="#26192A"></path><path d="M40.2672656,48 C40.156282,48 40.0583553,47.9007561 40.0322415,47.7473791 C39.8559735,46.8180951 40.4565905,44.4903741 40.5284034,44.2197089 C40.5741025,44.0392654 40.7177283,43.9580658 40.8417687,44.021221 C40.9658092,44.0843762 41.0310936,44.2828641 40.9853945,44.4542854 C40.743842,45.3745472 40.3978345,47.0256051 40.5022896,47.5759578 C40.5349318,47.7564013 40.4565905,47.945867 40.3260216,47.9909778 C40.3064362,48 40.2868509,48 40.2672656,48 Z" id="Path" fill="#26192A"></path><path d="M40.2672656,53 C40.156282,53 40.0583553,52.9007304 40.0322415,52.7473136 C39.8559735,51.8177888 40.4565905,49.4894644 40.5284034,49.218729 C40.5741025,49.0472632 40.7177283,48.9570181 40.8417687,49.0201897 C40.9658092,49.0833613 41.0310936,49.2819006 40.9853945,49.4533663 C40.743842,50.3738667 40.3978345,52.0253526 40.5022896,52.5758479 C40.5349318,52.7563381 40.4565905,52.9458529 40.3260216,52.9909755 C40.3129647,52.9909755 40.2868509,53 40.2672656,53 Z" id="Path" fill="#26192A"></path><path d="M19.2594737,75 C19.2455997,75 19.2317256,75 19.2247886,75 C19.0791112,74.9765566 18.981993,74.8280821 19.002804,74.671793 C19.1068593,73.8512756 20.4040818,72.2727562 20.5497592,72.0930238 C20.6468775,71.9758071 20.8133659,71.9679926 20.9174212,72.0773949 C21.0214765,72.1867973 21.0284135,72.3743441 20.9312952,72.4915609 C20.4179558,73.1089026 19.5785766,74.2654415 19.5230804,74.7499375 C19.5022694,74.8905977 19.38434,75 19.2594737,75 Z" id="Path" fill="#26192A"></path><path d="M16.2594737,78 C16.2455997,78 16.2317256,78 16.2247886,78 C16.0791112,77.9765566 15.981993,77.8280821 16.002804,77.671793 C16.1068593,76.8512756 17.4040818,75.2727562 17.5497592,75.0930238 C17.6468775,74.9758071 17.8133659,74.9679926 17.9174212,75.0773949 C18.0214765,75.1867973 18.0284135,75.3743441 17.9312952,75.4915609 C17.4179558,76.1089026 16.5785766,77.2654415 16.5230804,77.7499375 C16.4953323,77.8984121 16.38434,78 16.2594737,78 Z" id="Path" fill="#26192A"></path><path d="M19.2594737,78 C19.2455997,78 19.2317256,78 19.2247886,78 C19.0791112,77.9765566 18.981993,77.8280821 19.002804,77.671793 C19.1068593,76.8512756 20.4040818,75.2727562 20.5497592,75.0930238 C20.6468775,74.9758071 20.8133659,74.9679926 20.9174212,75.0773949 C21.0214765,75.1867973 21.0284135,75.3743441 20.9312952,75.4915609 C20.4179558,76.1089026 19.5785766,77.2654415 19.5161434,77.7499375 C19.4953323,77.8984121 19.38434,78 19.2594737,78 Z" id="Path" fill="#26192A"></path><path d="M24.2594737,76 C24.2455997,76 24.2317256,76 24.2247886,76 C24.0791112,75.9765566 23.981993,75.8280821 24.002804,75.671793 C24.1068593,74.8512756 25.4040818,73.2727562 25.5497592,73.0930238 C25.6468775,72.9758071 25.8133659,72.9679926 25.9174212,73.0773949 C26.0214765,73.1867973 26.0284135,73.3743441 25.9312952,73.4915609 C25.4179558,74.1089026 24.5785766,75.2654415 24.5230804,75.7499375 C24.4953323,75.8905977 24.38434,76 24.2594737,76 Z" id="Path" fill="#26192A"></path><path d="M23.2594737,73 C23.2455997,73 23.2317256,73 23.2247886,73 C23.0791112,72.9765566 22.981993,72.8280821 23.002804,72.671793 C23.1068593,71.8512756 24.4040818,70.2727562 24.5497592,70.0930238 C24.6468775,69.9758071 24.8133659,69.9679926 24.9174212,70.0773949 C25.0214765,70.1867973 25.0284135,70.3743441 24.9312952,70.4915609 C24.4179558,71.1089026 23.5785766,72.2654415 23.5230804,72.7499375 C23.4953323,72.8984121 23.38434,73 23.2594737,73 Z" id="Path" fill="#26192A"></path><path d="M24.2594737,68 C24.2455997,68 24.2317256,68 24.2247886,68 C24.0791112,67.9765566 23.981993,67.8280821 24.002804,67.671793 C24.1068593,66.8512756 25.4040818,65.2727562 25.5497592,65.0930238 C25.6468775,64.9758071 25.8133659,64.9679926 25.9174212,65.0773949 C26.0214765,65.1867973 26.0284135,65.3743441 25.9312952,65.4915609 C25.4179558,66.1089026 24.5785766,67.2654415 24.5161434,67.7499375 C24.5022694,67.8984121 24.38434,68 24.2594737,68 Z" id="Path" fill="#26192A"></path><path d="M27.2594737,71 C27.2455997,71 27.2317256,71 27.2247886,71 C27.0791112,70.9765566 26.981993,70.8280821 27.002804,70.671793 C27.1068593,69.8512756 28.4040818,68.2727562 28.5497592,68.0930238 C28.6468775,67.9758071 28.8133659,67.9679926 28.9174212,68.0773949 C29.0214765,68.1867973 29.0284135,68.3743441 28.9312952,68.4915609 C28.4179558,69.1089026 27.5785766,70.2654415 27.5161434,70.7499375 C27.4953323,70.8905977 27.38434,71 27.2594737,71 Z" id="Path" fill="#26192A"></path><path d="M27.2594737,67 C27.2455997,67 27.2317256,67 27.2247886,67 C27.0791112,66.9765566 26.981993,66.8280821 27.002804,66.671793 C27.1068593,65.8512756 28.4040818,64.2727562 28.5497592,64.0930238 C28.6468775,63.9758071 28.8133659,63.9679926 28.9174212,64.0773949 C29.0214765,64.1867973 29.0284135,64.3743441 28.9312952,64.4915609 C28.4179558,65.1089026 27.5785766,66.2654415 27.5230804,66.7499375 C27.4953323,66.8905977 27.38434,67 27.2594737,67 Z" id="Path" fill="#26192A"></path><path d="M118.733589,75 C118.608723,75 118.497731,74.8984121 118.47692,74.7499375 C118.414486,74.2654415 117.582044,73.1089026 117.068705,72.4915609 C116.971587,72.3743441 116.978524,72.1867973 117.082579,72.0773949 C117.186634,71.9679926 117.353123,71.9758071 117.450241,72.0930238 C117.595918,72.2727562 118.893141,73.8434611 118.997196,74.671793 C119.018007,74.8358965 118.920889,74.9843711 118.775211,75 C118.7544,75 118.740526,75 118.733589,75 Z" id="Path" fill="#26192A"></path><path d="M121.733589,78 C121.608723,78 121.497731,77.8984121 121.47692,77.7499375 C121.414486,77.2654415 120.582044,76.1089026 120.068705,75.4915609 C119.971587,75.3743441 119.978524,75.1867973 120.082579,75.0773949 C120.186634,74.9679926 120.353123,74.9758071 120.450241,75.0930238 C120.595918,75.2727562 121.893141,76.8434611 121.997196,77.671793 C122.018007,77.8358965 121.920889,77.9843711 121.775211,78 C121.7544,78 121.740526,78 121.733589,78 Z" id="Path" fill="#26192A"></path><path d="M118.740526,78 C118.61566,78 118.504668,77.8984121 118.483857,77.7499375 C118.421423,77.2654415 117.582044,76.1089026 117.068705,75.4915609 C116.971587,75.3743441 116.978524,75.1867973 117.082579,75.0773949 C117.186634,74.9679926 117.353123,74.9758071 117.450241,75.0930238 C117.595918,75.2727562 118.893141,76.8434611 118.997196,77.6639786 C119.018007,77.8280821 118.920889,77.9765566 118.775211,78 C118.768274,78 118.7544,78 118.740526,78 Z" id="Path" fill="#26192A"></path><path d="M112.740526,76 C112.61566,76 112.504668,75.8984121 112.483857,75.7499375 C112.421423,75.2654415 111.582044,74.1089026 111.068705,73.4915609 C110.971587,73.3743441 110.978524,73.1867973 111.082579,73.0773949 C111.186634,72.9679926 111.353123,72.9758071 111.450241,73.0930238 C111.595918,73.2727562 112.893141,74.8434611 112.997196,75.6639786 C113.018007,75.8280821 112.920889,75.9765566 112.775211,76 C112.768274,76 112.7544,76 112.740526,76 Z" id="Path" fill="#26192A"></path><path d="M114.740526,73 C114.61566,73 114.504668,72.8984121 114.483857,72.7499375 C114.421423,72.2654415 113.582044,71.1089026 113.068705,70.4915609 C112.971587,70.3743441 112.978524,70.1867973 113.082579,70.0773949 C113.186634,69.9679926 113.353123,69.9758071 113.450241,70.0930238 C113.595918,70.2727562 114.893141,71.8434611 114.997196,72.6639786 C115.018007,72.8280821 114.920889,72.9765566 114.775211,73 C114.768274,73 114.7544,73 114.740526,73 Z" id="Path" fill="#26192A"></path><path d="M113.740526,68 C113.61566,68 113.504668,67.8984121 113.483857,67.7499375 C113.421423,67.2654415 112.582044,66.1089026 112.068705,65.4915609 C111.971587,65.3743441 111.978524,65.1867973 112.082579,65.0773949 C112.186634,64.9679926 112.353123,64.9758071 112.450241,65.0930238 C112.595918,65.2727562 113.893141,66.8434611 113.997196,67.671793 C114.018007,67.8358965 113.920889,67.9843711 113.775211,68 C113.761337,68 113.747463,68 113.740526,68 Z" id="Path" fill="#26192A"></path><path d="M110.733589,71 C110.608723,71 110.497731,70.8984121 110.47692,70.7499375 C110.414486,70.2654415 109.582044,69.1089026 109.068705,68.4915609 C108.971587,68.3743441 108.978524,68.1867973 109.082579,68.0773949 C109.186634,67.9679926 109.353123,67.9758071 109.450241,68.0930238 C109.595918,68.2727562 110.893141,69.8434611 110.997196,70.671793 C111.018007,70.8358965 110.920889,70.9843711 110.775211,71 C110.761337,70.9921855 110.747463,71 110.733589,71 Z" id="Path" fill="#26192A"></path><path d="M109.740526,67 C109.61566,67 109.504668,66.8985069 109.483857,66.7501708 C109.421423,66.2661267 108.582044,65.1106666 108.068705,64.4939007 C107.971587,64.3767933 107.978524,64.1894214 108.082579,64.0801211 C108.186634,63.9708208 108.353123,63.9708208 108.450241,64.0957354 C108.595918,64.2753002 109.893141,65.8445399 109.997196,66.6720992 C110.018007,66.8360496 109.920889,66.9843857 109.775211,67 C109.768274,67 109.7544,67 109.740526,67 Z" id="Path" fill="#26192A"></path><path d="M37.2672656,54 C37.156282,54 37.0583553,53.9007304 37.0322415,53.7473136 C36.8559735,52.8177888 37.4565905,50.4894644 37.5284034,50.218729 C37.5741025,50.0472632 37.7177283,49.9570181 37.8417687,50.0201897 C37.9658092,50.0833613 38.0310936,50.2819006 37.9853945,50.4533663 C37.743842,51.3738667 37.3978345,53.0253526 37.5022896,53.5758479 C37.5349318,53.7563381 37.4565905,53.9458529 37.3260216,53.9909755 C37.3129647,53.9909755 37.2868509,54 37.2672656,54 Z" id="Path" fill="#26192A"></path><path d="M39.2672656,41 C39.156282,41 39.0583553,40.9007304 39.0322415,40.7473136 C38.8559735,39.8177888 39.4565905,37.4894644 39.5284034,37.218729 C39.5741025,37.0472632 39.7177283,36.9570181 39.8417687,37.0201897 C39.9658092,37.0833613 40.0310936,37.2819006 39.9853945,37.4533663 C39.743842,38.3738667 39.3978345,40.0253526 39.5022896,40.5758479 C39.5349318,40.7563381 39.4565905,40.9458529 39.3260216,40.9909755 C39.3064362,41 39.2868509,41 39.2672656,41 Z" id="Path" fill="#26192A"></path><path d="M95.6141906,34 C95.5934847,34 95.5831318,34 95.5624259,34 C95.3450142,33.9720876 95.200073,33.7953089 95.2311318,33.6092261 C95.3243083,33.0323695 94.5478378,31.3948409 94.0405438,30.5016435 C93.9473673,30.334169 94.0198379,30.1201738 94.2061908,30.0364365 C94.4028967,29.9526993 94.6306613,30.0178282 94.7238378,30.1853028 C94.868779,30.4458187 96.1421905,32.7253329 95.9868964,33.7115717 C95.9661905,33.8790462 95.8005435,34 95.6141906,34 Z" id="Path" fill="#26192A"></path><path d="M93.6141906,37 C93.5934847,37 93.5831318,37 93.5624259,37 C93.3450142,36.9720876 93.200073,36.7953089 93.2311318,36.6092261 C93.3243083,36.0323695 92.5478378,34.3948409 92.0405438,33.5016435 C91.9473673,33.334169 92.0198379,33.1201738 92.2061908,33.0364365 C92.3925437,32.9526993 92.6306613,33.0178282 92.7238378,33.1853028 C92.868779,33.4458187 94.1421905,35.7253329 93.9868964,36.7115717 C93.9765435,36.8790462 93.8005435,37 93.6141906,37 Z" id="Path" fill="#26192A"></path><path d="M93.6141906,43 C93.5934847,43 93.5831318,43 93.5624259,43 C93.3450142,42.9720876 93.200073,42.7953089 93.2311318,42.6092261 C93.3243083,42.0323695 92.5478378,40.3948409 92.0405438,39.5016435 C91.9473673,39.334169 92.0198379,39.1201738 92.2061908,39.0364365 C92.3925437,38.9526993 92.6306613,39.0178282 92.7238378,39.1853028 C92.868779,39.4458187 94.1421905,41.7253329 93.9868964,42.7115717 C93.9661905,42.869742 93.8005435,43 93.6141906,43 Z" id="Path" fill="#26192A"></path><path d="M99.6141906,46 C99.5934847,46 99.5831318,46 99.5624259,46 C99.3450142,45.9720876 99.200073,45.7953089 99.2311318,45.6092261 C99.3243083,45.0323695 98.5478378,43.3948409 98.0405438,42.5016435 C97.9473673,42.334169 98.0198379,42.1201738 98.2061908,42.0364365 C98.3925437,41.9526993 98.6306613,42.0178282 98.7238378,42.1853028 C98.868779,42.4458187 100.142191,44.7253329 99.9868964,45.7115717 C99.9661905,45.8790462 99.8005435,46 99.6141906,46 Z" id="Path" fill="#26192A"></path><path d="M96.6141906,46 C96.5934847,46 96.5831318,46 96.5624259,46 C96.3450142,45.9720876 96.200073,45.7953089 96.2311318,45.6092261 C96.3243083,45.0323695 95.5478378,43.3948409 95.0405438,42.5016435 C94.9473673,42.334169 95.0198379,42.1201738 95.2061908,42.0364365 C95.4028967,41.9526993 95.6306613,42.0178282 95.7238378,42.1853028 C95.868779,42.4458187 97.1421905,44.7253329 96.9868964,45.7115717 C96.9765435,45.869742 96.8108965,46 96.6141906,46 Z" id="Path" fill="#26192A"></path><path d="M97.6141906,52 C97.5934847,52 97.5831318,52 97.5624259,52 C97.3450142,51.9720876 97.200073,51.7953089 97.2311318,51.6092261 C97.3243083,51.0323695 96.5478378,49.3948409 96.0405438,48.5016435 C95.9473673,48.334169 96.0198379,48.1201738 96.2061908,48.0364365 C96.4028967,47.9526993 96.6306613,48.0178282 96.7238378,48.1853028 C96.868779,48.4458187 98.1421905,50.7253329 97.9868964,51.7115717 C97.9765435,51.869742 97.8108965,52 97.6141906,52 Z" id="Path" fill="#26192A"></path><path d="M100.614191,53 C100.593485,53 100.583132,53 100.562426,53 C100.345014,52.9720876 100.200073,52.7953089 100.231132,52.6092261 C100.324308,52.0323695 99.5478378,50.3948409 99.0405438,49.5016435 C98.9473673,49.334169 99.0198379,49.1201738 99.2061908,49.0364365 C99.3925437,48.9526993 99.6306613,49.0178282 99.7238378,49.1853028 C99.868779,49.4458187 101.142191,51.7253329 100.986896,52.7115717 C100.966191,52.869742 100.800544,53 100.614191,53 Z" id="Path" fill="#26192A"></path><path d="M96.6141906,40 C96.5934847,40 96.5831318,40 96.5624259,40 C96.3450142,39.9720876 96.200073,39.7953089 96.2311318,39.6092261 C96.3243083,39.0323695 95.5478378,37.3948409 95.0405438,36.5016435 C94.9473673,36.334169 95.0198379,36.1201738 95.2061908,36.0364365 C95.3925437,35.9526993 95.6306613,36.0178282 95.7238378,36.1853028 C95.868779,36.4458187 97.1421905,38.7253329 96.9868964,39.7115717 C96.9765435,39.869742 96.8108965,40 96.6141906,40 Z" id="Path" fill="#26192A"></path></g></g></g></g></svg>