<svg xmlns="http://www.w3.org/2000/svg" xmlns:xlink="http://www.w3.org/1999/xlink" width="1896px" height="214px" viewBox="0 0 1896 214"><title>blue-bg-shape</title><g id="Home-1" stroke="none" stroke-width="1" fill="none" fill-rule="evenodd"><g id="Group-13" fill="#E7EEEF"><path d="M202.083951,61.8965025 C151.523951,62.519859 35.3717136,73.0650259 0,78.2596119 L0,214 L948,214 L1896,214 L1896,70.4679667 L1708.74074,58.7800314 L1606.5284,58.7800314 C1545.92974,64.4940292 1410.68642,72.4938755 1354.50864,58.7800314 C1284.28642,41.6377263 1243.71358,65.0135969 1214.0642,50.9880745 C1190.34469,39.7676566 1095.98631,23.9758535 1051.77284,17.48266 L1011.2,22.1576783 C950.340741,7.3527109 827.061728,10.4698365 792.730864,7.35305375 C765.266173,4.85962755 695.980247,16.1838343 664.77037,22.1576783 C575.822222,12.028072 532.128395,23.7159138 505.6,28.3910879 C479.071605,33.0662621 487.654321,25.2743052 446.301235,28.3910879 C404.948148,31.5078707 265.283951,61.1173068 202.083951,61.8965025 Z" id="Path" fill-rule="nonzero"></path><path d="M104.876951,69.9048006 C104.783796,69.9009914 104.648057,69.9325319 104.60281,69.8846878 C104.408986,69.6783794 104.469732,69.5171723 104.755458,69.481975 C104.822624,69.4731375 104.950691,69.5714159 104.967444,69.6405917 C104.986857,69.717386 104.911864,69.815512 104.876951,69.9048006 Z M273.704092,57.147199 C273.872083,57.0502919 274.040231,56.8753716 274.209631,56.8729337 C274.512109,56.8679055 274.567845,57.0591294 274.354451,57.2793034 C274.284624,57.3522885 274.150137,57.4555951 274.094401,57.431673 C273.949581,57.3711823 273.832003,57.2479153 273.704092,57.147199 Z M289.165863,55.8497719 C289.666392,54.359902 290.505409,54.2666518 291.674303,54.2491293 C291.185672,55.3400956 290.713637,56.0045794 289.165863,55.8497719 Z M254.206569,58.0218005 C254.130261,57.9450062 254.038484,57.8770494 253.984157,57.7889797 C253.944062,57.7248321 253.951827,57.6317343 253.937596,57.5511308 L254.174271,58.0469415 C255.167329,58.1060609 255.78409,56.3367451 257.349916,57.6152784 C256.306444,58.8598333 255.356049,58.944246 254.206569,58.0218005 Z M192.138936,59.3745378 C191.67739,59.8351511 191.217098,60.2957644 190.755552,60.7562253 C190.97928,61.1249597 191.265006,61.5150259 190.749133,61.8497819 C190.627484,61.9291664 190.370096,61.8095563 190.174863,61.7806061 C190.384343,61.4307655 190.593823,61.0809249 190.804556,60.7310843 C190.363677,60.6178737 189.637072,60.5046631 189.84389,60.0024529 C190.282265,58.9392178 191.221012,58.9555214 192.179016,59.4135444 L192.264499,59.2914963 L192.138936,59.3745378 Z M166.771317,62.1593969 C168.925456,64.1955118 173.85701,64.275963 175.889657,62.1720436 C177.336605,60.6757741 178.72265,59.5092325 180.906536,60.7839565 L180.858628,60.7373314 C182.336576,61.3111553 183.934919,59.3620435 185.392044,60.9626861 C185.064985,61.9002162 183.112498,61.0973808 183.400729,62.7193552 C184.620036,63.8808686 185.985571,61.6987836 187.204878,62.8426222 C187.453185,62.8439935 187.700084,62.8452124 187.948392,62.8464314 L187.908312,62.8074248 C187.838485,62.8627349 187.758325,62.9735076 187.700084,62.9634512 C187.541017,62.9370913 187.39103,62.860297 187.238539,62.8023966 C185.926077,63.6116315 184.140329,63.8091025 183.377558,65.3683006 C184.108077,66.169917 184.856758,65.83638 185.491617,65.7470914 C188.597499,65.3128381 191.718723,64.3804885 194.647532,66.3637312 C199.338606,64.0570078 204.748457,66.1686981 209.571512,63.8833065 C212.389006,62.5482441 215.744447,61.8875695 218.899332,61.7315431 C222.699567,61.5427571 226.801027,61.9002162 230.292208,61.1790509 C234.866799,60.2352736 239.892806,61.7051831 244.065377,58.8636425 C245.050655,58.1929115 246.123889,58.856024 247.145379,58.7126442 C247.321229,58.6748566 247.347078,58.1639613 247.6574,58.561646 L247.119483,58.6798848 C246.862173,60.8456662 243.748652,59.7521096 243.338756,62.0347586 C244.855469,62.6853767 247.052256,62.8174812 247.782822,61.8875695 C248.734485,60.6744028 249.41204,59.2826589 251.091684,58.3049032 C251.527428,59.2914963 250.145236,60.4843979 251.409797,61.2596544 C252.564473,61.9668017 253.455306,61.2080011 254.378522,60.8506944 C259.316572,58.9354086 264.611491,59.8452075 269.716296,58.7956857 C267.803888,59.6777533 266.18253,60.8392667 264.219725,61.6798898 C265.212768,62.3707335 266.221326,62.5520533 267.047583,62.3707335 C271.725772,61.3439148 276.808564,61.993314 281.063925,59.2084549 C281.798358,58.7265099 282.640037,58.6760755 283.435216,58.9366275 C285.607517,59.6475841 287.329858,59.0649227 289.366419,58.0129631 C291.345992,56.9899536 293.981247,57.2869219 296.298211,56.9521659 C300.348006,56.3682856 304.245152,54.6492518 308.454014,55.103618 C308.673828,55.1261687 308.92464,55.0457175 309.135373,54.9562766 C310.772388,54.2541575 311.981361,52.5200391 314.232413,53.2146921 C314.678615,53.3531961 315.488042,52.3312532 316,51 C313.579548,52.3362814 311.307674,50.8854181 309.174044,51.868202 L309.206452,51.8342235 C308.871566,53.0448 307.896653,52.7277189 307.009728,52.7667255 C305.319639,52.8409295 303.700786,53.2852392 302.128431,53.886642 C301.957778,53.9483517 301.943531,54.4907875 301.607392,54.0464777 C301.793545,54.0088424 301.979854,53.9696834 302.164754,53.9306768 C302.147845,53.69039 302.131093,53.4501031 302.115593,53.2084449 L302.140017,53.232367 C300.456503,52.5930241 299.018793,53.7356437 297.442524,53.8413882 C296.14431,53.9282389 294.394884,56.3670667 293.681117,52.8899925 C293.483379,51.9261024 290.999519,53.0423621 289.507325,52.8032942 C288.381173,52.6219744 286.484265,52.4810325 287.05697,54.8493131 C287.284611,55.7894335 286.314865,56.2058596 285.496358,56.353201 C284.709006,56.4977998 284.309303,56.1543587 284.160725,55.2596444 C283.712018,52.5654452 280.908772,54.9952832 279.616977,53.4097252 C279.159345,52.847329 278.70281,54.6317293 278.154529,55.274729 C278.513996,55.6181701 279.16185,55.7717587 278.997617,56.4563553 C278.982117,56.5205029 278.797217,56.6111628 278.731304,56.5872407 C278.048537,56.3405544 278.361504,55.6987736 278.18819,55.2469978 C276.733571,55.3199828 275.730163,55.1715748 274.258635,54.1270812 C272.625691,52.969377 269.364657,53.3091612 266.658338,54.5159284 C267.357874,55.3891586 268.407749,56.3946456 266.823824,57.3410131 C265.806233,57.9500344 265.073083,57.8720212 264.743363,56.6274663 L264.76799,56.6564165 C264.109834,56.190775 263.450363,55.7252859 262.762475,55.2395317 C261.517305,55.4370027 261.901352,57.407751 260.471281,57.3976946 C259.270058,56.5532623 260.899228,55.6899362 260.287634,54.794003 C260.051006,54.7071523 259.704518,54.4453813 259.423943,54.5008439 C256.941336,54.9878171 254.299693,54.4517808 251.919216,55.7655115 C251.139534,56.1958032 249.874947,56.7193452 249.246538,55.2671106 L249.269818,55.2885947 C245.020955,55.5099877 240.782409,56.6148196 236.515446,55.4319745 C236.302099,55.3728551 235.995769,55.350152 235.830127,55.4558965 C232.326108,57.6795784 228.294474,55.3036793 225.096847,56.2524847 C220.113472,57.7322983 214.907779,54.7865368 210.265865,57.718585 C209.672338,58.0935666 208.896572,57.8090925 208.295217,57.3548788 C207.690104,56.8980747 206.865178,56.6942042 206.302806,57.0528822 C203.701212,58.710054 200.542413,58.3161786 197.793493,59.3745378 C197.335705,60.0804661 196.497784,60.5422984 196.367212,61.4609347 L196.406039,61.4232994 C195.865586,61.176613 195.25515,60.7700909 195.454297,60.2151608 C195.846172,59.1241945 196.958077,59.5003951 197.81917,59.4072972 C197.711924,58.8459676 197.596851,57.9928503 197.002071,58.0445036 C192.020105,58.4735763 186.837583,55.5628599 182.017189,58.8586143 C181.790956,59.0134218 181.253009,59.0309443 181.050104,58.8775081 C178.379935,56.8476404 176.55943,58.0847291 174.88625,60.2680331 C174.027662,61.3867307 172.857516,61.3565615 171.763616,60.6166547 C170.761461,59.9383053 169.847451,59.4802823 168.532329,59.8942705 C162.35047,61.8485629 155.899637,61.6485016 149.52505,62.1002775 C147.952695,62.2110502 146.318342,62.5934979 144.928227,63.5008588 C144.760235,63.580091 144.726574,64.0897673 144.398107,63.6581042 C144.579093,63.6102602 144.760235,63.5611972 144.941221,63.5133531 C143.992141,62.427415 143.043061,61.5415382 142.095233,63.5133531 L142.119814,63.4895835 C138.447647,63.7839615 134.845307,64.9818913 130.888667,64.4044105 C129.351226,65.1581829 132.136467,67.3011089 129.668108,68.141732 C129.189653,65.7408443 127.729867,64.6661815 125.186514,65.5834465 L125.213599,65.5570865 C123.618074,67.4271186 122.940473,64.6887322 121.677172,64.8900124 L121.697838,64.8686807 C121.616426,64.9139345 121.5311,65.0045944 121.454854,64.9983472 C121.279034,64.9794534 121.106973,64.9140868 120.933658,64.8674617 L120.954324,64.8887935 C118.884259,64.5252396 119.389798,66.8481141 118.253313,67.4408318 C115.221173,65.0902261 113.850471,65.0524384 110.382617,67.3654089 C109.754177,67.7844253 109.475026,68.2311729 108.750926,67.4383939 C107.942752,66.5537361 107.025924,67.4257473 106.166084,67.634646 L106.18675,67.6120953 C106.10659,67.6648152 106.020011,67.7693407 105.947523,67.7605033 C105.769199,67.7378002 105.597137,67.6635962 105.42257,67.609505 L105.443393,67.6308367 C103.339666,66.7286563 101.288858,67.7944817 99.2084592,67.8334883 C94.1039047,67.9253672 88.9952797,68.141732 83.9508452,69.0364463 C81.776196,69.4228556 79.5436189,69.2668291 77.3658385,69.3776018 C75.2647736,69.4845652 73.7085452,70.0483328 71.8705048,70.8561964 C70.6383601,71.3984797 68.5639108,70.6949893 66.8699077,70.9064783 C63.8075508,71.287707 60.4680787,70.2721637 57.7673805,72.5813249 C57.5607184,72.7588355 57.1051224,72.8280113 56.8342698,72.7411606 C51.7319072,71.1115678 46.922316,73.2144206 42,73.8196326 L42.0344437,73.7844353 C46.3367733,76.9732262 50.9036931,77.6514233 56.286302,76.4295715 C60.9737747,75.3649651 65.9853311,75.5511607 70.8199723,75.4630911 C74.2737347,75.4001625 77.6899223,74.9636236 80.7679354,74.0512344 C85.7059076,72.5889434 90.7080703,72.86458 95.6538707,72.2618059 C99.990644,71.7344547 104.309413,70.99211 108.727598,70.9127255 C110.566265,70.8801184 112.353266,70.1438685 114.094864,71.2663753 C114.189271,71.326866 114.358671,71.4149357 114.414251,71.377148 C117.046845,69.6216979 120.450038,72.1297014 123.05946,69.7978371 C124.687394,68.3405743 126.78204,69.553741 128.651706,69.5020877 C133.68158,69.3623648 138.5873,68.451347 143.512434,67.609505 C143.512434,67.609505 143.48394,67.6396742 143.485193,67.6396742 C143.737414,67.396797 143.989636,67.1539199 144.240449,66.9110428 L144.217121,66.938774 C147.677302,67.2672829 150.863187,66.2567677 153.99631,65.0222692 C155.125123,64.5767405 156.225443,64.560437 157.430502,64.7755829 C160.551883,65.3331032 163.322721,63.556169 166.344528,63.3196914 C166.530837,63.3044544 166.656244,62.5394067 166.808735,62.1229806 L166.771317,62.1593969 Z" id="Shape"></path><path d="M1382.12294,59.9048422 C1382.21688,59.901033 1382.35152,59.9325733 1382.39693,59.8847295 C1382.59106,59.6782699 1382.53,59.5172162 1382.24506,59.482019 C1382.17774,59.4731816 1382.04936,59.5713071 1382.03214,59.6406348 C1382.01335,59.7172763 1382.0885,59.8155541 1382.12294,59.9048422 Z M1213.29535,47.1473153 C1213.12783,47.0504089 1212.96031,46.8754896 1212.78966,46.8730517 C1212.48749,46.8680235 1212.4327,47.0592462 1212.64562,47.279419 C1212.71607,47.3524036 1212.84915,47.4555572 1212.90551,47.4316354 C1213.05112,47.3712973 1213.16854,47.2480311 1213.29535,47.1473153 Z M1197.83481,45.8498958 C1197.33381,44.3600347 1196.49463,44.266785 1195.32511,44.2492626 C1195.81359,45.3402225 1196.28641,46.0047024 1197.83481,45.8498958 Z M1232.79365,48.0219117 C1232.87036,47.9451179 1232.96117,47.8771614 1233.01596,47.7890923 C1233.05667,47.7249451 1233.04884,47.6318478 1233.06293,47.5512448 L1232.82652,48.0470525 C1231.83235,48.1061716 1231.2155,46.3368662 1229.64987,47.615392 C1230.69414,48.8599396 1231.64448,48.9443518 1232.79365,48.0219117 Z M1294.86128,49.3746411 C1295.32314,49.8352517 1295.78343,50.2958622 1296.24529,50.7563205 C1296.0214,51.1250527 1295.7349,51.5151166 1296.25155,51.8498707 C1296.3721,51.9291024 1296.63043,51.8096453 1296.82457,51.7806953 C1296.61634,51.4308567 1296.40655,51.0810182 1296.19519,50.7311796 C1296.6367,50.6179697 1297.36314,50.5047597 1297.15648,50.0025525 C1296.71811,48.9393237 1295.77873,48.9556271 1294.82057,49.4136474 L1294.73603,49.2916001 L1294.86128,49.3746411 Z M1320.2291,52.1594839 C1318.0748,54.1955868 1313.14308,54.2760375 1311.1109,52.1721305 C1309.66426,50.6758698 1308.27712,49.509335 1306.09307,50.7840516 L1306.1416,50.7374267 C1304.66365,51.3112473 1303.06515,49.3621468 1301.60755,50.9627801 C1301.93477,51.9003047 1303.8871,51.0973216 1303.59903,52.7194388 C1302.37941,53.8809455 1301.01418,51.6988733 1299.79456,52.8427051 C1299.54719,52.8440764 1299.29982,52.8452954 1299.05245,52.8465143 L1299.09159,52.807508 C1299.16205,52.8628178 1299.24189,52.9735898 1299.29982,52.9635335 C1299.45952,52.9371737 1299.60982,52.8603799 1299.76168,52.8024798 C1301.07368,53.6115576 1302.86005,53.8091798 1303.62251,55.3683688 C1302.89137,56.1699805 1302.143,55.8364454 1301.50892,55.7471574 C1298.40272,55.3129065 1295.28086,54.3805625 1292.35315,56.3637935 C1287.66097,54.0570837 1282.25173,56.1686092 1277.42804,53.8833834 C1274.61149,52.5483288 1271.25635,51.8876581 1268.10005,51.7316325 C1264.30028,51.5428477 1260.19834,51.9003047 1256.70857,51.1791436 C1252.13381,50.2353719 1247.10659,51.7051204 1242.9342,48.8637488 C1241.94942,48.1930218 1240.8754,48.8561304 1239.85461,48.7127514 C1239.67926,48.674964 1239.65265,48.1640717 1239.34265,48.561754 L1239.88123,48.6799921 C1240.13799,50.8456085 1243.25202,49.7522107 1243.66065,52.0348463 C1242.14512,52.6854606 1239.94855,52.8175643 1239.2174,51.8876581 C1238.2655,50.6744985 1237.58759,49.2827627 1235.90767,48.3050128 C1235.47243,49.2916001 1236.85488,50.4844947 1235.58985,51.2597467 C1234.43599,51.9668898 1233.54515,51.2080937 1232.62143,50.8507891 C1227.68345,48.9355145 1222.3885,49.845308 1217.283,48.7957924 C1219.19619,49.6778548 1220.81818,50.8393614 1222.77991,51.6799795 C1221.7873,52.3708192 1220.77904,52.552138 1219.95239,52.3708192 C1215.2743,51.3440066 1210.19072,51.993402 1205.93535,49.2085592 C1205.20107,48.726617 1204.36033,48.6761829 1203.565,48.9367334 C1201.39191,49.6476858 1199.66972,49.0650279 1197.63284,48.0130743 C1195.65389,46.9899185 1193.01895,47.2870375 1190.70182,46.9522834 C1186.65155,46.3684065 1182.75471,44.6493828 1178.54631,45.1037463 C1178.32556,45.1262969 1178.07506,45.0458462 1177.86526,44.9564058 C1176.22762,44.2542908 1175.01896,42.5201826 1172.76759,43.2148315 C1172.32139,43.3533346 1171.51196,42.3313977 1171,41 C1173.42046,42.3364259 1175.69218,40.8855711 1177.82612,41.8683492 L1177.79325,41.834371 C1178.12829,43.0449404 1179.10367,42.7278611 1179.98982,42.7668675 C1181.68069,42.841071 1183.29955,43.2853782 1184.87144,43.8867775 C1185.04209,43.9484868 1185.05618,44.4909194 1185.39279,44.0466122 C1185.20648,44.0088248 1185.02017,43.9698184 1184.83543,43.930812 C1184.85265,43.6905266 1184.8683,43.4500888 1184.88396,43.2085844 L1184.86048,43.2325062 C1186.54352,42.5931672 1187.98077,43.7357801 1189.55735,43.841524 C1190.85525,43.9283741 1192.60562,46.3670352 1193.31955,42.8901338 C1193.51682,41.9262493 1195.9999,43.0425025 1197.49194,42.8032836 C1198.61919,42.6221172 1200.51516,42.4811762 1199.94371,44.8494429 C1199.71512,45.7895578 1200.68581,46.2059815 1201.50307,46.3531697 C1202.29058,46.4979199 1202.69138,46.1544809 1202.83855,45.2597718 C1203.28788,42.5655884 1206.09191,44.9954121 1207.38356,43.4098634 C1207.84072,42.8473182 1208.29788,44.6317081 1208.84585,45.2748564 C1208.48576,45.6182954 1207.83759,45.7718831 1208.00198,46.4564756 C1208.01763,46.5206229 1208.20238,46.6112823 1208.26813,46.5873604 C1208.95075,46.3406754 1208.63919,45.6988985 1208.81141,45.2471252 C1210.26587,45.3201099 1211.26944,45.1717027 1212.74112,44.1272153 C1214.37407,42.9695179 1217.63527,43.3091477 1220.34223,44.5160602 C1219.6424,45.3892852 1218.59186,46.3947663 1220.17628,47.3411283 C1221.19393,47.950146 1221.92664,47.8721333 1222.25699,46.6275857 L1222.23194,46.6565358 C1222.8895,46.190897 1223.5502,45.7252582 1224.23751,45.2396592 C1225.48218,45.437129 1225.0986,47.4078658 1226.52802,47.3976571 C1227.73042,46.5533821 1226.1006,45.6900611 1226.71276,44.7941331 C1226.94917,44.7072829 1227.29517,44.4455135 1227.57542,44.5009757 C1230.0585,44.9879461 1232.69971,44.451913 1235.08102,45.7656359 C1235.86071,46.1959252 1237.12573,46.719464 1237.75355,45.2672379 L1237.73006,45.2887219 C1241.97917,45.5101136 1246.21731,46.6149391 1250.48521,45.4321009 C1250.69813,45.3729818 1251.00499,45.3502789 1251.16938,45.4560227 C1254.67325,47.6795392 1258.7063,45.3038064 1261.90331,46.2526063 C1266.88669,47.7324112 1272.09239,44.7865147 1276.73447,47.7185456 C1277.32784,48.0936774 1278.10283,47.809205 1278.70559,47.3549939 C1279.30993,46.8981925 1280.13501,46.6943232 1280.69707,47.0528468 C1283.29914,48.7101611 1286.457,48.316288 1289.20624,49.3746411 C1289.66497,50.0805653 1290.50258,50.5423948 1290.63252,51.4610257 L1290.59338,51.4232383 C1291.13509,51.1767057 1291.74568,50.770186 1291.54528,50.2152592 C1291.15388,49.1241469 1290.04228,49.5004976 1289.18119,49.4074003 C1289.28765,48.846074 1289.40351,47.9929617 1289.99845,48.0446146 C1294.98026,48.4736849 1300.16248,45.5629856 1304.98304,48.8587206 C1305.20849,49.0135272 1305.74707,49.0310496 1305.9506,48.8776143 C1308.61999,46.8477585 1310.44081,48.08484 1312.11446,50.2681311 C1312.97242,51.3868222 1314.14195,51.3566532 1315.23632,50.6165984 C1316.23832,49.9384053 1317.15264,49.4803849 1318.46777,49.8943707 C1324.65042,51.8486517 1331.10079,51.6485916 1337.47445,52.1003648 C1339.04791,52.2109845 1340.68242,52.5935823 1342.07269,53.5009379 C1342.24021,53.5801697 1342.27309,54.089843 1342.60187,53.6581824 C1342.42183,53.6103387 1342.24021,53.5612759 1342.0586,53.5134322 C1343.00737,52.4275004 1343.95771,51.5416288 1344.90491,53.5134322 L1344.87986,53.4895103 C1348.55281,53.784039 1352.15532,54.9819617 1356.11165,54.4044843 C1357.64909,55.1582523 1354.86385,57.3011658 1357.33284,58.1417839 C1357.81035,55.7407579 1359.27108,54.6661014 1361.81366,55.5835134 L1361.78704,55.5571536 C1363.38241,57.4270223 1364.06033,54.6888043 1365.32379,54.8900834 L1365.30187,54.8687518 C1365.38328,54.9140053 1365.46939,55.0046647 1365.54611,54.9984175 C1365.72146,54.9795238 1365.89367,54.9140053 1366.06589,54.8675328 L1366.04554,54.8888644 C1368.1153,54.5251604 1367.61117,56.8481736 1368.74624,57.4408879 C1371.77886,55.0902959 1373.15035,55.0525084 1376.6182,57.3654654 C1377.24602,57.7844793 1377.5247,58.2312243 1378.24959,57.43845 C1379.05745,56.5537973 1379.9749,57.4258034 1380.83443,57.6347009 L1380.81408,57.6119979 C1380.89393,57.6648699 1380.98004,57.7693948 1381.05205,57.7605574 C1381.23054,57.7378545 1381.40275,57.6636509 1381.5781,57.60956 L1381.55619,57.6308916 C1383.66039,56.7287165 1385.71135,57.7945356 1387.79207,57.833542 C1392.89601,57.9254203 1398.00621,58.1417839 1403.04908,59.0364929 C1405.22374,59.4229 1407.45788,59.2668744 1409.63567,59.3774941 C1411.73517,59.4844569 1413.2914,60.0483735 1415.13101,60.8562324 C1416.36316,61.3985126 1418.43604,60.6950263 1420.13005,60.906514 C1423.19398,61.2877405 1426.53189,60.2722031 1429.23259,62.5813508 C1429.44082,62.7588604 1429.89485,62.8280358 1430.16727,62.7411856 C1435.26964,61.1116023 1440.07768,63.2144428 1445,63.8196513 L1444.96556,63.7844541 C1440.66322,66.9732263 1436.09629,67.6514194 1430.71367,66.4295748 C1426.02619,65.3649747 1421.01463,65.5511692 1416.17998,65.4631001 C1412.72621,65.4001718 1409.31002,64.9636355 1406.232,64.0512517 C1401.29402,62.5889693 1396.29185,62.8646042 1391.34604,62.2618336 C1387.00926,61.7344856 1382.69126,60.9919929 1378.27307,60.9127611 C1376.43346,60.8800019 1374.64708,60.1439087 1372.90611,61.2664089 C1372.81061,61.3267469 1372.64152,61.4149684 1372.58672,61.377181 C1369.95334,59.6217411 1366.54967,62.12973 1363.94134,59.7978793 C1362.31309,58.3406251 1360.21828,59.5537847 1358.34893,59.5021317 C1353.31858,59.3624096 1348.41347,58.4513971 1343.48802,57.60956 C1343.48802,57.60956 1343.5162,57.639729 1343.51463,57.639729 C1343.26257,57.3968533 1343.0105,57.1539776 1342.76,56.9111019 L1342.78349,56.938833 C1339.32346,57.2671875 1336.13741,56.2568307 1333.00459,55.0223394 C1331.87578,54.5768133 1330.77514,54.5605099 1329.56961,54.7756545 C1326.44776,55.3331716 1323.67817,53.5562478 1320.65495,53.3196192 C1320.46864,53.3045347 1320.34339,52.5394914 1320.19152,52.1229154 L1320.2291,52.1594839 Z" id="Shape"></path><path d="M1494.78803,63.9783127 C1494.69441,63.967739 1494.55867,63.992356 1494.51655,63.9375046 C1494.33712,63.7007515 1494.40889,63.5307452 1494.69441,63.5124064 C1494.76306,63.5074499 1494.8832,63.6226048 1494.89568,63.6986037 C1494.90972,63.7830286 1494.82859,63.883975 1494.78803,63.9783127 Z M1663.52763,61.8733081 C1663.70081,61.7799616 1663.88024,61.6025207 1664.04874,61.6114423 C1664.34987,61.6269725 1664.39199,61.8377869 1664.1642,62.0613228 C1664.09087,62.1353391 1663.95045,62.2377724 1663.89584,62.2080337 C1663.75542,62.1326957 1663.64777,61.9911064 1663.52763,61.8733081 Z M1678.98943,61.5408955 C1679.587,59.9634224 1680.42796,59.9207969 1681.59188,59.9827525 C1681.03176,61.1293448 1680.51845,61.815648 1678.98943,61.5408955 Z M1644.07946,61.4685313 C1644.00925,61.3801412 1643.92188,61.3003424 1643.87507,61.2012134 C1643.83918,61.1290144 1643.85323,61.0287289 1643.84386,60.9406693 L1644.04669,61.4934787 C1645.02963,61.6263116 1645.76138,59.7547558 1647.23267,61.2464823 C1646.11243,62.5207858 1645.16069,62.5462289 1644.07946,61.4685313 Z M1582.26969,58.6314588 C1581.77822,59.0976956 1581.28987,59.5642629 1580.79996,60.0304997 C1580.99811,60.4450242 1581.25555,60.8868092 1580.72039,61.2132741 C1580.59401,61.2905947 1580.34594,61.1433881 1580.15403,61.0986148 C1580.3865,60.7346461 1580.61742,60.3705122 1580.85145,60.0067087 C1580.41927,59.8535544 1579.70469,59.6807395 1579.94496,59.151721 C1580.45203,58.0317283 1581.38348,58.1143358 1582.30558,58.6763973 L1582.39919,58.550173 L1582.26969,58.6314588 Z M1556.85679,59.8867626 C1558.86168,62.2389289 1563.75921,62.6678271 1565.92324,60.5320925 C1567.46162,59.0136012 1568.91887,57.8473483 1571.00489,59.3780655 L1570.95964,59.3243707 C1572.39192,60.0475168 1574.11129,58.0494063 1575.45308,59.8821366 C1575.06458,60.8739224 1573.17672,59.8699107 1573.35458,61.6448157 C1574.48886,62.9860313 1575.99292,60.7197768 1577.12876,62.0418274 C1577.37527,62.0604967 1577.62179,62.0790008 1577.8683,62.0975049 L1577.83086,62.0525664 C1577.75753,62.107583 1577.67016,62.2219118 1577.61399,62.2068772 C1577.4564,62.1673908 1577.31286,62.0738791 1577.16464,62.0006889 C1575.80569,62.7851298 1574.01767,62.875172 1573.15331,64.5093138 C1573.82577,65.4272485 1574.5934,65.1182964 1575.22997,65.0655928 C1578.34729,64.8109965 1581.51454,64.01846 1584.2933,66.3671568 C1589.11283,64.1965618 1594.35049,66.8560281 1599.30108,64.71765 C1602.19217,63.468294 1605.57317,62.9860313 1608.7217,63.035761 C1612.51304,63.094908 1616.5665,63.7658462 1620.08636,63.2275757 C1624.69994,62.5234292 1629.59903,64.4618971 1633.93957,61.6767022 C1634.96308,61.0193116 1635.98658,61.8111872 1637.01165,61.7267624 C1637.18952,61.6980149 1637.2488,61.1470228 1637.5312,61.5987207 L1636.98825,61.6894238 C1636.58727,64.0148253 1633.56356,62.6159496 1633.00344,65.0573321 C1634.46693,65.8663901 1636.64344,66.1616293 1637.43291,65.2060256 C1638.45954,63.9594782 1639.22717,62.5006295 1640.96369,61.5590691 C1641.33035,62.6565925 1639.87622,63.8515928 1641.08071,64.7779535 C1642.18223,65.6231935 1643.11836,64.8638653 1644.06073,64.5412003 C1649.10025,62.8110686 1654.30359,64.1623623 1659.45077,63.3805648 C1657.48957,64.2025095 1655.79985,65.3467888 1653.79028,66.1203256 C1654.73266,66.936653 1655.7234,67.202484 1656.55656,67.0637034 C1661.27779,66.2769494 1666.28766,67.3316821 1670.70777,64.6133993 C1671.46916,64.1428669 1672.31012,64.1466669 1673.08399,64.4835403 C1675.19497,65.4034576 1676.9471,64.8922823 1679.04404,63.8952096 C1681.08013,62.9253974 1683.68102,63.4294684 1686.00731,63.2277409 C1690.07481,62.8766589 1694.0643,61.2867947 1698.21917,62.069914 C1698.43604,62.1097308 1698.69192,62.04001 1698.90723,61.9578982 C1700.58291,61.311577 1701.9013,59.5191592 1704.09341,60.4266853 C1704.52715,60.6074306 1705.40087,59.5578195 1706,58.1528309 C1703.50208,59.4310996 1701.34118,57.7037765 1699.15374,58.6193981 L1699.18807,58.5848682 C1698.77305,59.8713976 1697.826,59.4608383 1696.94135,59.4415081 C1695.25475,59.4048304 1693.61496,59.7732599 1692.01105,60.315 C1691.83786,60.3700166 1691.78637,60.955869 1691.48213,60.451798 C1691.67092,60.4238767 1691.85815,60.3946336 1692.04381,60.3652253 C1692.04381,60.1040204 1692.04381,59.8428154 1692.04381,59.5802887 L1692.06721,59.6078796 C1690.43522,58.7994825 1688.92961,59.9361619 1687.35534,59.9412836 C1686.0588,59.9452487 1684.15377,62.4627953 1683.6779,58.6514499 C1683.54684,57.5947345 1681.00212,58.6303023 1679.53395,58.2683162 C1678.42619,57.9942245 1676.54924,57.7102198 1676.95958,60.3123565 C1677.12341,61.3451156 1676.1311,61.7285797 1675.30731,61.8311783 C1674.51315,61.9332811 1674.14026,61.5337912 1674.05133,60.555553 C1673.78765,57.6092735 1670.83571,60.0442125 1669.65774,58.2392384 C1669.24116,57.5988649 1668.667,59.4978464 1668.0788,60.1555675 C1668.41268,60.5522487 1669.04613,60.7632283 1668.83706,61.4924874 C1668.81834,61.5608865 1668.628,61.6461374 1668.56403,61.6157379 C1667.90093,61.3014989 1668.2551,60.6287433 1668.11312,60.1279765 C1666.66212,60.1061682 1665.67449,59.8760236 1664.28122,58.6440152 C1662.73504,57.2781826 1659.46949,57.419937 1656.69698,58.5381123 C1657.33511,59.5313851 1658.31025,60.6920206 1656.67201,61.6061554 C1655.61886,62.1946513 1654.89492,62.0595054 1654.65152,60.6900381 L1654.67337,60.7230811 C1654.05084,60.1735759 1653.42675,59.6242359 1652.77458,59.0509398 C1651.52328,59.1784858 1651.77291,61.3371853 1650.35155,61.2273173 C1649.21415,60.2304099 1650.89139,59.4092912 1650.34375,58.3975144 C1650.1144,58.2871507 1649.78675,57.980016 1649.50435,58.0204937 C1647.00331,58.3753755 1644.41178,57.6122473 1641.95756,58.8687076 C1641.15248,59.2804235 1639.86062,59.7592166 1639.33326,58.1444049 L1639.3551,58.1691872 C1635.11442,58.1143358 1630.82537,59.0160794 1626.6627,57.4405889 C1626.45363,57.3617814 1626.15094,57.316182 1625.97932,57.4189458 C1622.34556,59.5821061 1618.49493,56.7321469 1615.25279,57.5370745 C1610.19767,58.7930391 1605.219,55.2448812 1600.40571,58.0956665 C1599.79099,58.4602961 1599.0374,58.0988056 1598.47104,57.5656567 C1597.9,57.0295339 1597.09336,56.7516423 1596.50984,57.1007416 C1593.81066,58.7137359 1590.69645,58.0685712 1587.89117,59.0231837 C1587.38878,59.7552514 1586.52442,60.1968712 1586.33251,61.1818832 L1586.37464,61.1437185 C1585.85352,60.8393924 1585.27312,60.357295 1585.50871,59.7706164 C1585.9721,58.6172503 1587.05333,59.1014956 1587.91457,59.060357 C1587.84593,58.4457571 1587.78976,57.5146053 1587.19375,57.5293094 C1582.21196,57.6482642 1577.25358,54.1399231 1572.23902,57.3718595 C1572.00343,57.5235269 1571.46671,57.5053532 1571.2748,57.3252688 C1568.75661,54.9440247 1566.86406,56.1563725 1565.05264,58.402636 C1564.12431,59.5535239 1562.96194,59.4396907 1561.92439,58.5633902 C1560.97266,57.7601148 1560.09425,57.2011924 1558.76026,57.5580568 C1552.48037,59.2440762 1546.07877,58.5805726 1539.70995,58.6276589 C1538.1388,58.6385631 1536.48809,58.9392544 1535.04488,59.8246418 C1534.87326,59.8986581 1534.80461,60.4478328 1534.50661,59.9581355 C1534.69071,59.9188143 1534.87326,59.8783366 1535.05736,59.8390155 C1534.18676,58.5982506 1533.30211,57.5740827 1532.22712,59.6419139 L1532.25364,59.6177925 C1528.58244,59.681896 1524.91904,60.728368 1521.02316,59.8292678 C1519.44422,60.5383707 1522.07007,63.0501347 1519.55812,63.7884807 C1519.24451,61.1575966 1517.86527,59.8937016 1515.27374,60.7100291 L1515.30339,60.6832642 C1513.59027,62.5959586 1513.10036,59.5862365 1511.83033,59.7165911 L1511.85218,59.694948 C1511.76949,59.7382343 1511.67743,59.8304243 1511.60254,59.8183636 C1511.42936,59.785651 1511.26241,59.7030435 1511.09235,59.6405922 L1511.11263,59.6652093 C1509.0781,59.1282604 1509.42447,61.6767022 1508.2543,62.2392594 C1505.39754,59.4857857 1504.03702,59.349979 1500.43291,61.6121031 C1499.78074,62.0220016 1499.47181,62.4860906 1498.8056,61.5780688 C1498.06137,60.5649703 1497.09091,61.4449055 1496.22187,61.6112771 L1496.24371,61.5883122 C1496.16102,61.6398593 1496.06741,61.7469186 1495.99564,61.7323797 C1495.82089,61.6955367 1495.65395,61.6031815 1495.48389,61.5326347 L1495.50417,61.5572517 C1493.47276,60.4351113 1491.36178,61.4463925 1489.2898,61.3442896 C1484.20816,61.0900236 1479.11247,60.9702428 1474.03707,61.5888078 C1471.84808,61.8561257 1469.6388,61.5324695 1467.46541,61.5014091 C1465.37003,61.4716704 1463.78485,61.9737588 1461.90166,62.7205307 C1460.63944,63.2219583 1458.62519,62.3170756 1456.92611,62.4284306 C1453.85403,62.6286712 1450.60253,61.2986902 1447.76137,63.6098832 C1447.54449,63.7874894 1447.08735,63.8309409 1446.82211,63.7180991 C1441.85904,61.6013642 1436.93498,63.5433016 1432,63.8572101 L1432.03589,63.8215237 C1436.10026,67.569757 1440.59526,68.6200289 1446.03108,67.6708686 C1450.76323,66.8438022 1455.7341,67.3926465 1460.54739,67.6323735 C1463.98612,67.8035362 1467.41237,67.5677744 1470.53593,66.7940724 C1475.54424,65.5541337 1480.49951,66.1988027 1485.4579,65.889355 C1489.80624,65.6193936 1494.1499,65.1153226 1498.54816,65.3357194 C1500.37986,65.427579 1502.20532,64.7549886 1503.86228,66.0900912 C1503.95277,66.162125 1504.11504,66.2691843 1504.17276,66.2321761 C1506.90783,64.5152616 1510.12345,67.464515 1512.87568,65.1224268 C1514.59193,63.6586217 1516.59369,65.1161486 1518.4566,65.1899997 C1523.46803,65.3872665 1528.40614,64.7414409 1533.3614,64.1719448 C1533.3614,64.1719448 1533.3302,64.2026747 1533.33176,64.2026747 C1533.59856,63.9573304 1533.86535,63.7121513 1534.13215,63.4666418 L1534.10719,63.4950588 C1537.52564,64.0901633 1540.76154,63.2176628 1543.95999,62.0989918 C1545.113,61.6952063 1546.20827,61.7538576 1547.39092,62.0700792 C1550.45832,62.8895457 1553.33225,61.1590835 1556.3544,61.1124929 C1556.54006,61.1090234 1556.71637,60.2898873 1556.8958,59.8499197 L1556.85679,59.8867626 Z" id="Shape"></path><path d="M435.570747,31.7660849 L435.434729,31.5842091 L435.647355,31.5496795 L435.570747,31.7660849 Z M415.663602,33.5275416 C415.57136,33.3824279 415.479117,33.2374631 415.388438,33.0935401 C415.565106,33.0186763 415.760534,32.8612094 415.912187,32.8932088 C416.038825,32.9202967 416.112306,33.1710829 416.209239,33.3209592 C416.027881,33.3898696 415.846523,33.4586312 415.663602,33.5275416 Z M511.817631,26.43126 C511.631583,26.3636891 511.337659,26.3452336 511.275121,26.2211056 C511.101581,25.8708979 511.359547,25.6409486 511.69412,25.5770986 C511.864534,25.5450992 512.189727,25.6360371 512.239757,25.7515327 C512.392973,26.0957869 512.139698,26.3035599 511.817631,26.43126 Z M446.084809,27.9874738 C445.60171,28.0059293 444.987282,28.6636291 444.460406,27.7515711 C445.015424,27.4564322 445.507904,27.3138487 446.084809,27.9874738 Z M448.469039,27.3102767 C448.580043,26.6329307 448.636326,26.0380391 449.524354,25.921204 C449.624413,25.9076601 449.898013,26.2161941 449.871435,26.3255874 C449.7276,26.8825263 449.443056,27.3470388 448.469039,27.3102767 Z M438.875837,27.869448 C439.982745,26.9795664 441.039623,26.8886285 442.795354,27.2032647 C441.216291,27.7847612 440.303248,28.6045418 438.875837,27.869448 Z M518.294919,24.5505868 C518.165154,25.8819117 517.950964,26.7878675 516.593908,27.2745564 C516.071722,25.7110497 516.992582,25.2094773 518.294919,24.5505868 Z M459.130064,26.9905801 C459.047202,26.9119955 458.947142,26.8442758 458.890859,26.7521472 C458.848646,26.6845763 458.865844,26.585006 458.856463,26.5001703 C458.936198,26.6710324 459.017497,26.8430851 459.098795,27.0151378 C460.136912,27.118429 461.057772,27.3385553 460.959276,28.6610989 C459.255138,29.0668218 459.420861,27.8128909 459.130064,26.9905801 Z M432.396986,28.2971985 C431.97955,28.3205655 431.466745,28.5848956 431.269753,27.9911947 C431.229104,27.8645365 431.43704,27.5241519 431.560551,27.5092685 C432.192177,27.4306838 432.232826,27.9371677 432.3579,28.3415512 C432.962947,28.2198045 433.478879,27.4540509 434.212127,28.1054996 C433.786874,28.6685406 433.87599,29.7599442 432.726869,29.4859399 C432.525187,29.4380152 432.503299,28.7115538 432.396986,28.2971985 Z M413.390376,33.0037928 L413.268428,32.936222 L413.35129,33.043234 L413.462293,33.1194373 L413.390376,33.0037928 Z M481.638755,30.357366 C484.201216,30.9227884 486.536979,32.7223467 489.401182,31.6566915 L489.369913,31.6861607 C489.015015,30.9830664 489.021269,30.3807331 489.940565,30.1201238 C490.67225,29.9136903 491.05998,30.3267061 491.131898,30.9375231 C491.260099,32.0180617 491.560278,32.9042225 492.907954,33.0087044 L492.876685,33.0469549 C492.821965,32.6092325 492.543675,31.9909739 492.746921,31.762364 C495.2359,28.9770746 499.388368,27.3753174 502.12906,28.3845643 C505.201198,29.5142184 505.995421,27.8990661 507.566667,26.9082746 C509.044108,27.5363563 507.02572,28.5566171 508.318677,29.3371053 C509.51001,29.7428283 510.462138,27.9395491 511.923945,28.3488441 C512.164713,28.1214249 512.403917,27.8941546 512.644685,27.6667354 C513.04805,26.9463763 513.499881,26.2605467 514.527054,26.6869577 C514.855374,26.8234389 515.041423,27.2093669 514.795964,27.5253426 C514.13776,28.3747413 513.362299,27.9568139 512.611853,27.6359267 C512.372649,27.8645365 512.135007,28.0932952 511.895803,28.321905 C512.305421,28.7115538 512.797901,29.4920421 513.109024,29.4305734 C515.588623,28.942545 517.983797,28.0342079 520.561891,29.2683438 C521.046555,29.4994838 521.651602,28.5517055 521.67818,27.828965 C521.731337,26.2493842 519.959971,27.7441294 519.519084,26.3833352 C522.06591,25.8314568 523.920138,23.7406293 527.117351,24.4203566 C529.543793,24.9366636 532.085929,23.8537435 534.562401,23.4690063 C538.197374,22.9059653 541.841728,21.4186618 545.873812,23.3914635 C547.79683,24.3318001 551.053453,25.0411454 553.458008,22.9870801 C553.694085,22.7610004 553.931727,22.5335813 554.167804,22.3073528 C554.558662,21.8562353 555.024564,21.6374485 555.587398,21.9964374 C555.685894,22.0590968 555.72029,22.4328203 555.638991,22.4954796 C555.083974,22.9293323 554.636833,22.4302901 554.145916,22.2851764 C553.908275,22.5102142 553.669071,22.7351032 553.429866,22.960141 C555.165272,24.3969896 556.944455,25.4922629 559.106678,23.6263244 L559.070719,23.6607052 C560.532525,22.5015818 559.85556,21.0105575 559.764881,19.6092804 L559.79615,19.6387496 C558.016967,18.9676547 556.248729,18.3886884 554.846333,20.2939192 L554.863531,20.2754638 C551.341124,19.1630745 547.90158,19.8539644 544.32758,20.2632593 C541.009983,20.6442757 537.794009,21.6706386 534.429509,21.6533738 L534.468595,21.6152722 C533.750981,22.3713516 533.031804,23.3448783 532.307936,21.6178024 L532.342331,21.6498018 C527.036052,22.3479846 521.723519,21.9104111 516.321871,23.2009553 C510.010307,24.7092444 503.409508,26.1018891 496.69458,25.5401876 C495.557966,25.4443382 494.407283,25.2389465 493.572411,26.4657896 C492.928278,27.4110377 491.765087,27.2794679 490.72697,27.0237702 C486.829341,26.0637875 486.830904,26.0564946 483.790034,28.7987708 C482.936402,26.3047506 481.108753,26.2089012 478.77768,26.639033 C477.237702,26.9241999 475.549198,26.4989797 473.929485,26.3760423 C471.93455,26.2260171 470.03811,26.3232061 468.065062,26.9599202 C466.13579,27.5830904 463.972004,27.7674964 462.233471,26.1030798 C461.84105,25.7257843 461.264145,25.4037064 460.723198,25.3066662 C458.068495,24.8321818 455.53574,24.1610869 452.960772,23.2932327 C450.398311,22.4290994 447.040065,22.9342438 444.007012,23.3582734 C438.308312,24.1536451 432.601795,25.009146 427.070382,26.4387017 C423.901311,27.2572916 420.036514,26.7411335 417.563168,29.9689079 C417.181692,27.8240535 415.741773,27.4725063 413.982915,27.9273447 C412.955742,28.1928655 411.948894,28.5615286 412.672762,30.0415392 C413.088634,30.8945099 412.888515,30.9830664 411.250041,30.9954197 C410.993639,31.2485872 410.932665,31.7537316 410.362013,31.6160597 C410.412043,31.0457258 410.956116,31.1932208 411.278183,31.0248889 C410.274461,29.3482679 409.162863,28.6721127 407.020965,29.7477398 C405.572291,30.4765825 403.564535,29.9578942 402.082248,31.0298005 L402.124773,30.9818757 C401.913085,31.6284129 401.875562,32.1962167 402.794859,32.3326979 L402.763903,32.3646974 C403.024683,32.3635067 403.28687,32.3635067 403.549057,32.3621672 L403.520603,32.3352281 C409.233217,31.7034255 413.592058,35.4832273 418.740431,37 C418.881139,35.6232806 417.650721,35.9318146 417.36305,35.051756 C418.308924,34.5845644 419.468989,34.2011666 418.712289,32.5662193 C418.207301,31.4771971 418.934296,29.978731 420.51336,30.9854478 C422.64275,32.3413303 424.798719,31.265852 426.903095,31.6111481 C427.90838,31.775908 428.960568,30.555316 429.80013,32.5208248 C430.298864,33.6860503 431.927957,32.0659865 433.516401,31.0592697 C432.564273,33.4008834 433.866609,33.8531915 435.28933,34.002026 C436.058537,34.0831409 437.615713,35.0861368 437.29521,33.0026022 C437.218602,33.0738939 437.152938,33.1612598 437.063822,33.2115658 C436.998158,33.2496675 436.902789,33.2410351 436.821491,33.2521977 C436.991905,33.1820966 437.160755,33.1119955 437.329605,33.0420433 C437.415594,31.1146361 439.505899,29.851031 442.013639,30.5798737 C444.876279,31.413347 447.738918,30.5073913 450.66253,30.9585087 C452.862275,31.2988933 451.520853,28.9205175 451.353566,27.6765585 L451.206604,27.4982547 L451.395779,27.634736 C452.155605,27.3568619 452.885727,26.9438461 454.117709,27.2770866 C452.779414,29.3765465 452.876346,31.205574 455.596713,32.1655568 C455.917216,32.278671 456.480051,32.587205 456.484741,32.5797633 C458.329588,29.2732553 462.644653,32.1089996 464.799058,29.542497 C465.454135,28.7631994 465.884078,29.1208488 466.881546,29.5904217 C468.491878,30.3487336 470.741653,30.1336677 472.677179,29.938248 C474.592379,29.7440189 476.254305,30.1201238 477.972514,30.780205 C479.232638,31.2633218 480.649105,31.9061382 481.676278,30.3131622 C481.521498,30.2000479 481.060286,30.5134935 481.190051,29.9997167 C481.34014,30.1189331 481.49023,30.2381496 481.638755,30.357366 Z" id="Shape"></path><path d="M373.853661,39.8963424 C377.892316,37.8048535 382.431476,37.36267 386.742962,37.2463718 C390.30487,37.1493263 394.116166,36.4125624 397.661082,37.9444739 C398.370537,38.2507936 399.009975,37.9936228 399.554378,37.4260627 C400.587486,36.3491698 401.42958,36.9904532 402.235171,37.7776182 L402.20921,37.7530437 C404.828797,37.7466262 407.284906,39.5008034 410,38.4783812 L409.977972,38.5184516 C409.425702,34.8056754 407.951407,33.180788 404.445512,33.9086298 C402.17664,34.3791444 401.304808,33.4315412 400.139218,32.2073581 C399.845461,32.2914121 399.554378,32.3831359 399.255586,32.4477808 C399.229467,32.4529461 399.164485,32.2732552 399.116495,32.1788706 C399.417963,32.1297217 399.71943,32.0807293 400.020897,32.0303282 C400.325039,30.8823729 401.118987,30.2604985 402.239105,29.9890839 L402.196151,30.0407372 C400.631699,27.9724141 399.328278,29.4487592 398.260083,30.5087474 C397.558337,31.2054408 397.311468,32.3533961 396.745036,33.5401697 C393.047971,32.2021928 389.042987,32.5744096 385.483753,33.1368044 C382.15597,33.660381 378.713641,34.8017623 375.3064,35.1871272 C371.461276,35.6239888 368.111307,37.9017426 364.008928,37.4855422 C361.832416,37.2643722 358.861799,37.2721985 358.16792,40.6423412 C358.100263,40.9732353 357.317959,41.5044816 357.115302,41.4115057 C354.550155,40.2259843 351.337861,42.4198406 349.062538,39.8770898 L349.088499,39.9016642 C345.360438,39.6003534 341.63096,39.1428304 338.113264,41.0378802 C335.845808,42.2595589 333.524856,43.3866964 330.823294,43.2743113 C330.489414,43.2600676 330.015028,43.3480347 329.826689,43.5729613 C327.455073,46.3935443 324.145384,45.2831549 321.190501,45.7032684 C319.200911,45.9876746 317.263401,46.5370778 315.787219,48.063824 C315.186959,48.6855418 314.62808,49.3513997 315.319441,50.1980442 C315.882096,50.8897288 316.75141,51.2943463 317.516879,50.7410299 C319.542658,49.2737633 322.296301,49.5090206 324.193531,47.8064967 C324.743126,47.3114076 325.374697,47.0943073 326.121914,47.0722372 C329.621358,46.9714351 330.341198,46.7504216 333.622408,44.8746243 C334.185063,47.7884963 335.930144,47.1058901 337.743038,46.2138534 L337.713143,46.2514194 C338.378385,44.9832528 339.797453,44.0693025 338.919013,42.2284104 C340.829145,42.6602632 340.753778,43.9154383 341.21243,45.1034641 C345.876205,42.7546479 350.802583,43.810723 355.559819,43.2703982 C356.602053,43.1526913 357.900124,43.4798288 358.599352,42.7249081 C361.788203,39.2797899 365.756683,40.2932901 369.621318,40.5816094 L369.800688,40.4329106 L369.632961,40.5944445 C371.965557,41.005636 372.066885,38.7291345 373.099993,37.5553525 C373.813381,38.2792812 373.098734,39.3120341 373.897874,39.856272 L373.853661,39.8963424 Z" id="Path"></path><path d="M620.629508,16.0797204 C620.372053,15.9225988 620.142684,15.8592285 620.058426,15.714689 C619.883669,15.4194724 619.893031,15.0823823 620.309639,14.9974845 C620.471914,14.9645258 620.837032,15.1394155 620.835472,15.2167181 C620.832351,15.4942279 620.712205,15.7705408 620.629508,16.0797204 Z M624.280687,15.4638316 L624.965673,14.0546786 L625,14.0888801 C622.687587,13.0535659 620.175451,13.7518054 617.785021,13.294327 C615.975035,12.9471099 616.109223,15.2876836 614.776699,15.712234 C614.071429,15.1368838 614.938974,14.3993486 614.477115,13.7847487 C614.097954,13.2803794 613.710992,12.906556 613.060333,13.0206072 C612.520458,13.1169209 612.425277,13.4679432 612.428398,14.0267987 C612.43776,15.8833185 611.236304,15.6970435 610.173717,15.0317014 C607.379161,13.2816683 605.506761,13.3209487 602.479716,15.4194724 C602.26595,15.6741811 602.710645,16.2228789 602.07715,16.2862493 C602.2207,16.0062231 602.365811,15.7261969 602.509362,15.4460787 C601.815014,14.2574175 600.875693,14.024267 599.68984,14.7453075 L599.716366,14.7706403 C598.680305,14.0356522 598.076456,14.6059082 597.566227,15.4587528 L597.594313,15.4295994 C592.615291,13.8214974 587.561373,15.2268604 582.544903,15.1596848 C581.705444,15.1482843 580.848821,16.2546408 580,16.8438465 L580.040569,16.7932117 C580.037448,17.0465395 580.035888,17.3000207 580.035888,17.5547294 L580.021845,17.523121 C582.835125,17.369682 585.649965,17.0516029 588.463245,17.5332479 C588.545943,17.0390209 588.307212,16.4231168 589.010922,16.1392547 C589.276179,16.7995027 588.95319,17.1961425 588.442961,17.5166765 C588.458564,17.7410043 588.474168,17.9665596 588.489771,18.1908874 C592.548197,17.0985553 596.533287,19.2212303 600.633842,18.4759771 C601.484223,18.321464 600.544903,19.2022038 600.415395,19.6039071 L600.38887,19.5784362 C601.042649,19.8306899 601.88991,20.2412927 602.384535,19.8154995 C604.785888,17.7422318 607.74896,19.0766907 610.403086,18.5456384 C612.559466,18.1161627 615.054438,18.990458 617.393377,19.2224578 C619.507628,19.4328226 621.200589,18.8397809 623.057386,18.4735221 C624.940707,18.1021997 624.196429,16.5676564 624.313454,15.4283565 C624.194868,15.2876836 623.743932,15.5449241 623.887483,15.0874458 C624.018551,15.2128975 624.149619,15.3383799 624.280687,15.4638316 Z" id="Shape"></path><path d="M386.29618,41.4928269 C385.835773,42.4828569 385.236582,42.9771003 384.145099,42.3624687 C384.716256,41.0848446 385.60041,41.614587 386.314048,41.5111767 L386.433578,41.3695233 L386.29618,41.4928269 Z M394.616001,48.4400151 C396.437757,50.3194088 398.694504,49.9865405 400.888868,49.9625315 L400.857137,49.9951152 C400.452645,47.4796534 398.291244,46.6907848 396.787567,46.4769328 C393.599532,46.020761 390.718178,44.9614477 387.942338,42.896327 C390.417967,42.5253873 392.884662,42.0381752 395.39079,43.335521 C398.221313,44.7999011 401.151033,45.8310896 404.343997,45.3466214 L404.313499,45.4033856 C404.42163,44.5534655 405.336282,43.961471 404.866942,42.6881343 C401.47666,43.1655713 398.62827,41.6939884 395.543437,39.907887 C392.609866,38.2126771 388.802308,39.3527636 385.384146,39.6643667 C384.253231,39.7677771 383.148964,40.3158693 382.001567,39.73365 C381.314577,39.3853473 380.654388,39.357051 380.21416,40.2067996 C379.808281,40.987265 380.025777,41.7435499 380.47879,42.344119 C381.495104,43.6894829 382.024364,45.9797741 384.409575,44.8055604 C384.954084,44.5364876 385.95022,44.6073143 386.391681,45.0024346 C388.821408,47.1750815 391.832612,47.4980032 394.640184,48.4653961 L394.734298,48.3252862 L394.616001,48.4400151 Z" id="Shape"></path><path d="M579.959055,17.6066379 C579.919685,17.0448933 579.990551,16.0814688 579.462992,16.1006635 C577.387402,16.1748708 575.070866,15.3240276 573,17.5349093 C574.811024,17.976435 576.675591,17.5913007 577.847244,18.9756774 L577.825197,19 L578.593701,19 L578.571654,18.9769167 C579.04252,18.7491824 579.511811,18.5200538 579.982677,18.2923195 L579.995276,18.3243882 C579.752756,18.0659795 579.781102,17.8100496 580,17.5553589 L579.959055,17.6066379 Z" id="Path"></path><path d="M564,19.1104945 C565.19161,19.8536132 566.463536,20.2071925 567.992476,19.874353 C568.093238,18.0054336 567.170324,17.2387318 565.918842,17.0315015 C564.819232,16.8491924 564.029206,17.4473001 564,19.1104945 Z" id="Path"></path><path d="M534.08327,30 C534.3644,29.0788534 534.645531,28.1587779 535,27 C533.528648,27.1136897 532.339954,27.4979088 531,28.1448536 C531.702827,29.6056819 533.294882,29.1507702 534.106188,29.9723044 L534.08327,30 Z" id="Path"></path><path d="M570.034774,24.02515 C571.820417,25.84865 574.87531,24.10605 577,24.97485 C574.970939,23.77485 572.321162,24.40335 570,24.05815 L570.034774,24.02515 Z" id="Path"></path><path d="M524,27.6713923 C524.917849,27.9988282 525.608056,29.7739477 526.718944,28.6081018 C527.281673,28.0176173 526.917447,27.0506618 526.345613,26.5208985 C525.09814,25.3683426 524.46803,26.2899291 524.029138,27.7130951 L524,27.6713923 Z" id="Path"></path><path d="M542,25.3240989 C543.542938,25.9244989 544.622243,26.1251989 546,25.4380989 C544.768653,24.9862989 543.621774,25.1035989 542,25.3240989 Z" id="Path"></path><path d="M560.020453,23.4771192 C559.898271,23.8359308 560.330609,24.0223148 561.127145,23.9978661 C561.994171,23.9708439 562.84005,23.8326643 562.990429,23.4182247 C563.075016,23.1893772 562.586286,23.0339747 562.024717,23.009526 C561.113047,22.9677554 560.335308,23.0527813 560.020453,23.4771192 Z" id="Path"></path><path d="M571.419173,17.9987762 C571.727173,17.9102329 571.934173,17.7115328 571.980173,17.4362768 C572.036173,17.1025368 571.809173,16.9427957 571.462173,17.0185342 C571.140173,17.0905494 570.999173,17.3342931 571.012173,17.6282567 C571.022173,17.8487521 571.127173,18.0160308 571.419173,17.9987762 Z" id="Path"></path><path d="M574.965836,21.6124821 C574.086121,21.3456821 573.19573,21.1573821 572,21.4736821 C573.086833,21.9592821 574.083986,21.4629821 575,21.5942821 L574.965836,21.6124821 Z" id="Path"></path><path d="M565.12186,24.1546061 C565.24686,24.4668061 565.29186,24.8575061 565.75986,24.8451061 C565.80886,24.8442061 565.90086,24.7509061 565.89486,24.7129061 C565.82286,24.2620061 565.42686,24.2719061 565.10486,24.1777061 L565.12186,24.1546061 Z" id="Path"></path><path d="M559.4905,17.4905 L559.5095,17.5095 L559.4905,17.4905 Z" id="Path"></path><path d="M572.4915,19.49135 L572.5085,19.50865 L572.4915,19.49135 Z" id="Path"></path><path d="M1056.42911,21.7660714 L1056.56669,21.5841951 L1056.3525,21.5498143 L1056.42911,21.7660714 Z M1076.33633,23.5275326 C1076.42857,23.3825674 1076.52081,23.2374534 1076.61149,23.0936788 C1076.43482,23.018666 1076.23939,22.8613475 1076.08774,22.8931982 C1075.9611,22.9202861 1075.88762,23.171073 1075.79069,23.3209497 C1075.97205,23.3898603 1076.15341,23.4587709 1076.33633,23.5275326 Z M980.181953,16.4313815 C980.369565,16.3638105 980.661927,16.3453549 980.724465,16.2212266 C980.898006,15.8708692 980.640039,15.6409193 980.305464,15.5770691 C980.13505,15.5450696 979.809855,15.6360077 979.759825,15.7516525 C979.606609,16.0957588 979.859885,16.3035323 980.181953,16.4313815 Z M1045.91501,17.9875994 C1046.39968,18.0059061 1047.01254,18.6636076 1047.54098,17.7515472 C1046.9844,17.4565564 1046.49192,17.3139726 1045.91501,17.9875994 Z M1043.53077,17.3102517 C1043.41977,16.632904 1043.36349,16.0380108 1042.47545,15.9211754 C1042.37539,15.9077803 1042.10179,16.2163151 1042.12837,16.3257087 C1042.27221,16.8825002 1042.55675,17.3471628 1043.53077,17.3102517 Z M1053.12557,17.8695733 C1052.0171,16.9795405 1050.96022,16.8886024 1049.20448,17.2032394 C1050.78355,17.7847374 1051.69659,18.6045201 1053.12557,17.8695733 Z M973.704642,14.5506738 C973.83597,15.881883 974.048597,16.7878411 975.405659,17.2745313 C975.927846,15.7110205 975.008546,15.2095957 973.704642,14.5506738 Z M1032.86971,16.9907031 C1032.95257,16.9119695 1033.05263,16.8443984 1033.11048,16.7521208 C1033.15113,16.6845497 1033.13393,16.5849792 1033.14331,16.5001433 C1033.06358,16.6710057 1032.98228,16.8432077 1032.90254,17.0152609 C1031.86286,17.1185523 1030.94199,17.3385303 1031.04049,18.6610774 C1032.74464,19.0668014 1032.57891,17.813016 1032.86971,16.9907031 Z M1059.60288,18.2973249 C1060.02188,18.3206919 1060.53313,18.5848739 1060.73012,17.9911714 C1060.77077,17.8646618 1060.56283,17.5241275 1060.43932,17.5093928 C1059.80769,17.4306591 1059.76704,17.9371444 1059.64197,18.3415288 C1059.03692,18.2197819 1058.52099,17.4540262 1057.78774,18.1054767 C1058.21299,18.6685191 1058.12387,19.7600744 1059.273,19.4859205 C1059.47468,19.4379956 1059.49657,18.7115324 1059.60288,18.2973249 Z M1078.60956,23.0039314 L1078.73151,22.9363603 L1078.65021,23.0432238 L1078.53921,23.1194273 L1078.60956,23.0039314 Z M1010.36094,20.3573489 C1007.79847,20.9229216 1005.4627,22.7224845 1002.59848,21.6566777 L1002.62975,21.686147 C1002.98465,20.9830509 1002.9784,20.380716 1002.0591,20.1202549 C1001.32741,19.913672 1000.94124,20.3266889 1000.86776,20.9376562 C1000.74112,22.0180489 1000.43938,22.9043608 999.091698,23.0088429 L999.122967,23.0469447 C999.177687,22.60937 999.457542,21.9909609 999.252732,21.7623505 C996.765307,18.9770539 992.612824,17.3754414 989.870559,18.3845421 C986.798409,19.5141991 986.004184,17.8990426 984.432932,16.9082486 C982.955486,17.5363319 984.973881,18.5565953 983.68092,19.3372344 C982.489583,19.7428095 981.537451,17.9395257 980.075639,18.3489706 C979.83487,18.1215508 979.595665,17.8941311 979.354896,17.6667113 C978.953093,16.9463503 978.499697,16.260519 977.47252,16.6870799 C977.144199,16.8234127 976.95815,17.2094905 977.203609,17.5253182 C977.861815,18.374719 978.637279,17.9567906 979.387728,17.6359025 C979.626933,17.8646618 979.864575,18.0932722 980.103781,18.3218826 C979.694161,18.7115324 979.201679,19.4920227 978.890555,19.4305539 C976.410948,18.942673 974.015765,18.0341847 971.437661,19.2683238 C970.952996,19.4994645 970.347947,18.5516837 970.321368,17.8289414 C970.269775,16.2495053 972.039583,17.7441055 972.480472,16.3834567 C969.9352,15.831428 968.079403,13.7406249 964.882178,14.4203688 C962.455727,14.9366325 959.913582,13.8537096 957.437101,13.4689714 C953.802115,12.9059884 950.157748,11.4186662 946.125649,13.3915475 C944.202624,14.3318865 940.94599,15.0411146 938.541427,12.9871183 C938.305348,12.7609488 938.067706,12.5335588 937.831627,12.3073744 C937.440768,11.8562558 936.974865,11.6374536 936.412028,11.9963838 C936.313532,12.0590731 936.279136,12.4327529 936.360435,12.4954422 C936.915454,12.9293555 937.362597,12.4302972 937.853515,12.2852427 C938.091157,12.5101917 938.330363,12.7351557 938.569568,12.9600899 C936.834156,14.3970315 935.054967,15.4922332 932.892736,13.6263048 L932.928695,13.6607303 C931.466884,12.5015891 932.145414,11.0105609 932.23453,9.60928018 L932.203261,9.63877926 C933.984014,8.96763798 935.750695,8.38868505 937.153096,10.2939506 L937.135899,10.2755099 C940.658317,9.16308799 944.097874,9.85390525 947.671887,10.263231 C950.989496,10.6442782 954.207045,11.6706586 957.569993,11.6534533 L957.530907,11.6153367 C958.248524,12.371299 958.967704,13.3448282 959.691574,11.6177925 L959.657179,11.6497473 C964.963477,12.3479468 970.276029,11.9103573 975.677697,13.2010239 C981.989283,14.7092425 988.590106,16.101861 995.305059,15.5401581 C996.441676,15.4443084 997.592364,15.239065 998.427238,16.4657624 C999.071374,17.4110129 1000.23613,17.2794429 1001.27425,17.0238933 C1005.17033,16.0637593 1005.16877,16.0564664 1008.20965,18.7987497 C1009.06329,16.304723 1010.89251,16.2088733 1013.22202,16.6391551 C1014.76357,16.9243228 1016.45052,16.4989526 1018.07023,16.3760149 C1020.06518,16.2261382 1021.96162,16.3231785 1023.93468,16.9598943 C1025.86396,17.5830661 1028.02775,17.7674726 1029.76629,16.1032005 C1030.15871,15.7257552 1030.73718,15.4036764 1031.27813,15.3066361 C1033.93128,14.8321653 1036.46405,14.161024 1039.03902,13.2932122 C1041.60149,12.4290767 1044.95975,12.9342671 1047.99282,13.3583424 C1053.69154,14.1536418 1059.39807,15.0091151 1064.92951,16.4386744 C1068.09859,17.2574153 1071.9634,16.741107 1074.43832,19.9690386 C1074.81823,17.8240298 1076.25816,17.4724818 1078.01702,17.9273213 C1079.0442,18.1928427 1080.05105,18.5615068 1079.32718,20.0415212 C1078.91131,20.894643 1079.11142,20.9830509 1080.7499,20.9954042 C1081.00631,21.2485724 1081.06728,21.7538669 1081.63794,21.6161946 C1081.58791,21.0457104 1081.04383,21.1932058 1080.72176,21.0248735 C1081.72549,19.3482482 1082.83709,18.67224 1084.979,19.7477211 C1086.4283,20.4767145 1088.43575,19.957876 1089.91789,21.0297851 L1089.87567,20.9818602 C1090.08674,21.6283991 1090.12426,22.1963531 1089.20496,22.3328347 L1089.23623,22.3646854 C1088.97514,22.3634947 1088.71404,22.3634947 1088.45139,22.3623041 L1088.47953,22.3352161 C1082.76674,21.7034119 1078.40788,25.4832234 1073.25949,27 C1073.11878,25.623277 1074.3492,25.9318118 1074.63844,25.051751 C1073.691,24.584707 1072.53093,24.2011594 1073.28919,22.5663567 C1073.79262,21.4771828 1073.06562,19.9788617 1071.48655,20.9855811 C1069.35872,22.3413183 1067.20118,21.2658372 1065.09679,21.6112831 C1064.09307,21.7758945 1063.04088,20.5552993 1062.19975,22.5208132 C1061.70101,23.6860418 1060.07191,22.0659737 1058.48346,21.0592544 C1059.4356,23.4008741 1058.13326,23.8533322 1056.71053,24.0020183 C1055.94132,24.0831333 1054.3857,25.0861318 1054.70464,23.0027407 C1054.78125,23.0740326 1054.84691,23.1612499 1054.93603,23.2117049 C1055.00169,23.2498066 1055.09706,23.2411742 1055.17836,23.252188 C1055.00795,23.1820868 1054.8391,23.1121344 1054.67025,23.0420331 C1054.58426,21.114621 1052.49551,19.8510125 1049.9862,20.5798571 C1047.12355,21.4133326 1044.2609,20.5073745 1041.33727,20.9584931 C1039.13908,21.2990274 1040.47895,18.9204966 1040.64624,17.6765344 L1040.7932,17.4982302 L1040.60402,17.6347118 C1039.84419,17.3569859 1039.11407,16.943969 1037.88208,17.2770615 C1039.22038,19.3765268 1039.12501,21.2055591 1036.40307,22.1655443 C1036.08413,22.2786588 1035.51973,22.5871936 1035.51504,22.5797519 C1033.67019,19.2732354 1029.35511,22.108987 1027.20069,19.5424778 C1026.54718,18.7631781 1026.11723,19.1208284 1025.1182,19.5904026 C1023.50786,20.3488653 1021.25808,20.13365 1019.32255,19.9382298 C1017.40734,19.7440002 1015.74541,20.1202549 1014.02719,20.7803377 C1012.76863,21.263307 1011.35215,21.9062739 1010.32341,20.3131449 C1010.47819,20.2000304 1010.93941,20.5134767 1010.80964,19.9996986 C1010.65955,20.1189154 1010.50946,20.2381321 1010.36094,20.3573489 Z" id="Shape"></path><path d="M1118.14631,31.8964789 C1114.10732,29.8048297 1109.56956,29.3626454 1105.2568,29.246347 C1101.69614,29.1494578 1097.88373,28.4125361 1094.3388,29.9444504 C1093.62919,30.2507706 1092.99038,29.9935994 1092.44597,29.4260382 C1091.41223,28.3492999 1090.57045,28.990428 1089.76486,29.7777508 L1089.7916,29.7531763 C1087.17185,29.7466023 1084.71573,31.5009391 1082,30.4783586 L1082.02203,30.5184291 C1082.5743,26.8058027 1084.0486,25.1807558 1087.55419,25.908599 C1089.82307,26.3791144 1090.69475,25.4315095 1091.86066,24.2073242 C1092.15489,24.2913784 1092.44597,24.3832588 1092.74492,24.4477473 C1092.7701,24.4530691 1092.83618,24.2732214 1092.88339,24.1789931 C1092.58286,24.1298442 1092.28076,24.0806952 1091.97867,24.030294 C1091.67499,22.8823366 1090.88199,22.2604611 1089.76171,21.989046 L1089.80419,22.0408559 C1091.36818,19.9723725 1092.67255,21.4487203 1093.7409,22.5087104 C1094.44108,23.2055616 1094.6881,24.353519 1095.25454,25.5401382 C1098.95209,24.2021589 1102.95646,24.5745329 1106.51712,25.1367722 C1109.84491,25.6603497 1113.286,26.8018896 1116.69404,27.1870986 C1120.53949,27.6239611 1123.88931,29.901719 1127.99123,29.4855179 C1130.16728,29.264504 1133.13791,29.2721737 1133.83179,32.6423225 C1133.89945,32.9732172 1134.68301,33.504621 1134.88441,33.4114884 C1137.45067,32.2261214 1140.66203,34.4198251 1142.9372,31.8770697 L1142.91203,31.9016442 C1146.63947,31.6003328 1150.37007,31.142809 1153.88667,33.0378622 C1156.15398,34.2595431 1158.47478,35.3868392 1161.17793,35.2742974 C1161.51149,35.2600536 1161.98509,35.3480209 1162.1739,35.5729479 C1164.54506,38.3936925 1167.85554,37.2831446 1170.81044,37.7032588 C1172.79925,37.9876655 1174.73771,38.5370697 1176.21358,40.0638187 C1176.81306,40.6856942 1177.37162,41.3513968 1176.68089,42.1980428 C1176.1176,42.8897286 1175.24907,43.2943468 1174.48439,42.7410294 C1172.45782,41.2737602 1169.70432,41.5090179 1167.80677,39.8066474 C1167.25764,39.311401 1166.62513,39.0943002 1165.87932,39.0722302 C1162.37845,38.9714278 1161.65939,38.7504139 1158.3788,36.8747698 C1157.81552,39.7884905 1156.07059,39.1058831 1154.258,38.2140013 L1154.2879,38.2514109 C1153.62234,36.9832419 1152.20311,36.06929 1153.08108,34.2285511 C1151.17094,34.6602482 1151.24646,35.9154255 1150.7886,37.1034534 C1146.12339,34.754633 1141.19857,35.8108665 1136.44053,35.2703843 C1135.39892,35.1528337 1134.10084,35.4798153 1133.40067,34.7248932 C1130.21291,31.2797687 1126.24316,32.2932708 1122.37882,32.5815906 L1122.19945,32.4328915 L1122.36781,32.5945822 C1120.03442,33.005618 1119.93372,30.7291123 1118.89998,29.5553282 C1118.18722,30.2792583 1118.90155,31.3121695 1118.10225,31.8564084 L1118.14631,31.8964789 Z" id="Path"></path><path d="M870.370341,8.0797006 C870.629347,7.92256317 870.857148,7.85920799 870.941403,7.71474467 C871.117714,7.41948097 871.106792,7.08238966 870.690198,6.99747622 C870.527929,6.96453275 870.162824,7.13942314 870.164384,7.21671063 C870.167505,7.49423671 870.287646,7.77050459 870.370341,8.0797006 Z M866.719289,7.46384034 L866.034326,6.05468235 L866,6.08888402 C868.312333,5.05355077 870.824382,5.75180805 873.214729,5.29432808 C875.024652,4.94710976 874.892029,7.28769176 876.222946,7.71221291 C876.928193,7.13689138 876.060678,6.39935358 876.52252,5.78473618 C876.901668,5.28038043 877.288617,4.90655569 877.939253,5.0206073 C878.47911,5.1169213 878.574287,5.46794492 878.571166,6.02680239 C878.561804,7.88328265 879.763219,7.69700706 880.825769,7.03170858 C883.620228,5.28166932 885.492563,5.32094984 888.519503,7.41948097 C888.733262,7.6741906 888.288582,8.22289037 888.923616,8.2862609 C888.77851,8.00620306 888.634964,7.72614522 888.489858,7.44608739 C889.184182,6.25742201 890.12347,6.02425529 891.309282,6.74531369 L891.284317,6.77064656 C892.320343,6.03565585 892.92261,6.60591388 893.432821,7.45874615 L893.404736,7.42960798 C898.383586,5.82150029 903.437329,7.22685298 908.453625,7.1596925 C909.293055,7.14829194 910.149648,8.25457564 911,8.84384482 L910.957872,8.79316374 C910.960993,9.04659982 910.962553,9.30005124 910.962553,9.55476087 L910.976596,9.52309095 C908.163413,9.36975882 905.34867,9.05167867 902.535488,9.53321796 C902.452793,9.03900456 902.691516,8.42311362 901.98783,8.13926583 C901.722582,8.79948545 902.04556,9.19614199 902.555771,9.51673855 C902.540169,9.74105181 902.526126,9.96660792 902.508963,10.1909058 C898.450678,9.09855445 894.467286,11.2211756 890.365313,10.4760425 C889.514961,10.3214368 890.455809,11.2021644 890.583752,11.6038691 L890.610277,11.5785209 C889.95652,11.8306988 889.109289,12.2412876 888.61468,11.8154929 C886.213411,9.74231001 883.250442,11.0766969 880.596408,10.5457348 C878.440103,10.1161347 875.945217,10.9905253 873.606359,11.2224338 C871.492181,11.432784 869.799279,10.8397402 867.942547,10.4735108 C866.059291,10.1022178 866.803544,8.56759228 866.686523,7.42834978 C866.805104,7.28769176 867.256024,7.54491779 867.114039,7.08745316 C866.981415,7.21290533 866.850352,7.33838818 866.719289,7.46384034 Z" id="Shape"></path><path d="M1105.70353,32.4927989 C1106.16409,33.4828322 1106.76328,33.9772487 1107.85538,33.3624436 C1107.28391,32.0849868 1106.39976,32.614731 1105.68659,32.5113203 L1105.56644,32.3696664 L1105.70353,32.4927989 Z M1097.38418,39.44001 C1095.56197,41.3194098 1093.30538,40.9865405 1091.1104,40.9625314 L1091.14275,40.9951152 C1091.54785,38.4796451 1093.70894,37.6907739 1095.21231,37.4769213 C1098.4008,37.0209194 1101.28123,35.9614312 1104.05691,33.8964751 C1101.5816,33.5253627 1099.11552,33.038149 1096.60939,34.3354991 C1093.77826,35.8000555 1090.84854,36.8310759 1087.65543,36.3467776 L1087.68624,36.4033705 C1087.57841,35.5536191 1086.66345,34.9614512 1087.13326,33.6882817 C1090.52353,34.1655488 1093.37161,32.6939611 1096.4569,30.9080254 C1099.3897,29.2126383 1103.19741,30.3527287 1106.61541,30.6643328 C1107.74602,30.7677435 1108.85044,31.3158374 1109.99798,30.7337877 C1110.68497,30.3853125 1111.34578,30.357016 1111.78631,31.2067674 C1112.19142,31.9872354 1111.97423,32.7435228 1111.52138,33.3440938 C1110.50476,34.6896336 1109.97488,36.9797609 1107.59044,35.8057148 C1107.04516,35.5366412 1106.05011,35.6072966 1105.60803,36.0025896 C1103.17892,38.1752437 1100.16757,38.4981664 1097.35954,39.4655626 L1097.26558,39.3252807 L1097.38418,39.44001 Z" id="Shape"></path><path d="M912.040936,7.60662354 C912.080297,7.04492887 912.009447,6.08146821 912.536887,6.10066337 C914.612011,6.17487226 916.928025,5.3240108 919,7.53497091 C917.187809,7.9763976 915.325236,7.59125502 914.152272,8.97567684 L914.174314,9 L913.405983,9 L913.428025,8.97696271 C912.957265,8.74920804 912.488079,8.52018299 912.017319,8.29242832 L912.004723,8.32443574 C912.247188,8.06597501 912.218848,7.81005505 912,7.55543645 L912.040936,7.60662354 Z" id="Path"></path><path d="M928,10.1104477 C926.807307,10.8536053 925.535782,11.2072207 924.007324,10.8743285 C923.908055,9.00536197 924.829217,8.23870468 926.080304,8.03150633 C927.179567,7.84917915 927.969343,8.44730798 928,10.1104477 Z" id="Path"></path><path d="M957.91638,23 C957.635357,22.0787474 957.354334,21.1587188 957,20 C958.47079,20.1136839 959.660557,20.4978834 961,21.1449482 C960.297442,22.605702 958.704467,22.1508135 957.893471,22.9721528 L957.91638,23 Z" id="Path"></path><path d="M921.965226,16.0251 C920.179583,17.8486 917.12469,16.106 915,16.9749 C917.029061,15.77487 919.680576,16.4034 922,16.0581 L921.965226,16.0251 Z" id="Path"></path><path d="M967,19.6713159 C966.083973,19.998746 965.391944,21.7738341 964.281056,20.608238 C963.718327,20.017764 964.082553,19.0508256 964.654387,18.5208425 C965.90186,17.3683069 966.53197,18.2901062 966.970862,19.713018 L967,19.6713159 Z" id="Path"></path><path d="M949,16.3240432 C947.457062,16.9245432 946.377757,17.1252432 945,16.4380432 C946.231347,15.9863432 947.378226,16.1035432 949,16.3240432 Z" id="Path"></path><path d="M931.978921,15.4771014 C932.103446,15.8360129 931.668784,16.0223975 930.872293,15.9978498 C930.005316,15.9708275 929.159486,15.8327465 929.009116,15.4182363 C928.926882,15.1893386 929.413235,15.0340148 929.974773,15.0094968 C930.88874,14.9678053 931.664084,15.0528216 931.978921,15.4771014 Z" id="Path"></path><path d="M921.580384,8.998776 C921.272384,8.9102801 921.065384,8.71152986 921.019384,8.43627993 C920.963384,8.10252918 921.190384,7.94279159 921.537384,8.01853754 C921.860384,8.09054205 922.000384,8.33428943 921.988384,8.62829195 C921.977384,8.84879157 921.872384,9.0160302 921.580384,8.998776 Z" id="Path"></path><path d="M918.034164,13.6124375 C918.913879,13.3456775 919.806406,13.1573775 921,13.4736875 C919.913167,13.9593075 918.916014,13.4629475 918,13.5942675 L918.034164,13.6124375 Z" id="Path"></path><path d="M926.87914,16.1546311 C926.75314,16.4667811 926.70814,16.8574811 926.24014,16.8450811 C926.19114,16.8442811 926.09914,16.7508811 926.10514,16.7129811 C926.17714,16.2619811 926.57314,16.2718811 926.89514,16.1777611 L926.87914,16.1546311 Z" id="Path"></path><path d="M931.5095,9.4905 L931.4905,9.5095 L931.5095,9.4905 Z" id="Path"></path><path d="M918.5085,11.49133 L918.4915,11.50867 L918.5085,11.49133 Z" id="Path"></path><path d="M755.717197,5.61666088 C755.642529,5.78084283 755.611418,6.01169007 755.479194,6.08946125 C755.368748,6.15611159 755.143189,6.04995535 754.968964,6.02032965 C755.040521,5.85366644 755.070077,5.62036783 755.200745,5.54137096 C755.312747,5.47346504 755.539861,5.58332824 755.717197,5.61666088 Z M845.976476,2.56502005 C846.116478,2.41689158 846.242479,2.16875023 846.405815,2.14159085 C846.804043,2.07494051 847.077825,2.27862837 846.914489,2.68971104 C846.858488,2.83290688 846.552039,2.96623745 846.371592,2.95513155 C846.23159,2.94525134 846.107144,2.70452389 845.976476,2.56502005 Z M771.039636,5.18829905 C770.810967,5.43518482 770.568296,5.67097964 770.190291,5.48210463 C770.13429,5.45494525 770.14829,5.30064351 770.129624,5.20557822 C770.44385,5.2105258 770.759632,5.21545843 771.075415,5.22039106 L771.039636,5.18829905 Z M780.841331,4.51057019 L780.768219,4.63402055 L780.875554,4.5463542 L780.965777,4.44637122 L780.841331,4.51057019 Z M708.016966,16.6220832 C711.316346,16.7331422 714.159942,14.9789184 717.362876,14.4814399 C719.826911,14.0975166 722.522727,14.6135299 724.821871,13.2630048 L724.84676,13.3000444 C724.607201,13.051918 724.633646,12.8062579 724.851427,12.5618384 L724.796981,12.6186085 C724.960317,12.4433207 725.150098,12.406296 725.367878,12.5087603 C725.464324,12.5828245 725.552992,12.6655283 725.62766,12.7618193 L725.647882,13.0457447 L725.517214,13.304977 L725.542103,13.2667267 C726.231224,14.4579875 727.170793,15.0246574 728.393477,14.5839042 C729.552382,13.486453 726.301225,12.9618002 728.343698,11.9458273 L728.315698,11.9186529 C728.838372,12.6951391 729.673717,12.5605978 730.44995,12.5902235 L730.418839,12.6124502 L731.842192,11.2273519 L731.801747,11.269339 C732.290199,10.7780189 732.780206,10.7014734 733.270213,11.2656321 L733.231323,11.2421796 C734.142892,11.2779786 735.090238,10.8903484 735.962917,11.3396963 C741.121213,13.9938267 746.872183,14.9826552 752.299593,16.8455464 C755.102744,17.8071109 758.128342,18.7946839 760.572155,20.6883667 L760.536377,20.6562298 C762.267734,20.1303812 763.773534,20.811832 765.171998,21.6080786 C766.494239,22.3599315 767.706034,21.9771292 768.070039,20.9106341 C768.404488,19.9303854 769.476281,18.5120291 767.524031,17.5256519 C765.056885,16.2775462 762.661296,14.9406681 759.834811,14.5974913 C759.833255,14.8382188 759.828589,15.0801121 759.825478,15.3221101 C760.338818,15.3505101 760.984383,15.0789163 761.155496,15.860365 C761.171052,15.9319629 761.065273,16.085024 760.984383,16.1122283 C760.198816,16.3664831 760.033925,15.8232955 759.869034,15.2899732 C759.869034,15.0678553 759.870589,14.8468434 759.870589,14.6258764 C758.770796,14.3049114 757.79856,15.2986427 756.354984,13.9123486 C754.804073,12.4248009 751.683584,12.5260245 749.263106,11.8853352 C747.368412,11.3841349 745.584165,10.6459289 743.703471,10.2447265 C743.502802,8.9867854 744.751931,9.12998124 745.165714,8.55225031 L745.142381,8.57694337 C748.233313,10.0570921 751.571583,10.6977664 754.939408,11.244646 L754.91763,11.2668578 C754.99852,11.216246 755.085633,11.1187143 755.1603,11.1261282 C755.336081,11.144648 755.505639,11.2137796 755.678308,11.2631658 L755.658085,11.240939 C756.846546,9.86942781 758.011674,10.5311032 759.175246,11.2779637 C759.371249,10.7471376 758.884353,9.87068339 760.15526,9.76080525 C760.270373,10.5879032 759.696365,10.9150414 759.141023,11.2508192 C759.512806,12.3026061 760.186372,12.2593783 761.00305,11.7334998 C762.053065,11.0582373 763.073524,10.3298966 764.171761,9.73364587 C766.086677,8.69544615 767.903592,7.98807664 770.25407,9.15712567 C772.150319,10.0990344 774.479018,10.0410386 776.675494,9.88548129 L776.642827,9.91512193 C777.358393,8.48065239 777.719287,9.55216981 778.203071,10.100275 C778.965304,10.9668789 779.217308,12.4828266 780.814886,12.3544436 C784.454938,12.0569311 786.985862,14.4802142 789.972571,15.749306 C791.587261,16.4368852 793.096171,17.1392623 794.895974,16.6220832 L794.724861,16.494881 L794.861752,16.6554158 C794.933308,15.3381038 794.550636,14.3283639 793.573733,14.1493691 C790.378577,13.5642242 787.525648,12.7284867 785.612287,9.7682042 C784.923166,8.70286004 782.524466,9.32872152 781.077779,7.57700892 C785.299616,8.16462007 789.054781,7.95598463 792.809945,7.8597086 L792.758611,7.89426692 C793.28284,6.41906579 794.024851,5.45370462 795.735986,6.69681788 C796.533998,7.27578945 797.478233,7.15851236 798.389802,7.191845 L798.354023,7.22765891 C797.781571,6.54129046 797.458011,5.36113553 798.733584,5.79936263 C802.731419,7.17087383 806.419693,6.05859493 810.146857,5.06114174 C811.728879,4.63771255 812.481779,5.58826087 813.452459,6.35610745 C814.126025,6.88815921 814.197581,6.86842868 815.214929,5.8339359 C815.725158,5.31299004 816.247832,5.3784147 816.761173,5.64999353 C818.091192,6.35734808 819.436766,6.25612447 820.810341,5.84626749 L820.766785,5.88701403 C820.881898,5.07102196 821.014122,4.30934865 822.225917,4.65993929 C824.833065,5.41421366 827.404435,5.25988202 830.122029,4.96731708 C832.183169,4.74635006 834.303421,5.56850044 836.537231,4.73029658 C837.745915,4.27600106 838.383701,5.31420078 837.590357,6.56102099 L837.621468,6.53016962 C841.357966,4.7907886 845.082019,7.29306861 848.813849,6.55608836 C849.196521,6.1227939 849.608749,5.84502686 850.134535,6.3635064 C850.195202,6.42275779 850.226314,6.6042488 850.182758,6.64991303 C849.655417,7.19679258 849.235411,6.68572693 848.781182,6.50178455 C848.645847,7.34740232 849.09852,7.73255129 849.912087,7.83624122 C850.798766,7.94982631 851.414775,8.37077425 851.629445,9.24231075 L851.603,9.21763264 C852.499013,8.96209234 853.507027,8.71643226 853.681252,7.70663254 C853.829031,6.85113457 852.905018,6.76967138 852.295232,6.52030435 L852.334121,6.55732899 C852.55968,6.10180779 852.786794,5.64627163 853.013909,5.19075042 L852.998353,5.2031119 C853.248801,5.20557822 853.499249,5.20802958 853.749697,5.21173653 L853.724808,5.1845921 C855.190162,5.96849216 856.699072,6.21536298 858.410207,6.01784839 C860.342235,5.79441505 862.322485,5.62652615 864.212512,6.54498246 C866.572323,7.69057907 868.467017,6.43511927 870.243486,5.15496641 C871.48017,4.26244379 871.113054,3.06992738 869.776813,3.08720654 C866.216096,3.13288572 862.596267,2.66870998 859.097773,3.68716422 C858.86288,3.75505519 858.758657,4.24021704 858.593766,4.5315563 L858.623322,4.50315629 C857.122189,3.9772778 858.161315,2.22182835 856.823518,1.40461209 C855.922839,1.53545991 854.809045,1.69594986 853.695252,1.85766549 L853.735697,1.81940022 C853.587917,1.99098112 853.345247,2.32924018 853.304802,2.30947975 C848.393843,-0.26193037 843.028656,0.83675689 837.850138,0.625661112 C835.647441,0.536779545 833.446298,0.660232892 831.270045,0.203475536 C830.710037,0.0862008349 829.865359,-0.139719 829.579132,0.119521371 C827.413768,2.08604641 825.147292,0.925647425 822.89326,0.475063334 C822.712813,0.493580141 822.65059,0.961434427 822.370586,0.600966556 C822.5557,0.571339367 822.740813,0.542948326 822.925927,0.513319642 C822.824814,0.457769223 822.703479,0.333097665 822.6257,0.35531843 C818.592088,1.50462348 814.399806,-0.647083828 810.398861,0.881199915 C808.798171,1.49226648 806.998368,1.1552615 805.640349,0.868862353 C802.974089,0.304706623 800.780724,-0.448339066 798.215577,1.46016401 C797.069116,2.31565302 794.972198,1.21204658 793.149061,1.35030829 C789.768791,1.60460646 786.312297,2.13420685 782.750025,1.76014883 C777.254169,1.18365553 771.5872,0.88120141 766.488016,4.34514761 C764.926217,5.40679976 762.1744,5.40804039 760.099259,5.09571502 C755.882088,4.45995838 751.820475,5.15989904 747.783751,5.85121507 C744.717708,6.37709356 741.461884,5.05250216 738.630733,6.65239429 C736.885375,7.63874157 734.572231,6.47955781 733.119322,8.3633753 C732.385089,9.31516425 731.629078,7.9177343 730.631953,7.99302422 C727.83658,8.20536661 725.299433,9.31885625 722.689174,9.98794554 C720.285806,10.6039417 717.381543,9.66573995 715.317292,12.1458082 C714.432168,13.2099266 713.464599,11.5248644 712.904591,10.5706091 L712.937258,10.6014904 C712.220137,10.8101109 711.50146,11.0174907 710.782783,11.2248855 C710.824783,11.5285713 710.86834,11.8322422 710.91034,12.1371686 C710.809228,12.132221 710.647448,12.164328 710.619447,12.1186488 C710.401666,11.7729908 710.614781,11.5088258 710.835673,11.2545112 C708.906756,10.2903907 707.992077,12.3643089 706.455166,12.6050363 C701.545763,13.3716423 696.645694,14.1814611 691.737846,14.9530594 C690.964724,15.0739837 689.966044,14.8172327 690.000887,16.0394346 C690.032933,17.0108644 690.740721,17.5232603 691.625845,17.4207213 C693.305869,17.2244623 694.833446,17.9380499 696.451247,17.9812478 C698.322606,18.0293784 700.155077,18.1639048 702.057548,19.6057284 C700.914199,17.5725867 702.760669,16.8380727 702.995561,14.9937163 C704.188689,16.9232727 705.593376,17.4232624 707.329401,16.6270158 L707.310734,16.6491379 C707.461625,16.1504935 707.2874,15.1999901 707.970299,15.3183733 C708.891201,15.478908 708.088522,16.187563 708.038744,16.6590032 L708.016966,16.6220832 Z" id="Shape"></path><path d="M655.253204,17.1354528 C655.206711,17.2273995 655.183464,17.3566811 655.105975,17.3989941 C655.047084,17.4316439 654.920002,17.3566811 654.822366,17.3301805 C654.868859,17.2382339 654.892106,17.1076346 654.966495,17.0664929 C655.028486,17.033843 655.155568,17.1088059 655.253204,17.1354528 Z M661.996285,20.0737915 C661.914147,20.0483158 661.832009,20.0218153 661.749871,19.9951683 C661.810312,19.8560771 661.864554,19.713472 661.943593,19.584044 C661.952892,19.5695492 662.10477,19.6323599 662.188458,19.6590068 C662.124917,19.798098 662.059826,19.9358715 661.996285,20.0737915 Z M663.476323,18.649351 C663.623552,18.7629665 664.040442,18.4752673 663.949005,18.9371966 C663.801776,18.8295839 663.654547,18.7218248 663.507318,18.6155298 C663.350791,18.5079171 662.862611,18.8077685 663.047035,18.2817109 C663.191164,18.4038184 663.332194,18.5272435 663.476323,18.649351 Z M669.053972,17.9878624 L669.224447,18.0871296 L669.094266,17.9480384 L669.053972,17.9878624 Z M654.400827,19.9347002 C656.172222,20.6893067 657.656909,22.45108 659.955229,21.3228306 C658.042803,21.2455252 657.952916,19.9551979 657.937419,18.6167011 L657.794839,18.5162626 L657.900224,18.6505223 C658.13734,18.646862 658.376006,18.6445194 658.611572,18.6408591 C659.126098,18.3494996 659.583282,17.8114362 660.310128,18.2986947 C659.812649,18.9045467 659.141596,18.4776099 658.580576,18.6022064 C658.458144,19.779943 659.200487,20.5235685 660.048215,21.2152179 C660.841701,21.8948616 661.75297,22.1547425 662.808369,21.9093563 L662.783572,21.9335143 C665.320558,21.6081872 667.855994,21.5720235 669.892401,19.5368994 C670.616147,18.8126001 671.265504,19.6916566 670.499914,20.6178577 L670.465819,20.5865256 C671.091929,20.8500669 671.955155,21.3699752 672.373595,20.7811069 C673.920273,18.5997174 675.993875,19.2901955 678.171312,19.3421716 C680.523874,19.3989794 683.160045,19.8912159 685.149959,17.9648757 L685.122063,17.9903514 C686.157315,17.5307647 687.332046,17.2599029 688,15.9310693 C685.308037,14.2164406 682.380507,15.4474711 679.795479,15.7025205 C671.983051,16.4764533 664.286856,15.842783 656.551918,15.0725104 C653.715825,14.7908141 650.921576,16.0520054 648.034341,15.6190657 C647.594204,15.5514235 647.164916,15.4244844 646.729429,15.3252172 L646.760424,15.3555245 C646.518659,14.9068894 646.275344,14.457083 646.033579,14.0084626 L646.059925,14.0338651 C643.972375,14.8718238 641.703501,14.6735236 639.646946,14.4014465 C635.02706,13.7908068 630.405623,14.6795704 625.819832,14.0302487 L625.850828,14 C625.643158,14.1729123 625.437037,14.3446388 625.227817,14.5175511 C625.147229,14.64572 625.07129,14.7775199 625,14.9117503 C626.246021,16.5079318 628.505596,16.2164259 630.016629,17.3191997 L629.960837,17.2853785 C630.910851,16.8356015 631.984847,16.3373621 632.959657,16.7303314 C636.373816,18.103967 640.124277,17.058001 643.544636,18.1729269 C644.383066,18.4461314 645.387321,17.839108 645.855354,18.0604827 C648.582962,19.3518348 651.93823,17.9940117 654.442671,19.973353 L654.400827,19.9347002 Z" id="Shape"></path></g></g></svg>