<svg xmlns="http://www.w3.org/2000/svg" xmlns:xlink="http://www.w3.org/1999/xlink" id="Layer_1" x="0px" y="0px" viewBox="0 0 1444 695" style="enable-background:new 0 0 1444 695;" xml:space="preserve"><style type="text/css">	.st0{fill-rule:evenodd;clip-rule:evenodd;fill:#F7F7F7;}</style><g id="Home-1">	<g id="De-Bebe---Home-1-" transform="translate(71.000000, -7035.000000)">		<g id="Floor" transform="translate(-71.000000, 7035.000000)">			<path id="Path" class="st0" d="M-2.2,71.3v622.8H1444V63.5l-187.3-11.7h-102.2c-60.6,5.7-195.8,13.7-252,0    C832.3,34.6,791.7,58,762.1,44C738.3,32.8,644,17,599.8,10.5l-40.6,4.7C498.3,0.4,375.1,3.5,340.7,0.4    c-27.5-2.5-96.8,8.8-128,14.8C123.8,5,80.1,16.7,53.6,21.4S5.1-5.2-2.2,21.4S-4,47-2.2,71.3z"></path>			<g id="Group-9" transform="translate(0.000000, 3.000000)">				<path id="Shape_00000079448558573603537140000018310099833917575357_" class="st0" d="M930.1,59.9c0.1,0,0.2,0,0.3,0     c0.2-0.2,0.1-0.4-0.2-0.4c-0.1,0-0.2,0.1-0.2,0.2C930,59.7,930.1,59.8,930.1,59.9z M761.3,47.1c-0.2-0.1-0.3-0.3-0.5-0.3     c-0.3,0-0.4,0.2-0.1,0.4c0.1,0.1,0.2,0.2,0.3,0.2C761.1,47.4,761.2,47.2,761.3,47.1z M745.8,45.8c-0.5-1.5-1.3-1.6-2.5-1.6     C743.8,45.3,744.3,46,745.8,45.8z M780.8,48c0.1-0.1,0.2-0.1,0.2-0.2c0-0.1,0-0.2,0-0.2L780.8,48c-1,0.1-1.6-1.7-3.1-0.4     C778.7,48.9,779.6,48.9,780.8,48z M842.9,49.4c0.5,0.5,0.9,0.9,1.4,1.4c-0.2,0.4-0.5,0.8,0,1.1c0.1,0.1,0.4,0,0.6-0.1     c-0.2-0.3-0.4-0.7-0.6-1c0.4-0.1,1.2-0.2,1-0.7C844.7,48.9,843.8,49,842.9,49.4l-0.1-0.1L842.9,49.4z M868.2,52.2     c-2.2,2-7.1,2.1-9.1,0c-1.4-1.5-2.8-2.7-5-1.4l0,0c-1.5,0.6-3.1-1.4-4.5,0.2c0.3,0.9,2.3,0.1,2,1.8c-1.2,1.2-2.6-1-3.8,0.1     c-0.2,0-0.5,0-0.7,0l0,0c0.1,0.1,0.2,0.2,0.2,0.2c0.2,0,0.3-0.1,0.5-0.2c1.3,0.8,3.1,1,3.9,2.6c-0.7,0.8-1.5,0.5-2.1,0.4     c-3.1-0.4-6.2-1.4-9.2,0.6c-4.7-2.3-10.1-0.2-14.9-2.5c-2.8-1.3-6.2-2-9.3-2.2c-3.8-0.2-7.9,0.2-11.4-0.6     c-4.6-0.9-9.6,0.5-13.8-2.3c-1-0.7-2.1,0-3.1-0.2c-0.2,0-0.2-0.5-0.5-0.2l0.5,0.1c0.3,2.2,3.4,1.1,3.8,3.4     c-1.5,0.7-3.7,0.8-4.4-0.1c-1-1.2-1.6-2.6-3.3-3.6c-0.4,1,0.9,2.2-0.3,3c-1.2,0.7-2-0.1-3-0.4c-4.9-1.9-10.2-1-15.3-2.1     c1.9,0.9,3.5,2,5.5,2.9c-1,0.7-2,0.9-2.8,0.7c-4.7-1-9.8-0.4-14-3.2c-0.7-0.5-1.6-0.5-2.4-0.3c-2.2,0.7-3.9,0.1-5.9-0.9     c-2-1-4.6-0.7-6.9-1.1c-4.1-0.6-7.9-2.3-12.2-1.8c-0.2,0-0.5-0.1-0.7-0.1c-1.6-0.7-2.8-2.4-5.1-1.7c-0.4,0.1-1.3-0.9-1.8-2.2     c2.4,1.3,4.7-0.1,6.8,0.9l0,0c0.3,1.2,1.3,0.9,2.2,0.9c1.7,0.1,3.3,0.5,4.9,1.1c0.2,0.1,0.2,0.6,0.5,0.2c-0.2,0-0.4-0.1-0.6-0.1     c0-0.2,0-0.5,0-0.7l0,0c1.7-0.6,3.1,0.5,4.7,0.6c1.3,0.1,3,2.5,3.8-1c0.2-1,2.7,0.2,4.2-0.1c1.1-0.2,3-0.3,2.5,2     c-0.2,0.9,0.7,1.4,1.6,1.5c0.8,0.1,1.2-0.2,1.3-1.1c0.4-2.7,3.3-0.3,4.5-1.8c0.5-0.6,0.9,1.2,1.5,1.9c-0.4,0.3-1,0.5-0.8,1.2     c0,0.1,0.2,0.2,0.3,0.1c0.7-0.2,0.4-0.9,0.5-1.3c1.5,0.1,2.5-0.1,3.9-1.1c1.6-1.2,4.9-0.8,7.6,0.4c-0.7,0.9-1.8,1.9-0.2,2.8     c1,0.6,1.8,0.5,2.1-0.7l0,0c0.7-0.5,1.3-0.9,2-1.4c1.2,0.2,0.9,2.2,2.3,2.2c1.2-0.8-0.4-1.7,0.2-2.6c0.2-0.1,0.6-0.3,0.9-0.3     c2.5,0.5,5.1,0,7.5,1.3c0.8,0.4,2,1,2.7-0.5l0,0c4.2,0.2,8.5,1.3,12.8,0.1c0.2-0.1,0.5-0.1,0.7,0c3.5,2.2,7.5-0.2,10.7,0.8     c5,1.5,10.2-1.5,14.8,1.5c0.6,0.4,1.4,0.1,2-0.4c0.6-0.5,1.4-0.7,2-0.3c2.6,1.7,5.8,1.3,8.5,2.3c0.5,0.7,1.3,1.2,1.4,2.1l0,0     c0.5-0.2,1.2-0.7,1-1.2c-0.4-1.1-1.5-0.7-2.4-0.8c0.1-0.6,0.2-1.4,0.8-1.4c5,0.4,10.2-2.5,15,0.8c0.2,0.2,0.8,0.2,1,0     c2.7-2,4.5-0.8,6.2,1.4c0.9,1.1,2,1.1,3.1,0.3c1-0.7,1.9-1.1,3.2-0.7c6.2,2,12.6,1.8,19,2.2c1.6,0.1,3.2,0.5,4.6,1.4     c0.2,0.1,0.2,0.6,0.5,0.2c-0.2,0-0.4-0.1-0.5-0.1c0.9-1.1,1.9-2,2.8,0l0,0c3.7,0.3,7.3,1.5,11.2,0.9c1.5,0.8-1.2,2.9,1.2,3.7     c0.5-2.4,1.9-3.5,4.5-2.6l0,0c1.6,1.9,2.3-0.9,3.5-0.7l0,0c0.1,0,0.2,0.1,0.2,0.1c0.2,0,0.3-0.1,0.5-0.1l0,0     c2.1-0.4,1.6,2,2.7,2.6c3-2.4,4.4-2.4,7.9-0.1c0.6,0.4,0.9,0.9,1.6,0.1c0.8-0.9,1.7,0,2.6,0.2l0,0c0.1,0.1,0.2,0.2,0.2,0.1     c0.2,0,0.4-0.1,0.5-0.2l0,0c2.1-0.9,4.2,0.2,6.2,0.2c5.1,0.1,10.2,0.3,15.3,1.2c2.2,0.4,4.4,0.2,6.6,0.3     c2.1,0.1,3.7,0.7,5.5,1.5c1.2,0.5,3.3-0.2,5,0.1c3.1,0.4,6.4-0.6,9.1,1.7c0.2,0.2,0.7,0.2,0.9,0.2c5.1-1.6,9.9,0.5,14.8,1.1l0,0     c-4.3,3.2-8.9,3.9-14.3,2.6c-4.7-1.1-9.7-0.9-14.5-1c-3.5-0.1-6.9-0.5-9.9-1.4c-4.9-1.5-9.9-1.2-14.9-1.8     c-4.3-0.5-8.7-1.3-13.1-1.3c-1.8,0-3.6-0.8-5.4,0.4c-0.1,0.1-0.3,0.1-0.3,0.1c-2.6-1.8-6,0.8-8.6-1.6c-1.6-1.5-3.7-0.2-5.6-0.3     c-5-0.1-9.9-1.1-14.9-1.9c0,0,0,0,0,0c-0.3-0.2-0.5-0.5-0.8-0.7l0,0c-3.5,0.3-6.6-0.7-9.8-1.9c-1.1-0.4-2.2-0.5-3.4-0.2     c-3.1,0.6-5.9-1.2-8.9-1.5C868.5,53.3,868.3,52.5,868.2,52.2L868.2,52.2z"></path>				<path id="Shape_00000125595537781289943620000009374100969494651270_" class="st0" d="M1042.8,64c-0.1,0-0.2,0-0.3,0     c-0.2-0.2-0.1-0.4,0.2-0.4c0.1,0,0.2,0.1,0.2,0.2C1042.9,63.8,1042.8,63.9,1042.8,64z M1211.5,61.9c0.2-0.1,0.4-0.3,0.5-0.3     c0.3,0,0.3,0.2,0.1,0.4c-0.1,0.1-0.2,0.2-0.3,0.1C1211.8,62.1,1211.6,62,1211.5,61.9z M1227,61.5c0.6-1.6,1.4-1.6,2.6-1.6     C1229,61.1,1228.5,61.8,1227,61.5z M1192.1,61.5c-0.1-0.1-0.2-0.2-0.2-0.3c0-0.1,0-0.2,0-0.3L1192.1,61.5c1,0.2,1.7-1.7,3.2-0.2     C1194.1,62.5,1193.2,62.5,1192.1,61.5z M1130.3,58.6c-0.5,0.5-1,0.9-1.5,1.4c0.2,0.4,0.5,0.9-0.1,1.2c-0.1,0.1-0.4-0.1-0.6-0.1     c0.2-0.4,0.5-0.7,0.7-1.1c-0.4-0.2-1.1-0.3-0.9-0.9C1128.5,58,1129.4,58.1,1130.3,58.6l0.1-0.1L1130.3,58.6z M1104.9,59.9     c2,2.4,6.9,2.8,9.1,0.6c1.5-1.5,3-2.7,5.1-1.2l0-0.1c1.4,0.7,3.2-1.3,4.5,0.6c-0.4,1-2.3,0-2.1,1.8c1.1,1.3,2.6-0.9,3.8,0.4     c0.2,0,0.5,0,0.7,0.1l0,0c-0.1,0.1-0.2,0.2-0.2,0.2c-0.2,0-0.3-0.1-0.4-0.2c-1.4,0.8-3.1,0.9-4,2.5c0.7,0.9,1.4,0.6,2.1,0.6     c3.1-0.3,6.3-1,9.1,1.3c4.8-2.2,10.1,0.5,15-1.6c2.9-1.2,6.3-1.7,9.4-1.7c3.8,0.1,7.8,0.7,11.4,0.2c4.6-0.7,9.5,1.2,13.9-1.6     c1-0.7,2,0.1,3.1,0.1c0.2,0,0.2-0.6,0.5-0.1l-0.5,0.1c-0.4,2.3-3.4,0.9-4,3.4c1.5,0.8,3.6,1.1,4.4,0.1c1-1.2,1.8-2.7,3.5-3.6     c0.4,1.1-1.1,2.3,0.1,3.2c1.1,0.8,2,0.1,3-0.2c5-1.7,10.2-0.4,15.4-1.2c-2,0.8-3.7,2-5.7,2.7c0.9,0.8,1.9,1.1,2.8,0.9     c4.7-0.8,9.7,0.3,14.2-2.5c0.8-0.5,1.6-0.5,2.4-0.1c2.1,0.9,3.9,0.4,6-0.6c2-1,4.6-0.5,7-0.7c4.1-0.4,8.1-1.9,12.2-1.2     c0.2,0,0.5,0,0.7-0.1c1.7-0.6,3-2.4,5.2-1.5c0.4,0.2,1.3-0.9,1.9-2.3c-2.5,1.3-4.7-0.4-6.8,0.5l0,0c-0.4,1.3-1.4,0.9-2.2,0.9     c-1.7,0-3.3,0.3-4.9,0.9c-0.2,0.1-0.2,0.6-0.5,0.1c0.2,0,0.4-0.1,0.6-0.1c0-0.3,0-0.5,0-0.8l0,0c-1.6-0.8-3.1,0.3-4.7,0.3     c-1.3,0-3.2,2.5-3.7-1.3c-0.1-1.1-2.7,0-4.1-0.4c-1.1-0.3-3-0.6-2.6,2c0.2,1-0.8,1.4-1.7,1.5c-0.8,0.1-1.2-0.3-1.3-1.3     c-0.3-2.9-3.2-0.5-4.4-2.3c-0.4-0.6-1,1.3-1.6,1.9c0.3,0.4,1,0.6,0.8,1.3c0,0.1-0.2,0.2-0.3,0.1c-0.7-0.3-0.3-1-0.5-1.5     c-1.5,0-2.4-0.3-3.8-1.5c-1.5-1.4-4.8-1.2-7.6-0.1c0.6,1,1.6,2.2,0,3.1c-1.1,0.6-1.8,0.5-2-0.9l0,0c-0.6-0.5-1.2-1.1-1.9-1.7     c-1.3,0.1-1,2.3-2.4,2.2c-1.1-1,0.5-1.8,0-2.8c-0.2-0.1-0.6-0.4-0.8-0.4c-2.5,0.4-5.1-0.4-7.5,0.8c-0.8,0.4-2.1,0.9-2.6-0.7l0,0     c-4.2-0.1-8.5,0.8-12.7-0.7c-0.2-0.1-0.5-0.1-0.7,0c-3.6,2.2-7.5-0.7-10.7,0.1c-5.1,1.3-10-2.3-14.8,0.6c-0.6,0.4-1.4,0-1.9-0.5     c-0.6-0.5-1.4-0.8-2-0.5c-2.7,1.6-5.8,1-8.6,1.9c-0.5,0.7-1.4,1.2-1.6,2.2l0,0c-0.5-0.3-1.1-0.8-0.9-1.4     c0.5-1.2,1.5-0.7,2.4-0.7c-0.1-0.6-0.1-1.5-0.7-1.5c-5,0.1-9.9-3.4-15-0.2c-0.2,0.2-0.8,0.1-1,0c-2.5-2.4-4.4-1.2-6.2,1.1     c-0.9,1.2-2.1,1-3.1,0.2c-1-0.8-1.8-1.4-3.2-1c-6.3,1.7-12.7,1-19.1,1.1c-1.6,0-3.2,0.3-4.7,1.2c-0.2,0.1-0.2,0.6-0.5,0.1     c0.2,0,0.4-0.1,0.6-0.1c-0.9-1.2-1.8-2.3-2.8-0.2l0,0c-3.7,0.1-7.3,1.1-11.2,0.2c-1.6,0.7,1,3.2-1.5,4c-0.3-2.6-1.7-3.9-4.3-3.1     l0,0c-1.7,1.9-2.2-1.1-3.5-1l0,0c-0.1,0-0.2,0.1-0.2,0.1c-0.2,0-0.3-0.1-0.5-0.2l0,0c-2-0.5-1.7,2-2.9,2.6     c-2.9-2.8-4.2-2.9-7.8-0.6c-0.7,0.4-1,0.9-1.6,0c-0.7-1-1.7-0.1-2.6,0l0,0c-0.1,0.1-0.2,0.2-0.2,0.1c-0.2,0-0.3-0.1-0.5-0.2l0,0     c-2-1.1-4.1-0.1-6.2-0.2c-5.1-0.3-10.2-0.4-15.3,0.2c-2.2,0.3-4.4-0.1-6.6-0.1c-2.1,0-3.7,0.5-5.6,1.2c-1.3,0.5-3.3-0.4-5-0.3     c-3.1,0.2-6.3-1.1-9.2,1.2c-0.2,0.2-0.7,0.2-0.9,0.1c-5-2.1-9.9-0.2-14.8,0.1l0,0c4.1,3.7,8.6,4.8,14,3.8     c4.7-0.8,9.7-0.3,14.5,0c3.4,0.2,6.9-0.1,10-0.8c5-1.2,10-0.6,14.9-0.9c4.3-0.3,8.7-0.8,13.1-0.6c1.8,0.1,3.7-0.6,5.3,0.8     c0.1,0.1,0.3,0.2,0.3,0.1c2.7-1.7,6,1.2,8.7-1.1c1.7-1.5,3.7,0,5.6,0.1c5,0.2,9.9-0.4,14.9-1c0,0,0,0,0,0     c0.3-0.2,0.5-0.5,0.8-0.7l0,0c3.4,0.6,6.7-0.3,9.9-1.4c1.2-0.4,2.2-0.3,3.4,0c3.1,0.8,5.9-0.9,9-1     C1104.5,61.1,1104.7,60.3,1104.9,59.9L1104.9,59.9z"></path>				<path id="z" class="st0" d="M22.5,31.6l-0.1-0.1l0.1,0L22.5,31.6z M8.4,33.7c-0.1-0.1-0.1-0.2-0.2-0.3c0.1-0.1,0.2-0.2,0.3-0.1     c0.1,0,0.1,0.2,0.2,0.3C8.6,33.6,8.5,33.7,8.4,33.7z M74.5,26.8c-0.1,0-0.3-0.1-0.3-0.1c-0.1-0.2,0.1-0.4,0.3-0.4     c0.1,0,0.3,0,0.3,0.1C74.9,26.6,74.7,26.7,74.5,26.8z M29,27.6c-0.3,0-0.7,0.5-1-0.2C28.3,27.2,28.6,27.1,29,27.6z M31.1,27     c0.1-0.5,0.1-0.9,0.7-0.9c0.1,0,0.2,0.2,0.2,0.3C31.9,26.7,31.7,27,31.1,27z M24,27.7c0.8-0.6,1.7-0.7,3-0.4     C25.8,27.6,25.1,28.2,24,27.7z M79,24c-0.1,1.5-0.2,2.5-0.9,3C77.8,25.3,78.3,24.7,79,24z M38.1,27.4c0-0.1-0.1-0.1-0.1-0.2     c0-0.1,0-0.1,0-0.2C38,27.2,38.1,27.3,38.1,27.4c0.5,0.1,0.9,0.3,0.9,1.5C38.2,29.3,38.3,28.2,38.1,27.4z M19.8,28.8     c-0.3,0-0.6,0.3-0.8-0.3c0-0.1,0.1-0.5,0.2-0.5C19.6,27.9,19.7,28.4,19.8,28.8c0.4-0.1,0.7-0.8,1.2-0.2c-0.3,0.6-0.2,1.6-1,1.4     C19.9,29.9,19.8,29.2,19.8,28.8z M6.5,33.5L6.5,33.5L6.5,33.5L6.5,33.5L6.5,33.5z M53.9,30.4c1.8,0.6,3.4,2.4,5.4,1.3l0,0     C59,31,59,30.4,59.7,30.1c0.5-0.2,0.8,0.2,0.8,0.8c0.1,1.1,0.3,2,1.2,2.1l0,0c0-0.4-0.2-1.1-0.1-1.3c1.7-2.8,4.6-4.4,6.5-3.4     c2.1,1.1,2.7-0.5,3.8-1.5c1,0.6-0.4,1.6,0.5,2.4c0.8,0.4,1.5-1.4,2.5-1c0.2-0.2,0.3-0.5,0.5-0.7c0.3-0.7,0.6-1.4,1.3-1     c0.2,0.1,0.4,0.5,0.2,0.8c-0.5,0.8-1,0.4-1.5,0.1c-0.2,0.2-0.3,0.5-0.5,0.7c0.3,0.4,0.6,1.2,0.8,1.1c1.7-0.5,3.4-1.4,5.1-0.2     c0.3,0.2,0.8-0.7,0.8-1.4c0-1.6-1.2-0.1-1.5-1.4c1.8-0.6,3-2.6,5.2-2c1.7,0.5,3.4-0.6,5.1-1c2.5-0.6,5-2.1,7.8-0.1     c1.3,0.9,3.6,1.6,5.2-0.4c0.2-0.2,0.3-0.5,0.5-0.7c0.3-0.5,0.6-0.7,1-0.3c0.1,0.1,0.1,0.4,0,0.5c-0.4,0.4-0.7-0.1-1-0.2     c-0.2,0.2-0.3,0.4-0.5,0.7c1.2,1.4,2.4,2.5,3.9,0.7l0,0c1-1.2,0.5-2.7,0.5-4.1l0,0c-1.2-0.7-2.4-1.3-3.4,0.7l0,0     c-2.4-1.1-4.8-0.4-7.3,0c-2.3,0.4-4.5,1.4-6.8,1.4l0,0c-0.5,0.8-1,1.7-1.5,0l0,0c-3.7,0.7-7.3,0.3-11.1,1.6     c-4.4,1.5-8.9,2.9-13.5,2.3c-0.8-0.1-1.6-0.3-2.2,0.9c-0.4,0.9-1.2,0.8-2,0.6c-2.7-1-2.7-1-4.8,1.8c-0.6-2.5-1.8-2.6-3.5-2.2     c-1.1,0.3-2.2-0.1-3.3-0.3c-1.4-0.2-2.7-0.1-4,0.6c-1.3,0.6-2.8,0.8-4-0.9c-0.3-0.4-0.7-0.7-1-0.8c-1.8-0.5-3.6-1.1-5.4-2     c-1.8-0.9-4.1-0.4-6.2,0.1c-3.9,0.8-7.9,1.7-11.7,3.1c-2.2,0.8-4.9,0.3-6.6,3.5c-0.3-2.1-1.3-2.5-2.5-2     c-0.7,0.3-1.4,0.6-0.9,2.1c0.3,0.9,0.1,0.9-1,1c-0.2,0.3-0.2,0.8-0.6,0.6c0-0.6,0.4-0.4,0.6-0.6c-0.7-1.7-1.5-2.4-2.9-1.3     c-1,0.7-2.4,0.2-3.4,1.3l0,0c-0.1,0.6-0.2,1.2,0.5,1.4l0,0c0.2,0,0.4,0,0.5,0l0,0C4,31.7,7,35.5,10.5,37c0.1-1.4-0.8-1.1-1-1.9     c0.7-0.5,1.5-0.9,0.9-2.5c-0.3-1.1,0.2-2.6,1.2-1.6c1.5,1.4,3,0.3,4.4,0.6c0.7,0.2,1.4-1.1,2,0.9c0.3,1.2,1.5-0.5,2.6-1.5     C20.1,33.4,21,33.9,22,34c0.5,0.1,1.6,1.1,1.4-1c-0.1,0.1-0.1,0.2-0.2,0.2c0,0-0.1,0-0.2,0c0.1-0.1,0.2-0.1,0.4-0.2     c0.1-1.9,1.5-3.2,3.2-2.5c2,0.8,3.9-0.1,6,0.4c1.5,0.3,0.6-2,0.5-3.3l-0.1-0.2l0.1,0.1c0.5-0.3,1-0.7,1.9-0.4     c-0.9,2.1-0.9,3.9,1,4.9c0.2,0.1,0.6,0.4,0.6,0.4c1.3-3.3,4.2-0.5,5.7-3c0.5-0.8,0.7-0.4,1.4,0c1.1,0.8,2.7,0.5,4,0.3     c1.3-0.2,2.5,0.2,3.7,0.8C52.3,31.3,53.3,31.9,53.9,30.4c-0.1-0.2-0.4,0.2-0.3-0.4C53.7,30.1,53.8,30.2,53.9,30.4z"></path>				<path id="Shape_00000119835204189312324130000018352578718337274514_" class="st0" d="M168.6,16.1c-0.3-0.2-0.5-0.2-0.6-0.4     c-0.2-0.3-0.2-0.6,0.3-0.7c0.2,0,0.5,0.1,0.5,0.2C168.8,15.5,168.7,15.8,168.6,16.1z M172.3,15.5l0.7-1.4l0,0     c-2.3-1-4.8-0.3-7.2-0.8c-1.8-0.3-1.7,2-3,2.4c-0.7-0.6,0.2-1.3-0.3-1.9c-0.4-0.5-0.8-0.9-1.4-0.8c-0.5,0.1-0.6,0.4-0.6,1     c0,1.9-1.2,1.7-2.3,1c-2.8-1.8-4.7-1.7-7.7,0.4c-0.2,0.3,0.2,0.8-0.4,0.9c0.1-0.3,0.3-0.6,0.4-0.8c-0.7-1.2-1.6-1.4-2.8-0.7l0,0     c-1-0.7-1.6-0.2-2.2,0.7l0,0c-5-1.6-10-0.2-15-0.3c-0.8,0-1.7,1.1-2.5,1.7l0-0.1c0,0.3,0,0.5,0,0.8l0,0c2.8-0.2,5.6-0.5,8.4,0     c0.1-0.5-0.2-1.1,0.5-1.4c0.3,0.7-0.1,1.1-0.6,1.4c0,0.2,0,0.4,0,0.7c4.1-1.1,8,1,12.1,0.3c0.9-0.2-0.1,0.7-0.2,1.1l0,0     c0.7,0.3,1.5,0.7,2,0.2c2.4-2.1,5.4-0.7,8-1.3c2.2-0.4,4.7,0.4,7,0.7c2.1,0.2,3.8-0.4,5.7-0.7C172.9,18.1,172.2,16.6,172.3,15.5     c-0.1-0.2-0.5,0.1-0.4-0.4C172,15.2,172.1,15.3,172.3,15.5z"></path>				<path id="Path_00000043436685617425873220000000352132198443632564_" class="st0" d="M128,17.6c0-0.6,0-1.5-0.5-1.5     c-2.1,0.1-4.4-0.8-6.5,1.4c1.8,0.4,3.7,0.1,4.8,1.4l0,0h0.8l0,0c0.5-0.2,0.9-0.5,1.4-0.7l0,0C127.8,18.1,127.8,17.8,128,17.6     L128,17.6z"></path>				<path id="Path_00000080204214030116382670000000212428334522850186_" class="st0" d="M112,19.1c1.2,0.7,2.5,1.1,4,0.8     c0.1-1.9-0.8-2.6-2.1-2.8C112.8,16.8,112,17.4,112,19.1z"></path>				<path id="Path_00000153664343906209177510000013021212013754329522_" class="st0" d="M82.1,30c0.3-0.9,0.6-1.8,0.9-3     c-1.5,0.1-2.7,0.5-4,1.1C79.7,29.6,81.3,29.2,82.1,30L82.1,30z"></path>				<path id="Path_00000049906583794461527470000016328078248061306530_" class="st0" d="M118,24c1.8,1.8,4.8,0.1,7,0.9     C123,23.8,120.3,24.4,118,24L118,24z"></path>				<path id="Path_00000137122985866741437830000000358913767130829999_" class="st0" d="M72,27.7c0.9,0.3,1.6,2.1,2.7,0.9     c0.6-0.6,0.2-1.6-0.4-2.1C73.1,25.4,72.5,26.3,72,27.7L72,27.7z"></path>				<path id="Path_00000093863730107178051410000007934931343549547711_" class="st0" d="M90,25.3c1.5,0.6,2.6,0.8,4,0.1     C92.8,25,91.6,25.1,90,25.3z"></path>				<path id="Path_00000027581056924331141710000010401124116889684896_" class="st0" d="M108,23.5c-0.1,0.4,0.3,0.5,1.1,0.5     c0.9,0,1.7-0.2,1.9-0.6c0.1-0.2-0.4-0.4-1-0.4C109.1,23,108.3,23.1,108,23.5z"></path>				<path id="Path_00000177479705600323412950000017550023380934351512_" class="st0" d="M119.4,18c0.3-0.1,0.5-0.3,0.6-0.6     c0.1-0.3-0.2-0.5-0.5-0.4c-0.3,0.1-0.5,0.3-0.4,0.6C119,17.8,119.1,18,119.4,18z"></path>				<path id="Path_00000121263961325207140550000005188293355493175694_" class="st0" d="M123,21.6c-0.9-0.3-1.8-0.5-3-0.1     C121.1,22,122.1,21.5,123,21.6L123,21.6z"></path>				<path id="Path_00000038392597462231576350000003714586515700995468_" class="st0" d="M113.1,24.2c0.1,0.3,0.2,0.7,0.6,0.7     c0,0,0.1-0.1,0.1-0.1C113.8,24.3,113.4,24.3,113.1,24.2L113.1,24.2z"></path>				<path id="Path_00000118355796374692437280000010019608489317071538_" class="st0" d="M107.5,17.5L107.5,17.5L107.5,17.5z"></path>				<path id="Path_00000137093066265545201140000000495918495190205629_" class="st0" d="M120.5,19.5L120.5,19.5L120.5,19.5z"></path>				<path id="Shape_00000165215450227821336400000001803591162490542237_" class="st0" d="M604.4,21.8l0.1-0.2l-0.2,0L604.4,21.8z      M624.3,23.5c0.1-0.1,0.2-0.3,0.3-0.4c-0.2-0.1-0.4-0.2-0.5-0.2c-0.1,0-0.2,0.3-0.3,0.4C624,23.4,624.2,23.5,624.3,23.5z      M528.2,16.4c0.2-0.1,0.5-0.1,0.5-0.2c0.2-0.4-0.1-0.6-0.4-0.6c-0.2,0-0.5,0.1-0.5,0.2C527.6,16.1,527.9,16.3,528.2,16.4z      M593.9,18c0.5,0,1.1,0.7,1.6-0.2C595,17.5,594.5,17.3,593.9,18z M591.5,17.3c-0.1-0.7-0.2-1.3-1.1-1.4c-0.1,0-0.4,0.3-0.3,0.4     C590.3,16.9,590.6,17.3,591.5,17.3z M601.1,17.9c-1.1-0.9-2.2-1-3.9-0.7C598.8,17.8,599.7,18.6,601.1,17.9z M521.7,14.6     c0.1,1.3,0.3,2.2,1.7,2.7C523.9,15.7,523,15.2,521.7,14.6z M580.9,17c0.1-0.1,0.2-0.1,0.2-0.2c0-0.1,0-0.2,0-0.3     C581.1,16.7,581,16.8,580.9,17c-1,0.1-1.9,0.3-1.8,1.7C580.7,19.1,580.6,17.8,580.9,17z M607.6,18.3c0.4,0,0.9,0.3,1.1-0.3     c0-0.1-0.2-0.5-0.3-0.5C607.8,17.4,607.8,17.9,607.6,18.3c-0.6-0.1-1.1-0.8-1.8-0.2c0.4,0.6,0.3,1.7,1.5,1.4     C607.5,19.4,607.5,18.7,607.6,18.3z M626.6,23l0.1-0.1L626.6,23l-0.1,0.1L626.6,23z M558.4,20.4c-2.6,0.6-4.9,2.4-7.8,1.3l0,0     c0.4-0.7,0.3-1.3-0.6-1.6c-0.7-0.2-1.1,0.2-1.2,0.8c-0.1,1.1-0.4,2-1.8,2.1l0,0c0.1-0.4,0.3-1.1,0.1-1.3     c-2.5-2.8-6.6-4.4-9.4-3.4c-3.1,1.1-3.9-0.5-5.4-1.5c-1.5,0.6,0.5,1.6-0.8,2.4c-1.2,0.4-2.1-1.4-3.6-1c-0.2-0.2-0.5-0.5-0.7-0.7     c-0.4-0.7-0.9-1.4-1.9-1c-0.3,0.1-0.5,0.5-0.3,0.8c0.7,0.8,1.4,0.4,2.2,0.1c0.2,0.2,0.5,0.5,0.7,0.7c-0.4,0.4-0.9,1.2-1.2,1.1     c-2.5-0.5-4.9-1.4-7.5-0.2c-0.5,0.2-1.1-0.7-1.1-1.4c-0.1-1.6,1.7-0.1,2.2-1.4c-2.5-0.6-4.4-2.6-7.6-2c-2.4,0.5-5-0.6-7.4-1     c-3.6-0.6-7.3-2.1-11.3-0.1c-1.9,0.9-5.2,1.6-7.6-0.4c-0.2-0.2-0.5-0.5-0.7-0.7c-0.4-0.5-0.9-0.7-1.4-0.3     c-0.1,0.1-0.1,0.4-0.1,0.5c0.6,0.4,1-0.1,1.5-0.2c0.2,0.2,0.5,0.4,0.7,0.7c-1.7,1.4-3.5,2.5-5.7,0.7l0,0     c-1.5-1.2-0.8-2.7-0.7-4.1l0,0c1.8-0.7,3.5-1.3,4.9,0.7l0,0c3.5-1.1,7-0.4,10.5,0c3.3,0.4,6.5,1.4,9.9,1.4l0,0     c0.7,0.8,1.4,1.7,2.2,0l0,0c5.3,0.7,10.6,0.3,16,1.6c6.3,1.5,12.9,2.9,19.6,2.3c1.1-0.1,2.3-0.3,3.1,0.9     c0.6,0.9,1.8,0.8,2.8,0.6c3.9-1,3.9-1,6.9,1.8c0.9-2.5,2.7-2.6,5-2.2c1.5,0.3,3.2-0.1,4.8-0.3c2-0.1,3.9-0.1,5.9,0.6     c1.9,0.6,4.1,0.8,5.8-0.9c0.4-0.4,1-0.7,1.5-0.8c2.7-0.5,5.2-1.1,7.8-2c2.6-0.9,5.9-0.4,9,0.1c5.7,0.8,11.4,1.7,16.9,3.1     c3.2,0.8,7,0.3,9.5,3.5c0.4-2.1,1.8-2.5,3.6-2c1,0.3,2,0.6,1.3,2.1c-0.4,0.9-0.2,0.9,1.4,1c0.3,0.3,0.3,0.8,0.9,0.6     c-0.1-0.6-0.6-0.4-0.9-0.6c1-1.7,2.1-2.4,4.3-1.3c1.4,0.7,3.5,0.2,4.9,1.3l0,0c0.2,0.6,0.2,1.2-0.7,1.4l0,0c-0.3,0-0.5,0-0.8,0     l0,0c-5.7-0.6-10.1,3.1-15.2,4.7c-0.1-1.4,1.1-1.1,1.4-1.9c-0.9-0.5-2.1-0.9-1.3-2.5c0.5-1.1-0.2-2.6-1.8-1.6     c-2.1,1.4-4.3,0.3-6.4,0.6c-1,0.2-2.1-1.1-2.9,0.9c-0.5,1.2-2.1-0.5-3.7-1.5c1,2.3-0.4,2.8-1.8,2.9c-0.8,0.1-2.3,1.1-2-1     c0.1,0.1,0.1,0.2,0.2,0.2c0.1,0,0.2,0,0.2,0c-0.2-0.1-0.3-0.1-0.5-0.2c-0.1-1.9-2.2-3.2-4.7-2.5c-2.9,0.8-5.7-0.1-8.6,0.4     c-2.2,0.3-0.9-2-0.7-3.3l0.1-0.2l-0.2,0.1c-0.8-0.3-1.5-0.7-2.7-0.4c1.3,2.1,1.2,3.9-1.5,4.9c-0.3,0.1-0.9,0.4-0.9,0.4     c-1.8-3.3-6.2-0.5-8.3-3c-0.7-0.8-1.1-0.4-2.1,0c-1.6,0.8-3.9,0.5-5.8,0.3c-1.9-0.2-3.6,0.2-5.3,0.8     C560.8,21.3,559.4,21.9,558.4,20.4c0.1-0.2,0.6,0.2,0.4-0.4C558.7,20.1,558.5,20.2,558.4,20.4z"></path>				<path id="Path_00000084499152654941469220000002986365169654189720_" class="st0" d="M666.1,31.9c-4-2.1-8.6-2.5-12.9-2.7     c-3.6-0.1-7.4-0.8-10.9,0.7c-0.7,0.3-1.3,0-1.9-0.5c-1-1.1-1.9-0.4-2.7,0.4l0,0c-2.6,0-5.1,1.7-7.8,0.7l0,0     c0.6-3.7,2-5.3,5.5-4.6c2.3,0.5,3.1-0.5,4.3-1.7c0.3,0.1,0.6,0.2,0.9,0.2c0,0,0.1-0.2,0.1-0.3c-0.3,0-0.6-0.1-0.9-0.1     c-0.3-1.1-1.1-1.8-2.2-2l0,0.1c1.6-2.1,2.9-0.6,3.9,0.5c0.7,0.7,0.9,1.8,1.5,3c3.7-1.3,7.7-1,11.3-0.4c3.3,0.5,6.8,1.7,10.2,2.1     c3.8,0.4,7.2,2.7,11.3,2.3c2.2-0.2,5.1-0.2,5.8,3.2c0.1,0.3,0.9,0.9,1.1,0.8c2.6-1.2,5.8,1,8.1-1.5l0,0c3.7-0.3,7.5-0.8,11,1.1     c2.3,1.2,4.6,2.3,7.3,2.2c0.3,0,0.8,0.1,1,0.3c2.4,2.8,5.7,1.7,8.6,2.1c2,0.3,3.9,0.8,5.4,2.4c0.6,0.6,1.2,1.3,0.5,2.1     c-0.6,0.7-1.4,1.1-2.2,0.5c-2-1.5-4.8-1.2-6.7-2.9c-0.5-0.5-1.2-0.7-1.9-0.7c-3.5-0.1-4.2-0.3-7.5-2.2c-0.6,2.9-2.3,2.2-4.1,1.3     l0,0c-0.7-1.3-2.1-2.2-1.2-4c-1.9,0.4-1.8,1.7-2.3,2.9c-4.7-2.3-9.6-1.3-14.3-1.8c-1-0.1-2.3,0.2-3-0.5c-3.2-3.4-7.2-2.4-11-2.1     l-0.2-0.1l0.2,0.2c-2.3,0.4-2.4-1.9-3.5-3C666.2,30.3,666.9,31.3,666.1,31.9L666.1,31.9z"></path>				<path id="Shape_00000074411381710939286750000016769245554415024549_" class="st0" d="M418.4,8.1c0.3-0.2,0.5-0.2,0.6-0.4     c0.2-0.3,0.2-0.6-0.3-0.7c-0.2,0-0.5,0.1-0.5,0.2C418.2,7.5,418.3,7.8,418.4,8.1z M414.7,7.5L414,6.1l0,0c2.3-1,4.8-0.3,7.2-0.8     c1.8-0.3,1.7,2,3,2.4c0.7-0.6-0.2-1.3,0.3-1.9c0.4-0.5,0.8-0.9,1.4-0.8c0.5,0.1,0.6,0.4,0.6,1c0,1.9,1.2,1.7,2.3,1     c2.8-1.8,4.7-1.7,7.7,0.4c0.2,0.3-0.2,0.8,0.4,0.9c-0.1-0.3-0.3-0.6-0.4-0.8c0.7-1.2,1.6-1.4,2.8-0.7l0,0c1-0.7,1.6-0.2,2.1,0.7     l0,0c5-1.6,10-0.2,15-0.3c0.8,0,1.7,1.1,2.5,1.7l0-0.1c0,0.3,0,0.5,0,0.8l0,0c-2.8-0.2-5.6-0.5-8.4,0c-0.1-0.5,0.2-1.1-0.5-1.4     c-0.3,0.7,0.1,1.1,0.6,1.4c0,0.2,0,0.4,0,0.7c-4.1-1.1-8,1-12.1,0.3c-0.9-0.2,0.1,0.7,0.2,1.1l0,0c-0.7,0.3-1.5,0.7-2,0.2     c-2.4-2.1-5.4-0.7-8-1.3c-2.2-0.4-4.7,0.4-7,0.7c-2.1,0.2-3.8-0.4-5.7-0.7C414.1,10.1,414.8,8.6,414.7,7.5     c0.1-0.2,0.5,0.1,0.4-0.4C415,7.2,414.9,7.3,414.7,7.5z"></path>				<path id="Shape_00000162338921273462674660000012883441892722060962_" class="st0" d="M653.7,32.5c0.5,1,1.1,1.5,2.2,0.9     C655.3,32.1,654.4,32.6,653.7,32.5l-0.1-0.1L653.7,32.5z M645.4,39.4c-1.8,1.9-4.1,1.5-6.3,1.5l0,0c0.4-2.5,2.6-3.3,4.1-3.5     c3.2-0.5,6.1-1.5,8.8-3.6c-2.5-0.4-4.9-0.9-7.4,0.4c-2.8,1.5-5.8,2.5-9,2l0,0.1c-0.1-0.8-1-1.4-0.6-2.7c3.4,0.5,6.2-1,9.3-2.8     c2.9-1.7,6.7-0.6,10.2-0.2c1.1,0.1,2.2,0.7,3.4,0.1c0.7-0.3,1.3-0.4,1.8,0.5c0.4,0.8,0.2,1.5-0.3,2.1c-1,1.3-1.5,3.6-3.9,2.5     c-0.5-0.3-1.5-0.2-2,0.2C651.2,38.2,648.2,38.5,645.4,39.4l-0.1-0.1L645.4,39.4z"></path>				<path id="Path_00000168117895646408784150000018018611458490982069_" class="st0" d="M460,7.6c0-0.6,0-1.5,0.5-1.5     c2.1,0.1,4.4-0.8,6.5,1.4c-1.8,0.4-3.7,0.1-4.8,1.4l0,0h-0.8l0,0c-0.5-0.2-0.9-0.5-1.4-0.7l0,0C460.2,8.1,460.2,7.8,460,7.6     L460,7.6z"></path>				<path id="Path_00000095332952762955365300000009170918351506525617_" class="st0" d="M476,10.1c-1.2,0.7-2.5,1.1-4,0.8     c-0.1-1.9,0.8-2.6,2.1-2.8C475.2,7.8,476,8.4,476,10.1z"></path>				<path id="Path_00000044891066614758086550000004650113102065389489_" class="st0" d="M505.9,23c-0.3-0.9-0.6-1.8-0.9-3     c1.5,0.1,2.7,0.5,4,1.1C508.3,22.6,506.7,22.2,505.9,23L505.9,23z"></path>				<path id="Path_00000097492174742772782590000000792623917370055611_" class="st0" d="M470,16c-1.8,1.8-4.8,0.1-7,0.9     C465,15.8,467.7,16.4,470,16L470,16z"></path>				<path id="Path_00000041260819917185585000000010216747949725697173_" class="st0" d="M515,19.7c-0.9,0.3-1.6,2.1-2.7,0.9     c-0.6-0.6-0.2-1.6,0.4-2.1C513.9,17.4,514.5,18.3,515,19.7L515,19.7z"></path>				<path id="Path_00000177472848985731170150000000865778016847822484_" class="st0" d="M497,16.3c-1.5,0.6-2.6,0.8-4,0.1     C494.2,16,495.4,16.1,497,16.3z"></path>				<path id="Path_00000152261306862241704930000015639442847297594544_" class="st0" d="M480,15.5c0.1,0.4-0.3,0.5-1.1,0.5     c-0.9,0-1.7-0.2-1.9-0.6c-0.1-0.2,0.4-0.4,1-0.4C478.9,15,479.7,15.1,480,15.5z"></path>				<path id="Path_00000044880208069699065660000008165253826805255820_" class="st0" d="M469.6,9c-0.3-0.1-0.5-0.3-0.6-0.6     c-0.1-0.3,0.2-0.5,0.5-0.4c0.3,0.1,0.5,0.3,0.5,0.6C470,8.8,469.9,9,469.6,9z"></path>				<path id="Path_00000142875379784258960870000009582330086253416078_" class="st0" d="M466,13.6c0.9-0.3,1.8-0.5,3-0.1     C467.9,14,466.9,13.5,466,13.6L466,13.6z"></path>				<path id="Path_00000005262362309542540780000013486902538165955505_" class="st0" d="M474.9,16.2c-0.1,0.3-0.2,0.7-0.6,0.7     c0,0-0.1-0.1-0.1-0.1C474.2,16.3,474.6,16.3,474.9,16.2L474.9,16.2z"></path>				<path id="Path_00000029043078236095057780000005208773906194910864_" class="st0" d="M479.5,9.5L479.5,9.5L479.5,9.5z"></path>				<path id="Path_00000027604771400461033370000003300230893581877650_" class="st0" d="M466.5,11.5L466.5,11.5L466.5,11.5z"></path>				<path id="Shape_00000085211922531199040010000002363328040197795978_" class="st0" d="M303.7,5.6c-0.1,0.2-0.1,0.4-0.2,0.5     c-0.1,0.1-0.3,0-0.5-0.1c0.1-0.2,0.1-0.4,0.2-0.5C303.3,5.5,303.5,5.6,303.7,5.6z M394,2.6c0.1-0.1,0.3-0.4,0.4-0.4     c0.4-0.1,0.7,0.1,0.5,0.5c-0.1,0.1-0.4,0.3-0.5,0.3C394.2,2.9,394.1,2.7,394,2.6z M319,5.2c-0.2,0.2-0.5,0.5-0.8,0.3     c-0.1,0,0-0.2-0.1-0.3C318.4,5.2,318.8,5.2,319,5.2L319,5.2z M328.8,4.5l-0.1,0.1L328.8,4.5l0.1-0.1L328.8,4.5z M256,16.6     c3.3,0.1,6.1-1.6,9.3-2.1c2.5-0.4,5.2,0.1,7.5-1.2l0,0c-0.2-0.2-0.2-0.5,0-0.7l-0.1,0.1c0.2-0.2,0.4-0.2,0.6-0.1     c0.1,0.1,0.2,0.2,0.3,0.3l0,0.3l-0.1,0.3l0,0c0.7,1.2,1.6,1.8,2.9,1.3c1.2-1.1-2.1-1.6,0-2.6l0,0c0.5,0.8,1.4,0.6,2.1,0.7l0,0     l1.4-1.4l0,0c0.5-0.5,1-0.6,1.5,0l0,0c0.9,0,1.9-0.4,2.7,0.1c5.2,2.7,10.9,3.6,16.3,5.5c2.8,1,5.8,1.9,8.3,3.8l0,0     c1.7-0.5,3.2,0.2,4.6,1c1.3,0.8,2.5,0.4,2.9-0.7c0.3-1,1.4-2.4-0.5-3.4c-2.5-1.2-4.9-2.6-7.7-2.9c0,0.2,0,0.5,0,0.7     c0.5,0,1.2-0.2,1.3,0.5c0,0.1-0.1,0.2-0.2,0.3c-0.8,0.3-1-0.3-1.1-0.8c0-0.2,0-0.4,0-0.7c-1.1-0.3-2.1,0.7-3.5-0.7     c-1.6-1.5-4.7-1.4-7.1-2c-1.9-0.5-3.7-1.2-5.6-1.6c-0.2-1.3,1-1.1,1.5-1.7l0,0c3.1,1.5,6.4,2.1,9.8,2.7l0,0     c0.1-0.1,0.2-0.1,0.2-0.1c0.2,0,0.3,0.1,0.5,0.1l0,0c1.2-1.4,2.4-0.7,3.5,0c0.2-0.5-0.3-1.4,1-1.5c0.1,0.8-0.5,1.2-1,1.5     c0.4,1.1,1,1,1.9,0.5c1.1-0.7,2.1-1.4,3.2-2c1.9-1,3.7-1.7,6.1-0.6c1.9,0.9,4.2,0.9,6.4,0.7l0,0c0.7-1.4,1.1-0.4,1.6,0.2     c0.8,0.9,1,2.4,2.6,2.3c3.6-0.3,6.2,2.1,9.2,3.4c1.6,0.7,3.1,1.4,4.9,0.9l-0.2-0.1l0.1,0.2c0.1-1.3-0.3-2.3-1.3-2.5     c-3.2-0.6-6-1.4-8-4.4c-0.7-1.1-3.1-0.4-4.5-2.2c4.2,0.6,8,0.4,11.7,0.3l-0.1,0c0.5-1.5,1.3-2.4,3-1.2c0.8,0.6,1.7,0.5,2.7,0.5     l0,0c-0.6-0.7-0.9-1.9,0.4-1.4c4,1.4,7.7,0.3,11.4-0.7c1.6-0.4,2.3,0.5,3.3,1.3c0.7,0.5,0.7,0.5,1.8-0.5c0.5-0.5,1-0.5,1.5-0.2     c1.3,0.7,2.7,0.6,4,0.2l0,0c0.1-0.8,0.2-1.6,1.5-1.2c2.6,0.8,5.2,0.6,7.9,0.3c2.1-0.2,4.2,0.6,6.4-0.2c1.2-0.5,1.8,0.6,1.1,1.8     l0,0c3.7-1.7,7.5,0.8,11.2,0c0.4-0.4,0.8-0.7,1.3-0.2c0.1,0.1,0.1,0.2,0,0.3c-0.5,0.5-0.9,0-1.4-0.1c-0.1,0.8,0.3,1.2,1.1,1.3     c0.9,0.1,1.5,0.5,1.7,1.4l0,0c0.9-0.3,1.9-0.5,2.1-1.5c0.1-0.9-0.8-0.9-1.4-1.2l0,0c0.2-0.5,0.5-0.9,0.7-1.4l0,0     c0.3,0,0.5,0,0.8,0l0,0c1.5,0.8,3,1,4.7,0.8c1.9-0.2,3.9-0.4,5.8,0.5c2.4,1.1,4.3-0.1,6-1.4c1.2-0.9,0.9-2.1-0.5-2.1     c-3.6,0-7.2-0.4-10.7,0.6c-0.2,0.1-0.3,0.6-0.5,0.8l0,0c-1.5-0.5-0.5-2.3-1.8-3.1c-0.9,0.1-2,0.3-3.1,0.5l0,0     c-0.1,0.2-0.4,0.5-0.4,0.5c-4.9-2.6-10.3-1.5-15.5-1.7c-2.2-0.1-4.4,0-6.6-0.4c-0.6-0.1-1.4-0.3-1.7-0.1c-2.2,2-4.4,0.8-6.7,0.4     c-0.2,0-0.2,0.5-0.5,0.1c0.2,0,0.4-0.1,0.6-0.1c-0.1-0.1-0.2-0.2-0.3-0.2c-4,1.1-8.2-1-12.2,0.5c-1.6,0.6-3.4,0.3-4.8,0     c-2.7-0.6-4.9-1.3-7.4,0.6c-1.1,0.9-3.2-0.2-5.1-0.1c-3.4,0.3-6.8,0.8-10.4,0.4c-5.5-0.6-11.2-0.9-16.3,2.6     c-1.6,1.1-4.3,1.1-6.4,0.8c-4.2-0.6-8.3,0.1-12.3,0.8c-3.1,0.5-6.3-0.8-9.2,0.8c-1.7,1-4.1-0.2-5.5,1.7c-0.7,1-1.5-0.4-2.5-0.4     c-2.8,0.2-5.3,1.3-7.9,2c-2.4,0.6-5.3-0.3-7.4,2.2c-0.9,1.1-1.9-0.6-2.4-1.6l0,0c-0.7,0.2-1.4,0.4-2.2,0.6     c0,0.3,0.1,0.6,0.1,0.9c-0.1,0-0.3,0-0.3,0c-0.2-0.3,0-0.6,0.2-0.9c-1.9-1-2.8,1.1-4.4,1.4c-4.9,0.8-9.8,1.6-14.7,2.3     c-0.8,0.1-1.8-0.1-1.7,1.1c0,1,0.7,1.5,1.6,1.4c1.7-0.2,3.2,0.5,4.8,0.6c1.9,0,3.7,0.2,5.6,1.6c-1.1-2,0.7-2.8,0.9-4.6     c1.2,1.9,2.6,2.4,4.3,1.6l0,0c0.2-0.5,0-1.4,0.7-1.3C256.9,15.5,256.1,16.2,256,16.6L256,16.6z"></path>				<path id="Shape_00000101807867644171577210000004715818389346253477_" class="st0" d="M203.3,17.1c0,0.1-0.1,0.2-0.1,0.3     c-0.1,0-0.2,0-0.3-0.1c0-0.1,0.1-0.2,0.1-0.3C203,17,203.2,17.1,203.3,17.1z M210,20.1c-0.1,0-0.2-0.1-0.2-0.1     c0.1-0.1,0.1-0.3,0.2-0.4c0,0,0.2,0,0.2,0.1C210.1,19.8,210.1,19.9,210,20.1z M211.5,18.6c0.1,0.1,0.6-0.2,0.5,0.3     C211.8,18.8,211.7,18.7,211.5,18.6c-0.1-0.1-0.6,0.2-0.4-0.4C211.2,18.4,211.3,18.5,211.5,18.6z M217.1,18l0.2,0.1L217.1,18     L217.1,18z M202.4,19.9c1.8,0.8,3.3,2.5,5.6,1.4c-1.9-0.1-2-1.4-2-2.7l-0.1-0.1l0.1,0.1c0.2,0,0.5,0,0.7,0     c0.5-0.3,1-0.8,1.7-0.3c-0.5,0.6-1.2,0.2-1.7,0.3c-0.1,1.2,0.6,1.9,1.5,2.6c0.8,0.7,1.7,0.9,2.8,0.7l0,0     c2.5-0.3,5.1-0.4,7.1-2.4c0.7-0.7,1.4,0.2,0.6,1.1l0,0c0.6,0.3,1.5,0.8,1.9,0.2c1.5-2.2,3.6-1.5,5.8-1.4c2.4,0.1,5,0.5,7-1.4     l0,0c1-0.5,2.2-0.7,2.9-2.1c-2.7-1.7-5.6-0.5-8.2-0.2c-7.8,0.8-15.5,0.1-23.2-0.6c-2.8-0.3-5.6,1-8.5,0.5     c-0.4-0.1-0.9-0.2-1.3-0.3l0,0c-0.2-0.4-0.5-0.9-0.7-1.3l0,0c-2.1,0.8-4.4,0.6-6.4,0.4c-4.6-0.6-9.2,0.3-13.8-0.4l0,0     c-0.2,0.2-0.4,0.3-0.6,0.5c-0.1,0.1-0.2,0.3-0.2,0.4c1.2,1.6,3.5,1.3,5,2.4l-0.1,0c1-0.4,2-0.9,3-0.6c3.4,1.4,7.2,0.3,10.6,1.4     c0.8,0.3,1.8-0.3,2.3-0.1C196.6,19.4,199.9,18,202.4,19.9L202.4,19.9z"></path>			</g>		</g>	</g></g></svg>