<svg xmlns="http://www.w3.org/2000/svg" xmlns:xlink="http://www.w3.org/1999/xlink" id="Layer_1" x="0px" y="0px" viewBox="0 0 1094 199" style="enable-background:new 0 0 1094 199;" xml:space="preserve"><style type="text/css">	.st0{fill-rule:evenodd;clip-rule:evenodd;fill:#0A1E33;}	.st1{fill:#E46A4B;}	.st2{display:none;fill-rule:evenodd;clip-rule:evenodd;fill:#F7F7F7;}	.st3{display:none;}	.st4{display:inline;fill-rule:evenodd;clip-rule:evenodd;fill:#0A1E33;}	.st5{display:inline;}	.st6{fill:none;stroke:#99B8BA;stroke-linecap:square;stroke-dasharray:10;}	.st7{display:none;fill-rule:evenodd;clip-rule:evenodd;fill:#0A1E33;}	.st8{display:inline;fill-rule:evenodd;clip-rule:evenodd;fill:#F7F7F7;}</style><g id="Home-1">	<g id="De-bebe---Home-1-" transform="translate(-1150.000000, -6853.000000)">		<g id="Group-28-Copy" transform="translate(150.000000, 6851.000000)">			<g id="Group-25" transform="translate(900.000000, 2.000000)">				<path id="envelop" class="st0" d="M232.5,69.2c-0.9-4.5-5-3.9-8.6-3.9h-21.3c-5,0-10.6-0.7-15.6,0c-4.7,0.7-4.7,3.9-4.7,7.8     c0,6.2-0.9,13.2,0,19.3c0.6,4.1,3.1,4.3,6.5,4.4c13,0.3,26.1,0,39.2,0c0.2,0,0.3,0,0.4-0.1c5.2-1.2,4-6.6,4-10.9     C232.6,80.7,233.6,74.3,232.5,69.2L232.5,69.2z M230.6,92.4c-4.2-3.9-8.1-8.6-11.7-13c0,0,0,0,0,0c3.9-3.3,7.6-6.8,11.2-10.4     c1.4,2.4,0.7,6.2,0.7,9.2C230.7,80.3,231.8,88,230.6,92.4L230.6,92.4z M194.1,66.7h17.6c4.7,0,10-0.7,14.7,0     c1.3,0.2,2.1,0.6,2.8,1.3c-3.5,3.6-7.1,7.2-11,10.4c-2.5,2.2-6.5,7.3-10,7c-3-0.3-7.8-5-10.3-6.8c-4.3-3.2-8.7-6.7-11.9-11.1     c0,0-0.1-0.1-0.1-0.1C188.1,66,191.7,66.7,194.1,66.7L194.1,66.7z M184.3,69.6c0.1-0.4,0.3-0.7,0.5-1c3.2,4.2,7.5,7.7,11.8,10.8     c-4,4.2-8.1,8.5-12.1,12.7c-0.7-2.4-0.2-5.6-0.2-8.1C184.3,79.9,183.1,73.7,184.3,69.6L184.3,69.6z M228.1,95.5h-26.7     c-4.1,0-9.7,1-13.6,0c-1.4-0.4-2.3-1.2-2.9-2.2c0.1,0,0.2-0.1,0.3-0.2c4.1-4.3,8.2-8.7,12.3-13c0.4,0.3,0.8,0.6,1.2,0.9     c2.4,1.7,6.8,5.9,10.2,5.7c3.1-0.2,6.3-3.9,8.6-6.2c3.8,4.7,7.9,9.5,12.4,13.5C229.5,94.8,228.9,95.3,228.1,95.5L228.1,95.5z"></path>			</g>		</g>	</g></g><g id="Home-1_00000005263924946961927180000003421879900407022234_">			<g id="De-bebe---Home-1-_00000132050762589663458130000015152442524953903234_" transform="translate(-1217.000000, -7121.000000)">		<g id="Footer" transform="translate(-11.000000, 7058.000000)">			<g id="Group-8" transform="translate(104.000000, 49.000000)">				<g id="post" transform="translate(1124.000000, 14.000000)">					<path id="Shape" class="st0" d="M1029.4,75.7c-16-6.5-39.3,2.7-53.8,9.5c-6.2,2.9-9.5,7.7-11.1,14.3      c-1.1,4.7-2.6,14.7,0.5,19.3c0,0.1,0.1,0.1,0.2,0.2c-5.9,8.9-12.4,23.2,1.9,26.7c13.9,3.4,28.1-0.5,36.4-12.4      c2.4-3.5,3.8-6.6,4.6-9.9c2.3-0.5,4.6-1,7-1.6v28.9c0,0.5,0.4,0.8,0.9,0.8h6.2c0.9,0.1,2.1-0.4,2.1-1.1v-31.1      c6.1-1.8,12.1-3.8,18.1-5.7c0.5-0.2,1.2-0.6,1.2-1.2C1043,98.9,1044.1,81.7,1029.4,75.7L1029.4,75.7z M976.6,86.3      c0.3-0.1,0.6-0.3,0.9-0.4c9-1.4,15.5,1.5,19.8,6.8c-5.4-0.1-11.1-0.5-16.4,0.1c-2.2,0.2-3.7,1-4.8,2.1      c-0.4,0.2-0.7,0.5-0.7,0.8c-2.7,3.8-1.7,10.4-1.7,15.3c0,3-0.5,6.4,1.8,8.8c1.2,1.2,2.6,1.6,4,1.8c-3.4-0.3-9.9-0.4-12.3-2.9      c-1.8-1.9-1.8-6.2-1.9-8.6C965,100.4,967.3,90.5,976.6,86.3L976.6,86.3z M1004.3,120.6c-7.9,1.4-16.1,1-24-0.1      c0.9,0.1,1.8,0,2.8,0L1004.3,120.6C1004.3,120.6,1004.3,120.6,1004.3,120.6L1004.3,120.6z M989.8,119.4c-2.5,0-5.2,0.3-7.7,0      c-1.8-0.2-3-1-3.7-2.1c3.2-3.6,6.4-7.2,9.6-10.7c0.9,0.6,1.8,1.2,2.6,1.7c4.7,2.8,8.5,2.2,12.8-0.3c0.1,0.7,0.2,1.4,0.3,2.1      c0.4,3.3,0.7,6.4,0.6,9.3L989.8,119.4L989.8,119.4z M977.3,112.4v-10.1c0-1.4,0.1-2.7,0.5-3.8c2.4,2.8,5.4,5.4,8.5,7.6      c-2.9,3.1-5.8,6.3-8.7,9.4C977.4,114.5,977.3,113.5,977.3,112.4L977.3,112.4z M993.2,107.1c-2.2-1.3-4.3-3-6.3-4.6      c-2.7-2.3-5.5-4.7-7.6-7.6c0.6-0.4,1.4-0.8,2.4-1c5.3-1,11.5,0,16.8,0c0,0,0,0,0,0c2.2,3.5,3.8,7.9,4.7,12.6      C999.8,108.8,996.8,109.3,993.2,107.1L993.2,107.1z M977.5,144.5c-4.4,0.1-13.1-0.3-16-4.2c-2.3-3.1-0.7-8,0.5-11.2      c1.1-3,2.6-5.9,4.3-8.6c3.3,2.1,8.4,2.4,11.8,2.8c8.6,1,17.6,1.4,26.2,0.3c-0.3,1.1-0.7,2.2-1.2,3.4      C998.3,137.3,989.1,144.2,977.5,144.5L977.5,144.5z M1020.3,149.4c-1.1,0.1-2.2,0.2-3-0.1c0-0.2,0-0.6,0.1-1.2      c0.6-4.2,0-9.1,0-13.4c0-4.2,0.5-8.9,0-13c-0.1-0.5,0-0.9,0-1.2c1-0.3,1.9-0.6,2.9-0.9C1020.3,129.5,1020.3,139.4,1020.3,149.4      L1020.3,149.4z M1029,115.7c-7,2.1-13.9,4.3-21.1,5.8c0.4-3.1,0.3-6.3-0.2-10.2c-1.7-15.1-9-26.7-23.4-27.2      c7-2.6,14.4-4.6,21.4-6.2c11.3-2.6,27.1-2.9,31.7,10.4c2.1,6.1,3.8,17,2.5,23.3c-0.1,0.4,0,0.6,0.1,0.7      c-0.3,0.1-0.7,0.2-1.4,0.4C1035.4,113.8,1032.2,114.7,1029,115.7L1029,115.7z"></path>											<g id="Group-22" transform="translate(78.409431, 73.123526) rotate(39.000000) translate(-78.409431, -73.123526) translate(23.000000, 62.000000)">						<path id="Path" class="st1" d="M889.3-531.5c-0.1,0-0.2,0-0.3,0c-0.1,0-4.2-1-6.9-1.2c-0.5,0-0.9-0.5-0.9-0.9       c0.1-0.5,0.5-0.9,1-0.8c2.9,0.2,7.1,1.2,7.2,1.3c0.5,0.1,0.8,0.6,0.7,1.1C890.1-531.7,889.7-531.5,889.3-531.5z"></path>						<path id="Path_00000149350048890997328900000005481791372320059527_" class="st1" d="M881.3-543c-0.1,0-0.2,0-0.3,0       c-0.1,0-4.2-1-6.9-1.2c-0.5,0-0.9-0.5-0.9-0.9c0.1-0.5,0.5-0.9,1-0.8c2.9,0.2,7.1,1.2,7.2,1.3c0.5,0.1,0.8,0.6,0.7,1.1       C882.1-543.2,881.7-543,881.3-543z"></path>						<path id="Path_00000125580293073845386030000000766078198339514021_" class="st1" d="M863.5-535.6c-0.4,0-0.8-0.2-0.9-0.6       c-0.2-0.5,0.1-1,0.6-1.1c2.8-0.8,7-1.2,7.2-1.3c0.5-0.1,1,0.3,1.1,0.8c0.1,0.5-0.3,0.9-0.9,1c-0.1,0-4.3,0.5-6.9,1.2       C863.7-535.6,863.6-535.6,863.5-535.6z"></path>						<path id="Path_00000145742567441059594210000006016072658595053453_" class="st1" d="M851.7-538.9c-0.4,0-0.8-0.3-0.9-0.7       c-0.1-0.5,0.2-1,0.7-1.2c2.8-0.7,7.1-1.1,7.3-1.1c0.5-0.1,1,0.4,1,0.9c0.1,0.5-0.4,1-0.9,1c-0.1,0-4.3,0.3-6.9,1       C851.9-539,851.8-538.9,851.7-538.9z"></path>						<path id="Path_00000065033835769887389500000016045440616676793008_" class="st1" d="M832.2-542.4c-0.4,0-0.8-0.3-0.9-0.7       c-0.1-0.5,0.2-1,0.7-1.2c2.8-0.7,7.1-1.1,7.3-1.1c0.5-0.1,1,0.4,1,0.9c0,0.5-0.4,1-0.9,1c-0.1,0-4.3,0.3-6.9,1       C832.4-542.4,832.3-542.4,832.2-542.4z"></path>						<path id="Path_00000137815510314819242350000014824430237440172943_" class="st1" d="M815.5-539.2c-0.4,0-0.8-0.3-0.9-0.7       c-0.1-0.5,0.2-1.1,0.7-1.2c2.8-0.7,7.1-1.1,7.3-1.1c0.5,0,1,0.4,1,0.9c0.1,0.5-0.4,1-0.9,1c-0.1,0-4.3,0.3-6.9,1.1       C815.7-539.2,815.6-539.2,815.5-539.2z"></path>						<path id="Path_00000060744305765921638620000008994221593709744823_" class="st1" d="M817.6-532.8c0,0-0.1,0-0.1,0       c-0.1,0-4.2-0.5-6.9-0.3c-0.5,0.1-1-0.4-1-1c-0.1-0.6,0.4-1.2,0.9-1.2c2.9-0.3,7.1,0.3,7.2,0.3c0.5,0.1,0.9,0.6,0.8,1.2       C818.5-533.2,818.1-532.8,817.6-532.8z"></path>						<path id="Path_00000011005250276348335900000013965635905529493684_" class="st1" d="M851.5-529.7c-0.4,0-0.8-0.3-0.9-0.7       c-0.1-0.5,0.2-1,0.7-1.2c2.8-0.7,7.1-1.1,7.3-1.1c0.5-0.1,1,0.4,1,0.9c0,0.5-0.4,1-0.9,1c-0.1,0-4.3,0.3-6.9,1       C851.6-529.8,851.5-529.7,851.5-529.7z"></path>						<path id="Path_00000171722070315478353440000008099002311803899836_" class="st1" d="M841.9-533.6c-0.4,0-0.8-0.3-0.9-0.7       c-0.1-0.5,0.2-1,0.7-1.2c2.8-0.7,7.1-1.1,7.3-1.1c0.5-0.1,1,0.4,1,0.9c0.1,0.5-0.4,1-0.9,1c-0.1,0-4.3,0.3-6.9,1       C842.1-533.6,842-533.6,841.9-533.6z"></path>						<path id="Path_00000114060616141853156800000010956908933726498235_" class="st1" d="M836-525c-0.4,0-0.8-0.3-0.9-0.7       c-0.1-0.5,0.2-1,0.7-1.2c2.8-0.7,7.1-1.1,7.3-1.1c0.5-0.1,1,0.4,1,0.9c0.1,0.5-0.4,1-0.9,1c-0.1,0-4.3,0.3-6.9,1       C836.2-525,836.1-525,836-525z"></path>						<path id="Path_00000181805134052112841520000001024013446151409316_" class="st1" d="M811.8-524.7c-0.4,0-0.8-0.3-0.9-0.7       c-0.1-0.5,0.2-1,0.7-1.2c2.8-0.7,7.1-1.1,7.3-1.1c0.5-0.1,1,0.4,1,0.9c0,0.5-0.4,1-0.9,1c-0.1,0-4.3,0.3-6.9,1       C812-524.7,811.9-524.7,811.8-524.7z"></path>						<path id="Path_00000150064484737959437860000005329319024249930686_" class="st1" d="M792-525.3c-0.4,0-0.8-0.3-0.9-0.7       c-0.1-0.5,0.2-1,0.7-1.2c2.8-0.7,7.1-1.1,7.3-1.1c0.5-0.1,1,0.4,1,0.9c0,0.5-0.4,1-0.9,1c-0.1,0-4.3,0.3-6.9,1       C792.2-525.3,792.1-525.3,792-525.3z"></path>						<path id="Path_00000031197513748945348250000012464198439119221694_" class="st1" d="M893.8-526.7c-0.4,0-0.8-0.3-0.9-0.7       c-0.1-0.5,0.2-1.1,0.7-1.2c2.8-0.7,7.1-1.1,7.3-1.1c0.5,0,1,0.4,1,0.9c0,0.5-0.4,1-0.9,1c-0.1,0-4.3,0.3-6.9,1.1       C894-526.7,893.9-526.7,893.8-526.7z"></path>						<path id="Path_00000179621750744746091550000004677146868858053024_" class="st1" d="M875-524c0,0-0.1,0-0.1,0       c-0.1,0-4.2-0.5-6.9-0.2c-0.5,0.1-1-0.4-1.1-1s0.3-1.2,0.9-1.2c2.8-0.3,7.1,0.2,7.2,0.2c0.5,0.1,0.9,0.6,0.9,1.2       C875.9-524.4,875.5-524,875-524z"></path>					</g>				</g>			</g>		</g>	</g></g><g id="Home-1_00000100359869662745288960000014612340705176217751_">	<g id="De-Bebe---Home-1-" transform="translate(71.000000, -7035.000000)">		<g id="Floor" transform="translate(-71.000000, 7035.000000)">			<path id="Path_00000068674599363329189240000008526533838237012655_" class="st2" d="M-209.5,10.3V104h1446.2V2.5L1049.4-9.2    H947.2c-60.6,5.7-195.8,13.7-252,0C625-26.4,584.5-3,554.8-17C531-28.2,436.8-44,392.5-50.5L352-45.8    C291-60.6,167.9-57.5,133.4-60.6c-27.5-2.5-96.8,8.8-128,14.8c-88.9-10.1-132.6,1.6-159.2,6.2c-26.5,4.7-48.5-26.6-55.8,0    C-216.8-13-211.2-14-209.5,10.3z"></path>			<g id="post_00000024681295889277527460000015698746541590441394_" transform="translate(1239.000000, 124.000000)" class="st3">				<path id="Shape_00000079472101895850304530000018167403539490155914_" class="st4" d="M-208.2-58.8c-16-6.5-39.3,2.7-53.8,9.5     c-6.2,2.9-9.5,7.7-11.1,14.3c-1.1,4.7-2.6,14.7,0.5,19.3c0,0.1,0.1,0.1,0.2,0.2c-5.9,8.9-12.4,23.2,1.9,26.7     c13.9,3.4,28.1-0.5,36.4-12.4c2.4-3.5,3.8-6.6,4.6-9.9c2.3-0.5,4.6-1,7-1.6v28.9c0,0.5,0.4,0.8,0.9,0.8h6.2     c0.9,0.1,2.1-0.4,2.1-1.1v-31.1c6.1-1.8,12.1-3.8,18.1-5.7c0.5-0.2,1.2-0.6,1.2-1.2C-194.5-35.6-193.5-52.8-208.2-58.8     L-208.2-58.8z M-261-48.2c0.3-0.1,0.6-0.3,0.9-0.4c9-1.4,15.5,1.5,19.8,6.8c-5.4-0.1-11.1-0.5-16.4,0.1c-2.2,0.2-3.7,1-4.8,2.1     c-0.4,0.2-0.7,0.5-0.7,0.8C-265-35-264-28.4-264-23.5c0,3-0.5,6.4,1.8,8.8c1.2,1.2,2.6,1.6,4,1.8c-3.4-0.3-9.9-0.4-12.3-2.9     c-1.8-1.9-1.8-6.2-1.9-8.6C-272.6-34.1-270.2-44-261-48.2L-261-48.2z M-233.2-13.9c-7.9,1.4-16.1,1-24-0.1c0.9,0.1,1.8,0,2.8,0     L-233.2-13.9L-233.2-13.9L-233.2-13.9z M-247.9-15.1c-2.5,0-5.2,0.3-7.7,0c-1.8-0.2-3-1-3.7-2.1c3.2-3.6,6.4-7.2,9.6-10.7     c0.9,0.6,1.8,1.2,2.6,1.7c4.7,2.8,8.5,2.2,12.8-0.3c0.1,0.7,0.2,1.4,0.3,2.1c0.4,3.3,0.7,6.4,0.6,9.3H-247.9L-247.9-15.1z      M-260.2-22.1v-10.1c0-1.4,0.1-2.7,0.5-3.8c2.4,2.8,5.4,5.4,8.5,7.6c-2.9,3.1-5.8,6.3-8.7,9.4C-260.1-20-260.2-21-260.2-22.1     L-260.2-22.1z M-244.4-27.4c-2.2-1.3-4.3-3-6.3-4.6c-2.7-2.3-5.5-4.7-7.6-7.6c0.6-0.4,1.4-0.8,2.4-1c5.3-1,11.5,0,16.8,0l0,0     c2.2,3.5,3.8,7.9,4.7,12.6C-237.8-25.7-240.9-25.2-244.4-27.4L-244.4-27.4z M-260.1,10c-4.4,0.1-13.1-0.3-16-4.2     c-2.3-3.1-0.7-8,0.5-11.2c1.1-3,2.6-5.9,4.3-8.6c3.3,2.1,8.4,2.4,11.8,2.8c8.6,1,17.6,1.4,26.2,0.3c-0.3,1.1-0.7,2.2-1.2,3.4     C-239.2,2.8-248.5,9.7-260.1,10L-260.1,10z M-217.2,14.9c-1.1,0.1-2.2,0.2-3-0.1c0-0.2,0-0.6,0.1-1.2c0.6-4.2,0-9.1,0-13.4     c0-4.2,0.5-8.9,0-13c-0.1-0.5,0-0.9,0-1.2c1-0.3,1.9-0.6,2.9-0.9C-217.2-5-217.2,4.9-217.2,14.9L-217.2,14.9z M-208.6-18.8     c-7,2.1-13.9,4.3-21.1,5.8c0.4-3.1,0.3-6.3-0.2-10.2c-1.7-15.1-9-26.7-23.4-27.2c7-2.6,14.4-4.6,21.4-6.2     c11.3-2.6,27.1-2.9,31.7,10.4c2.1,6.1,3.8,17,2.5,23.3c-0.1,0.4,0,0.6,0.1,0.7c-0.3,0.1-0.7,0.2-1.4,0.4     C-202.1-20.7-205.5-19.8-208.6-18.8L-208.6-18.8z"></path>									<g id="Group-22_00000090985060871207131130000006488653488463745952_" transform="translate(78.409431, 73.123526) rotate(39.000000) translate(-78.409431, -73.123526) translate(23.000000, 62.000000)" class="st5">					<path id="Path_00000123401773883728145550000015824947340330135169_" class="st1" d="M-157.1,142.9c-0.1,0-0.2,0-0.3,0      c-0.1,0-4.2-1-6.9-1.2c-0.5,0-0.9-0.5-0.9-0.9c0.1-0.5,0.5-0.9,1-0.8c2.9,0.2,7.1,1.2,7.2,1.3c0.5,0.1,0.8,0.6,0.7,1.1      C-156.3,142.6-156.7,142.9-157.1,142.9z"></path>					<path id="Path_00000005954801679531605420000002975251030743444141_" class="st1" d="M-165.2,131.4c-0.1,0-0.2,0-0.3,0      c-0.1,0-4.2-1-6.9-1.2c-0.5,0-0.9-0.5-0.9-0.9c0.1-0.5,0.5-0.9,1-0.8c2.9,0.2,7.1,1.2,7.2,1.3c0.5,0.1,0.8,0.6,0.7,1.1      C-164.4,131.1-164.8,131.4-165.2,131.4z"></path>					<path id="Path_00000016070905159248818920000015380563912475934630_" class="st1" d="M-183,138.8c-0.4,0-0.8-0.2-0.9-0.6      c-0.2-0.5,0.1-1,0.6-1.1c2.8-0.8,7-1.2,7.2-1.3c0.5-0.1,1,0.3,1.1,0.8s-0.3,0.9-0.9,1c-0.1,0-4.3,0.5-6.9,1.2      C-182.8,138.7-182.9,138.8-183,138.8z"></path>					<path id="Path_00000157990890667063266780000009541551230128845966_" class="st1" d="M-194.7,135.4c-0.4,0-0.8-0.3-0.9-0.7      c-0.1-0.5,0.2-1,0.7-1.2c2.8-0.7,7.1-1.1,7.3-1.1c0.5-0.1,1,0.4,1,0.9c0.1,0.5-0.4,1-0.9,1c-0.1,0-4.3,0.3-6.9,1      C-194.6,135.4-194.7,135.4-194.7,135.4z"></path>					<path id="Path_00000062887455665148608120000016364907592716273548_" class="st1" d="M-214.3,131.9c-0.4,0-0.8-0.3-0.9-0.7      c-0.1-0.5,0.2-1,0.7-1.2c2.8-0.7,7.1-1.1,7.3-1.1c0.5-0.1,1,0.4,1,0.9s-0.4,1-0.9,1c-0.1,0-4.3,0.3-6.9,1      C-214.1,131.9-214.2,131.9-214.3,131.9z"></path>					<path id="Path_00000101068480635312937410000000164070607059501705_" class="st1" d="M-231,135.1c-0.4,0-0.8-0.3-0.9-0.7      c-0.1-0.5,0.2-1.1,0.7-1.2c2.8-0.7,7.1-1.1,7.3-1.1c0.5,0,1,0.4,1,0.9c0.1,0.5-0.4,1-0.9,1c-0.1,0-4.3,0.3-6.9,1.1      C-230.8,135.1-230.9,135.1-231,135.1z"></path>					<path id="Path_00000160170566117692358260000018165798805569850303_" class="st1" d="M-228.9,141.5h-0.1      c-0.1,0-4.2-0.5-6.9-0.3c-0.5,0.1-1-0.4-1-1.1c-0.1-0.6,0.4-1.2,0.9-1.2c2.9-0.3,7.1,0.3,7.2,0.3c0.5,0.1,0.9,0.6,0.8,1.2      C-228,141.1-228.4,141.5-228.9,141.5z"></path>					<path id="Path_00000070801847226640602760000014583008940150300340_" class="st1" d="M-195,144.6c-0.4,0-0.8-0.3-0.9-0.7      c-0.1-0.5,0.2-1,0.7-1.2c2.8-0.7,7.1-1.1,7.3-1.1c0.5-0.1,1,0.4,1,0.9s-0.4,1-0.9,1c-0.1,0-4.3,0.3-6.9,1      C-194.8,144.6-194.9,144.6-195,144.6z"></path>					<path id="Path_00000090990256037355489080000004472882820075205014_" class="st1" d="M-204.5,140.8c-0.4,0-0.8-0.3-0.9-0.7      c-0.1-0.5,0.2-1,0.7-1.2c2.8-0.7,7.1-1.1,7.3-1.1c0.5-0.1,1,0.4,1,0.9c0.1,0.5-0.4,1-0.9,1c-0.1,0-4.3,0.3-6.9,1      C-204.4,140.8-204.5,140.8-204.5,140.8z"></path>					<path id="Path_00000007397690800172821990000002634543393971640227_" class="st1" d="M-210.4,149.4c-0.4,0-0.8-0.3-0.9-0.7      c-0.1-0.5,0.2-1,0.7-1.2c2.8-0.7,7.1-1.1,7.3-1.1c0.5-0.1,1,0.4,1,0.9c0.1,0.5-0.4,1-0.9,1c-0.1,0-4.3,0.3-6.9,1      C-210.2,149.4-210.3,149.4-210.4,149.4z"></path>					<path id="Path_00000003101114121853836250000017359551598474981798_" class="st1" d="M-234.6,149.7c-0.4,0-0.8-0.3-0.9-0.7      c-0.1-0.5,0.2-1,0.7-1.2c2.8-0.7,7.1-1.1,7.3-1.1c0.5-0.1,1,0.4,1,0.9s-0.4,1-0.9,1c-0.1,0-4.3,0.3-6.9,1      C-234.4,149.7-234.5,149.7-234.6,149.7z"></path>					<path id="Path_00000009553222390286365440000001639893464491493278_" class="st1" d="M-254.5,149c-0.4,0-0.8-0.3-0.9-0.7      c-0.1-0.5,0.2-1,0.7-1.2c2.8-0.7,7.1-1.1,7.3-1.1c0.5-0.1,1,0.4,1,0.9s-0.4,1-0.9,1c-0.1,0-4.3,0.3-6.9,1      C-254.3,149-254.4,149-254.5,149z"></path>					<path id="Path_00000025440943434126848830000012790815186132338872_" class="st1" d="M-152.6,147.6c-0.4,0-0.8-0.3-0.9-0.7      c-0.1-0.5,0.2-1.1,0.7-1.2c2.8-0.7,7.1-1.1,7.3-1.1c0.5,0,1,0.4,1,0.9s-0.4,1-0.9,1c-0.1,0-4.3,0.3-6.9,1.1      C-152.5,147.6-152.6,147.6-152.6,147.6z"></path>					<path id="Path_00000112601673860966358730000018128105727846493069_" class="st1" d="M-171.5,150.4h-0.1c0,0-4.2-0.5-6.9-0.2      c-0.5,0.1-1-0.4-1.1-1s0.3-1.2,0.9-1.2c2.8-0.3,7.1,0.2,7.2,0.2c0.5,0.1,0.9,0.6,0.9,1.2C-170.6,149.9-171,150.4-171.5,150.4z"></path>				</g>			</g>			<path id="Line" class="st6" d="M146.2,82.5c59.7-0.3,103.8-3,132.5-8C388.5,55.3,459,38.6,521.8,42c62.2,3.3,172.9,27.1,264,56.5    c24.7,8,78.9,15.5,162.5,22.5"></path>			<path id="envelop_00000036931333785151877560000006860679193042765964_" class="st7" d="M134.2,67.2c-0.9-4.5-5-3.9-8.6-3.9    h-21.3c-5,0-10.6-0.7-15.6,0c-4.7,0.7-4.7,3.9-4.7,7.8c0,6.2-0.9,13.2,0,19.3c0.6,4.1,3.1,4.3,6.5,4.4c13,0.3,26.1,0,39.2,0    c0.2,0,0.3,0,0.4-0.1c5.2-1.2,4-6.6,4-10.9C134.4,78.7,135.4,72.3,134.2,67.2L134.2,67.2z M132.4,90.4c-4.2-3.9-8.1-8.6-11.7-13    l0,0c3.8-3.4,7.5-6.9,11.1-10.5c1.4,2.4,0.7,6.2,0.7,9.2C132.4,78.3,133.6,86,132.4,90.4L132.4,90.4z M95.8,64.7h17.6    c4.7,0,10-0.7,14.7,0c1.3,0.2,2.1,0.6,2.8,1.3c-3.5,3.6-7.1,7.2-11,10.4c-2.5,2.2-6.5,7.3-10,7c-3-0.3-7.8-5-10.3-6.8    c-4.3-3.2-8.7-6.7-11.9-11.1l-0.1-0.1C89.8,64,93.4,64.7,95.8,64.7L95.8,64.7z M86.1,67.6c0.1-0.4,0.3-0.7,0.5-1    c3.2,4.2,7.5,7.7,11.8,10.8c-4,4.2-8.1,8.5-12.1,12.7c-0.7-2.4-0.2-5.6-0.2-8.1C86.1,77.9,84.8,71.7,86.1,67.6L86.1,67.6z     M129.9,93.5h-26.7c-4.1,0-9.7,1-13.6,0c-1.4-0.4-2.3-1.2-2.9-2.2c0.1,0,0.2-0.1,0.3-0.2c4.1-4.3,8.2-8.7,12.3-13    c0.4,0.3,0.8,0.6,1.2,0.9c2.4,1.7,6.8,5.9,10.2,5.7c3.1-0.2,6.3-3.9,8.6-6.2c3.9,4.6,8,9.5,12.5,13.5    C131.2,92.8,130.6,93.3,129.9,93.5L129.9,93.5z"></path>			<g id="Group-9" transform="translate(0.000000, 3.000000)" class="st3">				<path id="Shape_00000141416090352552967000000014169006538298797726_" class="st8" d="M722.8-1.1c0.1,0,0.2,0,0.3,0     c0.2-0.2,0.1-0.4-0.2-0.4c-0.1,0-0.2,0.1-0.2,0.2C722.8-1.3,722.8-1.2,722.8-1.1z M554-13.9c-0.2-0.1-0.3-0.3-0.5-0.3     c-0.3,0-0.4,0.2-0.1,0.4c0.1,0.1,0.2,0.2,0.3,0.2S554-13.8,554-13.9z M538.5-15.2c-0.5-1.5-1.3-1.6-2.5-1.6     C536.5-15.7,537-15,538.5-15.2z M573.5-13c0.1-0.1,0.2-0.1,0.2-0.2c0-0.1,0-0.2,0-0.2L573.5-13c-1,0.1-1.6-1.7-3.1-0.4     C571.5-12.1,572.3-12.1,573.5-13z M635.7-11.6c0.5,0.5,0.9,0.9,1.4,1.4c-0.2,0.4-0.5,0.8,0,1.1c0.1,0.1,0.4,0,0.6-0.1     c-0.2-0.3-0.4-0.7-0.6-1c0.4-0.1,1.2-0.2,1-0.7C637.5-12.1,636.5-12,635.7-11.6l-0.1-0.1L635.7-11.6z M661-8.8     c-2.2,2-7.1,2.1-9.1,0c-1.4-1.5-2.8-2.7-5-1.4l0,0c-1.5,0.6-3.1-1.4-4.5,0.2c0.3,0.9,2.3,0.1,2,1.8c-1.2,1.2-2.6-1-3.8,0.1     c-0.2,0-0.5,0-0.7,0l0,0c0.1,0.1,0.2,0.2,0.2,0.2c0.2,0,0.3-0.1,0.5-0.2c1.3,0.8,3.1,1,3.9,2.6c-0.7,0.8-1.5,0.5-2.1,0.4     c-3.1-0.4-6.2-1.4-9.2,0.6c-4.7-2.3-10.1-0.2-14.9-2.5c-2.8-1.3-6.2-2-9.3-2.2c-3.8-0.2-7.9,0.2-11.4-0.6     c-4.6-0.9-9.6,0.5-13.8-2.3c-1-0.7-2.1,0-3.1-0.2c-0.2,0-0.2-0.5-0.5-0.2l0.5,0.1c0.3,2.2,3.4,1.1,3.8,3.4     c-1.5,0.7-3.7,0.8-4.4-0.1c-1-1.2-1.6-2.6-3.3-3.6c-0.4,1,0.9,2.2-0.3,3c-1.2,0.7-2-0.1-3-0.4c-4.9-1.9-10.2-1-15.3-2.1     c1.9,0.9,3.5,2,5.5,2.9c-1,0.7-2,0.9-2.8,0.7c-4.7-1-9.8-0.4-14-3.2c-0.7-0.5-1.6-0.5-2.4-0.3c-2.2,0.7-3.9,0.1-5.9-0.9     s-4.6-0.7-6.9-1.1c-4.1-0.6-7.9-2.3-12.2-1.8c-0.2,0-0.5-0.1-0.7-0.1c-1.6-0.7-2.8-2.4-5.1-1.7c-0.4,0.1-1.3-0.9-1.8-2.2     c2.4,1.3,4.7-0.1,6.8,0.9l0,0c0.3,1.2,1.3,0.9,2.2,0.9c1.7,0.1,3.3,0.5,4.9,1.1c0.2,0.1,0.2,0.6,0.5,0.2c-0.2,0-0.4-0.1-0.6-0.1     c0-0.2,0-0.5,0-0.7l0,0c1.7-0.6,3.1,0.5,4.7,0.6c1.3,0.1,3,2.5,3.8-1c0.2-1,2.7,0.2,4.2-0.1c1.1-0.2,3-0.3,2.5,2     c-0.2,0.9,0.7,1.4,1.6,1.5c0.8,0.1,1.2-0.2,1.3-1.1c0.4-2.7,3.3-0.3,4.5-1.8c0.5-0.6,0.9,1.2,1.5,1.9c-0.4,0.3-1,0.5-0.8,1.2     c0,0.1,0.2,0.2,0.3,0.1c0.7-0.2,0.4-0.9,0.5-1.3c1.5,0.1,2.5-0.1,3.9-1.1c1.6-1.2,4.9-0.8,7.6,0.4c-0.7,0.9-1.8,1.9-0.2,2.8     c1,0.6,1.8,0.5,2.1-0.7l0,0c0.7-0.5,1.3-0.9,2-1.4c1.2,0.2,0.9,2.2,2.3,2.2c1.2-0.8-0.4-1.7,0.2-2.6c0.2-0.1,0.6-0.3,0.9-0.3     c2.5,0.5,5.1,0,7.5,1.3c0.8,0.4,2,1,2.7-0.5l0,0c4.2,0.2,8.5,1.3,12.8,0.1c0.2-0.1,0.5-0.1,0.7,0c3.5,2.2,7.5-0.2,10.7,0.8     c5,1.5,10.2-1.5,14.8,1.5c0.6,0.4,1.4,0.1,2-0.4c0.6-0.5,1.4-0.7,2-0.3c2.6,1.7,5.8,1.3,8.5,2.3c0.5,0.7,1.3,1.2,1.4,2.1l0,0     c0.5-0.2,1.2-0.7,1-1.2c-0.4-1.1-1.5-0.7-2.4-0.8c0.1-0.6,0.2-1.4,0.8-1.4c5,0.4,10.2-2.5,15,0.8c0.2,0.2,0.8,0.2,1,0     c2.7-2,4.5-0.8,6.2,1.4c0.9,1.1,2,1.1,3.1,0.3c1-0.7,1.9-1.1,3.2-0.7c6.2,2,12.6,1.8,19,2.2c1.6,0.1,3.2,0.5,4.6,1.4     c0.2,0.1,0.2,0.6,0.5,0.2c-0.2,0-0.4-0.1-0.5-0.1c0.9-1.1,1.9-2,2.8,0l0,0c3.7,0.3,7.3,1.5,11.2,0.9c1.5,0.8-1.2,2.9,1.2,3.7     c0.5-2.4,1.9-3.5,4.5-2.6l0,0c1.6,1.9,2.3-0.9,3.5-0.7l0,0c0.1,0,0.2,0.1,0.2,0.1c0.2,0,0.3-0.1,0.5-0.1l0,0     c2.1-0.4,1.6,2,2.7,2.6c3-2.4,4.4-2.4,7.9-0.1c0.6,0.4,0.9,0.9,1.6,0.1c0.8-0.9,1.7,0,2.6,0.2l0,0c0.1,0.1,0.2,0.2,0.2,0.1     c0.2,0,0.4-0.1,0.5-0.2l0,0c2.1-0.9,4.2,0.2,6.2,0.2c5.1,0.1,10.2,0.3,15.3,1.2c2.2,0.4,4.4,0.2,6.6,0.3     c2.1,0.1,3.7,0.7,5.5,1.5c1.2,0.5,3.3-0.2,5,0.1c3.1,0.4,6.4-0.6,9.1,1.7c0.2,0.2,0.7,0.2,0.9,0.2c5.1-1.6,9.9,0.5,14.8,1.1l0,0     c-4.3,3.2-8.9,3.9-14.3,2.6c-4.7-1.1-9.7-0.9-14.5-1c-3.5-0.1-6.9-0.5-9.9-1.4c-4.9-1.5-9.9-1.2-14.9-1.8     c-4.3-0.5-8.7-1.3-13.1-1.3c-1.8,0-3.6-0.8-5.4,0.4c-0.1,0.1-0.3,0.1-0.3,0.1c-2.6-1.8-6,0.8-8.6-1.6c-1.6-1.5-3.7-0.2-5.6-0.3     c-5-0.1-9.9-1.1-14.9-1.9l0,0c-0.3-0.2-0.5-0.5-0.8-0.7l0,0c-3.5,0.3-6.6-0.7-9.8-1.9c-1.1-0.4-2.2-0.5-3.4-0.2     c-3.1,0.6-5.9-1.2-8.9-1.5C661.2-7.7,661-8.5,661-8.8L661-8.8z"></path>				<path id="Shape_00000082345994778755933810000015254386862310561433_" class="st8" d="M835.5,3c-0.1,0-0.2,0-0.3,0     c-0.2-0.2-0.1-0.4,0.2-0.4c0.1,0,0.2,0.1,0.2,0.2C835.7,2.8,835.5,2.9,835.5,3z M1004.2,0.9c0.2-0.1,0.4-0.3,0.5-0.3     c0.3,0,0.3,0.2,0.1,0.4c-0.1,0.1-0.2,0.2-0.3,0.1C1004.5,1.1,1004.3,1,1004.2,0.9z M1019.8,0.5c0.6-1.6,1.4-1.6,2.6-1.6     C1021.8,0.1,1021.2,0.8,1019.8,0.5z M984.8,0.5c-0.1-0.1-0.2-0.2-0.2-0.3c0-0.1,0-0.2,0-0.3L984.8,0.5c1,0.2,1.7-1.7,3.2-0.2     C986.8,1.5,986,1.5,984.8,0.5z M923-2.4c-0.5,0.5-1,0.9-1.5,1.4c0.2,0.4,0.5,0.9-0.1,1.2c-0.1,0.1-0.4-0.1-0.6-0.1     c0.2-0.4,0.5-0.7,0.7-1.1c-0.4-0.2-1.1-0.3-0.9-0.9C921.2-3,922.2-2.9,923-2.4l0.1-0.1L923-2.4z M897.7-1.1     c2,2.4,6.9,2.8,9.1,0.6c1.5-1.5,3-2.7,5.1-1.2v-0.1c1.4,0.7,3.2-1.3,4.5,0.6c-0.4,1-2.3,0-2.1,1.8c1.1,1.3,2.6-0.9,3.8,0.4     c0.2,0,0.5,0,0.7,0.1l0,0c-0.1,0.1-0.2,0.2-0.2,0.2c-0.2,0-0.3-0.1-0.4-0.2c-1.4,0.8-3.1,0.9-4,2.5c0.7,0.9,1.4,0.6,2.1,0.6     c3.1-0.3,6.3-1,9.1,1.3c4.8-2.2,10.1,0.5,15-1.6c2.9-1.2,6.3-1.7,9.4-1.7c3.8,0.1,7.8,0.7,11.4,0.2c4.6-0.7,9.5,1.2,13.9-1.6     c1-0.7,2,0.1,3.1,0.1c0.2,0,0.2-0.6,0.5-0.1l-0.5,0.1c-0.4,2.3-3.4,0.9-4,3.4c1.5,0.8,3.6,1.1,4.4,0.1c1-1.2,1.8-2.7,3.5-3.6     c0.4,1.1-1.1,2.3,0.1,3.2c1.1,0.8,2,0.1,3-0.2c5-1.7,10.2-0.4,15.4-1.2c-2,0.8-3.7,2-5.7,2.7c0.9,0.8,1.9,1.1,2.8,0.9     c4.7-0.8,9.7,0.3,14.2-2.5c0.8-0.5,1.6-0.5,2.4-0.1c2.1,0.9,3.9,0.4,6-0.6c2-1,4.6-0.5,7-0.7c4.1-0.4,8.1-1.9,12.2-1.2     c0.2,0,0.5,0,0.7-0.1c1.7-0.6,3-2.4,5.2-1.5c0.4,0.2,1.3-0.9,1.9-2.3c-2.5,1.3-4.7-0.4-6.8,0.5l0,0c-0.4,1.3-1.4,0.9-2.2,0.9     c-1.7,0-3.3,0.3-4.9,0.9c-0.2,0.1-0.2,0.6-0.5,0.1c0.2,0,0.4-0.1,0.6-0.1c0-0.3,0-0.5,0-0.8l0,0c-1.6-0.8-3.1,0.3-4.7,0.3     c-1.3,0-3.2,2.5-3.7-1.3c-0.1-1.1-2.7,0-4.1-0.4c-1.1-0.3-3-0.6-2.6,2c0.2,1-0.8,1.4-1.7,1.5c-0.8,0.1-1.2-0.3-1.3-1.3     c-0.3-2.9-3.2-0.5-4.4-2.3c-0.4-0.6-1,1.3-1.6,1.9c0.3,0.4,1,0.6,0.8,1.3c0,0.1-0.2,0.2-0.3,0.1c-0.7-0.3-0.3-1-0.5-1.5     c-1.5,0-2.4-0.3-3.8-1.5c-1.5-1.4-4.8-1.2-7.6-0.1c0.6,1,1.6,2.2,0,3.1c-1.1,0.6-1.8,0.5-2-0.9l0,0c-0.6-0.5-1.2-1.1-1.9-1.7     c-1.3,0.1-1,2.3-2.4,2.2c-1.1-1,0.5-1.8,0-2.8c-0.2-0.1-0.6-0.4-0.8-0.4c-2.5,0.4-5.1-0.4-7.5,0.8c-0.8,0.4-2.1,0.9-2.6-0.7l0,0     c-4.2-0.1-8.5,0.8-12.7-0.7c-0.2-0.1-0.5-0.1-0.7,0c-3.6,2.2-7.5-0.7-10.7,0.1c-5.1,1.3-10-2.3-14.8,0.6c-0.6,0.4-1.4,0-1.9-0.5     c-0.6-0.5-1.4-0.8-2-0.5c-2.7,1.6-5.8,1-8.6,1.9c-0.5,0.7-1.4,1.2-1.6,2.2l0,0c-0.5-0.3-1.1-0.8-0.9-1.4     c0.5-1.2,1.5-0.7,2.4-0.7c-0.1-0.6-0.1-1.5-0.7-1.5c-5,0.1-9.9-3.4-15-0.2c-0.2,0.2-0.8,0.1-1,0c-2.5-2.4-4.4-1.2-6.2,1.1     c-0.9,1.2-2.1,1-3.1,0.2c-1-0.8-1.8-1.4-3.2-1c-6.3,1.7-12.7,1-19.1,1.1c-1.6,0-3.2,0.3-4.7,1.2c-0.2,0.1-0.2,0.6-0.5,0.1     c0.2,0,0.4-0.1,0.6-0.1c-0.9-1.2-1.8-2.3-2.8-0.2l0,0c-3.7,0.1-7.3,1.1-11.2,0.2c-1.6,0.7,1,3.2-1.5,4c-0.3-2.6-1.7-3.9-4.3-3.1     l0,0c-1.7,1.9-2.2-1.1-3.5-1l0,0c-0.1,0-0.2,0.1-0.2,0.1c-0.2,0-0.3-0.1-0.5-0.2l0,0c-2-0.5-1.7,2-2.9,2.6     c-2.9-2.8-4.2-2.9-7.8-0.6c-0.7,0.4-1,0.9-1.6,0c-0.7-1-1.7-0.1-2.6,0l0,0c-0.1,0.1-0.2,0.2-0.2,0.1c-0.2,0-0.3-0.1-0.5-0.2l0,0     c-2-1.1-4.1-0.1-6.2-0.2c-5.1-0.3-10.2-0.4-15.3,0.2c-2.2,0.3-4.4-0.1-6.6-0.1c-2.1,0-3.7,0.5-5.6,1.2c-1.3,0.5-3.3-0.4-5-0.3     c-3.1,0.2-6.3-1.1-9.2,1.2c-0.2,0.2-0.7,0.2-0.9,0.1c-5-2.1-9.9-0.2-14.8,0.1l0,0c4.1,3.7,8.6,4.8,14,3.8     c4.7-0.8,9.7-0.3,14.5,0c3.4,0.2,6.9-0.1,10-0.8c5-1.2,10-0.6,14.9-0.9c4.3-0.3,8.7-0.8,13.1-0.6c1.8,0.1,3.7-0.6,5.3,0.8     c0.1,0.1,0.3,0.2,0.3,0.1c2.7-1.7,6,1.2,8.7-1.1c1.7-1.5,3.7,0,5.6,0.1c5,0.2,9.9-0.4,14.9-1l0,0c0.3-0.2,0.5-0.5,0.8-0.7l0,0     c3.4,0.6,6.7-0.3,9.9-1.4c1.2-0.4,2.2-0.3,3.4,0c3.1,0.8,5.9-0.9,9-1C897.2,0.1,897.5-0.7,897.7-1.1L897.7-1.1z"></path>				<path id="z" class="st8" d="M-184.8-29.4l-0.1-0.1L-184.8-29.4L-184.8-29.4z M-198.9-27.3c-0.1-0.1-0.1-0.2-0.2-0.3     c0.1-0.1,0.2-0.2,0.3-0.1c0.1,0,0.1,0.2,0.2,0.3C-198.6-27.4-198.8-27.3-198.9-27.3z M-132.8-34.2c-0.1,0-0.3-0.1-0.3-0.1     c-0.1-0.2,0.1-0.4,0.3-0.4c0.1,0,0.3,0,0.3,0.1C-132.4-34.4-132.5-34.3-132.8-34.2z M-178.2-33.4c-0.3,0-0.7,0.5-1-0.2     C-179-33.8-178.6-33.9-178.2-33.4z M-176.1-34c0.1-0.5,0.1-0.9,0.7-0.9c0.1,0,0.2,0.2,0.2,0.3C-175.4-34.3-175.5-34-176.1-34z      M-183.2-33.3c0.8-0.6,1.7-0.7,3-0.4C-181.5-33.4-182.1-32.8-183.2-33.3z M-128.2-37c-0.1,1.5-0.2,2.5-0.9,3     C-129.5-35.7-129-36.3-128.2-37z M-169.1-33.6c0-0.1-0.1-0.1-0.1-0.2c0-0.1,0-0.1,0-0.2C-169.2-33.8-169.1-33.7-169.1-33.6     c0.5,0.1,0.9,0.3,0.9,1.5C-169-31.7-169-32.8-169.1-33.6z M-187.5-32.2c-0.3,0-0.6,0.3-0.8-0.3c0-0.1,0.1-0.5,0.2-0.5     C-187.6-33.1-187.5-32.6-187.5-32.2c0.4-0.1,0.7-0.8,1.2-0.2c-0.3,0.6-0.2,1.6-1,1.4C-187.4-31.1-187.5-31.8-187.5-32.2z      M-200.8-27.5L-200.8-27.5L-200.8-27.5L-200.8-27.5L-200.8-27.5z M-153.4-30.6c1.8,0.6,3.4,2.4,5.4,1.3l0,0     c-0.2-0.7-0.2-1.3,0.4-1.6c0.5-0.2,0.8,0.2,0.8,0.8c0.1,1.1,0.3,2,1.2,2.1l0,0c0-0.4-0.2-1.1-0.1-1.3c1.7-2.8,4.6-4.4,6.5-3.4     c2.1,1.1,2.7-0.5,3.8-1.5c1,0.6-0.4,1.6,0.5,2.4c0.8,0.4,1.5-1.4,2.5-1c0.2-0.2,0.3-0.5,0.5-0.7c0.3-0.7,0.6-1.4,1.3-1     c0.2,0.1,0.4,0.5,0.2,0.8c-0.5,0.8-1,0.4-1.5,0.1c-0.2,0.2-0.3,0.5-0.5,0.7c0.3,0.4,0.6,1.2,0.8,1.1c1.7-0.5,3.4-1.4,5.1-0.2     c0.3,0.2,0.8-0.7,0.8-1.4c0-1.6-1.2-0.1-1.5-1.4c1.8-0.6,3-2.6,5.2-2c1.7,0.5,3.4-0.6,5.1-1c2.5-0.6,5-2.1,7.8-0.1     c1.3,0.9,3.6,1.6,5.2-0.4c0.2-0.2,0.3-0.5,0.5-0.7c0.3-0.5,0.6-0.7,1-0.3c0.1,0.1,0.1,0.4,0,0.5c-0.4,0.4-0.7-0.1-1-0.2     c-0.2,0.2-0.3,0.4-0.5,0.7c1.2,1.4,2.4,2.5,3.9,0.7l0,0c1-1.2,0.5-2.7,0.5-4.1l0,0c-1.2-0.7-2.4-1.3-3.4,0.7l0,0     c-2.4-1.1-4.8-0.4-7.3,0c-2.3,0.4-4.5,1.4-6.8,1.4l0,0c-0.5,0.8-1,1.7-1.5,0l0,0c-3.7,0.7-7.3,0.3-11.1,1.6     c-4.4,1.5-8.9,2.9-13.5,2.3c-0.8-0.1-1.6-0.3-2.2,0.9c-0.4,0.9-1.2,0.8-2,0.6c-2.7-1-2.7-1-4.8,1.8c-0.6-2.5-1.8-2.6-3.5-2.2     c-1.1,0.3-2.2-0.1-3.3-0.3c-1.4-0.2-2.7-0.1-4,0.6c-1.3,0.6-2.8,0.8-4-0.9c-0.3-0.4-0.7-0.7-1-0.8c-1.8-0.5-3.6-1.1-5.4-2     s-4.1-0.4-6.2,0.1c-3.9,0.8-7.9,1.7-11.7,3.1c-2.2,0.8-4.9,0.3-6.6,3.5c-0.3-2.1-1.3-2.5-2.5-2c-0.7,0.3-1.4,0.6-0.9,2.1     c0.3,0.9,0.1,0.9-1,1c-0.2,0.3-0.2,0.8-0.6,0.6c0-0.6,0.4-0.4,0.6-0.6c-0.7-1.7-1.5-2.4-2.9-1.3c-1,0.7-2.4,0.2-3.4,1.3l0,0     c-0.1,0.6-0.2,1.2,0.5,1.4l0,0c0.2,0,0.4,0,0.5,0l0,0c3.9-0.6,6.9,3.1,10.5,4.7c0.1-1.4-0.8-1.1-1-1.9c0.7-0.5,1.5-0.9,0.9-2.5     c-0.3-1.1,0.2-2.6,1.2-1.6c1.5,1.4,3,0.3,4.4,0.6c0.7,0.2,1.4-1.1,2,0.9c0.3,1.2,1.5-0.5,2.6-1.5c-0.7,2.3,0.2,2.8,1.2,2.9     c0.5,0.1,1.6,1.1,1.4-1c-0.1,0.1-0.1,0.2-0.2,0.2c0,0-0.1,0-0.2,0c0.1-0.1,0.2-0.1,0.4-0.2c0.1-1.9,1.5-3.2,3.2-2.5     c2,0.8,3.9-0.1,6,0.4c1.5,0.3,0.6-2,0.5-3.3l-0.1-0.2l0.1,0.1c0.5-0.3,1-0.7,1.9-0.4c-0.9,2.1-0.9,3.9,1,4.9     c0.2,0.1,0.6,0.4,0.6,0.4c1.3-3.3,4.2-0.5,5.7-3c0.5-0.8,0.7-0.4,1.4,0c1.1,0.8,2.7,0.5,4,0.3s2.5,0.2,3.7,0.8     C-155-29.7-154-29.1-153.4-30.6c-0.1-0.2-0.4,0.2-0.3-0.4C-153.5-30.9-153.5-30.8-153.4-30.6z"></path>				<path id="Shape_00000168831600718147413580000006388721543562458514_" class="st8" d="M-38.6-44.9c-0.3-0.2-0.5-0.2-0.6-0.4     c-0.2-0.3-0.2-0.6,0.3-0.7c0.2,0,0.5,0.1,0.5,0.2C-38.4-45.5-38.6-45.2-38.6-44.9z M-34.9-45.5l0.7-1.4l0,0     c-2.3-1-4.8-0.3-7.2-0.8c-1.8-0.3-1.7,2-3,2.4c-0.7-0.6,0.2-1.3-0.3-1.9c-0.4-0.5-0.8-0.9-1.4-0.8c-0.5,0.1-0.6,0.4-0.6,1     c0,1.9-1.2,1.7-2.3,1c-2.8-1.8-4.7-1.7-7.7,0.4c-0.2,0.3,0.2,0.8-0.4,0.9c0.1-0.3,0.3-0.6,0.4-0.8c-0.7-1.2-1.6-1.4-2.8-0.7l0,0     c-1-0.7-1.6-0.2-2.2,0.7l0,0c-5-1.6-10-0.2-15-0.3c-0.8,0-1.7,1.1-2.5,1.7v-0.1c0,0.3,0,0.5,0,0.8l0,0c2.8-0.2,5.6-0.5,8.4,0     c0.1-0.5-0.2-1.1,0.5-1.4c0.3,0.7-0.1,1.1-0.6,1.4c0,0.2,0,0.4,0,0.7c4.1-1.1,8,1,12.1,0.3c0.9-0.2-0.1,0.7-0.2,1.1l0,0     c0.7,0.3,1.5,0.7,2,0.2c2.4-2.1,5.4-0.7,8-1.3c2.2-0.4,4.7,0.4,7,0.7c2.1,0.2,3.8-0.4,5.7-0.7C-34.4-42.9-35.1-44.4-34.9-45.5     c-0.1-0.2-0.5,0.1-0.4-0.4C-35.2-45.8-35.1-45.7-34.9-45.5z"></path>				<path id="Path_00000026151556747811027110000000869374294552673203_" class="st8" d="M-79.2-43.4c0-0.6,0-1.5-0.5-1.5     c-2.1,0.1-4.4-0.8-6.5,1.4c1.8,0.4,3.7,0.1,4.8,1.4l0,0h0.8l0,0c0.5-0.2,0.9-0.5,1.4-0.7l0,0C-79.4-42.9-79.4-43.2-79.2-43.4     L-79.2-43.4z"></path>				<path id="Path_00000159465418559433146230000013605958131733278613_" class="st8" d="M-95.2-41.9c1.2,0.7,2.5,1.1,4,0.8     c0.1-1.9-0.8-2.6-2.1-2.8C-94.4-44.2-95.2-43.6-95.2-41.9z"></path>				<path id="Path_00000152948066783311614530000015166346089203293625_" class="st8" d="M-125.1-31c0.3-0.9,0.6-1.8,0.9-3     c-1.5,0.1-2.7,0.5-4,1.1C-127.5-31.4-126-31.8-125.1-31L-125.1-31z"></path>				<path id="Path_00000114792464968789665420000008126855528986799531_" class="st8" d="M-89.2-37c1.8,1.8,4.8,0.1,7,0.9     C-84.2-37.2-86.9-36.6-89.2-37L-89.2-37z"></path>				<path id="Path_00000165204347961170019900000015640530198891659448_" class="st8" d="M-135.2-33.3c0.9,0.3,1.6,2.1,2.7,0.9     c0.6-0.6,0.2-1.6-0.4-2.1C-134.1-35.6-134.8-34.7-135.2-33.3L-135.2-33.3z"></path>				<path id="Path_00000181799727135537774550000011250886272845438390_" class="st8" d="M-117.2-35.7c1.5,0.6,2.6,0.8,4,0.1     C-114.4-36-115.6-35.9-117.2-35.7z"></path>				<path id="Path_00000027583991040006313310000011175298084415017646_" class="st8" d="M-99.2-37.5c-0.1,0.4,0.3,0.5,1.1,0.5     c0.9,0,1.7-0.2,1.9-0.6c0.1-0.2-0.4-0.4-1-0.4C-98.1-38-98.9-37.9-99.2-37.5z"></path>				<path id="Path_00000031911691779186754890000016142710035061941646_" class="st8" d="M-87.9-43c0.3-0.1,0.5-0.3,0.6-0.6     c0.1-0.3-0.2-0.5-0.5-0.4s-0.5,0.3-0.4,0.6C-88.2-43.2-88.1-43-87.9-43z"></path>				<path id="Path_00000113315306837497622410000014765882800422669236_" class="st8" d="M-84.2-39.4c-0.9-0.3-1.8-0.5-3-0.1     C-86.1-39-85.1-39.5-84.2-39.4L-84.2-39.4z"></path>				<path id="Path_00000167394175678117639130000006015496562047289226_" class="st8" d="M-94.1-36.8c0.1,0.3,0.2,0.7,0.6,0.7     l0.1-0.1C-93.4-36.7-93.9-36.7-94.1-36.8L-94.1-36.8z"></path>				<path id="Path_00000119833644143914057200000001109329250027614593_" class="st8" d="M-99.8-43.5L-99.8-43.5L-99.8-43.5z"></path>				<path id="Path_00000031173813210214996940000003034074554539345830_" class="st8" d="M-86.8-41.5L-86.8-41.5L-86.8-41.5z"></path>				<path id="Shape_00000137844470277331059910000005349520748593426337_" class="st8" d="M397.1-39.2l0.1-0.2H397L397.1-39.2z      M417-37.5c0.1-0.1,0.2-0.3,0.3-0.4c-0.2-0.1-0.4-0.2-0.5-0.2s-0.2,0.3-0.3,0.4C416.8-37.6,417-37.5,417-37.5z M321-44.6     c0.2-0.1,0.5-0.1,0.5-0.2c0.2-0.4-0.1-0.6-0.4-0.6c-0.2,0-0.5,0.1-0.5,0.2C320.4-44.9,320.6-44.7,321-44.6z M386.6-43     c0.5,0,1.1,0.7,1.6-0.2C387.8-43.5,387.2-43.7,386.6-43z M384.2-43.7c-0.1-0.7-0.2-1.3-1.1-1.4c-0.1,0-0.4,0.3-0.3,0.4     C383-44.1,383.4-43.7,384.2-43.7z M393.9-43.1c-1.1-0.9-2.2-1-3.9-0.7C391.5-43.2,392.5-42.4,393.9-43.1z M314.5-46.4     c0.1,1.3,0.3,2.2,1.7,2.7C316.6-45.3,315.8-45.8,314.5-46.4z M373.6-44c0.1-0.1,0.2-0.1,0.2-0.2s0-0.2,0-0.3     C373.9-44.3,373.8-44.2,373.6-44c-1,0.1-1.9,0.3-1.8,1.7C373.5-41.9,373.4-43.2,373.6-44z M400.4-42.7c0.4,0,0.9,0.3,1.1-0.3     c0-0.1-0.2-0.5-0.3-0.5C400.5-43.6,400.5-43.1,400.4-42.7c-0.6-0.1-1.1-0.8-1.8-0.2c0.4,0.6,0.3,1.7,1.5,1.4     C400.2-41.6,400.2-42.3,400.4-42.7z M419.4-38l0.1-0.1L419.4-38l-0.1,0.1L419.4-38z M351.1-40.6c-2.6,0.6-4.9,2.4-7.8,1.3l0,0     c0.4-0.7,0.3-1.3-0.6-1.6c-0.7-0.2-1.1,0.2-1.2,0.8c-0.1,1.1-0.4,2-1.8,2.1l0,0c0.1-0.4,0.3-1.1,0.1-1.3     c-2.5-2.8-6.6-4.4-9.4-3.4c-3.1,1.1-3.9-0.5-5.4-1.5c-1.5,0.6,0.5,1.6-0.8,2.4c-1.2,0.4-2.1-1.4-3.6-1c-0.2-0.2-0.5-0.5-0.7-0.7     c-0.4-0.7-0.9-1.4-1.9-1c-0.3,0.1-0.5,0.5-0.3,0.8c0.7,0.8,1.4,0.4,2.2,0.1c0.2,0.2,0.5,0.5,0.7,0.7c-0.4,0.4-0.9,1.2-1.2,1.1     c-2.5-0.5-4.9-1.4-7.5-0.2c-0.5,0.2-1.1-0.7-1.1-1.4c-0.1-1.6,1.7-0.1,2.2-1.4c-2.5-0.6-4.4-2.6-7.6-2c-2.4,0.5-5-0.6-7.4-1     c-3.6-0.6-7.3-2.1-11.3-0.1c-1.9,0.9-5.2,1.6-7.6-0.4c-0.2-0.2-0.5-0.5-0.7-0.7c-0.4-0.5-0.9-0.7-1.4-0.3     c-0.1,0.1-0.1,0.4-0.1,0.5c0.6,0.4,1-0.1,1.5-0.2c0.2,0.2,0.5,0.4,0.7,0.7c-1.7,1.4-3.5,2.5-5.7,0.7l0,0     c-1.5-1.2-0.8-2.7-0.7-4.1l0,0c1.8-0.7,3.5-1.3,4.9,0.7l0,0c3.5-1.1,7-0.4,10.5,0c3.3,0.4,6.5,1.4,9.9,1.4l0,0     c0.7,0.8,1.4,1.7,2.2,0l0,0c5.3,0.7,10.6,0.3,16,1.6c6.3,1.5,12.9,2.9,19.6,2.3c1.1-0.1,2.3-0.3,3.1,0.9     c0.6,0.9,1.8,0.8,2.8,0.6c3.9-1,3.9-1,6.9,1.8c0.9-2.5,2.7-2.6,5-2.2c1.5,0.3,3.2-0.1,4.8-0.3c2-0.1,3.9-0.1,5.9,0.6     c1.9,0.6,4.1,0.8,5.8-0.9c0.4-0.4,1-0.7,1.5-0.8c2.7-0.5,5.2-1.1,7.8-2s5.9-0.4,9,0.1c5.7,0.8,11.4,1.7,16.9,3.1     c3.2,0.8,7,0.3,9.5,3.5c0.4-2.1,1.8-2.5,3.6-2c1,0.3,2,0.6,1.3,2.1c-0.4,0.9-0.2,0.9,1.4,1c0.3,0.3,0.3,0.8,0.9,0.6     c-0.1-0.6-0.6-0.4-0.9-0.6c1-1.7,2.1-2.4,4.3-1.3c1.4,0.7,3.5,0.2,4.9,1.3l0,0c0.2,0.6,0.2,1.2-0.7,1.4l0,0c-0.3,0-0.5,0-0.8,0     l0,0c-5.7-0.6-10.1,3.1-15.2,4.7c-0.1-1.4,1.1-1.1,1.4-1.9c-0.9-0.5-2.1-0.9-1.3-2.5c0.5-1.1-0.2-2.6-1.8-1.6     c-2.1,1.4-4.3,0.3-6.4,0.6c-1,0.2-2.1-1.1-2.9,0.9c-0.5,1.2-2.1-0.5-3.7-1.5c1,2.3-0.4,2.8-1.8,2.9c-0.8,0.1-2.3,1.1-2-1     c0.1,0.1,0.1,0.2,0.2,0.2s0.2,0,0.2,0c-0.2-0.1-0.3-0.1-0.5-0.2c-0.1-1.9-2.2-3.2-4.7-2.5c-2.9,0.8-5.7-0.1-8.6,0.4     c-2.2,0.3-0.9-2-0.7-3.3l0.1-0.2l-0.2,0.1c-0.8-0.3-1.5-0.7-2.7-0.4c1.3,2.1,1.2,3.9-1.5,4.9c-0.3,0.1-0.9,0.4-0.9,0.4     c-1.8-3.3-6.2-0.5-8.3-3c-0.7-0.8-1.1-0.4-2.1,0c-1.6,0.8-3.9,0.5-5.8,0.3s-3.6,0.2-5.3,0.8C353.5-39.7,352.1-39.1,351.1-40.6     c0.1-0.2,0.6,0.2,0.4-0.4C351.5-40.9,351.2-40.8,351.1-40.6z"></path>				<path id="Path_00000173861134685183074800000014541321603171734185_" class="st8" d="M458.9-29.1c-4-2.1-8.6-2.5-12.9-2.7     c-3.6-0.1-7.4-0.8-10.9,0.7c-0.7,0.3-1.3,0-1.9-0.5c-1-1.1-1.9-0.4-2.7,0.4l0,0c-2.6,0-5.1,1.7-7.8,0.7l0,0     c0.6-3.7,2-5.3,5.5-4.6c2.3,0.5,3.1-0.5,4.3-1.7c0.3,0.1,0.6,0.2,0.9,0.2c0,0,0.1-0.2,0.1-0.3c-0.3,0-0.6-0.1-0.9-0.1     c-0.3-1.1-1.1-1.8-2.2-2v0.1c1.6-2.1,2.9-0.6,3.9,0.5c0.7,0.7,0.9,1.8,1.5,3c3.7-1.3,7.7-1,11.3-0.4c3.3,0.5,6.8,1.7,10.2,2.1     c3.8,0.4,7.2,2.7,11.3,2.3c2.2-0.2,5.1-0.2,5.8,3.2c0.1,0.3,0.9,0.9,1.1,0.8c2.6-1.2,5.8,1,8.1-1.5l0,0c3.7-0.3,7.5-0.8,11,1.1     c2.3,1.2,4.6,2.3,7.3,2.2c0.3,0,0.8,0.1,1,0.3c2.4,2.8,5.7,1.7,8.6,2.1c2,0.3,3.9,0.8,5.4,2.4c0.6,0.6,1.2,1.3,0.5,2.1     c-0.6,0.7-1.4,1.1-2.2,0.5c-2-1.5-4.8-1.2-6.7-2.9c-0.5-0.5-1.2-0.7-1.9-0.7c-3.5-0.1-4.2-0.3-7.5-2.2c-0.6,2.9-2.3,2.2-4.1,1.3     l0,0c-0.7-1.3-2.1-2.2-1.2-4c-1.9,0.4-1.8,1.7-2.3,2.9c-4.7-2.3-9.6-1.3-14.3-1.8c-1-0.1-2.3,0.2-3-0.5c-3.2-3.4-7.2-2.4-11-2.1     l-0.2-0.1l0.2,0.2c-2.3,0.4-2.4-1.9-3.5-3C459-30.7,459.6-29.7,458.9-29.1L458.9-29.1z"></path>				<path id="Shape_00000080906083093813684410000016997422419835168686_" class="st8" d="M211.1-52.9c0.3-0.2,0.5-0.2,0.6-0.4     c0.2-0.3,0.2-0.6-0.3-0.7c-0.2,0-0.5,0.1-0.5,0.2C210.9-53.5,211.1-53.2,211.1-52.9z M207.4-53.5l-0.7-1.4l0,0     c2.3-1,4.8-0.3,7.2-0.8c1.8-0.3,1.7,2,3,2.4c0.7-0.6-0.2-1.3,0.3-1.9c0.4-0.5,0.8-0.9,1.4-0.8c0.5,0.1,0.6,0.4,0.6,1     c0,1.9,1.2,1.7,2.3,1c2.8-1.8,4.7-1.7,7.7,0.4c0.2,0.3-0.2,0.8,0.4,0.9c-0.1-0.3-0.3-0.6-0.4-0.8c0.7-1.2,1.6-1.4,2.8-0.7l0,0     c1-0.7,1.6-0.2,2.1,0.7l0,0c5-1.6,10-0.2,15-0.3c0.8,0,1.7,1.1,2.5,1.7v-0.1c0,0.3,0,0.5,0,0.8l0,0c-2.8-0.2-5.6-0.5-8.4,0     c-0.1-0.5,0.2-1.1-0.5-1.4c-0.3,0.7,0.1,1.1,0.6,1.4c0,0.2,0,0.4,0,0.7c-4.1-1.1-8,1-12.1,0.3c-0.9-0.2,0.1,0.7,0.2,1.1l0,0     c-0.7,0.3-1.5,0.7-2,0.2c-2.4-2.1-5.4-0.7-8-1.3c-2.2-0.4-4.7,0.4-7,0.7c-2.1,0.2-3.8-0.4-5.7-0.7     C206.9-50.9,207.6-52.4,207.4-53.5c0.1-0.2,0.5,0.1,0.4-0.4C207.8-53.8,207.6-53.7,207.4-53.5z"></path>				<path id="Shape_00000126299322739483784990000002368005242221371318_" class="st8" d="M446.5-28.5c0.5,1,1.1,1.5,2.2,0.9     C448-28.9,447.1-28.4,446.5-28.5l-0.1-0.1L446.5-28.5z M438.1-21.6c-1.8,1.9-4.1,1.5-6.3,1.5l0,0c0.4-2.5,2.6-3.3,4.1-3.5     c3.2-0.5,6.1-1.5,8.8-3.6c-2.5-0.4-4.9-0.9-7.4,0.4c-2.8,1.5-5.8,2.5-9,2v0.1c-0.1-0.8-1-1.4-0.6-2.7c3.4,0.5,6.2-1,9.3-2.8     c2.9-1.7,6.7-0.6,10.2-0.2c1.1,0.1,2.2,0.7,3.4,0.1c0.7-0.3,1.3-0.4,1.8,0.5c0.4,0.8,0.2,1.5-0.3,2.1c-1,1.3-1.5,3.6-3.9,2.5     c-0.5-0.3-1.5-0.2-2,0.2C444-22.8,441-22.5,438.1-21.6l-0.1-0.1L438.1-21.6z"></path>				<path id="Path_00000093178981324813590910000009999545570922675332_" class="st8" d="M252.8-53.4c0-0.6,0-1.5,0.5-1.5     c2.1,0.1,4.4-0.8,6.5,1.4c-1.8,0.4-3.7,0.1-4.8,1.4l0,0h-0.8l0,0c-0.5-0.2-0.9-0.5-1.4-0.7l0,0     C252.9-52.9,252.9-53.2,252.8-53.4L252.8-53.4z"></path>				<path id="Path_00000050659495406548791090000007201741235178387852_" class="st8" d="M268.8-50.9c-1.2,0.7-2.5,1.1-4,0.8     c-0.1-1.9,0.8-2.6,2.1-2.8C268-53.2,268.8-52.6,268.8-50.9z"></path>				<path id="Path_00000115475838331292490340000009061312744596504707_" class="st8" d="M298.6-38c-0.3-0.9-0.6-1.8-0.9-3     c1.5,0.1,2.7,0.5,4,1.1C301-38.4,299.5-38.8,298.6-38L298.6-38z"></path>				<path id="Path_00000057834111579304197750000016193279937243534995_" class="st8" d="M262.8-45c-1.8,1.8-4.8,0.1-7,0.9     C257.8-45.2,260.5-44.6,262.8-45L262.8-45z"></path>				<path id="Path_00000170970483159620960380000008975137076677492147_" class="st8" d="M307.8-41.3c-0.9,0.3-1.6,2.1-2.7,0.9     c-0.6-0.6-0.2-1.6,0.4-2.1C306.6-43.6,307.2-42.7,307.8-41.3L307.8-41.3z"></path>				<path id="Path_00000031921833200083280540000010171361462536752318_" class="st8" d="M289.8-44.7c-1.5,0.6-2.6,0.8-4,0.1     C287-45,288.1-44.9,289.8-44.7z"></path>				<path id="Path_00000027599351814387051110000010256004869157143705_" class="st8" d="M272.8-45.5c0.1,0.4-0.3,0.5-1.1,0.5     c-0.9,0-1.7-0.2-1.9-0.6c-0.1-0.2,0.4-0.4,1-0.4C271.6-46,272.5-45.9,272.8-45.5z"></path>				<path id="Path_00000101077416925768620540000006477436218239233180_" class="st8" d="M262.4-52c-0.3-0.1-0.5-0.3-0.6-0.6     c-0.1-0.3,0.2-0.5,0.5-0.4s0.5,0.3,0.5,0.6C262.8-52.2,262.6-52,262.4-52z"></path>				<path id="Path_00000052798858107595465070000009441755910872934576_" class="st8" d="M258.8-47.4c0.9-0.3,1.8-0.5,3-0.1     C260.6-47,259.6-47.5,258.8-47.4L258.8-47.4z"></path>				<path id="Path_00000077316827544747031220000007889603308488420780_" class="st8" d="M267.6-44.8c-0.1,0.3-0.2,0.7-0.6,0.7     l-0.1-0.1C267-44.7,267.4-44.7,267.6-44.8L267.6-44.8z"></path>				<path id="Path_00000039829140498566469160000016905017152321107128_" class="st8" d="M272.2-51.5L272.2-51.5L272.2-51.5z"></path>				<path id="Path_00000047767595340438957890000003848011134501454751_" class="st8" d="M259.2-49.5L259.2-49.5L259.2-49.5z"></path>				<path id="Shape_00000176756195371218728970000004265292277458501047_" class="st8" d="M96.4-55.4c-0.1,0.2-0.1,0.4-0.2,0.5     c-0.1,0.1-0.3,0-0.5-0.1c0.1-0.2,0.1-0.4,0.2-0.5C96.1-55.5,96.2-55.4,96.4-55.4z M186.8-58.4c0.1-0.1,0.3-0.4,0.4-0.4     c0.4-0.1,0.7,0.1,0.5,0.5c-0.1,0.1-0.4,0.3-0.5,0.3C186.9-58.1,186.9-58.3,186.8-58.4z M111.8-55.8c-0.2,0.2-0.5,0.5-0.8,0.3     c-0.1,0,0-0.2-0.1-0.3C111.2-55.8,111.6-55.8,111.8-55.8L111.8-55.8z M121.6-56.5l-0.1,0.1L121.6-56.5L121.6-56.5L121.6-56.5z      M48.8-44.4c3.3,0.1,6.1-1.6,9.3-2.1c2.5-0.4,5.2,0.1,7.5-1.2l0,0c-0.2-0.2-0.2-0.5,0-0.7l-0.1,0.1c0.2-0.2,0.4-0.2,0.6-0.1     c0.1,0.1,0.2,0.2,0.3,0.3v0.3l-0.1,0.3l0,0c0.7,1.2,1.6,1.8,2.9,1.3c1.2-1.1-2.1-1.6,0-2.6l0,0c0.5,0.8,1.4,0.6,2.1,0.7l0,0     l1.4-1.4l0,0c0.5-0.5,1-0.6,1.5,0l0,0c0.9,0,1.9-0.4,2.7,0.1c5.2,2.7,10.9,3.6,16.3,5.5c2.8,1,5.8,1.9,8.3,3.8l0,0     c1.7-0.5,3.2,0.2,4.6,1c1.3,0.8,2.5,0.4,2.9-0.7c0.3-1,1.4-2.4-0.5-3.4c-2.5-1.2-4.9-2.6-7.7-2.9c0,0.2,0,0.5,0,0.7     c0.5,0,1.2-0.2,1.3,0.5c0,0.1-0.1,0.2-0.2,0.3c-0.8,0.3-1-0.3-1.1-0.8c0-0.2,0-0.4,0-0.7c-1.1-0.3-2.1,0.7-3.5-0.7     c-1.6-1.5-4.7-1.4-7.1-2c-1.9-0.5-3.7-1.2-5.6-1.6c-0.2-1.3,1-1.1,1.5-1.7l0,0c3.1,1.5,6.4,2.1,9.8,2.7l0,0     c0.1-0.1,0.2-0.1,0.2-0.1c0.2,0,0.3,0.1,0.5,0.1l0,0c1.2-1.4,2.4-0.7,3.5,0c0.2-0.5-0.3-1.4,1-1.5c0.1,0.8-0.5,1.2-1,1.5     c0.4,1.1,1,1,1.9,0.5c1.1-0.7,2.1-1.4,3.2-2c1.9-1,3.7-1.7,6.1-0.6c1.9,0.9,4.2,0.9,6.4,0.7l0,0c0.7-1.4,1.1-0.4,1.6,0.2     c0.8,0.9,1,2.4,2.6,2.3c3.6-0.3,6.2,2.1,9.2,3.4c1.6,0.7,3.1,1.4,4.9,0.9l-0.2-0.1l0.1,0.2c0.1-1.3-0.3-2.3-1.3-2.5     c-3.2-0.6-6-1.4-8-4.4c-0.7-1.1-3.1-0.4-4.5-2.2c4.2,0.6,8,0.4,11.7,0.3h-0.1c0.5-1.5,1.3-2.4,3-1.2c0.8,0.6,1.7,0.5,2.7,0.5     l0,0c-0.6-0.7-0.9-1.9,0.4-1.4c4,1.4,7.7,0.3,11.4-0.7c1.6-0.4,2.3,0.5,3.3,1.3c0.7,0.5,0.7,0.5,1.8-0.5c0.5-0.5,1-0.5,1.5-0.2     c1.3,0.7,2.7,0.6,4,0.2l0,0c0.1-0.8,0.2-1.6,1.5-1.2c2.6,0.8,5.2,0.6,7.9,0.3c2.1-0.2,4.2,0.6,6.4-0.2c1.2-0.5,1.8,0.6,1.1,1.8     l0,0c3.7-1.7,7.5,0.8,11.2,0c0.4-0.4,0.8-0.7,1.3-0.2c0.1,0.1,0.1,0.2,0,0.3c-0.5,0.5-0.9,0-1.4-0.1c-0.1,0.8,0.3,1.2,1.1,1.3     c0.9,0.1,1.5,0.5,1.7,1.4l0,0c0.9-0.3,1.9-0.5,2.1-1.5c0.1-0.9-0.8-0.9-1.4-1.2l0,0c0.2-0.5,0.5-0.9,0.7-1.4l0,0     c0.3,0,0.5,0,0.8,0l0,0c1.5,0.8,3,1,4.7,0.8c1.9-0.2,3.9-0.4,5.8,0.5c2.4,1.1,4.3-0.1,6-1.4c1.2-0.9,0.9-2.1-0.5-2.1     c-3.6,0-7.2-0.4-10.7,0.6c-0.2,0.1-0.3,0.6-0.5,0.8l0,0c-1.5-0.5-0.5-2.3-1.8-3.1c-0.9,0.1-2,0.3-3.1,0.5l0,0     c-0.1,0.2-0.4,0.5-0.4,0.5c-4.9-2.6-10.3-1.5-15.5-1.7c-2.2-0.1-4.4,0-6.6-0.4c-0.6-0.1-1.4-0.3-1.7-0.1c-2.2,2-4.4,0.8-6.7,0.4     c-0.2,0-0.2,0.5-0.5,0.1c0.2,0,0.4-0.1,0.6-0.1c-0.1-0.1-0.2-0.2-0.3-0.2c-4,1.1-8.2-1-12.2,0.5c-1.6,0.6-3.4,0.3-4.8,0     c-2.7-0.6-4.9-1.3-7.4,0.6c-1.1,0.9-3.2-0.2-5.1-0.1c-3.4,0.3-6.8,0.8-10.4,0.4c-5.5-0.6-11.2-0.9-16.3,2.6     c-1.6,1.1-4.3,1.1-6.4,0.8c-4.2-0.6-8.3,0.1-12.3,0.8c-3.1,0.5-6.3-0.8-9.2,0.8c-1.7,1-4.1-0.2-5.5,1.7c-0.7,1-1.5-0.4-2.5-0.4     c-2.8,0.2-5.3,1.3-7.9,2c-2.4,0.6-5.3-0.3-7.4,2.2c-0.9,1.1-1.9-0.6-2.4-1.6l0,0c-0.7,0.2-1.4,0.4-2.2,0.6     c0,0.3,0.1,0.6,0.1,0.9c-0.1,0-0.3,0-0.3,0c-0.2-0.3,0-0.6,0.2-0.9c-1.9-1-2.8,1.1-4.4,1.4c-4.9,0.8-9.8,1.6-14.7,2.3     c-0.8,0.1-1.8-0.1-1.7,1.1c0,1,0.7,1.5,1.6,1.4c1.7-0.2,3.2,0.5,4.8,0.6c1.9,0,3.7,0.2,5.6,1.6c-1.1-2,0.7-2.8,0.9-4.6     c1.2,1.9,2.6,2.4,4.3,1.6l0,0c0.2-0.5,0-1.4,0.7-1.3C49.7-45.5,48.8-44.8,48.8-44.4L48.8-44.4z"></path>				<path id="Shape_00000156589571607047195210000012758631866019640717_" class="st8" d="M-3.9-43.9c0,0.1-0.1,0.2-0.1,0.3     c-0.1,0-0.2,0-0.3-0.1c0-0.1,0.1-0.2,0.1-0.3C-4.2-44-4.1-43.9-3.9-43.9z M2.8-40.9c-0.1,0-0.2-0.1-0.2-0.1     c0.1-0.1,0.1-0.3,0.2-0.4c0,0,0.2,0,0.2,0.1C2.9-41.2,2.9-41.1,2.8-40.9z M4.2-42.4c0.1,0.1,0.6-0.2,0.5,0.3     C4.6-42.2,4.4-42.3,4.2-42.4c-0.1-0.1-0.6,0.2-0.4-0.4C3.9-42.6,4.1-42.5,4.2-42.4z M9.8-43l0.2,0.1L9.8-43L9.8-43z M-4.9-41.1     c1.8,0.8,3.3,2.5,5.6,1.4c-1.9-0.1-2-1.4-2-2.7l-0.1-0.1l0.1,0.1c0.2,0,0.5,0,0.7,0c0.5-0.3,1-0.8,1.7-0.3     c-0.5,0.6-1.2,0.2-1.7,0.3c-0.1,1.2,0.6,1.9,1.5,2.6c0.8,0.7,1.7,0.9,2.8,0.7l0,0c2.5-0.3,5.1-0.4,7.1-2.4     c0.7-0.7,1.4,0.2,0.6,1.1l0,0c0.6,0.3,1.5,0.8,1.9,0.2c1.5-2.2,3.6-1.5,5.8-1.4c2.4,0.1,5,0.5,7-1.4l0,0c1-0.5,2.2-0.7,2.9-2.1     c-2.7-1.7-5.6-0.5-8.2-0.2c-7.8,0.8-15.5,0.1-23.2-0.6c-2.8-0.3-5.6,1-8.5,0.5c-0.4-0.1-0.9-0.2-1.3-0.3l0,0     c-0.2-0.4-0.5-0.9-0.7-1.3l0,0c-2.1,0.8-4.4,0.6-6.4,0.4c-4.6-0.6-9.2,0.3-13.8-0.4l0,0c-0.2,0.2-0.4,0.3-0.6,0.5     c-0.1,0.1-0.2,0.3-0.2,0.4c1.2,1.6,3.5,1.3,5,2.4h-0.1c1-0.4,2-0.9,3-0.6c3.4,1.4,7.2,0.3,10.6,1.4c0.8,0.3,1.8-0.3,2.3-0.1     C-10.6-41.6-7.4-43-4.9-41.1L-4.9-41.1z"></path>			</g>		</g>	</g></g></svg>