<svg xmlns="http://www.w3.org/2000/svg" xmlns:xlink="http://www.w3.org/1999/xlink" width="138px" height="221px" viewBox="0 0 138 221"><title>giraffe</title><g id="Home-1" stroke="none" stroke-width="1" fill="none" fill-rule="evenodd"><g id="De-bebe---Home-1-" transform="translate(-589.000000, -2391.000000)" fill-rule="nonzero"><g id="Group-12-Copy-2" transform="translate(92.000000, 2087.000000)"><g id="Group-6" transform="translate(497.000000, 161.000000)"><g id="giraffe" transform="translate(68.951413, 253.042294) scale(-1, 1) translate(-68.951413, -253.042294) translate(0.000000, 143.000000)"><g id="Group" transform="translate(52.108254, 8.976050)"><path d="M11.86,125.258537 C11.86,125.258537 3.64,123.158537 4.4,115.508537 C5.16,107.858537 12.35,111.498537 9.81,114.548537 C7.27,117.598537 -0.24,96.9585366 8.1,96.0085366 C16.44,95.0585366 11.85,102.698537 8.06,102.318537 C4.27,101.938537 -3.7,84.9185366 4.27,83.7785366 C12.24,82.6285366 10.77,89.3185366 6.82,88.7485366 C2.87,88.1785366 -1.46,69.2185366 6.82,68.8485366 C15.1,68.4785366 12.23,75.9385366 5.93,74.2185366 C-0.38,72.4985366 -2.29,58.7385366 5.36,56.6285366 C13.01,54.5185366 9.52,64.0885366 6.58,61.9785366 C3.64,59.8785366 -4.82,49.7485366 6.58,44.7685366 C17.98,39.7885366 15.99,50.8885366 9.81,49.7385366 C3.63,48.5885366 3.06,26.4385366 12.24,30.0685366 C21.42,33.6985366 14.72,39.1285366 7.84,32.6285366 C2.68,27.7485366 6.57,17.6885366 15.1,20.5485366 C20.64,22.4085366 19.11,28.9985366 14.14,24.5585366 C9.17,20.1185366 12.18,9.59853664 18.5,12.2285366 C24.82,14.8585366 22.13,16.5785366 19.95,16.3885366 C17.77,16.1985366 16.97,-0.961463357 24.16,2.40853664 C31.35,5.77853664 28.3,8.34853664 26.19,6.76853664 C24.09,5.18853664 27.26,-0.891463357 31.37,0.628536643" id="Path" fill="#FFFFFF"></path><path d="M11.86,125.628537 C11.83,125.628537 11.8,125.628537 11.77,125.618537 C11.68,125.598537 3.25,123.348537 4.03,115.468537 C4.27,113.048537 5.13,111.838537 5.93,111.218537 C4.53,107.958537 3.54,103.378537 4.04,100.148537 C4.09,99.8385366 4.15,99.5485366 4.22,99.2685366 C2.25,96.2785366 0.56,91.9185366 0.49,88.6785366 C0.44,86.1985366 1.3,84.4985366 2.94,83.7585366 C2.1,81.1685366 1.62,78.0585366 1.75,75.4585366 C1.81,74.1585366 2.02,73.0185366 2.36,72.0585366 C0.81,70.0085366 0,67.1085366 0,64.5385366 C0,61.6885366 0.87,59.3685366 2.42,57.8585366 C1.17,55.8885366 0.21,53.5185366 0.46,51.1585366 C0.74,48.4985366 2.48,46.3585366 5.63,44.7985366 C4.44,40.5985366 4.62,34.8485366 6.53,31.6785366 C4.61,28.9185366 4.86,25.3985366 6.28,23.0285366 C7.45,21.0785366 9.24,19.9485366 11.37,19.7085366 C11.12,17.5985366 11.56,15.4385366 12.56,13.8485366 C13.86,11.7785366 15.9,10.9885366 18.1,11.6685366 C17.9,8.27853664 18.46,4.08853664 20.37,2.38853664 C21.1,1.73853664 22.39,1.14853664 24.33,2.05853664 C24.9,2.32853664 25.4,2.57853664 25.84,2.82853664 C26.91,0.898536643 29.07,-0.641463357 31.52,0.268536643 C31.71,0.338536643 31.81,0.558536643 31.74,0.748536643 C31.67,0.938536643 31.45,1.03853664 31.26,0.968536643 C29.22,0.218536643 27.39,1.54853664 26.48,3.21853664 C28.65,4.58853664 29.04,5.67853664 29.05,6.26853664 C29.06,6.76853664 28.8,7.19853664 28.34,7.42853664 C27.67,7.76853664 26.72,7.61853664 25.97,7.05853664 C25.06,6.37853664 24.9,4.99853664 25.5,3.50853664 C25.06,3.25853664 24.56,2.99853664 24,2.72853664 C22.72,2.12853664 21.69,2.19853664 20.85,2.93853664 C19.07,4.51853664 18.6,8.70853664 18.85,11.9485366 C21.72,13.1685366 23.04,14.3485366 22.77,15.4585366 C22.53,16.4285366 21.13,16.8385366 19.92,16.7485366 C19.41,16.7085366 19,16.2085366 18.68,15.2285366 C18.44,14.5085366 18.26,13.5485366 18.15,12.4785366 C16.16,11.7385366 14.36,12.3785366 13.18,14.2485366 C12.26,15.7085366 11.85,17.7185366 12.09,19.6585366 C13.07,19.6385366 14.13,19.8185366 15.22,20.1785366 C17.87,21.0585366 18.9,22.9085366 18.99,24.2285366 C19.05,25.1485366 18.67,25.8985366 17.98,26.2385366 C17.38,26.5285366 16.04,26.7385366 13.9,24.8185366 C12.59,23.6485366 11.81,22.0885366 11.48,20.4485366 C9.56,20.6585366 7.96,21.6685366 6.92,23.3985366 C5.67,25.4785366 5.42,28.5285366 6.99,30.9885366 C7.18,30.7485366 7.38,30.5385366 7.59,30.3385366 C8.87,29.1785366 10.52,28.9585366 12.38,29.6985366 C15.34,30.8685366 17.06,32.3985366 17.09,33.8885366 C17.11,34.6685366 16.64,35.3285366 15.8,35.6985366 C14.03,36.4885366 10.8,35.9185366 7.58,32.8785366 C7.38,32.6885366 7.19,32.4885366 7.01,32.2785366 C5.35,35.2585366 5.23,40.5185366 6.31,44.4485366 C6.35,44.4285366 6.39,44.4185366 6.43,44.3985366 C11.6,42.1485366 13.69,43.2685366 14.47,44.1385366 C15.32,45.0785366 15.4,46.5485366 14.65,47.8785366 C13.92,49.1785366 12.2,50.5385366 9.74,50.0885366 C8.1,49.7885366 6.73,48.1685366 5.84,45.5085366 C3,46.9485366 1.44,48.8685366 1.2,51.2285366 C0.98,53.2885366 1.83,55.4785366 2.99,57.3585366 C3.65,56.8585366 4.41,56.4785366 5.25,56.2485366 C8.43,55.3685366 9.6,56.5185366 10.01,57.2885366 C10.8,58.7485366 10.08,60.9985366 8.91,62.0385366 C8.09,62.7585366 7.16,62.8485366 6.35,62.2685366 C5.54,61.6885366 4.09,60.3085366 2.83,58.4985366 C1.48,59.8685366 0.73,61.9685366 0.73,64.5285366 C0.73,66.8185366 1.4,69.3685366 2.67,71.2485366 C3.52,69.4985366 4.92,68.5285366 6.79,68.4485366 C10.45,68.2885366 11.66,69.5885366 12.05,70.3685366 C12.5,71.2585366 12.33,72.3185366 11.61,73.1985366 C10.71,74.2985366 8.65,75.3185366 5.82,74.5485366 C4.7,74.2385366 3.73,73.5985366 2.92,72.7285366 C2.64,73.6885366 2.52,74.6785366 2.48,75.4785366 C2.35,78.1685366 2.86,81.0985366 3.65,83.4885366 C3.83,83.4385366 4.02,83.4085366 4.21,83.3785366 C8.06,82.8285366 9.48,84.0685366 9.99,84.8585366 C10.54,85.7185366 10.52,86.8185366 9.94,87.7185366 C9.28,88.7485366 8.06,89.2685366 6.76,89.0885366 C5.38,88.8885366 4.1,86.9885366 3.17,84.4485366 C1.83,85.0785366 1.18,86.4885366 1.22,88.6485366 C1.28,91.6585366 2.79,95.5485366 4.51,98.3385366 C5.18,96.7285366 6.38,95.7985366 8.05,95.6085366 C11.12,95.2485366 12.34,96.0785366 12.82,96.8285366 C13.36,97.6685366 13.24,98.8285366 12.52,100.018537 C11.63,101.468537 9.79,102.848537 8.02,102.668537 C7.05,102.568537 5.9,101.578537 4.8,100.098537 C4.79,100.148537 4.78,100.198537 4.77,100.258537 C4.28,103.378537 5.28,107.748537 6.57,110.818537 C6.77,110.728537 6.95,110.678537 7.09,110.638537 C8.34,110.358537 9.72,110.908537 10.37,111.968537 C10.92,112.858537 10.81,113.908537 10.09,114.778537 C9.72,115.218537 9.21,115.338537 8.68,115.098537 C7.88,114.738537 7,113.538537 6.23,111.908537 C5.45,112.598537 4.93,113.848537 4.76,115.528537 C4.04,122.768537 11.86,124.858537 11.94,124.878537 C12.14,124.928537 12.26,125.138537 12.21,125.338537 C12.18,125.518537 12.03,125.628537 11.86,125.628537 Z M6.89,111.518537 C7.6,113.038537 8.37,114.138537 9.01,114.438537 C9.23,114.538537 9.38,114.508537 9.53,114.318537 C10.23,113.468537 9.97,112.738537 9.75,112.378537 C9.26,111.588537 8.23,111.168537 7.28,111.388537 C7.14,111.418537 7.02,111.458537 6.89,111.518537 Z M5.04,99.1585366 C6.13,100.768537 7.26,101.858537 8.11,101.948537 C9.56,102.098537 11.14,100.878537 11.89,99.6585366 C12.46,98.7285366 12.58,97.8585366 12.2,97.2685366 C11.69,96.4585366 10.25,96.1485366 8.15,96.3885366 C6.61,96.5585366 5.56,97.4885366 5.04,99.1585366 Z M3.92,84.2285366 C4.79,86.5685366 5.91,88.2385366 6.89,88.3785366 C7.91,88.5285366 8.82,88.1385366 9.33,87.3485366 C9.75,86.6885366 9.77,85.9085366 9.38,85.2985366 C8.68,84.2085366 6.84,83.7885366 4.34,84.1485366 C4.19,84.1685366 4.05,84.1885366 3.92,84.2285366 Z M3.22,71.9585366 C3.99,72.8685366 4.93,73.5485366 6.04,73.8485366 C8.52,74.5185366 10.29,73.6785366 11.05,72.7485366 C11.58,72.0985366 11.71,71.3385366 11.4,70.7285366 C10.87,69.6685366 9.2,69.1085366 6.84,69.2185366 C4.91,69.3085366 3.82,70.5085366 3.22,71.9585366 Z M3.41,58.0085366 C4.53,59.6585366 5.85,60.9985366 6.8,61.6685366 C7.45,62.1285366 8.04,61.8185366 8.42,61.4785366 C9.36,60.6485366 9.98,58.7885366 9.36,57.6485366 C8.83,56.6685366 7.44,56.4385366 5.46,56.9785366 C4.7,57.1985366 4.01,57.5485366 3.41,58.0085366 Z M6.54,45.2085366 C7.33,47.6185366 8.53,49.1285366 9.89,49.3785366 C11.96,49.7685366 13.38,48.6885366 14.01,47.5485366 C14.59,46.5085366 14.56,45.3785366 13.93,44.6785366 C13.4,44.0985366 11.65,42.9885366 6.74,45.1285366 C6.67,45.1485366 6.6,45.1785366 6.54,45.2085366 Z M7.45,31.6485366 C7.65,31.8985366 7.87,32.1385366 8.11,32.3585366 C11.06,35.1485366 14.01,35.6985366 15.51,35.0385366 C15.83,34.8985366 16.36,34.5685366 16.35,33.9285366 C16.33,33.0385366 15.21,31.6485366 12.11,30.4185366 C10.51,29.7885366 9.16,29.9585366 8.1,30.9185366 C7.86,31.1385366 7.64,31.3785366 7.45,31.6485366 Z M12.23,20.4285366 C12.55,21.8785366 13.25,23.2485366 14.4,24.2785366 C15.71,25.4485366 16.92,25.9285366 17.65,25.5785366 C18.06,25.3785366 18.28,24.8985366 18.24,24.2885366 C18.16,23.1185366 17.13,21.6185366 14.98,20.9085366 C14.04,20.5885366 13.11,20.4285366 12.23,20.4285366 Z M18.95,12.8285366 C19.05,13.6785366 19.21,14.4285366 19.4,15.0085366 C19.67,15.8185366 19.92,16.0085366 20,16.0185366 C20.96,16.1085366 21.95,15.7585366 22.06,15.2985366 C22.1,15.1285366 22.13,14.2485366 18.95,12.8285366 Z M26.17,3.91853664 C25.76,5.01853664 25.85,6.02853664 26.43,6.46853664 C27.03,6.91853664 27.67,6.93853664 28.01,6.76853664 C28.21,6.66853664 28.31,6.50853664 28.31,6.28853664 C28.3,5.74853664 27.7,4.90853664 26.17,3.91853664 Z" id="Shape" fill="#26192A"></path></g><path d="M108.528254,14.344587 C108.528254,14.344587 141.088254,29.814587 137.648254,40.994587 C134.208254,52.174587 102.088254,37.464587 102.088254,37.464587 L108.528254,144.254587 L74.028254,144.254587 C74.028254,144.254587 66.988254,39.984587 79.658254,21.994587 C92.328254,4.00458703 108.528254,14.344587 108.528254,14.344587 Z" id="Path" fill="#EECE78"></path><path d="M107.828254,132.704587 C107.828254,132.704587 110.418254,180.884587 108.318254,182.794587 C106.218254,184.704587 25.928254,186.554587 20.958254,185.824587 C15.988254,185.094587 8.33825398,143.514587 24.398254,136.584587 C40.458254,129.644587 107.828254,132.704587 107.828254,132.704587 Z" id="Path" fill="#EECE78"></path><path d="M22.278254,137.784587 C22.278254,137.784587 -1.02174602,147.324587 3.94825398,189.484587 C3.94825398,189.484587 7.38825398,189.854587 8.91825398,189.194587 C10.448254,188.534587 5.09825398,155.654587 22.278254,147.764587 L22.278254,137.784587 Z" id="Path" fill="#EECE78"></path><g id="Group" transform="translate(0.000000, 188.415415)"><path d="M9.50825398,0.399171854 C9.50825398,0.399171854 14.028254,3.62917185 12.348254,12.3691719 C11.158254,18.5791719 9.00825398,9.64917185 9.00825398,9.64917185 C9.00825398,9.64917185 9.22825398,14.7891719 8.14825398,14.9991719 C7.06825398,15.2091719 6.20825398,9.94917185 6.20825398,9.94917185 C6.20825398,9.94917185 6.20825398,14.3091719 4.62825398,14.9491719 C3.04825398,15.5991719 2.33825398,9.35917185 2.33825398,9.35917185 C2.33825398,9.35917185 2.12825398,15.5991719 1.18825398,13.6591719 C-0.891746019,9.35917185 1.25825398,1.61917185 3.93825398,1.06917185" id="Path" fill="#FFFFFF"></path><path d="M8.08825398,15.3791719 C7.95825398,15.3791719 7.80825398,15.3491719 7.64825398,15.2291719 C7.11825398,14.8591719 6.67825398,13.6291719 6.36825398,12.4491719 C6.13825398,13.6591719 5.68825398,14.9291719 4.78825398,15.2991719 C4.49825398,15.4191719 4.19825398,15.3991719 3.92825398,15.2391719 C3.27825398,14.8591719 2.81825398,13.6191719 2.50825398,12.3591719 C2.23825398,14.2791719 1.83825398,14.3591719 1.65825398,14.3991719 C1.34825398,14.4691719 1.08825398,14.2691719 0.878253981,13.8191719 C-0.641746019,10.6691719 -0.00174601903,5.99917185 1.37825398,3.19917185 C2.09825398,1.74917185 2.95825398,0.879171854 3.88825398,0.699171854 C4.08825398,0.649171854 4.28825398,0.789171854 4.32825398,0.989171854 C4.36825398,1.18917185 4.23825398,1.38917185 4.03825398,1.42917185 C3.36825398,1.56917185 2.64825398,2.32917185 2.05825398,3.52917185 C0.748253981,6.18917185 0.198253981,10.6091719 1.53825398,13.4491719 C1.75825398,12.7491719 1.93825398,10.9291719 1.99825398,9.33917185 C2.00825398,9.13917185 2.15825398,8.98917185 2.35825398,8.97917185 C2.56825398,8.97917185 2.72825398,9.11917185 2.74825398,9.30917185 C2.96825398,11.2391719 3.60825398,14.1491719 4.32825398,14.5791719 C4.39825398,14.6191719 4.44825398,14.6291719 4.52825398,14.5991719 C5.50825398,14.1991719 5.86825398,11.5291719 5.86825398,9.93917185 C5.86825398,9.73917185 6.01825398,9.57917185 6.20825398,9.56917185 C6.39825398,9.54917185 6.57825398,9.68917185 6.60825398,9.87917185 C6.99825398,12.2891719 7.70825398,14.4991719 8.11825398,14.6191719 C8.48825398,14.4591719 8.75825398,12.0991719 8.65825398,9.64917185 C8.64825398,9.45917185 8.78825398,9.28917185 8.97825398,9.25917185 C9.16825398,9.22917185 9.34825398,9.35917185 9.39825398,9.53917185 C9.97825398,11.9391719 10.888254,14.1491719 11.308254,14.1691719 C11.308254,14.1691719 11.658254,14.0591719 11.998254,12.2791719 C13.618254,3.86917185 9.35825398,0.709171854 9.30825398,0.679171854 C9.13825398,0.559171854 9.09825398,0.329171854 9.21825398,0.159171854 C9.33825398,-0.010828146 9.56825398,-0.050828146 9.73825398,0.069171854 C9.92825398,0.209171854 14.428254,3.53917185 12.728254,12.4191719 C12.398254,14.1291719 11.968254,14.9091719 11.318254,14.9191719 C11.318254,14.9191719 11.308254,14.9191719 11.298254,14.9191719 C10.548254,14.9191719 9.87825398,13.6091719 9.38825398,12.2191719 C9.29825398,13.7591719 8.99825398,15.1891719 8.23825398,15.3391719 C8.18825398,15.3691719 8.13825398,15.3791719 8.08825398,15.3791719 Z" id="Path" fill="#26192A"></path></g><path d="M86.808254,19.124587 C86.808254,19.124587 69.728254,15.584587 61.928254,21.394587 C61.928254,21.394587 82.808254,34.274587 86.808254,19.124587 Z" id="Path" fill="#EECE78"></path><path d="M83.498254,22.654587 C83.458254,22.654587 83.428254,22.654587 83.388254,22.634587 C74.228254,19.794587 69.298254,22.574587 69.248254,22.594587 C69.068254,22.704587 68.838254,22.634587 68.738254,22.464587 C68.638254,22.294587 68.688254,22.054587 68.868254,21.954587 C69.078254,21.834587 74.098254,18.974587 83.608254,21.914587 C83.808254,21.974587 83.918254,22.184587 83.858254,22.384587 C83.808254,22.544587 83.658254,22.654587 83.498254,22.654587 Z" id="Path" fill="#26192A"></path><path d="M101.388254,29.904587 C99.348254,29.904587 95.848254,24.314587 95.148254,23.164587 C95.038254,22.984587 95.098254,22.754587 95.278254,22.644587 C95.458254,22.534587 95.688254,22.594587 95.798254,22.764587 C97.468254,25.514587 100.308254,29.304587 101.438254,29.134587 C101.478254,29.124587 101.538254,29.114587 101.588254,29.014587 C102.158254,28.034587 100.918254,23.774587 99.998254,21.314587 C99.928254,21.124587 100.028254,20.904587 100.218254,20.834587 C100.408254,20.764587 100.628254,20.864587 100.698254,21.054587 C100.958254,21.734587 103.178254,27.784587 102.238254,29.394587 C102.078254,29.664587 101.848254,29.824587 101.558254,29.874587 C101.498254,29.894587 101.438254,29.904587 101.388254,29.904587 Z" id="Path" fill="#26192A"></path><path d="M109.578254,27.754587 C107.598254,27.754587 106.018254,21.394587 105.568254,19.404587 C105.518254,19.204587 105.648254,19.004587 105.848254,18.954587 C106.048254,18.914587 106.248254,19.034587 106.298254,19.234587 C107.158254,23.094587 108.698254,27.164587 109.598254,26.994587 C109.658254,26.984587 109.738254,26.954587 109.848254,26.814587 C110.668254,25.664587 110.078254,21.064587 109.788254,19.384587 C109.748254,19.184587 109.888254,18.984587 110.088254,18.954587 C110.288254,18.924587 110.488254,19.054587 110.518254,19.254587 C110.628254,19.904587 111.608254,25.644587 110.448254,27.254587 C110.258254,27.524587 109.998254,27.694587 109.708254,27.734587 C109.668254,27.744587 109.618254,27.754587 109.578254,27.754587 Z" id="Path" fill="#26192A"></path><path d="M128.548254,44.554587 C128.518254,44.554587 128.488254,44.554587 128.458254,44.554587 C126.628254,44.424587 125.668254,40.014587 125.488254,39.134587 C125.448254,38.934587 125.578254,38.734587 125.778254,38.694587 C125.978254,38.654587 126.178254,38.784587 126.218254,38.984587 C126.608254,40.944587 127.568254,43.734587 128.508254,43.804587 C128.778254,43.834587 129.588254,43.534587 130.658254,40.444587 C130.728254,40.244587 130.938254,40.144587 131.138254,40.214587 C131.338254,40.284587 131.438254,40.494587 131.368254,40.694587 C130.468254,43.314587 129.568254,44.554587 128.548254,44.554587 Z" id="Path" fill="#26192A"></path><path d="M121.628254,44.554587 C121.458254,44.554587 121.298254,44.434587 121.258254,44.264587 C118.288254,30.994587 127.028254,25.324587 127.118254,25.274587 C127.288254,25.164587 127.528254,25.214587 127.638254,25.394587 C127.748254,25.574587 127.698254,25.804587 127.518254,25.914587 C127.498254,25.924587 125.388254,27.274587 123.668254,30.184587 C122.078254,32.864587 120.498254,37.454587 121.988254,44.104587 C122.038254,44.304587 121.908254,44.504587 121.708254,44.554587 C121.678254,44.544587 121.658254,44.554587 121.628254,44.554587 Z" id="Path" fill="#26192A"></path><path d="M132.458254,36.064587 C132.348254,36.064587 132.228254,36.014587 132.158254,35.914587 C130.968254,34.334587 129.508254,33.904587 129.488254,33.904587 C129.288254,33.844587 129.168254,33.644587 129.228254,33.444587 C129.288254,33.244587 129.488254,33.124587 129.688254,33.184587 C129.758254,33.204587 131.408254,33.664587 132.758254,35.474587 C132.878254,35.644587 132.848254,35.874587 132.688254,35.994587 C132.618254,36.034587 132.538254,36.064587 132.458254,36.064587 Z" id="Path" fill="#26192A"></path><path d="M133.608254,35.254587 C133.498254,35.254587 133.398254,35.214587 133.318254,35.124587 C131.948254,33.504587 132.078254,31.444587 132.088254,31.364587 C132.108254,31.154587 132.288254,31.024587 132.488254,31.014587 C132.698254,31.024587 132.848254,31.204587 132.838254,31.414587 C132.838254,31.434587 132.728254,33.254587 133.898254,34.644587 C134.028254,34.804587 134.008254,35.034587 133.858254,35.174587 C133.778254,35.224587 133.688254,35.254587 133.608254,35.254587 Z" id="Path" fill="#26192A"></path><path d="M84.588254,17.854587 C84.388254,17.854587 84.218254,17.694587 84.218254,17.494587 L83.838254,7.31458703 C83.378254,7.43458703 82.668254,7.52458703 82.008254,7.22458703 C81.348254,6.93458703 80.878254,6.33458703 80.618254,5.45458703 C80.358254,4.58458703 80.618254,3.74458703 81.378254,3.02458703 C82.848254,1.63458703 86.028254,0.954587028 87.928254,1.63458703 C88.828254,1.95458703 89.348254,2.53458703 89.448254,3.32458703 C89.588254,4.45458703 89.388254,5.33458703 88.828254,5.93458703 C88.358254,6.44458703 87.738254,6.62458703 87.328254,6.68458703 L88.848254,16.834587 C88.878254,17.044587 88.738254,17.234587 88.528254,17.264587 C88.318254,17.294587 88.128254,17.154587 88.098254,16.944587 L86.518254,6.39458703 C86.498254,6.28458703 86.538254,6.17458703 86.608254,6.08458703 C86.678254,6.00458703 86.778254,5.95458703 86.908254,5.96458703 C86.908254,5.96458703 87.748254,5.99458703 88.278254,5.42458703 C88.668254,4.99458703 88.818254,4.32458703 88.698254,3.42458703 C88.638254,2.93458703 88.288254,2.57458703 87.668254,2.34458703 C86.028254,1.76458703 83.168254,2.36458703 81.888254,3.57458703 C81.338254,4.09458703 81.148254,4.65458703 81.328254,5.24458703 C81.528254,5.90458703 81.848254,6.34458703 82.298254,6.54458703 C83.078254,6.89458703 84.018254,6.46458703 84.028254,6.46458703 C84.138254,6.41458703 84.278254,6.42458703 84.378254,6.48458703 C84.488254,6.55458703 84.548254,6.66458703 84.558254,6.79458703 L84.958254,17.474587 C84.968254,17.684587 84.808254,17.854587 84.598254,17.864587 C84.598254,17.854587 84.588254,17.854587 84.588254,17.854587 Z" id="Path" fill="#26192A"></path><path d="M97.448254,16.124587 C97.268254,16.124587 97.098254,15.984587 97.078254,15.804587 L95.628254,5.26458703 C95.608254,5.14458703 95.648254,5.03458703 95.728254,4.95458703 C95.808254,4.87458703 95.928254,4.82458703 96.038254,4.84458703 C96.408254,4.88458703 97.478254,4.88458703 97.958254,4.33458703 C98.248254,4.00458703 98.308254,3.49458703 98.138254,2.81458703 C97.688254,1.03458703 96.368254,0.714587028 95.338254,0.754587028 C93.478254,0.824587028 91.288254,2.20458703 91.078254,3.42458703 C90.978254,4.01458703 91.068254,4.47458703 91.358254,4.77458703 C91.958254,5.41458703 93.238254,5.29458703 93.258254,5.29458703 C93.368254,5.28458703 93.478254,5.31458703 93.558254,5.39458703 C93.638254,5.46458703 93.678254,5.57458703 93.678254,5.68458703 L93.348254,15.764587 C93.338254,15.974587 93.158254,16.124587 92.958254,16.124587 C92.748254,16.114587 92.588254,15.944587 92.598254,15.734587 L92.918254,6.05458703 C92.368254,6.04458703 91.418254,5.92458703 90.818254,5.29458703 C90.358254,4.81458703 90.208254,4.13458703 90.348254,3.30458703 C90.618254,1.72458703 93.078254,0.0945870277 95.318254,0.0045870277 C97.118254,-0.0754129723 98.438254,0.894587028 98.878254,2.63458703 C99.108254,3.56458703 98.998254,4.30458703 98.528254,4.83458703 C97.958254,5.48458703 97.008254,5.60458703 96.438254,5.60458703 L97.828254,15.694587 C97.858254,15.904587 97.708254,16.084587 97.508254,16.114587 C97.478254,16.124587 97.468254,16.124587 97.448254,16.124587 Z" id="Path" fill="#26192A"></path><path d="M108.838254,165.604587 L111.178254,220.084587 L103.388254,220.084587 C103.388254,220.084587 98.518254,183.954587 98.798254,169.614587 L108.838254,165.604587 Z" id="Path" fill="#EECE78"></path><path d="M42.888254,165.604587 L45.228254,220.084587 L37.438254,220.084587 C37.438254,220.084587 32.568254,183.954587 32.848254,169.614587 L42.888254,165.604587 Z" id="Path" fill="#EECE78"></path><path d="M26.088254,165.604587 L28.428254,220.084587 L20.638254,220.084587 C20.638254,220.084587 15.768254,183.954587 16.048254,169.614587 L26.088254,165.604587 Z" id="Path" fill="#EECE78"></path><path d="M77.138254,114.614587 C77.108254,114.614587 77.078254,114.614587 77.058254,114.604587 C76.858254,114.554587 76.728254,114.354587 76.778254,114.154587 C77.008254,113.134587 77.078254,111.494587 77.078254,111.474587 C77.088254,111.264587 77.278254,111.124587 77.468254,111.114587 C77.678254,111.124587 77.838254,111.294587 77.828254,111.504587 C77.828254,111.574587 77.758254,113.234587 77.508254,114.324587 C77.468254,114.504587 77.318254,114.614587 77.138254,114.614587 Z" id="Path" fill="#26192A"></path><path d="M78.478254,119.634587 C78.448254,119.634587 78.428254,119.634587 78.398254,119.624587 C78.198254,119.584587 78.068254,119.384587 78.108254,119.174587 C78.328254,118.154587 78.378254,116.504587 78.378254,116.494587 C78.388254,116.284587 78.528254,116.124587 78.768254,116.134587 C78.978254,116.144587 79.138254,116.314587 79.128254,116.524587 C79.128254,116.594587 79.078254,118.254587 78.838254,119.344587 C78.808254,119.514587 78.648254,119.634587 78.478254,119.634587 Z" id="Path" fill="#26192A"></path><path d="M75.148254,118.744587 C75.118254,118.744587 75.088254,118.744587 75.068254,118.734587 C74.868254,118.684587 74.738254,118.484587 74.788254,118.284587 C75.018254,117.264587 75.088254,115.624587 75.088254,115.604587 C75.098254,115.394587 75.288254,115.244587 75.478254,115.244587 C75.688254,115.254587 75.848254,115.424587 75.838254,115.634587 C75.838254,115.704587 75.768254,117.364587 75.518254,118.454587 C75.478254,118.624587 75.318254,118.744587 75.148254,118.744587 Z" id="Path" fill="#26192A"></path><path d="M75.398254,124.134587 C75.368254,124.134587 75.338254,124.134587 75.318254,124.124587 C75.118254,124.074587 74.988254,123.874587 75.038254,123.674587 C75.268254,122.654587 75.338254,121.014587 75.338254,120.994587 C75.348254,120.784587 75.548254,120.634587 75.728254,120.634587 C75.938254,120.644587 76.098254,120.814587 76.088254,121.024587 C76.088254,121.094587 76.018254,122.754587 75.768254,123.844587 C75.718254,124.014587 75.568254,124.134587 75.398254,124.134587 Z" id="Path" fill="#26192A"></path><path d="M77.038254,126.394587 C76.988254,126.394587 76.938254,126.384587 76.888254,126.364587 C76.698254,126.284587 76.608254,126.064587 76.698254,125.874587 C77.118254,124.914587 77.498254,123.314587 77.498254,123.304587 C77.548254,123.104587 77.748254,122.974587 77.948254,123.024587 C78.148254,123.074587 78.278254,123.274587 78.228254,123.474587 C78.208254,123.544587 77.838254,125.154587 77.388254,126.184587 C77.318254,126.314587 77.188254,126.394587 77.038254,126.394587 Z" id="Path" fill="#26192A"></path><path d="M75.888254,79.854587 C75.858254,79.854587 75.828254,79.854587 75.808254,79.844587 C75.608254,79.794587 75.478254,79.594587 75.528254,79.394587 C75.758254,78.374587 75.828254,76.734587 75.828254,76.714587 C75.838254,76.504587 76.028254,76.364587 76.218254,76.354587 C76.428254,76.364587 76.588254,76.534587 76.578254,76.744587 C76.578254,76.814587 76.508254,78.474587 76.258254,79.564587 C76.218254,79.734587 76.058254,79.854587 75.888254,79.854587 Z" id="Path" fill="#26192A"></path><path d="M77.228254,84.864587 C77.198254,84.864587 77.178254,84.864587 77.148254,84.854587 C76.948254,84.814587 76.818254,84.614587 76.858254,84.404587 C77.078254,83.384587 77.128254,81.734587 77.128254,81.724587 C77.138254,81.514587 77.268254,81.354587 77.518254,81.364587 C77.728254,81.374587 77.888254,81.544587 77.878254,81.754587 C77.878254,81.824587 77.828254,83.484587 77.588254,84.574587 C77.558254,84.744587 77.398254,84.864587 77.228254,84.864587 Z" id="Path" fill="#26192A"></path><path d="M73.898254,83.974587 C73.868254,83.974587 73.838254,83.974587 73.818254,83.964587 C73.618254,83.914587 73.488254,83.714587 73.538254,83.514587 C73.768254,82.494587 73.838254,80.854587 73.838254,80.834587 C73.848254,80.624587 74.048254,80.474587 74.228254,80.474587 C74.438254,80.484587 74.598254,80.654587 74.588254,80.864587 C74.588254,80.934587 74.518254,82.594587 74.268254,83.684587 C74.218254,83.864587 74.068254,83.974587 73.898254,83.974587 Z" id="Path" fill="#26192A"></path><path d="M74.148254,89.374587 C74.118254,89.374587 74.088254,89.374587 74.068254,89.364587 C73.868254,89.314587 73.738254,89.114587 73.788254,88.914587 C74.018254,87.894587 74.088254,86.254587 74.088254,86.234587 C74.098254,86.024587 74.298254,85.884587 74.478254,85.874587 C74.688254,85.884587 74.848254,86.054587 74.838254,86.264587 C74.838254,86.334587 74.768254,87.994587 74.518254,89.084587 C74.468254,89.254587 74.318254,89.374587 74.148254,89.374587 Z" id="Path" fill="#26192A"></path><path d="M75.788254,91.634587 C75.738254,91.634587 75.688254,91.624587 75.638254,91.604587 C75.448254,91.524587 75.358254,91.304587 75.448254,91.114587 C75.868254,90.154587 76.248254,88.554587 76.248254,88.544587 C76.298254,88.344587 76.498254,88.214587 76.698254,88.264587 C76.898254,88.314587 77.028254,88.514587 76.978254,88.714587 C76.958254,88.784587 76.588254,90.394587 76.138254,91.424587 C76.068254,91.544587 75.928254,91.634587 75.788254,91.634587 Z" id="Path" fill="#26192A"></path><path d="M98.018254,95.994587 C97.988254,95.994587 97.958254,95.994587 97.938254,95.984587 C97.738254,95.934587 97.608254,95.734587 97.658254,95.534587 C97.888254,94.514587 97.958254,92.874587 97.958254,92.854587 C97.968254,92.644587 98.168254,92.494587 98.348254,92.494587 C98.558254,92.504587 98.718254,92.674587 98.708254,92.884587 C98.708254,92.954587 98.638254,94.614587 98.388254,95.704587 C98.338254,95.874587 98.188254,95.994587 98.018254,95.994587 Z" id="Path" fill="#26192A"></path><path d="M101.028254,94.044587 C100.998254,94.044587 100.968254,94.044587 100.948254,94.034587 C100.748254,93.984587 100.618254,93.784587 100.668254,93.584587 C100.898254,92.564587 100.968254,90.924587 100.968254,90.904587 C100.978254,90.694587 101.168254,90.554587 101.358254,90.544587 C101.568254,90.554587 101.728254,90.724587 101.718254,90.934587 C101.718254,91.004587 101.648254,92.664587 101.398254,93.754587 C101.348254,93.924587 101.198254,94.044587 101.028254,94.044587 Z" id="Path" fill="#26192A"></path><path d="M103.258254,99.624587 C103.228254,99.624587 103.198254,99.624587 103.178254,99.614587 C102.978254,99.564587 102.848254,99.364587 102.898254,99.164587 C103.128254,98.144587 103.198254,96.504587 103.198254,96.484587 C103.208254,96.274587 103.408254,96.134587 103.588254,96.124587 C103.798254,96.134587 103.958254,96.304587 103.948254,96.514587 C103.948254,96.584587 103.878254,98.244587 103.628254,99.334587 C103.588254,99.514587 103.438254,99.624587 103.258254,99.624587 Z" id="Path" fill="#26192A"></path><path d="M101.918254,106.524587 C101.888254,106.524587 101.858254,106.524587 101.838254,106.514587 C101.638254,106.464587 101.508254,106.264587 101.558254,106.064587 C101.788254,105.044587 101.858254,103.404587 101.858254,103.384587 C101.868254,103.174587 102.068254,103.034587 102.248254,103.024587 C102.458254,103.034587 102.618254,103.204587 102.608254,103.414587 C102.608254,103.484587 102.538254,105.144587 102.288254,106.234587 C102.248254,106.404587 102.088254,106.524587 101.918254,106.524587 Z" id="Path" fill="#26192A"></path><path d="M103.868254,111.534587 C103.838254,111.534587 103.808254,111.534587 103.788254,111.524587 C103.588254,111.474587 103.458254,111.274587 103.508254,111.074587 C103.738254,110.054587 103.808254,108.414587 103.808254,108.394587 C103.818254,108.184587 104.008254,108.044587 104.198254,108.034587 C104.408254,108.044587 104.568254,108.214587 104.558254,108.424587 C104.558254,108.494587 104.488254,110.154587 104.238254,111.244587 C104.198254,111.414587 104.038254,111.534587 103.868254,111.534587 Z" id="Path" fill="#26192A"></path><path d="M81.138254,116.854587 C81.108254,116.854587 81.078254,116.854587 81.058254,116.844587 C80.858254,116.794587 80.728254,116.594587 80.778254,116.394587 C81.008254,115.374587 81.078254,113.734587 81.078254,113.714587 C81.088254,113.504587 81.288254,113.354587 81.468254,113.354587 C81.678254,113.364587 81.838254,113.534587 81.828254,113.744587 C81.828254,113.814587 81.758254,115.474587 81.508254,116.564587 C81.458254,116.734587 81.308254,116.854587 81.138254,116.854587 Z" id="Path" fill="#26192A"></path><path d="M83.348254,121.004587 C83.318254,121.004587 83.288254,121.004587 83.268254,120.994587 C83.068254,120.944587 82.938254,120.744587 82.988254,120.544587 C83.218254,119.524587 83.288254,117.884587 83.288254,117.864587 C83.298254,117.654587 83.488254,117.514587 83.678254,117.504587 C83.888254,117.514587 84.048254,117.684587 84.038254,117.894587 C84.038254,117.964587 83.968254,119.624587 83.718254,120.714587 C83.678254,120.884587 83.518254,121.004587 83.348254,121.004587 Z" id="Path" fill="#26192A"></path><path d="M80.338254,87.994587 C80.308254,87.994587 80.278254,87.994587 80.258254,87.984587 C80.058254,87.934587 79.928254,87.734587 79.978254,87.534587 C80.208254,86.514587 80.278254,84.874587 80.278254,84.854587 C80.288254,84.644587 80.478254,84.494587 80.668254,84.494587 C80.878254,84.504587 81.038254,84.674587 81.028254,84.884587 C81.028254,84.954587 80.958254,86.614587 80.708254,87.704587 C80.668254,87.874587 80.508254,87.994587 80.338254,87.994587 Z" id="Path" fill="#26192A"></path><path d="M80.488254,81.224587 C80.458254,81.224587 80.428254,81.224587 80.408254,81.214587 C80.208254,81.164587 80.078254,80.964587 80.128254,80.764587 C80.358254,79.744587 80.428254,78.104587 80.428254,78.084587 C80.438254,77.874587 80.628254,77.724587 80.818254,77.724587 C81.028254,77.734587 81.188254,77.904587 81.178254,78.114587 C81.178254,78.184587 81.108254,79.844587 80.858254,80.934587 C80.818254,81.114587 80.668254,81.224587 80.488254,81.224587 Z" id="Path" fill="#26192A"></path><path d="M97.168254,62.304587 C97.138254,62.304587 97.108254,62.304587 97.088254,62.294587 C96.888254,62.244587 96.758254,62.044587 96.808254,61.844587 C97.038254,60.824587 97.108254,59.184587 97.108254,59.164587 C97.118254,58.954587 97.318254,58.794587 97.498254,58.804587 C97.708254,58.814587 97.868254,58.984587 97.858254,59.194587 C97.858254,59.264587 97.788254,60.924587 97.538254,62.014587 C97.488254,62.184587 97.338254,62.304587 97.168254,62.304587 Z" id="Path" fill="#26192A"></path><path d="M98.048254,57.004587 C98.018254,57.004587 97.988254,57.004587 97.968254,56.994587 C97.768254,56.944587 97.638254,56.744587 97.688254,56.544587 C97.918254,55.524587 97.988254,53.884587 97.988254,53.864587 C97.998254,53.654587 98.198254,53.504587 98.378254,53.504587 C98.588254,53.514587 98.748254,53.684587 98.738254,53.894587 C98.738254,53.964587 98.668254,55.624587 98.418254,56.714587 C98.378254,56.894587 98.218254,57.004587 98.048254,57.004587 Z" id="Path" fill="#26192A"></path><path d="M101.418254,55.634587 C101.388254,55.634587 101.358254,55.634587 101.338254,55.624587 C101.138254,55.574587 101.008254,55.374587 101.058254,55.174587 C101.288254,54.154587 101.358254,52.514587 101.358254,52.494587 C101.368254,52.284587 101.568254,52.144587 101.748254,52.134587 C101.958254,52.144587 102.118254,52.314587 102.108254,52.524587 C102.108254,52.594587 102.038254,54.254587 101.788254,55.344587 C101.738254,55.514587 101.588254,55.634587 101.418254,55.634587 Z" id="Path" fill="#26192A"></path><path d="M101.568254,61.534587 C101.538254,61.534587 101.508254,61.534587 101.488254,61.524587 C101.288254,61.474587 101.158254,61.274587 101.208254,61.074587 C101.438254,60.054587 101.508254,58.414587 101.508254,58.394587 C101.518254,58.184587 101.708254,58.034587 101.898254,58.034587 C102.108254,58.044587 102.268254,58.214587 102.258254,58.424587 C102.258254,58.494587 102.188254,60.154587 101.938254,61.244587 C101.898254,61.414587 101.738254,61.534587 101.568254,61.534587 Z" id="Path" fill="#26192A"></path><path d="M75.178254,49.514587 C75.148254,49.514587 75.118254,49.514587 75.098254,49.504587 C74.898254,49.454587 74.768254,49.254587 74.818254,49.054587 C75.048254,48.034587 75.118254,46.394587 75.118254,46.374587 C75.128254,46.164587 75.318254,46.024587 75.508254,46.014587 C75.718254,46.024587 75.878254,46.194587 75.868254,46.404587 C75.868254,46.474587 75.798254,48.134587 75.548254,49.224587 C75.508254,49.394587 75.348254,49.514587 75.178254,49.514587 Z" id="Path" fill="#26192A"></path><path d="M79.178254,48.144587 C79.148254,48.144587 79.118254,48.144587 79.098254,48.134587 C78.898254,48.084587 78.768254,47.884587 78.818254,47.684587 C79.048254,46.664587 79.118254,45.024587 79.118254,45.004587 C79.128254,44.794587 79.318254,44.644587 79.508254,44.644587 C79.718254,44.654587 79.878254,44.824587 79.868254,45.034587 C79.868254,45.104587 79.798254,46.764587 79.548254,47.854587 C79.508254,48.024587 79.348254,48.144587 79.178254,48.144587 Z" id="Path" fill="#26192A"></path><path d="M76.928254,43.964587 C76.898254,43.964587 76.868254,43.964587 76.848254,43.954587 C76.648254,43.904587 76.518254,43.704587 76.568254,43.504587 C76.798254,42.484587 76.868254,40.844587 76.868254,40.824587 C76.878254,40.614587 77.078254,40.464587 77.258254,40.464587 C77.468254,40.474587 77.628254,40.644587 77.618254,40.854587 C77.618254,40.924587 77.548254,42.584587 77.298254,43.674587 C77.258254,43.844587 77.098254,43.964587 76.928254,43.964587 Z" id="Path" fill="#26192A"></path><path d="M76.778254,38.804587 C76.748254,38.804587 76.718254,38.804587 76.698254,38.794587 C76.498254,38.744587 76.368254,38.544587 76.418254,38.344587 C76.648254,37.324587 76.718254,35.684587 76.718254,35.664587 C76.728254,35.454587 76.918254,35.304587 77.108254,35.304587 C77.318254,35.314587 77.478254,35.484587 77.468254,35.694587 C77.468254,35.764587 77.398254,37.424587 77.148254,38.514587 C77.098254,38.694587 76.948254,38.804587 76.778254,38.804587 Z" id="Path" fill="#26192A"></path><path d="M80.738254,42.594587 C80.708254,42.594587 80.678254,42.594587 80.658254,42.584587 C80.458254,42.534587 80.328254,42.334587 80.378254,42.134587 C80.608254,41.114587 80.678254,39.474587 80.678254,39.454587 C80.688254,39.244587 80.888254,39.104587 81.068254,39.094587 C81.278254,39.104587 81.438254,39.274587 81.428254,39.484587 C81.428254,39.554587 81.358254,41.214587 81.108254,42.304587 C81.068254,42.474587 80.908254,42.594587 80.738254,42.594587 Z" id="Path" fill="#26192A"></path><path d="M98.978254,67.124587 C98.948254,67.124587 98.918254,67.124587 98.898254,67.114587 C98.698254,67.064587 98.568254,66.864587 98.618254,66.664587 C98.848254,65.644587 98.918254,64.004587 98.918254,63.984587 C98.928254,63.774587 99.128254,63.634587 99.308254,63.624587 C99.518254,63.634587 99.678254,63.804587 99.668254,64.014587 C99.668254,64.084587 99.598254,65.744587 99.348254,66.834587 C99.308254,67.014587 99.148254,67.124587 98.978254,67.124587 Z" id="Path" fill="#26192A"></path><path d="M101.838254,69.054587 C101.808254,69.054587 101.778254,69.054587 101.758254,69.044587 C101.558254,68.994587 101.428254,68.794587 101.478254,68.594587 C101.708254,67.574587 101.778254,65.934587 101.778254,65.914587 C101.788254,65.704587 101.978254,65.564587 102.168254,65.554587 C102.378254,65.564587 102.538254,65.734587 102.528254,65.944587 C102.528254,66.014587 102.458254,67.674587 102.208254,68.764587 C102.158254,68.934587 102.008254,69.054587 101.838254,69.054587 Z" id="Path" fill="#26192A"></path><path d="M99.348254,101.004587 C99.318254,101.004587 99.298254,101.004587 99.268254,100.994587 C99.068254,100.954587 98.938254,100.754587 98.978254,100.544587 C99.198254,99.524587 99.248254,97.874587 99.248254,97.864587 C99.258254,97.654587 99.408254,97.504587 99.638254,97.504587 C99.848254,97.514587 100.008254,97.684587 99.998254,97.894587 C99.998254,97.964587 99.948254,99.624587 99.708254,100.714587 C99.678254,100.884587 99.528254,101.004587 99.348254,101.004587 Z" id="Path" fill="#26192A"></path><path d="M96.018254,100.114587 C95.988254,100.114587 95.958254,100.114587 95.938254,100.104587 C95.738254,100.054587 95.608254,99.854587 95.658254,99.654587 C95.888254,98.634587 95.958254,96.994587 95.958254,96.974587 C95.968254,96.764587 96.158254,96.624587 96.348254,96.614587 C96.558254,96.624587 96.718254,96.794587 96.708254,97.004587 C96.708254,97.074587 96.638254,98.734587 96.388254,99.824587 C96.348254,99.994587 96.188254,100.114587 96.018254,100.114587 Z" id="Path" fill="#26192A"></path><path d="M94.848254,145.114587 C94.818254,145.114587 94.788254,145.114587 94.768254,145.104587 C94.568254,145.054587 94.438254,144.854587 94.488254,144.654587 C94.718254,143.634587 94.788254,141.994587 94.788254,141.974587 C94.798254,141.764587 94.998254,141.624587 95.178254,141.614587 C95.388254,141.624587 95.548254,141.794587 95.538254,142.004587 C95.538254,142.074587 95.468254,143.734587 95.218254,144.824587 C95.168254,144.994587 95.018254,145.114587 94.848254,145.114587 Z" id="Path" fill="#26192A"></path><path d="M97.388254,141.394587 C97.358254,141.394587 97.328254,141.394587 97.308254,141.384587 C97.108254,141.334587 96.978254,141.134587 97.028254,140.934587 C97.258254,139.914587 97.328254,138.274587 97.328254,138.254587 C97.338254,138.044587 97.528254,137.894587 97.718254,137.894587 C97.928254,137.904587 98.088254,138.074587 98.078254,138.284587 C98.078254,138.354587 98.008254,140.014587 97.758254,141.104587 C97.708254,141.274587 97.558254,141.394587 97.388254,141.394587 Z" id="Path" fill="#26192A"></path><path d="M100.078254,144.134587 C100.048254,144.134587 100.018254,144.134587 99.998254,144.124587 C99.798254,144.074587 99.668254,143.874587 99.718254,143.674587 C99.948254,142.654587 100.018254,141.014587 100.018254,140.994587 C100.028254,140.784587 100.218254,140.634587 100.408254,140.634587 C100.618254,140.644587 100.778254,140.814587 100.768254,141.024587 C100.768254,141.094587 100.698254,142.754587 100.448254,143.844587 C100.398254,144.014587 100.248254,144.134587 100.078254,144.134587 Z" id="Path" fill="#26192A"></path><path d="M101.838254,138.474587 C101.808254,138.474587 101.778254,138.474587 101.758254,138.464587 C101.558254,138.414587 101.428254,138.214587 101.478254,138.014587 C101.708254,136.994587 101.778254,135.354587 101.778254,135.334587 C101.788254,135.124587 101.978254,134.974587 102.168254,134.974587 C102.378254,134.984587 102.538254,135.154587 102.528254,135.364587 C102.528254,135.434587 102.458254,137.094587 102.208254,138.184587 C102.158254,138.354587 102.008254,138.474587 101.838254,138.474587 Z" id="Path" fill="#26192A"></path><path d="M104.678254,142.764587 C104.648254,142.764587 104.618254,142.764587 104.598254,142.754587 C104.398254,142.704587 104.268254,142.504587 104.318254,142.304587 C104.548254,141.284587 104.618254,139.644587 104.618254,139.624587 C104.628254,139.414587 104.828254,139.274587 105.008254,139.264587 C105.218254,139.274587 105.378254,139.444587 105.368254,139.654587 C105.368254,139.724587 105.298254,141.384587 105.048254,142.474587 C105.008254,142.644587 104.848254,142.764587 104.678254,142.764587 Z" id="Path" fill="#26192A"></path><path d="M106.068254,137.994587 C106.038254,137.994587 106.008254,137.994587 105.988254,137.984587 C105.788254,137.934587 105.658254,137.734587 105.708254,137.534587 C105.938254,136.514587 106.008254,134.874587 106.008254,134.854587 C106.018254,134.644587 106.208254,134.504587 106.398254,134.494587 C106.608254,134.504587 106.768254,134.674587 106.758254,134.884587 C106.758254,134.954587 106.688254,136.614587 106.438254,137.704587 C106.398254,137.874587 106.238254,137.994587 106.068254,137.994587 Z" id="Path" fill="#26192A"></path><path d="M106.378254,149.004587 C106.348254,149.004587 106.318254,149.004587 106.298254,148.994587 C106.098254,148.944587 105.968254,148.744587 106.018254,148.544587 C106.248254,147.524587 106.318254,145.884587 106.318254,145.864587 C106.328254,145.654587 106.528254,145.514587 106.708254,145.504587 C106.918254,145.514587 107.078254,145.684587 107.068254,145.894587 C107.068254,145.964587 106.998254,147.624587 106.748254,148.714587 C106.708254,148.884587 106.548254,149.004587 106.378254,149.004587 Z" id="Path" fill="#26192A"></path><path d="M102.138254,149.004587 C102.108254,149.004587 102.078254,149.004587 102.058254,148.994587 C101.858254,148.944587 101.728254,148.744587 101.778254,148.544587 C102.008254,147.524587 102.078254,145.884587 102.078254,145.864587 C102.088254,145.654587 102.288254,145.514587 102.468254,145.504587 C102.678254,145.514587 102.838254,145.684587 102.828254,145.894587 C102.828254,145.964587 102.758254,147.624587 102.508254,148.714587 C102.468254,148.884587 102.318254,149.004587 102.138254,149.004587 Z" id="Path" fill="#26192A"></path><path d="M96.828254,149.924587 C96.798254,149.924587 96.768254,149.924587 96.748254,149.914587 C96.548254,149.864587 96.418254,149.664587 96.468254,149.464587 C96.698254,148.444587 96.768254,146.804587 96.768254,146.784587 C96.778254,146.574587 96.978254,146.434587 97.158254,146.424587 C97.368254,146.434587 97.528254,146.604587 97.518254,146.814587 C97.518254,146.884587 97.448254,148.544587 97.198254,149.634587 C97.158254,149.804587 96.998254,149.924587 96.828254,149.924587 Z" id="Path" fill="#26192A"></path><path d="M99.418254,154.074587 C99.388254,154.074587 99.358254,154.074587 99.338254,154.064587 C99.138254,154.014587 99.008254,153.814587 99.058254,153.614587 C99.288254,152.594587 99.358254,150.954587 99.358254,150.934587 C99.368254,150.724587 99.558254,150.574587 99.748254,150.574587 C99.958254,150.584587 100.118254,150.754587 100.108254,150.964587 C100.108254,151.034587 100.038254,152.694587 99.788254,153.784587 C99.748254,153.954587 99.588254,154.074587 99.418254,154.074587 Z" id="Path" fill="#26192A"></path><path d="M103.038254,154.654587 C103.008254,154.654587 102.978254,154.654587 102.958254,154.644587 C102.758254,154.594587 102.628254,154.394587 102.678254,154.194587 C102.908254,153.174587 102.978254,151.534587 102.978254,151.514587 C102.988254,151.304587 103.188254,151.154587 103.368254,151.154587 C103.578254,151.164587 103.738254,151.334587 103.728254,151.544587 C103.728254,151.614587 103.658254,153.274587 103.408254,154.364587 C103.358254,154.534587 103.208254,154.654587 103.038254,154.654587 Z" id="Path" fill="#26192A"></path><path d="M107.068254,156.814587 C107.038254,156.814587 107.008254,156.814587 106.988254,156.804587 C106.788254,156.754587 106.658254,156.554587 106.708254,156.354587 C106.938254,155.334587 107.008254,153.694587 107.008254,153.674587 C107.018254,153.464587 107.218254,153.314587 107.398254,153.314587 C107.608254,153.324587 107.768254,153.494587 107.758254,153.704587 C107.758254,153.774587 107.688254,155.434587 107.438254,156.524587 C107.398254,156.704587 107.238254,156.814587 107.068254,156.814587 Z" id="Path" fill="#26192A"></path><path d="M73.708254,164.084587 C73.678254,164.084587 73.648254,164.084587 73.628254,164.074587 C73.428254,164.024587 73.298254,163.824587 73.348254,163.624587 C73.578254,162.604587 73.648254,160.964587 73.648254,160.944587 C73.658254,160.734587 73.858254,160.594587 74.038254,160.584587 C74.248254,160.594587 74.408254,160.764587 74.398254,160.974587 C74.398254,161.044587 74.328254,162.704587 74.078254,163.794587 C74.038254,163.964587 73.888254,164.084587 73.708254,164.084587 Z" id="Path" fill="#26192A"></path><path d="M78.318254,162.124587 C78.288254,162.124587 78.258254,162.124587 78.238254,162.114587 C78.038254,162.064587 77.908254,161.864587 77.958254,161.664587 C78.188254,160.644587 78.258254,159.004587 78.258254,158.984587 C78.268254,158.774587 78.458254,158.624587 78.648254,158.624587 C78.858254,158.634587 79.018254,158.804587 79.008254,159.014587 C79.008254,159.084587 78.938254,160.744587 78.688254,161.834587 C78.648254,162.014587 78.488254,162.124587 78.318254,162.124587 Z" id="Path" fill="#26192A"></path><path d="M50.088254,137.104587 C50.058254,137.104587 50.028254,137.104587 50.008254,137.094587 C49.808254,137.044587 49.678254,136.844587 49.728254,136.644587 C49.958254,135.624587 50.028254,133.984587 50.028254,133.964587 C50.038254,133.754587 50.228254,133.614587 50.418254,133.604587 C50.628254,133.614587 50.788254,133.784587 50.778254,133.994587 C50.778254,134.064587 50.708254,135.724587 50.458254,136.814587 C50.408254,136.984587 50.258254,137.104587 50.088254,137.104587 Z" id="Path" fill="#26192A"></path><path d="M31.488254,162.704587 C31.458254,162.704587 31.428254,162.704587 31.408254,162.694587 C31.208254,162.644587 31.078254,162.444587 31.128254,162.244587 C31.358254,161.224587 31.428254,159.584587 31.428254,159.564587 C31.438254,159.354587 31.628254,159.204587 31.818254,159.204587 C32.028254,159.214587 32.188254,159.384587 32.178254,159.594587 C32.178254,159.664587 32.108254,161.324587 31.858254,162.414587 C31.808254,162.584587 31.658254,162.704587 31.488254,162.704587 Z" id="Path" fill="#26192A"></path><path d="M35.078254,159.364587 C35.048254,159.364587 35.018254,159.364587 34.998254,159.354587 C34.798254,159.304587 34.668254,159.104587 34.718254,158.904587 C34.948254,157.884587 35.018254,156.244587 35.018254,156.224587 C35.028254,156.014587 35.228254,155.864587 35.408254,155.864587 C35.618254,155.874587 35.778254,156.044587 35.768254,156.254587 C35.768254,156.324587 35.698254,157.984587 35.448254,159.074587 C35.398254,159.244587 35.248254,159.364587 35.078254,159.364587 Z" id="Path" fill="#26192A"></path><path d="M38.978254,158.194587 C38.948254,158.194587 38.918254,158.194587 38.898254,158.184587 C38.698254,158.134587 38.568254,157.934587 38.618254,157.734587 C38.848254,156.714587 38.918254,155.074587 38.918254,155.054587 C38.928254,154.844587 39.118254,154.684587 39.308254,154.694587 C39.518254,154.704587 39.678254,154.874587 39.668254,155.084587 C39.668254,155.154587 39.598254,156.814587 39.348254,157.904587 C39.308254,158.074587 39.148254,158.194587 38.978254,158.194587 Z" id="Path" fill="#26192A"></path><path d="M42.648254,160.754587 C42.618254,160.754587 42.588254,160.754587 42.568254,160.744587 C42.368254,160.694587 42.238254,160.494587 42.288254,160.294587 C42.518254,159.274587 42.588254,157.634587 42.588254,157.614587 C42.598254,157.404587 42.788254,157.264587 42.978254,157.254587 C43.188254,157.264587 43.348254,157.434587 43.338254,157.644587 C43.338254,157.714587 43.268254,159.374587 43.018254,160.464587 C42.968254,160.634587 42.818254,160.754587 42.648254,160.754587 Z" id="Path" fill="#26192A"></path><path d="M36.638254,163.504587 C36.608254,163.504587 36.578254,163.504587 36.558254,163.494587 C36.358254,163.444587 36.228254,163.244587 36.278254,163.044587 C36.508254,162.024587 36.578254,160.384587 36.578254,160.364587 C36.588254,160.154587 36.788254,160.014587 36.968254,160.004587 C37.178254,160.014587 37.338254,160.184587 37.328254,160.394587 C37.328254,160.464587 37.258254,162.124587 37.008254,163.214587 C36.968254,163.384587 36.808254,163.504587 36.638254,163.504587 Z" id="Path" fill="#26192A"></path><path d="M18.178254,145.514587 C18.148254,145.514587 18.118254,145.514587 18.098254,145.504587 C17.898254,145.454587 17.768254,145.254587 17.818254,145.054587 C18.048254,144.034587 18.118254,142.394587 18.118254,142.374587 C18.128254,142.164587 18.328254,142.024587 18.508254,142.014587 C18.718254,142.024587 18.878254,142.194587 18.868254,142.404587 C18.868254,142.474587 18.798254,144.134587 18.548254,145.224587 C18.498254,145.394587 18.348254,145.514587 18.178254,145.514587 Z" id="Path" fill="#26192A"></path><path d="M22.048254,142.764587 C22.018254,142.764587 21.988254,142.764587 21.968254,142.754587 C21.768254,142.704587 21.638254,142.504587 21.688254,142.304587 C21.918254,141.284587 21.988254,139.644587 21.988254,139.624587 C21.998254,139.414587 22.198254,139.274587 22.378254,139.264587 C22.588254,139.274587 22.748254,139.444587 22.738254,139.654587 C22.738254,139.724587 22.668254,141.384587 22.418254,142.474587 C22.368254,142.644587 22.218254,142.764587 22.048254,142.764587 Z" id="Path" fill="#26192A"></path><path d="M23.688254,145.514587 C23.658254,145.514587 23.628254,145.514587 23.608254,145.504587 C23.408254,145.454587 23.278254,145.254587 23.328254,145.054587 C23.558254,144.034587 23.628254,142.394587 23.628254,142.374587 C23.638254,142.164587 23.838254,142.024587 24.018254,142.014587 C24.228254,142.024587 24.388254,142.194587 24.378254,142.404587 C24.378254,142.474587 24.308254,144.134587 24.058254,145.224587 C24.018254,145.394587 23.858254,145.514587 23.688254,145.514587 Z" id="Path" fill="#26192A"></path><path d="M26.818254,141.974587 C26.788254,141.974587 26.758254,141.974587 26.738254,141.964587 C26.538254,141.914587 26.408254,141.714587 26.458254,141.514587 C26.688254,140.494587 26.758254,138.854587 26.758254,138.834587 C26.768254,138.624587 26.958254,138.474587 27.148254,138.474587 C27.358254,138.484587 27.518254,138.654587 27.508254,138.864587 C27.508254,138.934587 27.438254,140.594587 27.188254,141.684587 C27.148254,141.854587 26.988254,141.974587 26.818254,141.974587 Z" id="Path" fill="#26192A"></path><path d="M31.638254,169.754587 C31.608254,169.754587 31.578254,169.754587 31.558254,169.744587 C31.358254,169.694587 31.228254,169.494587 31.278254,169.294587 C31.508254,168.274587 31.578254,166.634587 31.578254,166.614587 C31.588254,166.404587 31.778254,166.254587 31.968254,166.254587 C32.178254,166.264587 32.338254,166.434587 32.328254,166.644587 C32.328254,166.714587 32.258254,168.374587 32.008254,169.464587 C31.968254,169.634587 31.808254,169.754587 31.638254,169.754587 Z" id="Path" fill="#26192A"></path><path d="M51.448254,141.394587 C51.418254,141.394587 51.388254,141.394587 51.368254,141.384587 C51.168254,141.334587 51.038254,141.134587 51.088254,140.934587 C51.318254,139.914587 51.388254,138.274587 51.388254,138.254587 C51.398254,138.044587 51.588254,137.894587 51.778254,137.894587 C51.988254,137.904587 52.148254,138.074587 52.138254,138.284587 C52.138254,138.354587 52.068254,140.014587 51.818254,141.104587 C51.778254,141.274587 51.618254,141.394587 51.448254,141.394587 Z" id="Path" fill="#26192A"></path><path d="M55.308254,137.104587 C55.278254,137.104587 55.248254,137.104587 55.228254,137.094587 C55.028254,137.044587 54.898254,136.844587 54.948254,136.644587 C55.178254,135.624587 55.248254,133.984587 55.248254,133.964587 C55.258254,133.754587 55.458254,133.614587 55.638254,133.604587 C55.848254,133.614587 56.008254,133.784587 55.998254,133.994587 C55.998254,134.064587 55.928254,135.724587 55.678254,136.814587 C55.638254,136.984587 55.478254,137.104587 55.308254,137.104587 Z" id="Path" fill="#26192A"></path><path d="M55.158254,143.344587 C55.128254,143.344587 55.098254,143.344587 55.078254,143.334587 C54.878254,143.284587 54.748254,143.084587 54.798254,142.884587 C55.028254,141.864587 55.098254,140.224587 55.098254,140.204587 C55.108254,139.994587 55.308254,139.854587 55.488254,139.844587 C55.698254,139.854587 55.858254,140.024587 55.848254,140.234587 C55.848254,140.304587 55.778254,141.964587 55.528254,143.054587 C55.478254,143.224587 55.328254,143.344587 55.158254,143.344587 Z" id="Path" fill="#26192A"></path><path d="M59.458254,137.994587 C59.428254,137.994587 59.398254,137.994587 59.378254,137.984587 C59.178254,137.934587 59.048254,137.734587 59.098254,137.534587 C59.328254,136.514587 59.398254,134.874587 59.398254,134.854587 C59.408254,134.644587 59.608254,134.504587 59.788254,134.494587 C59.998254,134.504587 60.158254,134.674587 60.148254,134.884587 C60.148254,134.954587 60.078254,136.614587 59.828254,137.704587 C59.778254,137.874587 59.628254,137.994587 59.458254,137.994587 Z" id="Path" fill="#26192A"></path><path d="M60.828254,143.344587 C60.798254,143.344587 60.768254,143.344587 60.748254,143.334587 C60.548254,143.284587 60.418254,143.084587 60.468254,142.884587 C60.698254,141.864587 60.768254,140.224587 60.768254,140.204587 C60.778254,139.994587 60.978254,139.854587 61.158254,139.844587 C61.368254,139.854587 61.528254,140.024587 61.518254,140.234587 C61.518254,140.304587 61.448254,141.964587 61.198254,143.054587 C61.148254,143.224587 60.998254,143.344587 60.828254,143.344587 Z" id="Path" fill="#26192A"></path><path d="M63.268254,139.534587 C63.238254,139.534587 63.208254,139.534587 63.188254,139.524587 C62.988254,139.474587 62.858254,139.274587 62.908254,139.074587 C63.138254,138.054587 63.208254,136.414587 63.208254,136.394587 C63.218254,136.184587 63.418254,136.034587 63.598254,136.034587 C63.808254,136.044587 63.968254,136.214587 63.958254,136.424587 C63.958254,136.494587 63.888254,138.154587 63.638254,139.244587 C63.588254,139.414587 63.438254,139.534587 63.268254,139.534587 Z" id="Path" fill="#26192A"></path><path d="M76.168254,167.354587 C76.138254,167.354587 76.108254,167.354587 76.088254,167.344587 C75.888254,167.294587 75.758254,167.094587 75.808254,166.894587 C76.038254,165.874587 76.108254,164.234587 76.108254,164.214587 C76.118254,164.004587 76.318254,163.864587 76.498254,163.854587 C76.708254,163.864587 76.868254,164.034587 76.858254,164.244587 C76.858254,164.314587 76.788254,165.974587 76.538254,167.064587 C76.498254,167.234587 76.338254,167.354587 76.168254,167.354587 Z" id="Path" fill="#26192A"></path><path d="M79.718254,167.354587 C79.688254,167.354587 79.658254,167.354587 79.638254,167.344587 C79.438254,167.294587 79.308254,167.094587 79.358254,166.894587 C79.588254,165.874587 79.658254,164.234587 79.658254,164.214587 C79.668254,164.004587 79.868254,163.864587 80.048254,163.854587 C80.258254,163.864587 80.418254,164.034587 80.408254,164.244587 C80.408254,164.314587 80.338254,165.974587 80.088254,167.064587 C80.038254,167.234587 79.888254,167.354587 79.718254,167.354587 Z" id="Path" fill="#26192A"></path><path d="M96.268254,105.504587 C96.238254,105.504587 96.208254,105.504587 96.188254,105.494587 C95.988254,105.444587 95.858254,105.244587 95.908254,105.044587 C96.138254,104.024587 96.208254,102.384587 96.208254,102.364587 C96.218254,102.154587 96.418254,102.004587 96.598254,102.004587 C96.808254,102.014587 96.968254,102.184587 96.958254,102.394587 C96.958254,102.464587 96.888254,104.124587 96.638254,105.214587 C96.598254,105.384587 96.438254,105.504587 96.268254,105.504587 Z" id="Path" fill="#26192A"></path><path d="M97.908254,107.764587 C97.858254,107.764587 97.808254,107.754587 97.758254,107.734587 C97.568254,107.654587 97.478254,107.434587 97.568254,107.244587 C97.988254,106.284587 98.368254,104.684587 98.368254,104.674587 C98.418254,104.474587 98.618254,104.344587 98.818254,104.394587 C99.018254,104.444587 99.148254,104.644587 99.098254,104.844587 C99.078254,104.914587 98.708254,106.524587 98.258254,107.554587 C98.188254,107.684587 98.058254,107.764587 97.908254,107.764587 Z" id="Path" fill="#26192A"></path><path d="M103.808254,72.184587 C102.758254,72.184587 99.698254,71.974587 97.288254,69.674587 C95.168254,67.654587 94.148254,64.564587 94.258254,60.504587 C94.428254,54.164587 96.678254,50.944587 98.538254,49.354587 C100.578254,47.604587 102.578254,47.394587 102.658254,47.384587 C102.878254,47.364587 103.048254,47.514587 103.068254,47.724587 C103.088254,47.934587 102.938254,48.114587 102.738254,48.134587 C102.438254,48.164587 95.308254,49.024587 95.008254,60.524587 C94.908254,64.354587 95.848254,67.254587 97.798254,69.124587 C100.438254,71.654587 104.078254,71.424587 104.118254,71.424587 C104.318254,71.404587 104.508254,71.564587 104.518254,71.774587 C104.528254,71.984587 104.378254,72.164587 104.168254,72.174587 C104.158254,72.174587 104.028254,72.184587 103.808254,72.184587 Z" id="Path" fill="#26192A"></path><path d="M72.228254,95.694587 C72.068254,95.694587 71.918254,95.594587 71.868254,95.434587 C71.808254,95.234587 71.908254,95.024587 72.108254,94.964587 C72.258254,94.914587 86.598254,90.174587 84.638254,82.114587 C82.648254,73.954587 72.268254,72.194587 72.168254,72.174587 C71.968254,72.144587 71.828254,71.944587 71.858254,71.744587 C71.888254,71.534587 72.088254,71.404587 72.288254,71.434587 C72.398254,71.454587 83.268254,73.294587 85.368254,81.934587 C87.488254,90.674587 72.958254,95.474587 72.338254,95.674587 C72.298254,95.684587 72.258254,95.694587 72.228254,95.694587 Z" id="Path" fill="#26192A"></path><path d="M73.078254,53.384587 C72.878254,53.384587 72.718254,53.234587 72.708254,53.034587 C72.698254,52.824587 72.848254,52.654587 73.058254,52.634587 C73.138254,52.634587 80.698254,52.074587 83.158254,45.394587 C85.598254,38.744587 76.168254,31.804587 76.068254,31.734587 C75.898254,31.614587 75.858254,31.374587 75.988254,31.214587 C76.108254,31.044587 76.348254,31.004587 76.508254,31.134587 C76.918254,31.434587 86.498254,38.474587 83.858254,45.654587 C81.238254,52.804587 73.188254,53.374587 73.108254,53.384587 C73.098254,53.384587 73.088254,53.384587 73.078254,53.384587 Z" id="Path" fill="#26192A"></path><path d="M92.048254,165.604587 L94.388254,220.084587 L86.598254,220.084587 C86.598254,220.084587 80.478254,178.024587 80.758254,163.684587 L92.048254,165.604587 Z" id="Path" fill="#EECE78"></path><path d="M82.198254,185.144587 C82.198254,185.144587 77.298254,154.824587 49.618254,160.884587 C26.788254,165.874587 26.9782282,186.124587 26.9782282,186.124587 C26.9782282,186.124587 63.558254,188.574587 82.198254,185.144587 Z" id="Path" fill="#E46A4B"></path><path d="M106.258254,115.004587 C106.238254,115.004587 106.218254,115.004587 106.198254,114.994587 C106.028254,114.964587 88.818254,111.804587 90.738254,98.374587 C91.738254,91.374587 95.438254,88.234587 98.368254,86.834587 C101.538254,85.314587 104.428254,85.454587 104.548254,85.464587 C104.758254,85.474587 104.918254,85.654587 104.898254,85.854587 C104.888254,86.064587 104.698254,86.234587 104.498254,86.204587 C104.038254,86.174587 93.288254,85.754587 91.468254,98.474587 C89.648254,111.194587 106.148254,114.224587 106.318254,114.254587 C106.518254,114.294587 106.658254,114.484587 106.628254,114.684587 C106.598254,114.874587 106.438254,115.004587 106.258254,115.004587 Z" id="Path" fill="#26192A"></path><path d="M73.198254,129.664587 C73.048254,129.664587 72.908254,129.574587 72.848254,129.424587 C72.778254,129.234587 72.868254,129.014587 73.068254,128.944587 C73.218254,128.884587 88.108254,123.044587 85.638254,115.224587 C83.148254,107.354587 72.388254,108.684587 72.278254,108.704587 C72.078254,108.724587 71.888254,108.584587 71.858254,108.384587 C71.828254,108.174587 71.978254,107.994587 72.178254,107.964587 C72.298254,107.944587 83.678254,106.544587 86.348254,115.004587 C89.038254,123.494587 73.978254,129.404587 73.338254,129.654587 C73.288254,129.654587 73.248254,129.664587 73.198254,129.664587 Z" id="Path" fill="#26192A"></path><path d="M56.848254,147.624587 C54.948254,147.624587 53.208254,147.074587 51.658254,145.994587 C46.278254,142.234587 44.918254,133.394587 44.868254,133.024587 C44.838254,132.814587 44.978254,132.624587 45.188254,132.594587 C45.398254,132.564587 45.588254,132.704587 45.618254,132.914587 C45.628254,133.004587 46.988254,141.804587 52.098254,145.374587 C54.068254,146.754587 56.368254,147.184587 58.928254,146.654587 C61.938254,146.034587 64.158254,144.604587 65.538254,142.404587 C68.248254,138.084587 66.808254,132.174587 66.798254,132.114587 C66.748254,131.914587 66.868254,131.704587 67.068254,131.654587 C67.268254,131.604587 67.468254,131.724587 67.528254,131.924587 C67.588254,132.174587 69.058254,138.204587 66.178254,142.794587 C64.688254,145.174587 62.298254,146.714587 59.078254,147.374587 C58.308254,147.544587 57.568254,147.624587 56.848254,147.624587 Z" id="Path" fill="#26192A"></path><path d="M30.188254,174.884587 C30.038254,174.884587 29.908254,174.804587 29.848254,174.654587 C29.778254,174.504587 23.358254,159.284587 34.568254,153.654587 C43.558254,149.134587 51.338254,159.764587 51.418254,159.864587 C51.538254,160.034587 51.498254,160.264587 51.338254,160.384587 C51.168254,160.504587 50.938254,160.464587 50.818254,160.294587 C50.748254,160.194587 43.328254,150.084587 34.908254,154.314587 C24.328254,159.634587 30.478254,174.204587 30.538254,174.354587 C30.618254,174.544587 30.528254,174.764587 30.338254,174.844587 C30.288254,174.874587 30.238254,174.884587 30.188254,174.884587 Z" id="Path" fill="#26192A"></path><path d="M80.748254,180.144587 C80.598254,180.144587 80.448254,180.054587 80.398254,179.894587 C80.328254,179.704587 80.428254,179.484587 80.618254,179.414587 C86.308254,177.314587 89.198254,171.074587 89.118254,166.004587 C89.048254,161.644587 86.958254,158.454587 83.388254,157.274587 C74.248254,154.244587 67.518254,162.634587 67.448254,162.714587 C67.318254,162.874587 67.078254,162.904587 66.918254,162.774587 C66.758254,162.644587 66.728254,162.414587 66.858254,162.244587 C66.928254,162.154587 73.968254,153.364587 83.618254,156.554587 C87.448254,157.824587 89.788254,161.344587 89.868254,165.984587 C89.958254,171.324587 86.898254,177.884587 80.878254,180.104587 C80.838254,180.134587 80.788254,180.144587 80.748254,180.144587 Z" id="Path" fill="#26192A"></path><path d="M108.928254,159.904587 C108.918254,159.904587 108.908254,159.904587 108.888254,159.904587 C108.418254,159.854587 97.438254,158.704587 92.968254,152.374587 C91.178254,149.844587 90.698254,146.824587 91.548254,143.414587 C92.668254,138.904587 94.818254,135.664587 97.948254,133.794587 C102.608254,131.014587 107.698254,132.284587 107.908254,132.334587 C108.108254,132.384587 108.228254,132.594587 108.178254,132.794587 C108.128254,132.994587 107.928254,133.114587 107.718254,133.064587 C107.668254,133.054587 102.708254,131.824587 98.318254,134.444587 C95.368254,136.204587 93.338254,139.284587 92.268254,143.594587 C91.478254,146.784587 91.918254,149.594587 93.568254,151.944587 C97.838254,157.994587 108.838254,159.154587 108.948254,159.164587 C109.158254,159.184587 109.308254,159.364587 109.288254,159.574587 C109.288254,159.764587 109.118254,159.904587 108.928254,159.904587 Z" id="Path" fill="#26192A"></path><path d="M21.378254,148.344587 C16.878254,148.344587 13.768254,144.534587 13.728254,144.484587 C13.598254,144.324587 13.628254,144.084587 13.788254,143.954587 C13.948254,143.824587 14.188254,143.854587 14.318254,144.014587 C14.498254,144.244587 18.838254,149.524587 24.648254,146.834587 C30.458254,144.134587 28.698254,135.284587 28.678254,135.194587 C28.638254,134.994587 28.768254,134.794587 28.968254,134.754587 C29.168254,134.714587 29.368254,134.844587 29.408254,135.044587 C29.428254,135.134587 31.308254,144.574587 24.958254,147.514587 C23.698254,148.114587 22.498254,148.344587 21.378254,148.344587 Z" id="Path" fill="#26192A"></path><polygon id="Path" fill="#26192A" points="85.828254 214.664587 94.118254 213.764587 95.158254 220.084587 86.598254 220.084587"></polygon><polygon id="Path" fill="#26192A" points="102.668254 214.664587 110.948254 213.764587 111.988254 220.084587 103.428254 220.084587"></polygon><polygon id="Path" fill="#26192A" points="19.758254 214.664587 28.048254 213.764587 29.078254 220.084587 20.528254 220.084587"></polygon><polygon id="Path" fill="#26192A" points="36.598254 214.664587 44.878254 213.764587 45.918254 220.084587 37.358254 220.084587"></polygon><g id="Group-22" transform="translate(33.486253, 177.020962)" fill="#26192A"><path d="M39.8920005,5.87362471 C39.8620005,5.87362471 39.8320005,5.87362471 39.7920005,5.86362471 C39.7720005,5.86362471 38.1920005,5.43362471 37.1420005,5.35362471 C36.9320005,5.33362471 36.7820005,5.15362471 36.8020005,4.95362471 C36.8220005,4.75362471 36.9920005,4.58362471 37.2020005,4.61362471 C38.3120005,4.70362471 39.9220005,5.13362471 39.9820005,5.15362471 C40.1820005,5.20362471 40.3020005,5.41362471 40.2420005,5.61362471 C40.2020005,5.76362471 40.0520005,5.87362471 39.8920005,5.87362471 Z" id="Path"></path><path d="M36.7320005,1.26362471 C36.7020005,1.26362471 36.6720005,1.26362471 36.6320005,1.25362471 C36.6120005,1.25362471 35.0320005,0.823624712 33.9820005,0.743624712 C33.7720005,0.723624712 33.6220005,0.543624712 33.6420005,0.343624712 C33.6620005,0.133624712 33.8320005,-0.0263752877 34.0420005,0.00362471232 C35.1520005,0.0936247123 36.7620005,0.523624712 36.8220005,0.543624712 C37.0220005,0.593624712 37.1420005,0.803624712 37.0820005,1.00362471 C37.0420005,1.15362471 36.8920005,1.26362471 36.7320005,1.26362471 Z" id="Path"></path><path d="M29.9320005,4.21362471 C29.7720005,4.21362471 29.6220005,4.11362471 29.5720005,3.95362471 C29.5120005,3.75362471 29.6220005,3.54362471 29.8220005,3.48362471 C30.8920005,3.15362471 32.5320005,2.95362471 32.6020005,2.94362471 C32.8020005,2.91362471 32.9920005,3.06362471 33.0220005,3.27362471 C33.0420005,3.48362471 32.9020005,3.66362471 32.6920005,3.69362471 C32.6720005,3.69362471 31.0420005,3.89362471 30.0420005,4.20362471 C30.0120005,4.20362471 29.9720005,4.21362471 29.9320005,4.21362471 Z" id="Path"></path><path d="M24.7620005,2.50362471 C24.5920005,2.50362471 24.4420005,2.39362471 24.4020005,2.22362471 C24.3520005,2.02362471 24.4620005,1.81362471 24.6620005,1.76362471 C25.7420005,1.47362471 27.3920005,1.34362471 27.4620005,1.33362471 C27.6720005,1.31362471 27.8520005,1.47362471 27.8620005,1.67362471 C27.8820005,1.88362471 27.7220005,2.06362471 27.5220005,2.07362471 C27.5020005,2.07362471 25.8720005,2.20362471 24.8620005,2.48362471 C24.8220005,2.49362471 24.7920005,2.50362471 24.7620005,2.50362471 Z" id="Path"></path><path d="M16.7520005,1.20362471 C16.5820005,1.20362471 16.4320005,1.09362471 16.3920005,0.923624712 C16.3420005,0.723624712 16.4520005,0.513624712 16.6520005,0.463624712 C17.7320005,0.173624712 19.3820005,0.0436247123 19.4520005,0.0336247123 C19.6620005,0.0136247123 19.8420005,0.173624712 19.8520005,0.373624712 C19.8620005,0.573624712 19.7120005,0.763624712 19.5120005,0.773624712 C19.4920005,0.773624712 17.8620005,0.903624712 16.8520005,1.18362471 C16.8220005,1.20362471 16.7820005,1.20362471 16.7520005,1.20362471 Z" id="Path"></path><path d="M10.1220005,2.70362471 C9.95200049,2.70362471 9.80200049,2.59362471 9.76200049,2.42362471 C9.71200049,2.22362471 9.82200049,2.01362471 10.0220005,1.96362471 C11.1020005,1.67362471 12.7520005,1.54362471 12.8220005,1.53362471 C13.0220005,1.52362471 13.2120005,1.67362471 13.2220005,1.87362471 C13.2420005,2.08362471 13.0820005,2.26362471 12.8820005,2.27362471 C12.8620005,2.27362471 11.2320005,2.40362471 10.2220005,2.68362471 C10.1920005,2.70362471 10.1520005,2.70362471 10.1220005,2.70362471 Z" id="Path"></path><path d="M10.6920005,5.40362471 C10.6820005,5.40362471 10.6620005,5.40362471 10.6520005,5.40362471 C10.6320005,5.40362471 9.00200049,5.22362471 7.96200049,5.30362471 C7.76200049,5.33362471 7.57200049,5.16362471 7.56200049,4.95362471 C7.54200049,4.74362471 7.70200049,4.56362471 7.91200049,4.55362471 C9.03200049,4.46362471 10.6720005,4.64362471 10.7420005,4.65362471 C10.9520005,4.67362471 11.0920005,4.86362471 11.0720005,5.06362471 C11.0420005,5.26362471 10.8820005,5.40362471 10.6920005,5.40362471 Z" id="Path"></path><path d="M24.5420005,6.54362471 C24.3720005,6.54362471 24.2220005,6.43362471 24.1820005,6.26362471 C24.1320005,6.06362471 24.2420005,5.85362471 24.4420005,5.80362471 C25.5220005,5.51362471 27.1720005,5.38362471 27.2420005,5.37362471 C27.4520005,5.35362471 27.6320005,5.51362471 27.6420005,5.71362471 C27.6520005,5.91362471 27.5020005,6.10362471 27.3020005,6.11362471 C27.2820005,6.11362471 25.6520005,6.24362471 24.6420005,6.52362471 C24.6020005,6.53362471 24.5720005,6.54362471 24.5420005,6.54362471 Z" id="Path"></path><path d="M20.6120005,5.05362471 C20.4420005,5.05362471 20.2920005,4.94362471 20.2520005,4.77362471 C20.2020005,4.57362471 20.3120005,4.36362471 20.5120005,4.31362471 C21.5920005,4.02362471 23.2420005,3.89362471 23.3120005,3.88362471 C23.5220005,3.86362471 23.7020005,4.02362471 23.7120005,4.22362471 C23.7320005,4.43362471 23.5720005,4.61362471 23.3720005,4.62362471 C23.3520005,4.62362471 21.7220005,4.75362471 20.7120005,5.03362471 C20.6720005,5.05362471 20.6420005,5.05362471 20.6120005,5.05362471 Z" id="Path"></path><path d="M18.3620005,8.55362471 C18.1920005,8.55362471 18.0420005,8.44362471 18.0020005,8.27362471 C17.9520005,8.07362471 18.0620005,7.86362471 18.2620005,7.81362471 C19.3420005,7.52362471 20.9920005,7.39362471 21.0620005,7.38362471 C21.2620005,7.36362471 21.4520005,7.52362471 21.4620005,7.72362471 C21.4820005,7.93362471 21.3220005,8.11362471 21.1220005,8.12362471 C21.1020005,8.12362471 19.4720005,8.25362471 18.4620005,8.53362471 C18.4320005,8.55362471 18.4020005,8.55362471 18.3620005,8.55362471 Z" id="Path"></path><path d="M8.75200049,8.55362471 C8.58200049,8.55362471 8.43200049,8.44362471 8.39200049,8.27362471 C8.34200049,8.07362471 8.45200049,7.86362471 8.65200049,7.81362471 C9.73200049,7.52362471 11.3820005,7.39362471 11.4520005,7.38362471 C11.6620005,7.36362471 11.8420005,7.52362471 11.8520005,7.72362471 C11.8620005,7.92362471 11.7120005,8.11362471 11.5120005,8.12362471 C11.4920005,8.12362471 9.86200049,8.25362471 8.85200049,8.53362471 C8.82200049,8.55362471 8.79200049,8.55362471 8.75200049,8.55362471 Z" id="Path"></path><path d="M0.372000487,8.34362471 C0.202000487,8.34362471 0.052000487,8.23362471 0.012000487,8.06362471 C-0.037999513,7.86362471 0.072000487,7.65362471 0.272000487,7.60362471 C1.35200049,7.31362471 3.00200049,7.18362471 3.07200049,7.17362471 C3.28200049,7.15362471 3.46200049,7.31362471 3.47200049,7.51362471 C3.48200049,7.71362471 3.33200049,7.90362471 3.13200049,7.91362471 C3.11200049,7.91362471 1.48200049,8.04362471 0.472000487,8.32362471 C0.442000487,8.34362471 0.402000487,8.34362471 0.372000487,8.34362471 Z" id="Path"></path><path d="M42.1020005,7.92362471 C41.9320005,7.92362471 41.7820005,7.81362471 41.7420005,7.64362471 C41.6920005,7.44362471 41.8020005,7.23362471 42.0020005,7.18362471 C43.0820005,6.89362471 44.7320005,6.76362471 44.8020005,6.75362471 C45.0120005,6.74362471 45.1920005,6.89362471 45.2020005,7.09362471 C45.2120005,7.29362471 45.0620005,7.48362471 44.8620005,7.49362471 C44.8420005,7.49362471 43.2120005,7.62362471 42.2020005,7.90362471 C42.1720005,7.92362471 42.1320005,7.92362471 42.1020005,7.92362471 Z" id="Path"></path><path d="M34.0520005,8.65362471 C34.0420005,8.65362471 34.0320005,8.65362471 34.0120005,8.65362471 C33.9920005,8.65362471 32.3620005,8.49362471 31.3220005,8.58362471 C31.1120005,8.61362471 30.9320005,8.45362471 30.9120005,8.24362471 C30.8920005,8.03362471 31.0420005,7.85362471 31.2520005,7.83362471 C32.3620005,7.73362471 34.0120005,7.89362471 34.0820005,7.90362471 C34.2920005,7.92362471 34.4420005,8.10362471 34.4220005,8.31362471 C34.4120005,8.50362471 34.2520005,8.65362471 34.0520005,8.65362471 Z" id="Path"></path></g><path d="M36.798254,201.034587 C36.618254,201.034587 36.468254,200.904587 36.428254,200.724587 C36.218254,199.624587 36.218254,197.964587 36.218254,197.894587 C36.218254,197.684587 36.388254,197.514587 36.598254,197.514587 C36.808254,197.514587 36.978254,197.684587 36.978254,197.894587 C36.978254,197.914587 36.978254,199.554587 37.178254,200.584587 C37.218254,200.784587 37.078254,200.984587 36.878254,201.024587 C36.838254,201.034587 36.818254,201.034587 36.798254,201.034587 Z" id="Path" fill="#26192A"></path><path d="M39.808254,203.794587 C39.628254,203.794587 39.478254,203.664587 39.438254,203.484587 C39.228254,202.384587 39.228254,200.724587 39.228254,200.654587 C39.228254,200.444587 39.398254,200.274587 39.608254,200.274587 C39.818254,200.274587 39.988254,200.444587 39.988254,200.654587 C39.988254,200.674587 39.988254,202.314587 40.188254,203.344587 C40.228254,203.544587 40.088254,203.744587 39.888254,203.784587 C39.858254,203.794587 39.828254,203.794587 39.808254,203.794587 Z" id="Path" fill="#26192A"></path><path d="M37.368254,207.654587 C37.188254,207.654587 37.038254,207.524587 36.998254,207.344587 C36.788254,206.244587 36.788254,204.584587 36.788254,204.514587 C36.788254,204.304587 36.958254,204.134587 37.168254,204.134587 C37.378254,204.134587 37.548254,204.304587 37.548254,204.514587 C37.548254,204.534587 37.548254,206.174587 37.748254,207.204587 C37.788254,207.404587 37.648254,207.604587 37.448254,207.644587 C37.418254,207.654587 37.388254,207.654587 37.368254,207.654587 Z" id="Path" fill="#26192A"></path><path d="M39.908254,209.034587 C39.728254,209.034587 39.578254,208.904587 39.538254,208.724587 C39.328254,207.624587 39.328254,205.964587 39.328254,205.894587 C39.328254,205.684587 39.498254,205.514587 39.708254,205.514587 C39.918254,205.514587 40.088254,205.684587 40.088254,205.894587 C40.088254,205.914587 40.088254,207.554587 40.288254,208.584587 C40.328254,208.784587 40.188254,208.984587 39.988254,209.024587 C39.958254,209.034587 39.938254,209.034587 39.908254,209.034587 Z" id="Path" fill="#26192A"></path><path d="M36.698254,195.014587 C36.518254,195.014587 36.368254,194.884587 36.328254,194.704587 C36.118254,193.604587 36.118254,191.944587 36.118254,191.874587 C36.118254,191.664587 36.288254,191.494587 36.498254,191.494587 C36.708254,191.494587 36.878254,191.664587 36.878254,191.874587 C36.878254,191.894587 36.878254,193.534587 37.078254,194.564587 C37.118254,194.764587 36.978254,194.964587 36.778254,195.004587 C36.738254,195.014587 36.718254,195.014587 36.698254,195.014587 Z" id="Path" fill="#26192A"></path><path d="M39.138254,197.864587 C38.958254,197.864587 38.808254,197.734587 38.768254,197.554587 C38.558254,196.454587 38.558254,194.794587 38.558254,194.724587 C38.558254,194.514587 38.728254,194.344587 38.938254,194.344587 C39.148254,194.344587 39.318254,194.514587 39.318254,194.724587 C39.318254,194.744587 39.318254,196.384587 39.518254,197.414587 C39.558254,197.614587 39.418254,197.814587 39.218254,197.854587 C39.178254,197.864587 39.158254,197.864587 39.138254,197.864587 Z" id="Path" fill="#26192A"></path><path d="M20.058254,201.034587 C19.878254,201.034587 19.728254,200.904587 19.688254,200.724587 C19.478254,199.624587 19.478254,197.964587 19.478254,197.894587 C19.478254,197.684587 19.648254,197.514587 19.858254,197.514587 C20.068254,197.514587 20.238254,197.684587 20.238254,197.894587 C20.238254,197.914587 20.238254,199.554587 20.438254,200.584587 C20.478254,200.784587 20.338254,200.984587 20.138254,201.024587 C20.108254,201.034587 20.088254,201.034587 20.058254,201.034587 Z" id="Path" fill="#26192A"></path><path d="M23.078254,203.794587 C22.898254,203.794587 22.748254,203.664587 22.708254,203.484587 C22.498254,202.384587 22.498254,200.724587 22.498254,200.654587 C22.498254,200.444587 22.668254,200.274587 22.878254,200.274587 C23.088254,200.274587 23.258254,200.444587 23.258254,200.654587 C23.258254,200.674587 23.258254,202.314587 23.458254,203.344587 C23.498254,203.544587 23.358254,203.744587 23.158254,203.784587 C23.128254,203.794587 23.098254,203.794587 23.078254,203.794587 Z" id="Path" fill="#26192A"></path><path d="M20.638254,207.654587 C20.458254,207.654587 20.308254,207.524587 20.268254,207.344587 C20.058254,206.244587 20.058254,204.584587 20.058254,204.514587 C20.058254,204.304587 20.228254,204.134587 20.438254,204.134587 C20.648254,204.134587 20.818254,204.304587 20.818254,204.514587 C20.818254,204.534587 20.818254,206.174587 21.018254,207.204587 C21.058254,207.404587 20.918254,207.604587 20.718254,207.644587 C20.688254,207.654587 20.658254,207.654587 20.638254,207.654587 Z" id="Path" fill="#26192A"></path><path d="M23.178254,209.034587 C22.998254,209.034587 22.848254,208.904587 22.808254,208.724587 C22.598254,207.624587 22.598254,205.964587 22.598254,205.894587 C22.598254,205.684587 22.768254,205.514587 22.978254,205.514587 C23.188254,205.514587 23.358254,205.684587 23.358254,205.894587 C23.358254,205.914587 23.358254,207.554587 23.558254,208.584587 C23.598254,208.784587 23.458254,208.984587 23.258254,209.024587 C23.228254,209.034587 23.198254,209.034587 23.178254,209.034587 Z" id="Path" fill="#26192A"></path><path d="M19.958254,195.014587 C19.778254,195.014587 19.628254,194.884587 19.588254,194.704587 C19.378254,193.604587 19.378254,191.944587 19.378254,191.874587 C19.378254,191.664587 19.548254,191.494587 19.758254,191.494587 C19.968254,191.494587 20.138254,191.664587 20.138254,191.874587 C20.138254,191.894587 20.138254,193.534587 20.338254,194.564587 C20.378254,194.764587 20.238254,194.964587 20.038254,195.004587 C20.008254,195.014587 19.988254,195.014587 19.958254,195.014587 Z" id="Path" fill="#EECE78"></path><path d="M22.398254,197.864587 C22.218254,197.864587 22.068254,197.734587 22.028254,197.554587 C21.818254,196.454587 21.818254,194.794587 21.818254,194.724587 C21.818254,194.514587 21.988254,194.344587 22.198254,194.344587 C22.408254,194.344587 22.578254,194.514587 22.578254,194.724587 C22.578254,194.744587 22.578254,196.384587 22.778254,197.414587 C22.818254,197.614587 22.678254,197.814587 22.478254,197.854587 C22.448254,197.864587 22.428254,197.864587 22.398254,197.864587 Z" id="Path" fill="#26192A"></path><path d="M85.118254,199.624587 C84.938254,199.624587 84.788254,199.494587 84.748254,199.314587 C84.538254,198.214587 84.538254,196.554587 84.538254,196.484587 C84.538254,196.274587 84.708254,196.104587 84.918254,196.104587 C85.128254,196.104587 85.298254,196.274587 85.298254,196.484587 C85.298254,196.504587 85.298254,198.144587 85.498254,199.174587 C85.538254,199.374587 85.398254,199.574587 85.198254,199.614587 C85.168254,199.624587 85.148254,199.624587 85.118254,199.624587 Z" id="Path" fill="#26192A"></path><path d="M88.138254,202.384587 C87.958254,202.384587 87.808254,202.254587 87.768254,202.074587 C87.558254,200.974587 87.558254,199.314587 87.558254,199.244587 C87.558254,199.034587 87.728254,198.864587 87.938254,198.864587 C88.148254,198.864587 88.318254,199.034587 88.318254,199.244587 C88.318254,199.264587 88.318254,200.904587 88.518254,201.934587 C88.558254,202.134587 88.418254,202.334587 88.218254,202.374587 C88.178254,202.384587 88.158254,202.384587 88.138254,202.384587 Z" id="Path" fill="#26192A"></path><path d="M85.698254,206.244587 C85.518254,206.244587 85.368254,206.114587 85.328254,205.934587 C85.118254,204.834587 85.118254,203.174587 85.118254,203.104587 C85.118254,202.894587 85.288254,202.724587 85.498254,202.724587 C85.708254,202.724587 85.878254,202.894587 85.878254,203.104587 C85.878254,203.124587 85.878254,204.764587 86.078254,205.794587 C86.118254,205.994587 85.978254,206.194587 85.778254,206.234587 C85.738254,206.244587 85.718254,206.244587 85.698254,206.244587 Z" id="Path" fill="#26192A"></path><path d="M88.238254,207.624587 C88.058254,207.624587 87.908254,207.494587 87.868254,207.314587 C87.658254,206.214587 87.658254,204.554587 87.658254,204.484587 C87.658254,204.274587 87.828254,204.104587 88.038254,204.104587 C88.248254,204.104587 88.418254,204.274587 88.418254,204.484587 C88.418254,204.504587 88.418254,206.144587 88.618254,207.174587 C88.658254,207.374587 88.518254,207.574587 88.318254,207.614587 C88.278254,207.624587 88.258254,207.624587 88.238254,207.624587 Z" id="Path" fill="#26192A"></path><path d="M85.018254,193.604587 C84.838254,193.604587 84.688254,193.474587 84.648254,193.294587 C84.438254,192.194587 84.438254,190.534587 84.438254,190.464587 C84.438254,190.254587 84.608254,190.084587 84.818254,190.084587 C85.028254,190.084587 85.198254,190.254587 85.198254,190.464587 C85.198254,190.484587 85.198254,192.124587 85.398254,193.154587 C85.438254,193.354587 85.298254,193.554587 85.098254,193.594587 C85.068254,193.604587 85.038254,193.604587 85.018254,193.604587 Z" id="Path" fill="#26192A"></path><path d="M87.458254,196.454587 C87.278254,196.454587 87.128254,196.324587 87.088254,196.144587 C86.878254,195.044587 86.878254,193.384587 86.878254,193.314587 C86.878254,193.104587 87.048254,192.934587 87.258254,192.934587 C87.468254,192.934587 87.638254,193.104587 87.638254,193.314587 C87.638254,193.334587 87.638254,194.974587 87.838254,196.004587 C87.878254,196.204587 87.738254,196.404587 87.538254,196.444587 C87.508254,196.454587 87.478254,196.454587 87.458254,196.454587 Z" id="Path" fill="#26192A"></path><path d="M101.868254,197.254587 C101.688254,197.254587 101.538254,197.124587 101.498254,196.944587 C101.288254,195.844587 101.288254,194.184587 101.288254,194.114587 C101.288254,193.904587 101.458254,193.734587 101.668254,193.734587 C101.878254,193.734587 102.048254,193.904587 102.048254,194.114587 C102.048254,194.134587 102.048254,195.774587 102.248254,196.804587 C102.288254,197.004587 102.148254,197.204587 101.948254,197.244587 C101.918254,197.254587 101.888254,197.254587 101.868254,197.254587 Z" id="Path" fill="#26192A"></path><path d="M104.888254,200.014587 C104.708254,200.014587 104.558254,199.884587 104.518254,199.704587 C104.308254,198.604587 104.308254,196.944587 104.308254,196.874587 C104.308254,196.664587 104.478254,196.494587 104.688254,196.494587 C104.898254,196.494587 105.068254,196.664587 105.068254,196.874587 C105.068254,196.894587 105.068254,198.534587 105.268254,199.564587 C105.308254,199.764587 105.168254,199.964587 104.968254,200.004587 C104.928254,200.014587 104.908254,200.014587 104.888254,200.014587 Z" id="Path" fill="#26192A"></path><path d="M102.448254,203.874587 C102.268254,203.874587 102.118254,203.744587 102.078254,203.564587 C101.868254,202.464587 101.868254,200.804587 101.868254,200.734587 C101.868254,200.524587 102.038254,200.354587 102.248254,200.354587 C102.458254,200.354587 102.628254,200.524587 102.628254,200.734587 C102.628254,200.754587 102.628254,202.394587 102.828254,203.424587 C102.868254,203.624587 102.728254,203.824587 102.528254,203.864587 C102.488254,203.874587 102.468254,203.874587 102.448254,203.874587 Z" id="Path" fill="#26192A"></path><path d="M104.988254,205.254587 C104.808254,205.254587 104.658254,205.124587 104.618254,204.944587 C104.408254,203.844587 104.408254,202.184587 104.408254,202.114587 C104.408254,201.904587 104.578254,201.734587 104.788254,201.734587 C104.998254,201.734587 105.168254,201.904587 105.168254,202.114587 C105.168254,202.134587 105.168254,203.774587 105.368254,204.804587 C105.408254,205.004587 105.268254,205.204587 105.068254,205.244587 C105.028254,205.254587 105.008254,205.254587 104.988254,205.254587 Z" id="Path" fill="#26192A"></path><path d="M101.768254,191.234587 C101.588254,191.234587 101.438254,191.104587 101.398254,190.924587 C101.188254,189.824587 101.188254,188.164587 101.188254,188.094587 C101.188254,187.884587 101.358254,187.714587 101.568254,187.714587 C101.778254,187.714587 101.948254,187.884587 101.948254,188.094587 C101.948254,188.114587 101.948254,189.754587 102.148254,190.784587 C102.188254,190.984587 102.048254,191.184587 101.848254,191.224587 C101.818254,191.234587 101.788254,191.234587 101.768254,191.234587 Z" id="Path" fill="#26192A"></path><path d="M104.208254,194.084587 C104.028254,194.084587 103.878254,193.954587 103.838254,193.774587 C103.628254,192.674587 103.628254,191.014587 103.628254,190.944587 C103.628254,190.734587 103.798254,190.564587 104.008254,190.564587 C104.218254,190.564587 104.388254,190.734587 104.388254,190.944587 C104.388254,190.964587 104.388254,192.604587 104.588254,193.634587 C104.628254,193.834587 104.488254,194.034587 104.288254,194.074587 C104.258254,194.084587 104.228254,194.084587 104.208254,194.084587 Z" id="Path" fill="#26192A"></path><path d="M47.648254,183.104587 C47.478254,183.104587 47.328254,182.994587 47.288254,182.824587 C47.238254,182.624587 47.348254,182.414587 47.548254,182.364587 C48.628254,182.074587 50.278254,181.944587 50.348254,181.934587 C50.568254,181.914587 50.738254,182.074587 50.748254,182.274587 C50.758254,182.474587 50.608254,182.664587 50.408254,182.674587 C50.388254,182.674587 48.758254,182.804587 47.748254,183.084587 C47.718254,183.104587 47.688254,183.104587 47.648254,183.104587 Z" id="Path" fill="#26192A"></path><path d="M82.938254,163.504587 C82.908254,163.504587 82.878254,163.504587 82.858254,163.494587 C82.658254,163.444587 82.528254,163.244587 82.578254,163.044587 C82.808254,162.024587 82.878254,160.384587 82.878254,160.364587 C82.888254,160.154587 83.088254,160.014587 83.268254,160.004587 C83.478254,160.014587 83.638254,160.184587 83.628254,160.394587 C83.628254,160.464587 83.558254,162.124587 83.308254,163.214587 C83.268254,163.384587 83.118254,163.504587 82.938254,163.504587 Z" id="Path" fill="#26192A"></path><path d="M79.408254,172.554587 C79.378254,172.554587 79.348254,172.554587 79.328254,172.544587 C79.128254,172.494587 78.998254,172.294587 79.048254,172.094587 C79.278254,171.074587 79.348254,169.434587 79.348254,169.414587 C79.358254,169.204587 79.548254,169.064587 79.738254,169.054587 C79.948254,169.064587 80.108254,169.234587 80.098254,169.444587 C80.098254,169.514587 80.028254,171.174587 79.778254,172.264587 C79.728254,172.434587 79.578254,172.554587 79.408254,172.554587 Z" id="Path" fill="#26192A"></path><path d="M83.668254,169.754587 C83.638254,169.754587 83.608254,169.754587 83.588254,169.744587 C83.388254,169.694587 83.258254,169.494587 83.308254,169.294587 C83.538254,168.274587 83.608254,166.634587 83.608254,166.614587 C83.618254,166.404587 83.808254,166.254587 83.998254,166.254587 C84.208254,166.264587 84.368254,166.434587 84.358254,166.644587 C84.358254,166.714587 84.288254,168.374587 84.038254,169.464587 C83.998254,169.634587 83.838254,169.754587 83.668254,169.754587 Z" id="Path" fill="#26192A"></path><path d="M82.788254,176.144587 C82.758254,176.144587 82.728254,176.144587 82.708254,176.134587 C82.508254,176.084587 82.378254,175.884587 82.428254,175.684587 C82.658254,174.664587 82.728254,173.024587 82.728254,173.004587 C82.738254,172.794587 82.928254,172.654587 83.118254,172.644587 C83.328254,172.654587 83.488254,172.824587 83.478254,173.034587 C83.478254,173.104587 83.408254,174.764587 83.158254,175.854587 C83.118254,176.024587 82.958254,176.144587 82.788254,176.144587 Z" id="Path" fill="#26192A"></path><path d="M87.108254,169.754587 C87.078254,169.754587 87.048254,169.754587 87.028254,169.744587 C86.828254,169.694587 86.698254,169.494587 86.748254,169.294587 C86.978254,168.274587 87.048254,166.634587 87.048254,166.614587 C87.058254,166.404587 87.248254,166.254587 87.438254,166.254587 C87.648254,166.264587 87.808254,166.434587 87.798254,166.644587 C87.798254,166.714587 87.728254,168.374587 87.478254,169.464587 C87.428254,169.634587 87.278254,169.754587 87.108254,169.754587 Z" id="Path" fill="#26192A"></path><path d="M102.088254,37.834587 C102.078254,37.834587 102.068254,37.834587 102.048254,37.834587 C96.208254,37.264587 92.418254,31.874587 92.258254,31.644587 C92.138254,31.474587 92.188254,31.244587 92.358254,31.124587 C92.528254,31.004587 92.758254,31.044587 92.878254,31.224587 C92.918254,31.274587 96.628254,36.564587 102.118254,37.094587 C102.328254,37.114587 102.478254,37.294587 102.458254,37.504587 C102.438254,37.694587 102.278254,37.834587 102.088254,37.834587 Z" id="Path" fill="#26192A"></path></g></g></g></g></g></svg>