<svg xmlns="http://www.w3.org/2000/svg" xmlns:xlink="http://www.w3.org/1999/xlink" width="89px" height="88px" viewBox="0 0 89 88"><title>hand-hear</title><g id="Home-2" stroke="none" stroke-width="1" fill="none" fill-rule="evenodd"><g id="De-bebe---Home-3" transform="translate(-1028.000000, -2006.000000)" fill-rule="nonzero"><g id="Group-9" transform="translate(-128.000000, 1592.000000)"><g id="Group-5-Copy-2" transform="translate(223.000000, 153.000000)"><g id="hand-hear" transform="translate(933.000000, 261.000000)"><g id="Group" fill="#0A1E33"><polygon id="Path" points="35.8151034 78.2222222 34.3724138 86.8596217 35.9755248 87.1390788 36.5865601 83.4811703 39.916959 84.0618291 39.2953654 87.7841657 40.9090346 88 42.3517241 79.3626006 40.7486132 79.0831434 40.1375778 82.7410519 36.807179 82.1603932 37.4182143 78.5016793"></polygon><path d="M23.4127876,76.6451613 L25.6110122,77.7176103 L22.7598443,79.483871 L23.4127876,76.6451613 Z M21.8105794,82.3225806 L29.1749722,76.6129505 L27.7696807,75.7352918 L26.0623387,77.0946121 L23.2733025,75.3530335 L23.7388548,73.0661912 L22.2144224,72.3870968 L20.6214683,81.5806924 L21.8105794,82.3225806 Z" id="Shape"></path><polygon id="Path" points="17.4539117 66.8587838 12.919117 70.3131936 13.1143116 69.7527275 15.1101001 63.6553385 14.1428337 62.3333333 7.36551724 67.4959511 8.33278359 68.8180356 12.857628 65.3711612 12.569617 66.2715873 10.6765952 72.021481 11.6364766 73.3333333 18.4137931 68.1706362"></polygon><path d="M10.4910301,53.1910471 C10.248043,52.4140488 9.86987478,51.7992275 9.35661016,51.3465084 C8.8324124,50.8880293 8.1971881,50.5945698 7.45102204,50.4659802 C6.69392282,50.3316306 5.8510535,50.3688835 4.92241406,50.5778135 C4.06395017,50.7709597 3.3452441,51.076762 2.76638907,51.4951457 C2.17652462,51.9078442 1.77027771,52.4232498 1.54765681,53.0415121 C1.31627244,53.6617193 1.31892521,54.3816415 1.55560665,55.2012785 L2.4197151,58.1935484 L11.3551724,56.1833169 L10.4910301,53.1910471 Z M2.89326852,54.5622016 C2.76306627,54.1138067 2.7716657,53.7218136 2.91908327,53.3863671 C3.06433452,53.0434726 3.3345081,52.7561123 3.72963696,52.5244308 C4.11628171,52.2946293 4.61190196,52.1121186 5.21633297,51.9768987 C5.93155162,51.8168765 6.53433523,51.7695134 7.02484855,51.8348817 C7.51527949,51.90025 7.90719591,52.0633093 8.20043309,52.3240595 C8.48312691,52.5791695 8.6851805,52.9160622 8.80667624,53.3345931 L9.21679644,54.7471708 L3.32948353,56.0645161 L2.89326852,54.5622016 Z" id="Shape"></path><polygon id="Path" points="6.60663116 37.9042539 4.58419387 35.8804412 9.56483141 36.6695161 9.82068966 34.9800739 1.18084527 33.6111111 1.0253696 34.6378126 4.60364038 37.9862026 0.159413187 40.356222 0 41.4088972 8.63983635 42.7777778 8.89376602 41.1013224 3.62086829 40.2658893 6.58445249 38.5661727"></polygon><path d="M11.3551724,22.6382025 L10.2858502,24.8387097 L8.50400445,22 L11.3551724,22.6382025 Z M6.36562848,21.0603659 L12.1292245,28.3870968 L13.0048821,26.98143 L11.6328833,25.2829785 L13.3708079,22.4933825 L15.6688613,22.949159 L16.3447164,21.4253982 L7.1065695,19.8709677 L6.36562848,21.0603659 Z" id="Shape"></path><path d="M23.1600427,15.0293115 C23.8700863,14.492831 24.3612298,13.905115 24.6334731,13.2660827 C24.9074751,12.6149476 24.9687738,11.9349269 24.8174531,11.2260206 C24.6678909,10.5050115 24.3084727,9.78004876 23.7390309,9.0512131 C23.2126323,8.37724385 22.6230926,7.87303771 21.9704957,7.53843332 C21.3195736,7.19180673 20.6323914,7.04923476 19.9090329,7.11063672 C19.1802313,7.16518039 18.4375285,7.46678425 17.6810922,8.01536763 L14.9191324,10.0183142 L20.3980829,17.0322581 L23.1600427,15.0293115 Z M18.4104858,9.00821682 C18.8143019,8.69231604 19.2125105,8.52882569 19.6051117,8.51758163 C20.0043471,8.50116693 20.3937891,8.62386677 20.7732799,8.88584528 C21.1477161,9.14084755 21.5148073,9.51666196 21.8744745,10.0132885 C22.3000886,10.6008525 22.5705104,11.1344121 22.6858187,11.6138853 C22.801206,12.0934406 22.7816984,12.525065 22.6272958,12.9088405 C22.4745517,13.280305 22.2097375,13.6134412 21.832853,13.9082491 L20.5606703,14.9032258 L17.0575083,10.0663901 L18.4104858,9.00821682 Z" id="Shape"></path><polygon id="Path" points="38.0551724 8.72803555 37.4508929 7.56285798 33.5743755 8.69696095 32.927863 6.34839242 35.8262814 5.50051125 35.2271939 4.30729465 32.5792283 5.08192285 31.9598379 2.83185041 35.5023665 1.79549262 34.9185448 0.611111111 30.0758621 2.02776924 32.3775951 10.3888889"></polygon><polygon id="Path" points="64.4482759 3.6885522 59.2481282 11 57.951153 10.5415002 58.3582567 3.99776748 54.6969752 9.39092057 53.4 8.93234128 53.7493026 0 55.3557204 0.325772442 54.8164776 7.02453383 58.364419 1.53755154 59.8972009 2.07948072 59.3676306 8.63369271 62.915572 3.14663097"></polygon><polygon id="Path" points="67.5730936 15.8888889 73.0413793 9.53046786 71.7579409 8.55555556 66.2896552 14.9139766"></polygon><polygon id="Path" points="83.4758621 21.11427 79.416173 15.2777778 78.3229608 16.0230521 79.8505296 18.219739 73.6551724 22.443121 74.6220633 23.8333333 80.8176645 19.6098708 82.5371962 22.082442"></polygon><polygon id="Path" points="80.1919515 38.5 89 36.4823898 88.6012989 34.8789718 84.870655 35.7334732 84.041623 32.4023637 87.8371911 31.533007 87.3735658 29.9444444 78.5655172 31.9620547 78.9642184 33.5654726 82.6948622 32.7109713 83.5230619 36.0420808 79.792418 36.8965821"></polygon><polygon id="Path" points="78.6830624 58.6666667 79.9744547 55.1035508 87.2193143 57.4529173 87.7724138 55.9258564 79.2634449 53.1666667 77.337931 58.4817769"></polygon><path d="M72.2517663,65.5232159 C72.8431499,64.8051534 73.5076426,64.3228849 74.2454091,64.076246 C74.9776533,63.8363441 75.7242391,63.806685 76.4858258,63.987433 C77.2465883,64.1680989 77.9570729,64.528116 78.6156311,65.0674845 C79.3294126,65.6513827 79.8412583,66.3079909 80.1503438,67.037309 C80.4594293,67.7666272 80.5616336,68.5131986 80.4553082,69.2769411 C80.349807,70.0407657 80.0275338,70.7635112 79.4884887,71.4451777 C78.8917475,72.1699771 78.2241228,72.6495344 77.4847902,72.8838496 C76.7471061,73.1304884 76.0036524,73.1628588 75.2550885,72.9809605 C74.5006726,72.8058815 73.7905177,72.4458643 73.1246238,71.9009091 C72.4043309,71.3114241 71.8895181,70.6521047 71.5801853,69.9227865 C71.2708525,69.1933862 71.1662579,68.4502655 71.2664841,67.69326 C71.3735513,66.9417591 71.7020062,66.2184384 72.2517663,65.5232159 Z M73.1919959,66.8697143 C72.9045062,67.2272128 72.7316416,67.6209735 72.6735566,68.0509176 C72.6166302,68.4928441 72.6927123,68.9481718 72.9018028,69.4171372 C73.1056409,69.8925668 73.4750829,70.3543587 74.0099745,70.8025128 C74.4620641,71.1812956 74.9228046,71.4367868 75.3918099,71.5689075 C75.8560263,71.7075712 76.3047945,71.7133259 76.7373422,71.5862503 C77.1714348,71.4710783 77.5475968,71.2151929 77.8666007,70.818752 C78.1431223,70.4743394 78.3037828,70.0699365 78.3462652,69.6055433 C78.38952,69.1412288 78.3091897,68.6713174 78.1052743,68.1958878 C77.8959521,67.7269223 77.549914,67.2897257 77.065615,66.884298 C76.6137572,66.5054364 76.1495408,66.2473437 75.6737383,66.1098625 C75.1987083,65.9723813 74.7467732,65.9639464 74.3193234,66.0844789 C73.8866984,66.2115545 73.5109226,66.4732733 73.1919959,66.8697143 Z" id="Shape"></path><polygon id="Path" points="68.0714551 81.1783689 69.3586207 80.128944 62.5582754 73.9444444 61.3793103 74.653538 62.5510876 84.3333333 63.9444655 83.4946296 62.9927598 76.4162374"></polygon><polygon id="Path" points="46.6482759 79.7007573 47.1196115 80.9126455 51.2752808 80.3200102 51.6344975 82.6874199 48.5273176 83.1297435 48.9896061 84.3682495 51.8282823 83.9635039 52.1724744 86.2314886 48.37481 86.7724542 48.8223971 88 54.0137931 87.2601845 52.7347652 78.8333333"></polygon></g><g id="noun-hand-heart-1583208" transform="translate(25.000000, 33.000000)" fill="#E46A4B"><path d="M19.8120238,23 C19.8054774,23 19.798931,23 19.7923846,22.9994624 C19.0785296,22.9521605 18.9066821,22.5197211 18.7804325,22.0421402 C18.7602479,21.9633954 18.7733407,21.8803436 18.8178018,21.8115408 C20.6854303,18.9223735 22.6665298,16.4161626 24.8699627,14.0154952 C25.5180534,13.3108169 26.1882517,12.5830208 26.5982138,11.7375032 C27.445441,9.99273292 26.7332339,8.60835173 25.7125113,8.06081902 C25.2550799,7.81570904 24.6809374,7.74260606 24.4711731,8.07882609 C23.9081822,8.98076203 23.20742,10.1028669 22.0615372,10.6328549 C21.3812556,10.9481094 20.5334838,10.9516046 19.8490964,10.6409179 C19.3182894,10.4003765 18.9484506,9.99185981 18.8082353,9.48984704 C18.4135447,8.07828874 19.6271121,7.06881402 20.8807401,6.33269283 C26.0553684,3.29814522 31.6957517,1.1692489 37.6458236,0.00579350175 C37.8075739,-0.0261887931 37.9622297,0.077554825 37.9941482,0.235312771 C38.0260619,0.394150922 37.9218619,0.547072031 37.7620249,0.578521792 C31.8787089,1.72911106 26.3011013,3.83372 21.1840814,6.83503586 C20.2272238,7.39728548 19.0660485,8.21405043 19.379438,9.33532971 C19.6301078,10.2279085 20.9322804,10.51172 21.809813,10.1053019 C22.7964175,9.64867831 23.4456114,8.60911613 23.967648,7.7737813 C24.3296102,7.19406264 25.1645754,7.10134399 25.9969989,7.5485622 C27.2555149,8.22342137 28.1477813,9.90127404 27.1338739,11.9898519 C26.6859881,12.9122223 25.9863152,13.6728373 25.3101675,14.4079264 C23.1174183,16.789673 21.1662751,19.2813666 19.3894933,22.0154523 C19.4871413,22.3411923 19.5719757,22.3944044 19.7994624,22.4134903 C25.7656647,21.4064237 31.1891611,17.2331209 33.6233767,11.7717608 C34.4962308,9.81438986 34.926094,7.98113919 37.5449356,6.34039875 C37.6813173,6.25412691 37.86653,6.29363417 37.9538154,6.4296291 C38.0413731,6.56562472 38.0007309,6.74596375 37.863255,6.83304058 C35.4217075,8.36252688 35.0518268,10.0157206 34.1661941,12.0063921 C31.6493717,17.6533134 26.0346853,21.9662858 19.8625593,22.9948877 C19.8448292,22.9986504 19.8287358,22.9997255 19.8120972,22.9997255 L19.8120238,23 Z" id="Path"></path><path d="M22.0669889,21.9205607 C24.6726032,19.9848942 27.096299,17.7446968 29.4769885,15.0719811 C29.5842551,14.951102 29.7659179,14.9445272 29.8802782,15.0566318 C29.9962201,15.1684662 30.0030513,15.3567632 29.8950006,15.4770951 C27.4873901,18.1799832 25.0352927,20.4467043 22.3981809,22.4059473 C22.0919009,22.6326264 21.7572328,22.1510394 22.0671875,21.9205221 L22.0669889,21.9205607 Z" id="Path"></path><path d="M3.46113866,11.1307802 C2.79093506,9.52213952 2.21265514,8.13226795 0.137109775,6.832931 C-0.000370753031,6.74586366 -0.0418285899,6.56608089 0.046547759,6.42956348 C0.134107102,6.29411928 0.318499158,6.25381211 0.455979686,6.34034285 C2.68913047,7.73963938 3.33072489,9.27948472 4.01044627,10.9095895 C6.7111761,17.3980876 12.3229625,21.4201364 18.201917,22.4121647 C18.4299526,22.3933533 18.5142439,22.3398746 18.6118936,22.0141701 C16.9095177,19.3951328 14.9728634,16.8956617 12.8545125,14.584277 L12.6908458,14.4063792 C12.0140992,13.6708886 11.3149931,12.9103565 10.867106,11.9885682 C9.85345948,9.90049307 10.7457212,8.22312591 12.0040018,7.54776239 C12.837069,7.1000563 13.670625,7.19357664 14.0333898,7.77295695 C14.6233941,8.71731011 15.9790521,10.985629 17.9034862,10.1101399 C18.1648026,9.99162621 18.5014022,9.76052214 18.620357,9.33433522 C18.9348625,8.21427884 17.7559363,7.38577696 16.8162393,6.83431379 C11.6996146,3.83339373 6.12183518,1.7292205 0.238690902,0.578481411 C0.0788439516,0.547039892 -0.0256281214,0.394130629 0.00574632042,0.235309785 C0.0376605451,0.0770255446 0.195871388,-0.0261674148 0.354077342,0.00581552309 C6.30376923,1.16914415 11.9443953,3.2980149 17.1194674,6.3320255 C18.385129,7.07453324 19.5852904,8.08548026 19.1914514,9.48883571 C18.8412141,10.7443501 17.150332,11.1926203 15.9386487,10.6317321 C14.7921863,10.101795 14.0917255,8.97981924 13.5289687,8.07798157 C13.3192075,7.74179955 12.7463883,7.81462626 12.2876078,8.05997647 C11.2666291,8.60738072 10.5547163,9.99161108 11.4018891,11.73626 C11.8118657,12.5814104 12.4820833,13.3094023 13.1301718,14.0140038 L13.2943831,14.19325 C15.463989,16.5602213 17.445404,19.1220897 19.1826948,21.8088904 C19.2266113,21.8771484 19.2402497,21.9607216 19.2200648,22.0394648 C19.093771,22.5164639 18.9219273,22.9494203 18.2080942,22.9966826 C17.0725251,23.0979975 7.54930315,20.9172069 3.46147803,11.1308682 L3.46113866,11.1307802 Z" id="Path"></path><path d="M15.6282391,22.4256139 C12.7733186,20.7194022 10.2360904,18.3739141 8.08725746,15.4559909 C7.9912495,15.3254395 8.0146623,15.1383958 8.13986387,15.0382882 C8.26454359,14.9387281 8.44392724,14.9620454 8.54046042,15.093141 C10.6436394,17.9485056 13.1237665,20.2413351 15.9131015,21.9088602 C16.0496122,21.9905935 16.096963,22.1721536 16.0183143,22.3158697 C15.9415106,22.456019 15.7684364,22.5084039 15.6284983,22.4255753 L15.6282391,22.4256139 Z" id="Path"></path><path d="M20.0665929,22.4186657 L19.314294,21.6666735 C19.2520428,21.6044477 19.2520428,21.5042417 19.314294,21.4420182 C19.3765451,21.3797924 19.476792,21.3797924 19.5390409,21.4420182 L20.2913398,22.1940104 C20.353591,22.2562362 20.353591,22.3564422 20.2913398,22.4186657 C20.2290887,22.4803074 20.12855,22.4808915 20.0665929,22.4186657 Z" id="Path"></path><path d="M21.2231895,20.8604651 C21.1759175,20.8604651 21.1286489,20.8427877 21.0925965,20.806412 L20.3923568,20.1064339 C20.3199186,20.0340227 20.3199186,19.9174146 20.3923568,19.845006 C20.464795,19.7725949 20.5814468,19.7725949 20.6538824,19.845006 L21.3541221,20.5449841 C21.4265603,20.6173953 21.4265603,20.7340035 21.3541221,20.806412 C21.3177328,20.8427877 21.2704607,20.8604651 21.2231895,20.8604651 Z" id="Path"></path><path d="M21.6866688,20.2816028 L20.9174437,19.5126996 C20.8585047,19.4537853 20.8585047,19.3589119 20.9174437,19.2999997 C20.9763826,19.2410854 21.0712958,19.2410854 21.1302326,19.2999997 L21.8994577,20.0689029 C21.9583967,20.1278172 21.9583967,20.2226906 21.8994577,20.2816028 C21.8405188,20.3399641 21.7456056,20.3405171 21.6866688,20.2816028 Z" id="Path"></path><path d="M22.1937298,19.207017 L21.4574969,18.4710767 C21.392102,18.4057077 21.392102,18.3004399 21.4574969,18.2350733 C21.5228919,18.1697043 21.6282015,18.1697043 21.6935942,18.2350733 L22.429827,18.9716264 C22.495222,19.0369954 22.495222,19.1422632 22.429827,19.207017 C22.364432,19.2717724 22.2591224,19.272386 22.1937298,19.207017 Z" id="Path"></path><path d="M23.3124006,18.1455078 L22.5196205,17.3530715 C22.4652908,17.2987654 22.4652908,17.2113128 22.5196205,17.1570087 C22.5739502,17.1027025 22.6614407,17.1027025 22.7157684,17.1570087 L23.5085485,17.949445 C23.5628782,18.0037511 23.5628782,18.0912037 23.5085485,18.1455078 C23.4542188,18.1993042 23.3664736,18.199814 23.3124006,18.1455078 Z" id="Path"></path><path d="M24.3886035,17.0769096 L23.5890488,16.2775656 C23.5360448,16.2245755 23.5360448,16.1392423 23.5890488,16.0862542 C23.6420528,16.0332641 23.7274085,16.0332641 23.7804106,16.0862542 L24.5799653,16.8855982 C24.6329693,16.9385882 24.6329693,17.0239214 24.5799653,17.0769096 C24.5274588,17.1291532 24.4421025,17.1296506 24.3886035,17.0769096 Z" id="Path"></path><path d="M25.4610979,16.0071636 L24.6591149,15.2056841 C24.6065861,15.1532213 24.6065861,15.0687371 24.6591149,15.0162762 C24.7121369,14.9633209 24.7967267,14.9638134 24.8487612,15.0162762 L25.6507442,15.8177557 C25.7032731,15.8702185 25.7032731,15.9547027 25.6507442,16.0071636 C25.5987084,16.059134 25.5141173,16.0601189 25.4610979,16.0071636 Z" id="Path"></path><path d="M26.5298741,14.4023067 L25.7298207,13.6022789 C25.6769142,13.5493742 25.6769142,13.4641784 25.7298207,13.4117716 C25.7827271,13.3588668 25.8679256,13.3588668 25.9208301,13.4117716 L26.7208836,14.2117994 C26.77379,14.2647041 26.77379,14.3498999 26.7208836,14.4028027 C26.6684738,14.4547142 26.5832746,14.4552108 26.5298741,14.4023059 L26.5298741,14.4023067 Z" id="Path"></path><path d="M27.0681014,13.3330567 L26.2645132,12.5295003 C26.2122984,12.4772877 26.2122984,12.3932064 26.2645132,12.3414851 C26.3167279,12.2892724 26.4008125,12.2892724 26.4530254,12.3414851 L27.2566136,13.1450415 C27.3088283,13.1972541 27.3088283,13.2813354 27.2566136,13.3335462 C27.204889,13.3847786 27.1208037,13.3852687 27.0681014,13.3330559 L27.0681014,13.3330567 Z" id="Path"></path><path d="M27.5811677,12.2595953 L26.8035335,11.4821422 C26.74624,11.4249027 26.74624,11.3327262 26.8035335,11.2754888 C26.8608269,11.2177119 26.9530902,11.2187865 27.0103816,11.2754888 L27.7880158,12.0529418 C27.8453093,12.1101813 27.8453093,12.2023578 27.7880158,12.2595953 C27.7312602,12.3157602 27.6389962,12.3173721 27.5811677,12.2595953 Z" id="Path"></path><path d="M27.5592467,10.1162627 L26.807304,9.36421581 C26.7449832,9.30188633 26.7449832,9.20151327 26.807304,9.13977036 C26.8696248,9.07744089 26.969984,9.07744089 27.0323026,9.13977036 L27.7842453,9.89181729 C27.8465661,9.95414677 27.8465661,10.0545198 27.7842453,10.1162627 C27.7228023,10.1780071 27.6215653,10.1785922 27.5592467,10.1162627 Z" id="Path"></path><path d="M19.3095033,22.4234328 C19.2536398,22.367593 19.2536398,22.2776708 19.3095033,22.221833 L21.163205,20.3689193 C21.2953926,20.2367879 21.4981255,20.4365555 21.3648905,20.5705191 L19.5111887,22.4234328 C19.4553252,22.4787484 19.3653647,22.4792725 19.3095033,22.4234328 Z" id="Path"></path><path d="M20.9171552,19.542572 L22.2321474,18.2284743 C22.2887317,18.1713742 22.3798528,18.1724362 22.4364351,18.2284743 C22.4930193,18.2850435 22.4930193,18.3761403 22.4364351,18.4327074 L21.1214428,19.7468051 C20.9856931,19.8811928 20.7832621,19.6764226 20.9171552,19.542572 Z" id="Path"></path><path d="M23.0490553,17.6165253 C23.0024276,17.5699043 23.0024276,17.4948277 23.0490553,17.4482084 L23.879807,16.6175785 C23.9901405,16.5072611 24.1593562,16.6740483 24.0481485,16.7858953 L23.2173969,17.6165253 C23.1707691,17.6624896 23.0956814,17.6629272 23.0490553,17.6165253 Z" id="Path"></path><path d="M24.1320652,15.9993022 C24.0686543,15.935942 24.0686543,15.8339091 24.1320652,15.7705512 L25.413649,14.4893806 C25.4770598,14.4260204 25.5791742,14.4260204 25.6425827,14.4893806 C25.7059935,14.5527408 25.7059935,14.6547738 25.6425827,14.7181317 L24.3609989,15.998693 C24.2975881,16.0620532 24.1954737,16.062648 24.1320652,15.9992879 L24.1320652,15.9993022 Z" id="Path"></path><path d="M26.2618313,13.870685 C26.2131924,13.8220682 26.2131924,13.7437774 26.2618313,13.6951622 L27.0836933,12.873672 C27.1323322,12.8250551 27.2106584,12.8250551 27.2592955,12.873672 C27.3079344,12.9222888 27.3079344,13.0005796 27.2592955,13.0491947 L26.4374335,13.870685 C26.3887946,13.9188455 26.3104684,13.9193019 26.2618313,13.870685 Z" id="Path"></path><path d="M27.3536919,12.244787 C27.2764689,12.16753 27.2764689,12.0431181 27.3536919,11.9658639 L28.0294798,11.2905022 C28.1074277,11.21252 28.2317837,11.2139703 28.30828,11.2905022 C28.3855029,11.3677592 28.3855029,11.492171 28.30828,11.5694253 L27.632492,12.244787 C27.5559939,12.3202306 27.431636,12.3227692 27.3536919,12.244787 Z" id="Path"></path><path d="M11.8241199,13.8578565 C11.7581572,13.7919534 11.7581572,13.6858255 11.8241199,13.6199248 L12.5574525,12.8866366 C12.6234152,12.8207335 12.729639,12.8207335 12.7955993,12.8866366 C12.8615596,12.9525397 12.861562,13.0586676 12.7955993,13.1239505 L12.0622667,13.8572387 C11.9956848,13.9243798 11.8885342,13.9225232 11.8241199,13.8578575 L11.8241199,13.8578565 Z" id="Path"></path><path d="M12.3652437,14.3869471 C12.2913976,14.313215 12.2913976,14.1944796 12.3652437,14.1207501 L13.0589811,13.4273921 C13.1328271,13.35366 13.251746,13.35366 13.3248971,13.4273921 C13.3987432,13.5011242 13.3987432,13.6198596 13.3248971,13.6935891 L12.6311598,14.3869471 C12.5566206,14.4613713 12.4373564,14.4589485 12.3652437,14.3869471 Z" id="Path"></path><path d="M12.3630132,15.211122 L13.0816537,14.4931764 C13.1501412,14.4247551 13.260431,14.4247551 13.328916,14.4931764 C13.3974036,14.5615978 13.3974036,14.6717809 13.328916,14.7401997 L12.6102756,15.4581453 C12.445969,15.6216515 12.2009538,15.3730165 12.3630132,15.211122 Z" id="Path"></path><path d="M13.5575987,16.0465116 C13.5122706,16.0465116 13.4669459,16.0295716 13.4323761,15.9947134 C13.3629169,15.925323 13.3629169,15.8135793 13.4323761,15.7441913 L14.1484903,15.028787 C14.2179496,14.9593966 14.3298042,14.9593966 14.3986098,15.028787 C14.468069,15.0981774 14.468069,15.2099211 14.3986098,15.279309 L13.6824956,15.9947134 C13.6482547,16.0289203 13.6035795,16.0465116 13.5575987,16.0465116 Z" id="Path"></path><path d="M13.9735637,16.7881871 L14.6594219,16.1026445 C14.7343001,16.0278007 14.8548813,16.0278007 14.9297568,16.1026445 C15.0046351,16.1774883 15.0046351,16.2980139 14.9297568,16.372855 L14.2438986,17.0573451 C14.0646113,17.2369008 13.7963823,16.965287 13.9735637,16.7881871 L13.9735637,16.7881871 Z" id="Path"></path><path d="M14.5004068,17.3714177 L15.2432654,16.629188 C15.3075884,16.5648677 15.4102079,16.566064 15.4733331,16.629188 C15.537058,16.6929102 15.537058,16.7955261 15.4733331,16.859246 L14.7304745,17.6014756 C14.5775939,17.7534537 14.3490197,17.5221933 14.5004068,17.3714177 Z" id="Path"></path><path d="M15.0327183,18.6743657 C14.9703145,18.6119873 14.9703145,18.5115355 15.0327183,18.4491594 L15.7842371,17.6979466 C15.8466409,17.6355682 15.9471336,17.6355682 16.0095352,17.6979466 C16.071939,17.760325 16.071939,17.8607768 16.0095352,17.923153 L15.2580165,18.6743657 C15.1956127,18.7361586 15.0951199,18.7367441 15.0327183,18.6743657 Z" id="Path"></path><path d="M15.5805326,19.1964432 C15.5013248,19.117284 15.5013248,18.989809 15.5805326,18.9106527 L16.2461775,18.2454159 C16.3253853,18.1662567 16.4529386,18.1662567 16.5321435,18.2454159 C16.6113512,18.3245751 16.6113512,18.4520501 16.5321435,18.5312065 L15.8664985,19.1964432 C15.7872907,19.2748594 15.6597375,19.2763455 15.5805326,19.1964432 Z" id="Path"></path><path d="M16.1026991,20.279377 C16.0408843,20.2176283 16.0408843,20.1181903 16.1026991,20.0564438 L16.857228,19.3021266 C16.9190428,19.2409574 17.018587,19.2397982 17.0803995,19.3021266 C17.1422143,19.3638753 17.1422143,19.4633133 17.0803995,19.5250598 L16.3258706,20.279377 C16.2628946,20.3417054 16.1630629,20.340256 16.1026991,20.279377 Z" id="Path"></path><path d="M18.0657382,20.9337209 L17.2582054,20.9337209 C17.1855826,20.9337209 17.1267606,20.9113453 17.1267606,20.8837209 C17.1267606,20.8560966 17.1855839,20.8337209 17.2582054,20.8337209 L18.0657382,20.8337209 C18.138361,20.8337209 18.1971831,20.8560966 18.1971831,20.8837209 C18.1971831,20.9113453 18.1383598,20.9337209 18.0657382,20.9337209 Z" id="Path"></path><path d="M17.1894785,21.8678297 C17.1058546,21.784234 17.1058546,21.6496146 17.1894785,21.5660219 L17.8325555,20.9231619 C17.9161794,20.8395662 18.0508442,20.8395662 18.1344652,20.9231619 C18.2180891,21.0067576 18.2180891,21.141377 18.1344652,21.2249697 L17.4906042,21.8678297 C17.4077653,21.9506407 17.2730994,21.9514254 17.1894785,21.8678297 L17.1894785,21.8678297 Z" id="Path"></path><path d="M15.5716812,21.8799348 C15.5042753,21.8125552 15.5042753,21.7040497 15.5716812,21.6366726 L16.2976376,20.9109998 C16.3650435,20.8436202 16.4735914,20.8436202 16.5409949,20.9109998 C16.6084008,20.9783793 16.6084008,21.0868849 16.5409949,21.154262 L15.8150385,21.8799348 C15.7482653,21.9466819 15.6387687,21.9473143 15.5716812,21.8799348 Z" id="Path"></path><path d="M17.1822712,22.4097614 C17.108257,22.3357836 17.108257,22.2166525 17.1822712,22.1426774 L17.874457,21.4508322 C17.9484712,21.3768544 18.0676609,21.3768544 18.1416724,21.4508322 C18.2156866,21.52481 18.2156866,21.643941 18.1416724,21.7179162 L17.4494867,22.4097614 C17.3754725,22.4826971 17.2562828,22.4844336 17.1822712,22.4097614 Z" id="Path"></path><path d="M16.9162428,22.4290922 L16.0925482,21.6057712 C16.044268,21.5575128 16.044268,21.4797993 16.0925482,21.4315426 C16.1408285,21.3832842 16.2185773,21.3832842 16.2668558,21.4315426 L17.0905504,22.2548636 C17.1388306,22.303122 17.1388306,22.3808355 17.0905504,22.4290922 C17.0429502,22.4768976 16.9649739,22.4773505 16.9162428,22.4290922 Z" id="Path"></path><path d="M17.5286121,21.9302326 C17.4945835,21.9302326 17.4605574,21.9175024 17.4346052,21.891307 L16.6306576,21.0878388 C16.5785132,21.035693 16.5785132,20.9517193 16.6306576,20.8995754 C16.6823126,20.847919 16.7662846,20.84694 16.818916,20.8995754 L17.6228635,21.7030435 C17.6750079,21.7551893 17.6750079,21.839163 17.6228635,21.891307 C17.5966688,21.9170129 17.5626402,21.9302326 17.5286121,21.9302326 Z" id="Path"></path><path d="M17.0032834,19.255814 C16.9717764,19.255814 16.9402718,19.2440323 16.9162428,19.2197902 L16.0925482,18.3964689 C16.044268,18.3482105 16.044268,18.270497 16.0925482,18.2222403 C16.1408285,18.1739819 16.2185773,18.1739819 16.2668558,18.2222403 L17.0905504,19.0455616 C17.1388306,19.09382 17.1388306,19.1715336 17.0905504,19.2197902 C17.0662968,19.2440328 17.0352436,19.255814 17.0032834,19.255814 Z" id="Path"></path><path d="M14.7542077,17.6115739 L13.955348,16.8129857 C13.902208,16.7598298 13.902208,16.6742294 13.955348,16.6210754 C14.0079892,16.5684184 14.0935645,16.5679195 14.1472008,16.6210754 L14.9460605,17.4196636 C14.9992005,17.4728195 14.9992005,17.5584199 14.9460605,17.6115739 C14.8919222,17.6652288 14.8063494,17.6634821 14.7542077,17.6115739 Z" id="Path"></path><path d="M13.0831201,15.4603173 L12.3609726,14.7387736 C12.2928213,14.6706793 12.2928213,14.5610229 12.3609726,14.4929311 C12.4291238,14.4248369 12.538872,14.4248369 12.6070207,14.4929311 L13.3291683,15.2144748 C13.3973195,15.2825691 13.3973195,15.3922255 13.3291683,15.4603173 C13.2610171,15.5284115 13.1512689,15.5290507 13.0831201,15.4603173 Z" id="Path"></path><path d="M11.9763058,14.3844974 L11.2968096,13.7058508 C11.2203123,13.6293684 11.2203123,13.506204 11.2968096,13.4297244 C11.3725889,13.353242 11.4957783,13.352524 11.57299,13.4297244 L12.2524862,14.1083709 C12.3289835,14.1848533 12.3289835,14.3080177 12.2524862,14.3844974 C12.1752708,14.4616977 12.0513661,14.4602619 11.9763058,14.3844974 Z" id="Path"></path><path d="M20.6448834,10.658614 L19.8420954,9.8560548 C19.7897241,9.80373123 19.7897241,9.71947133 19.8420954,9.66714965 C19.8949583,9.61482609 19.9792945,9.61482609 20.0311729,9.66714965 L20.833961,10.4697088 C20.8863323,10.5220324 20.8863323,10.6062923 20.833961,10.658614 C20.7820812,10.7099552 20.6977438,10.7114287 20.6448834,10.658614 Z" id="Path"></path><path d="M21.1842087,10.6594761 L20.376599,9.85208753 C20.3251712,9.80067383 20.3251712,9.71787911 20.376599,9.66646726 C20.4280268,9.61505355 20.5108442,9.61505355 20.5622701,9.66646726 L21.3698799,10.4738558 C21.4213077,10.5252695 21.4213077,10.6080643 21.3698799,10.6594761 C21.3191765,10.7101656 21.2361168,10.7106482 21.1842087,10.6594761 Z" id="Path"></path><path d="M22.2249053,10.119403 L21.4521346,9.34704099 C21.3938894,9.2887844 21.3938894,9.19497018 21.4521346,9.13671569 C21.509833,9.07845911 21.6036296,9.07845911 21.6624187,9.13671569 L22.4351894,9.90907772 C22.4934345,9.96733431 22.4934345,10.0611485 22.4351894,10.119403 C22.375577,10.1782064 22.2817833,10.1762922 22.2249053,10.119403 Z" id="Path"></path><path d="M22.7218163,9.57781664 L21.9939337,8.85027202 C21.9269047,8.78327418 21.9269047,8.67538335 21.9939337,8.60838792 C22.0609627,8.54139007 22.1689036,8.54139007 22.2359302,8.60838792 L22.9638128,9.33656062 C23.0308417,9.40355846 23.0308417,9.51144929 22.9638128,9.57844472 C22.8967838,9.64418479 22.7888429,9.64481368 22.7218163,9.57781567 L22.7218163,9.57781664 Z" id="Path"></path><path d="M23.2167478,9.03605243 L22.5360733,8.3560162 C22.4598066,8.27970072 22.4598066,8.15680514 22.5360733,8.08049242 C22.6116242,8.00417695 22.7344422,8.00417695 22.8114212,8.08049242 L23.4920957,8.76052865 C23.5683625,8.83684413 23.5683625,8.95973971 23.4920957,9.03605243 C23.4151131,9.11308425 23.2922969,9.11093521 23.2167478,9.03605243 Z" id="Path"></path><path d="M19.846068,10.1197488 C19.7883999,10.0620893 19.7883999,9.96923666 19.846068,9.9121198 L21.1569991,8.60138414 C21.2146671,8.54372467 21.3075336,8.54372467 21.3651996,8.60138414 C21.4228677,8.65904362 21.4228677,8.75189629 21.3651996,8.80901315 L20.0542685,10.1197488 C19.9966005,10.1768671 19.903734,10.1774083 19.846068,10.1197488 Z" id="Path"></path><path d="M20.9093082,10.1269196 C20.8612165,10.0788661 20.8612165,10.0014826 20.9093082,9.95343093 L22.2691779,8.59417962 C22.3172696,8.54612617 22.3947146,8.54612617 22.4428045,8.59417962 C22.4908962,8.64223307 22.4908962,8.71961654 22.4428045,8.76766825 L21.0829348,10.1269196 C21.0348431,10.1745219 20.9573981,10.174973 20.9093082,10.1269196 Z" id="Path"></path><path d="M16.3849294,10.6621556 L15.5566665,9.83439978 C15.5092802,9.78704244 15.5092802,9.71077996 15.5566665,9.66342434 C15.6040529,9.61606871 15.680362,9.616067 15.7277467,9.66342434 L16.5560095,10.4911802 C16.6033959,10.5385375 16.6033959,10.6148 16.5560095,10.6621556 C16.509068,10.7090684 16.4320919,10.7099575 16.3849294,10.6621556 Z" id="Path"></path><path d="M17.9775574,10.1252295 L17.1645374,9.3124147 C17.1141683,9.26209952 17.1141683,9.18107384 17.1645374,9.13076047 C17.2153793,9.079973 17.2964912,9.08091758 17.3463863,9.13076047 L18.1594063,9.94357531 C18.2097754,9.99389049 18.2097754,10.0749162 18.1594063,10.1252295 C18.10951,10.1746001 18.0283969,10.176017 17.9775574,10.1252295 Z" id="Path"></path><path d="M18.4246548,9.57508154 L17.7149047,8.86571345 C17.6443275,8.79517426 17.6443275,8.68158058 17.7149047,8.61104393 C17.7854819,8.54050474 17.8991367,8.54050474 17.9697114,8.61104393 L18.6794615,9.32041202 C18.7500387,9.39095121 18.7500387,9.50454489 18.6794615,9.57442026 C18.6088843,9.64495945 18.4952295,9.64628456 18.4246548,9.57508264 L18.4246548,9.57508154 Z" id="Path"></path><path d="M18.5441429,9.09302326 C18.4961078,9.09302326 18.4480763,9.07506041 18.411442,9.03809738 L17.7171774,8.34408885 C17.64357,8.27050857 17.64357,8.15201765 17.7171774,8.07844003 C17.7907848,8.0048624 17.9093195,8.00485975 17.9829242,8.07844003 L18.6771888,8.77244856 C18.7507962,8.84602884 18.7507962,8.96451976 18.6771888,9.03809738 C18.6402121,9.07436974 18.592868,9.09302326 18.5441429,9.09302326 Z" id="Path"></path><path d="M16.1021794,10.1173046 C16.0410576,10.0562304 16.0410576,9.95787891 16.1021794,9.89680696 L17.3954609,8.60394616 C17.4560089,8.54344529 17.5544379,8.54229872 17.6161305,8.60394616 C17.6772523,8.6650203 17.6772523,8.76337183 17.6161305,8.82444378 L16.322849,10.1173046 C16.2611535,10.178952 16.162726,10.1769452 16.1021794,10.1173046 Z" id="Path"></path><path d="M17.7039087,10.1209728 C17.6479929,10.0650861 17.6479929,9.97508836 17.7039087,9.91920373 L18.4885838,9.13493824 C18.5444997,9.0790516 18.6345444,9.0790516 18.6904582,9.13493824 C18.7463721,9.19082488 18.7463741,9.28082263 18.6904582,9.33670726 L17.9057831,10.1209728 C17.8498673,10.1760722 17.7598225,10.177384 17.7039087,10.1209728 Z" id="Path"></path><path d="M17.8416415,9.09302326 C17.7950514,9.09302326 17.7497859,9.07585859 17.7147575,9.04053801 C17.6443766,8.97022727 17.6443766,8.85700148 17.7147575,8.78669328 L18.4261706,8.07598887 C18.4965515,8.00567813 18.6098902,8.00567813 18.6796087,8.07598887 C18.7499896,8.14629961 18.7499896,8.2595254 18.6796087,8.3298336 L17.9681956,9.04053801 C17.9335004,9.07486819 17.8875718,9.09302326 17.8416415,9.09302326 Z" id="Path"></path><path d="M21.742816,22.4306491 L20.9078242,21.5963875 C20.8617112,21.5502811 20.8617112,21.4760332 20.9078242,21.4299286 C20.9535043,21.3838223 21.0277635,21.3838223 21.0743071,21.4299286 L21.9090772,22.2639686 C21.9551902,22.3100749 21.9551902,22.3843228 21.9090772,22.4304275 C21.8623147,22.4771832 21.7880572,22.476101 21.7428104,22.430644 L21.742816,22.4306491 Z" id="Path"></path><path d="M22.8573957,21.9302326 C22.8168392,21.9302326 22.7774359,21.915282 22.7469438,21.8845176 L21.9896116,21.1274962 C21.9283454,21.0662551 21.9283454,20.9676348 21.9896116,20.9063959 C22.0508779,20.8451548 22.1495387,20.8451548 22.2108027,20.9063959 L22.9681348,21.6634173 C23.0294011,21.7246584 23.0294011,21.8232787 22.9681348,21.8845176 C22.9373578,21.9147072 22.8979522,21.9302326 22.8573957,21.9302326 Z" id="Path"></path><path d="M20.9134719,22.4221782 C20.8598286,22.3646329 20.8598286,22.271964 20.9134719,22.2144207 C21.2547262,21.8483429 21.564969,21.5371112 21.8314349,21.2706968 C22.3457083,20.7554906 22.752686,20.3480675 22.7395981,20.1587002 C22.7385907,20.1451921 22.7363241,20.1087192 22.6668148,20.0576605 C22.6043568,20.0120022 22.5884933,19.9204143 22.631808,19.8534164 C22.675126,19.7872257 22.7602506,19.7712858 22.8222025,19.8158632 C22.9398137,19.9025862 23.0037836,20.0106528 23.0130999,20.1368192 C23.0355145,20.4661509 22.6743665,20.8281757 22.019059,21.4854903 C21.754869,21.7494425 21.4463604,22.0587861 21.1076077,22.4221596 C21.0534609,22.4791648 20.9670765,22.4797049 20.9134351,22.4221596 L20.9134719,22.4221782 Z" id="Path"></path></g></g></g></g></g></g></svg>