<svg xmlns="http://www.w3.org/2000/svg" xmlns:xlink="http://www.w3.org/1999/xlink" width="149px" height="211px" viewBox="0 0 149 211"><title>hors</title><g id="Home-1" stroke="none" stroke-width="1" fill="none" fill-rule="evenodd"><g id="De-bebe---Home-1-" transform="translate(-646.000000, -6542.000000)" fill-rule="nonzero"><g id="Group-23-Copy" transform="translate(-228.000000, 6093.000000)"><g id="hors" transform="translate(874.000000, 449.000000)"><path d="M117.33,157.686352 C117.33,157.686352 134.43,175.256352 129.31,209.386352 L145.03,209.386352 C145.03,209.386352 163.51,174.056352 120.22,156.216352 L117.33,157.686352 Z" id="Path" fill="#EECE78"></path><path d="M95.08,92.3263519 C95.08,92.3263519 98.32,19.2863519 69.91,21.5063519 C69.91,21.5063519 22.61,16.3863519 15.99,31.8463519 C9.37,47.3063519 18.19,53.2263519 26.49,52.9663519 C34.79,52.7063519 57.18,50.0763519 57.18,50.0763519 C57.18,50.0763519 32.55,122.806352 43.37,149.946352 C54.19,177.086352 103.69,183.586352 103.69,183.586352 C103.69,183.586352 119.46,175.116352 120.42,153.406352 C121.38,131.696352 95.08,92.3263519 95.08,92.3263519 Z" id="Path" fill="#EECE78"></path><path d="M99.37,164.896352 C99.37,164.896352 78.97,181.026352 79.08,210.946352 L93.05,210.946352 C93.05,210.946352 96.55,185.586352 111.07,176.706352 L99.37,164.896352 Z" id="Path" fill="#EECE78"></path><path d="M67.38,164.896352 C67.38,164.896352 46.98,181.026352 47.09,210.946352 L61.06,210.946352 C61.06,210.946352 64.56,185.586352 79.08,176.706352 L67.38,164.896352 Z" id="Path" fill="#EECE78"></path><path d="M140.08,206.846352 C140.01,206.846352 139.95,206.826352 139.89,206.796352 C139.71,206.686352 139.66,206.456352 139.76,206.286352 C139.82,206.176352 146.23,195.406352 142.99,182.846352 C140.64,173.746352 133.92,165.956352 123,159.686352 C122.82,159.586352 122.76,159.356352 122.86,159.176352 C122.96,158.996352 123.19,158.936352 123.37,159.036352 C134.48,165.406352 141.32,173.356352 143.72,182.666352 C147.03,195.536352 140.47,206.566352 140.4,206.676352 C140.33,206.776352 140.2,206.846352 140.08,206.846352 Z" id="Path" fill="#26192A"></path><path d="M133.74,209.756352 C133.68,209.756352 133.62,209.746352 133.56,209.706352 C133.38,209.606352 133.31,209.376352 133.41,209.196352 C133.57,208.906352 149.03,179.696352 120.26,160.806352 C120.09,160.696352 120.04,160.456352 120.15,160.286352 C120.26,160.116352 120.5,160.066352 120.67,160.176352 C150.03,179.446352 134.23,209.256352 134.07,209.556352 C134,209.686352 133.87,209.756352 133.74,209.756352 Z" id="Path" fill="#26192A"></path><path d="M49.85,109.036352 C49.85,109.036352 26.99,71.5663519 12.11,107.666352 L1.77,101.146352 C1.77,101.146352 17.16,46.7263519 65.27,96.6463519 L49.85,109.036352 Z" id="Path" fill="#EECE78"></path><path d="M99.81,100.246352 C99.75,100.246352 99.69,100.236352 99.63,100.196352 C99.45,100.096352 99.38,99.8663519 99.48,99.6863519 C113.76,73.7763519 117.24,51.4363519 109.82,33.2763519 C100.52,10.5163519 76.74,1.90635191 73.54,0.846351907 L67.42,20.8063519 C67.36,21.0063519 67.15,21.1163519 66.95,21.0563519 C66.75,20.9963519 66.64,20.7863519 66.7,20.5863519 L72.93,0.266351907 C72.99,0.0663519068 73.19,-0.0436480932 73.4,0.0163519068 C73.67,0.0963519068 100.44,8.36635191 110.51,32.9963519 C118.02,51.3763519 114.53,73.9363519 100.13,100.056352 C100.07,100.176352 99.94,100.246352 99.81,100.246352 Z" id="Path" fill="#26192A"></path><path d="M80.04,29.7263519 C80.04,29.7263519 93.76,18.9363519 106.27,23.7763519 C106.27,23.7763519 100.62,44.9463519 80.04,29.7263519 Z" id="Path" fill="#EECE78"></path><path d="M31.78,22.5263519 C31.78,22.5263519 37.48,41.1663519 33.51,52.5063519 C33.51,52.5063519 19,56.9863519 13.67,45.4863519 C8.34,33.9863519 21.31,22.9663519 31.78,22.5263519 Z" id="Path" fill="#FFFFFF"></path><path d="M23.61,48.4963519 C21.24,48.4963519 19.43,41.5463519 19.08,40.1363519 C19.03,39.9363519 19.15,39.7363519 19.36,39.6863519 C19.56,39.6363519 19.76,39.7563519 19.81,39.9663519 C20.61,43.2263519 22.3,47.7563519 23.6,47.7563519 C23.62,47.7563519 23.63,47.7563519 23.65,47.7563519 C24.95,47.6363519 25.77,42.2263519 25.93,38.4263519 C25.94,38.2163519 26.11,38.0563519 26.32,38.0663519 C26.53,38.0763519 26.69,38.2463519 26.68,38.4563519 C26.61,40.0963519 26.14,48.2763519 23.72,48.4963519 C23.69,48.4963519 23.65,48.4963519 23.61,48.4963519 Z" id="Path" fill="#26192A"></path><path d="M22.37,34.5663519 C22.16,34.5663519 21.99,34.3963519 21.99,34.1863519 C21.99,31.4163519 24.64,29.2763519 24.75,29.1863519 C24.91,29.0563519 25.15,29.0863519 25.28,29.2463519 C25.41,29.4063519 25.38,29.6463519 25.22,29.7763519 C25.2,29.7963519 22.74,31.7863519 22.74,34.1963519 C22.74,34.3963519 22.58,34.5663519 22.37,34.5663519 Z" id="Path" fill="#26192A"></path><path d="M60.24,35.7763519 C59.99,35.7763519 59.75,35.6863519 59.56,35.5163519 C57.8,34.0063519 61.2,27.9463519 61.9,26.7463519 C62,26.5663519 62.23,26.5063519 62.41,26.6163519 C62.59,26.7163519 62.65,26.9463519 62.54,27.1263519 C60.93,29.8863519 59.09,34.1363519 60.04,34.9563519 C60.12,35.0263519 60.21,35.0463519 60.32,35.0263519 C61.51,34.7863519 63.77,31.0363519 64.92,28.7263519 C65.01,28.5363519 65.24,28.4663519 65.42,28.5563519 C65.61,28.6463519 65.68,28.8763519 65.59,29.0563519 C65.27,29.6963519 62.4,35.3663519 60.47,35.7563519 C60.4,35.7663519 60.32,35.7763519 60.24,35.7763519 Z" id="Path" fill="#26192A"></path><path d="M67.89,38.1963519 C67.64,38.1963519 67.4,38.1063519 67.21,37.9363519 C65.45,36.4263519 68.85,30.3663519 69.55,29.1663519 C69.65,28.9863519 69.88,28.9263519 70.06,29.0363519 C70.24,29.1363519 70.3,29.3663519 70.19,29.5463519 C68.58,32.3063519 66.74,36.5563519 67.69,37.3763519 C67.77,37.4463519 67.86,37.4663519 67.97,37.4463519 C69.16,37.2063519 71.42,33.4563519 72.57,31.1463519 C72.66,30.9563519 72.89,30.8863519 73.07,30.9763519 C73.26,31.0663519 73.33,31.2963519 73.24,31.4763519 C72.92,32.1163519 70.05,37.7863519 68.12,38.1763519 C68.04,38.1863519 67.96,38.1963519 67.89,38.1963519 Z" id="Path" fill="#26192A"></path><path d="M85.55,31.5363519 C85.43,31.5363519 85.31,31.4763519 85.24,31.3763519 C85.12,31.2063519 85.16,30.9763519 85.34,30.8563519 C93.05,25.5263519 96.79,27.9363519 96.94,28.0463519 C97.11,28.1663519 97.16,28.3963519 97.04,28.5663519 C96.92,28.7363519 96.69,28.7763519 96.52,28.6663519 C96.45,28.6263519 92.98,26.4863519 85.77,31.4663519 C85.69,31.5163519 85.62,31.5363519 85.55,31.5363519 Z" id="Path" fill="#26192A"></path><path d="M19.45,34.5663519 C19.39,34.5663519 19.32,34.5463519 19.26,34.5163519 C19.08,34.4163519 19.02,34.1863519 19.12,34.0063519 C20.41,31.7863519 19.12,29.0763519 19.11,29.0463519 C19.02,28.8563519 19.1,28.6363519 19.28,28.5463519 C19.46,28.4563519 19.69,28.5363519 19.78,28.7163519 C19.84,28.8363519 21.26,31.8063519 19.77,34.3763519 C19.71,34.4963519 19.58,34.5663519 19.45,34.5663519 Z" id="Path" fill="#26192A"></path><path d="M74.11,21.6663519 C74.06,21.6663519 74.01,21.6563519 73.96,21.6363519 C73.77,21.5563519 73.68,21.3363519 73.77,21.1463519 L79.7,7.52635191 C79.78,7.33635191 80,7.24635191 80.19,7.33635191 C80.38,7.41635191 80.47,7.63635191 80.38,7.82635191 L74.45,21.4463519 C74.4,21.5863519 74.26,21.6663519 74.11,21.6663519 Z" id="Path" fill="#26192A"></path><polygon id="Path" fill="#26192A" points="4.64 93.9963519 15.42 100.996352 12.1 107.676352 0 102.166352"></polygon><path d="M49.68,75.5863519 C49.68,75.5863519 59.42,74.7463519 59.42,92.3163519 C59.42,110.576352 57.31,131.906352 65.6,137.636352 C93.95,157.246352 98.26,158.446352 87.2,179.946352 C87.2,179.946352 43.23,178.046352 38.26,140.076352 C33.37,102.766352 49.68,75.5863519 49.68,75.5863519 Z" id="Path" fill="#FFFFFF"></path><path d="M62.86,121.366352 C62.86,121.366352 26.66,96.5463519 27.87,135.576352 L15.77,133.866352 C15.77,133.866352 7.51,77.9263519 71.86,103.746352 L62.86,121.366352 Z" id="Path" fill="#EECE78"></path><path d="M79.43,24.4963519 C79.35,24.4963519 79.28,24.4763519 79.21,24.4263519 C79.04,24.3063519 79,24.0763519 79.12,23.9063519 L87.69,11.8263519 C87.81,11.6563519 88.05,11.6163519 88.21,11.7363519 C88.38,11.8563519 88.42,12.0863519 88.3,12.2563519 L79.73,24.3363519 C79.67,24.4463519 79.55,24.4963519 79.43,24.4963519 Z" id="Path" fill="#26192A"></path><path d="M89.98,42.0663519 C89.82,42.0663519 89.67,41.9563519 89.62,41.7963519 C89.56,41.5963519 89.67,41.3863519 89.87,41.3263519 L106.16,36.4963519 C106.36,36.4363519 106.57,36.5463519 106.63,36.7463519 C106.69,36.9463519 106.58,37.1563519 106.38,37.2163519 L90.09,42.0463519 C90.05,42.0563519 90.02,42.0663519 89.98,42.0663519 Z" id="Path" fill="#26192A"></path><path d="M91.67,48.4963519 C91.5,48.4963519 91.35,48.3863519 91.31,48.2163519 C91.26,48.0163519 91.37,47.8063519 91.57,47.7563519 L106.17,43.7963519 C106.37,43.7463519 106.58,43.8563519 106.63,44.0563519 C106.68,44.2563519 106.57,44.4663519 106.37,44.5163519 L91.77,48.4763519 C91.73,48.4963519 91.7,48.4963519 91.67,48.4963519 Z" id="Path" fill="#26192A"></path><path d="M93.16,53.7463519 C92.96,53.7463519 92.79,53.5863519 92.78,53.3863519 C92.77,53.1763519 92.93,53.0063519 93.14,52.9963519 L111.53,52.1563519 C111.74,52.1463519 111.91,52.3063519 111.92,52.5163519 C111.93,52.7263519 111.77,52.8963519 111.56,52.9063519 L93.17,53.7463519 C93.17,53.7463519 93.16,53.7463519 93.16,53.7463519 Z" id="Path" fill="#26192A"></path><path d="M93.94,61.4263519 C93.75,61.4263519 93.58,61.2763519 93.57,61.0863519 C93.55,60.8763519 93.7,60.6963519 93.91,60.6763519 L106.24,59.5363519 C106.46,59.5163519 106.63,59.6663519 106.65,59.8763519 C106.67,60.0863519 106.52,60.2663519 106.31,60.2863519 L93.98,61.4263519 C93.97,61.4263519 93.96,61.4263519 93.94,61.4263519 Z" id="Path" fill="#26192A"></path><path d="M102,90.0363519 C101.97,90.0363519 101.93,90.0363519 101.9,90.0263519 L95.08,88.1463519 C94.88,88.0963519 94.76,87.8863519 94.82,87.6863519 C94.87,87.4863519 95.08,87.3663519 95.28,87.4263519 L102.1,89.3063519 C102.3,89.3563519 102.42,89.5663519 102.36,89.7663519 C102.31,89.9263519 102.16,90.0363519 102,90.0363519 Z" id="Path" fill="#26192A"></path><path d="M106.27,82.7863519 C106.26,82.7863519 106.24,82.7863519 106.23,82.7863519 L95.15,81.5363519 C94.94,81.5163519 94.8,81.3263519 94.82,81.1163519 C94.84,80.9063519 95.02,80.7663519 95.24,80.7863519 L106.32,82.0363519 C106.53,82.0563519 106.67,82.2463519 106.65,82.4563519 C106.62,82.6463519 106.46,82.7863519 106.27,82.7863519 Z" id="Path" fill="#26192A"></path><path d="M94.9,74.5363519 C94.7,74.5363519 94.53,74.3763519 94.52,74.1763519 C94.51,73.9663519 94.67,73.7963519 94.88,73.7863519 L108.73,73.2863519 C108.99,73.2763519 109.11,73.4463519 109.12,73.6463519 C109.13,73.8563519 108.97,74.0263519 108.76,74.0363519 L94.91,74.5363519 C94.91,74.5363519 94.9,74.5363519 94.9,74.5363519 Z" id="Path" fill="#26192A"></path><path d="M108.75,68.1563519 C108.74,68.1563519 108.73,68.1563519 108.72,68.1563519 L94.36,67.0463519 C94.15,67.0263519 94,66.8463519 94.02,66.6463519 C94.04,66.4363519 94.22,66.2863519 94.42,66.3063519 L108.78,67.4163519 C108.99,67.4363519 109.14,67.6163519 109.12,67.8163519 C109.11,68.0063519 108.94,68.1563519 108.75,68.1563519 Z" id="Path" fill="#26192A"></path><polygon id="Path" fill="#26192A" points="15.43 128.306352 28.08 128.836352 28.08 137.626352 15.42 137.626352"></polygon><polygon id="Path" fill="#26192A" points="47.67 202.116352 63.03 202.116352 61.06 210.936352 45.75 210.936352"></polygon><polygon id="Path" fill="#26192A" points="79.72 202.116352 95.08 202.116352 93.11 210.936352 77.8 210.936352"></polygon><path d="M23.68,108.046352 C23.62,108.046352 23.56,108.026352 23.5,107.996352 C23.32,107.896352 23.25,107.666352 23.35,107.486352 C23.38,107.426352 24.2,105.946352 26.13,104.906352 C26.31,104.806352 26.54,104.876352 26.64,105.056352 C26.74,105.236352 26.67,105.466352 26.49,105.566352 C24.77,106.496352 24.02,107.836352 24.01,107.846352 C23.94,107.976352 23.81,108.046352 23.68,108.046352 Z" id="Path" fill="#26192A"></path><path d="M28.08,107.686352 C27.99,107.686352 27.9,107.656352 27.83,107.586352 C27.68,107.446352 27.67,107.206352 27.81,107.056352 C27.86,107.006352 29.02,105.776352 31.14,105.236352 C31.34,105.186352 31.54,105.306352 31.59,105.506352 C31.64,105.706352 31.52,105.906352 31.32,105.956352 C29.42,106.436352 28.36,107.546352 28.35,107.556352 C28.28,107.646352 28.18,107.686352 28.08,107.686352 Z" id="Path" fill="#26192A"></path><path d="M29.45,102.746352 C29.31,102.746352 29.17,102.666352 29.11,102.526352 C29.02,102.336352 29.1,102.116352 29.29,102.026352 C29.35,101.996352 30.88,101.276352 33.06,101.586352 C33.27,101.616352 33.41,101.806352 33.38,102.006352 C33.35,102.206352 33.17,102.366352 32.96,102.326352 C31.02,102.056352 29.63,102.696352 29.61,102.706352 C29.56,102.726352 29.5,102.746352 29.45,102.746352 Z" id="Path" fill="#26192A"></path><path d="M34.7,105.006352 C34.56,105.006352 34.42,104.926352 34.36,104.786352 C34.27,104.596352 34.35,104.376352 34.54,104.286352 C34.6,104.256352 36.14,103.546352 38.31,103.846352 C38.52,103.876352 38.66,104.066352 38.63,104.266352 C38.6,104.476352 38.41,104.626352 38.21,104.586352 C36.26,104.326352 34.88,104.956352 34.86,104.966352 C34.81,104.986352 34.75,105.006352 34.7,105.006352 Z" id="Path" fill="#26192A"></path><path d="M36.48,101.216352 C36.34,101.216352 36.2,101.136352 36.14,101.006352 C36.05,100.816352 36.13,100.596352 36.32,100.506352 C36.38,100.476352 37.92,99.7663519 40.09,100.066352 C40.3,100.096352 40.44,100.286352 40.41,100.486352 C40.38,100.696352 40.19,100.846352 39.99,100.806352 C38.03,100.546352 36.66,101.176352 36.64,101.186352 C36.59,101.196352 36.53,101.216352 36.48,101.216352 Z" id="Path" fill="#26192A"></path><path d="M43.61,103.886352 C43.56,103.886352 43.5,103.876352 43.45,103.846352 C41.69,102.996352 40.16,103.176352 40.15,103.176352 C39.94,103.196352 39.76,103.056352 39.73,102.856352 C39.7,102.646352 39.85,102.466352 40.05,102.436352 C40.12,102.426352 41.8,102.226352 43.77,103.176352 C43.96,103.266352 44.03,103.486352 43.94,103.676352 C43.89,103.816352 43.75,103.886352 43.61,103.886352 Z" id="Path" fill="#26192A"></path><path d="M47.05,101.986352 C46.97,101.986352 46.88,101.956352 46.82,101.906352 C45.28,100.676352 43.77,100.516352 43.75,100.516352 C43.54,100.496352 43.39,100.316352 43.41,100.106352 C43.43,99.8963519 43.6,99.7563519 43.82,99.7663519 C43.89,99.7763519 45.57,99.9463519 47.29,101.316352 C47.45,101.446352 47.48,101.686352 47.35,101.846352 C47.27,101.936352 47.16,101.986352 47.05,101.986352 Z" id="Path" fill="#26192A"></path><path d="M13.68,85.9263519 C13.62,85.9263519 13.56,85.9063519 13.5,85.8763519 C13.32,85.7763519 13.25,85.5463519 13.35,85.3663519 C13.38,85.3063519 14.2,83.8263519 16.13,82.7863519 C16.31,82.6863519 16.54,82.7563519 16.64,82.9363519 C16.74,83.1163519 16.67,83.3463519 16.49,83.4463519 C14.77,84.3763519 14.02,85.7163519 14.01,85.7263519 C13.94,85.8563519 13.81,85.9263519 13.68,85.9263519 Z" id="Path" fill="#26192A"></path><path d="M18.08,85.5663519 C17.99,85.5663519 17.9,85.5363519 17.83,85.4663519 C17.68,85.3263519 17.67,85.0863519 17.81,84.9363519 C17.86,84.8863519 19.02,83.6563519 21.14,83.1163519 C21.34,83.0663519 21.54,83.1863519 21.59,83.3863519 C21.64,83.5863519 21.52,83.7863519 21.32,83.8363519 C19.41,84.3163519 18.36,85.4263519 18.36,85.4363519 C18.28,85.5263519 18.18,85.5663519 18.08,85.5663519 Z" id="Path" fill="#26192A"></path><path d="M19.45,80.6163519 C19.31,80.6163519 19.17,80.5363519 19.11,80.4063519 C19.02,80.2163519 19.1,79.9963519 19.29,79.9063519 C19.35,79.8763519 20.88,79.1663519 23.06,79.4663519 C23.27,79.4963519 23.41,79.6863519 23.38,79.8863519 C23.35,80.0963519 23.16,80.2463519 22.96,80.2063519 C21,79.9463519 19.63,80.5763519 19.61,80.5863519 C19.56,80.6063519 19.5,80.6163519 19.45,80.6163519 Z" id="Path" fill="#26192A"></path><path d="M24.7,82.8763519 C24.56,82.8763519 24.42,82.7963519 24.36,82.6563519 C24.27,82.4663519 24.35,82.2463519 24.54,82.1563519 C24.6,82.1263519 26.13,81.4163519 28.31,81.7163519 C28.52,81.7463519 28.66,81.9363519 28.63,82.1363519 C28.6,82.3463519 28.42,82.4863519 28.21,82.4563519 C26.27,82.1863519 24.88,82.8263519 24.86,82.8363519 C24.81,82.8663519 24.75,82.8763519 24.7,82.8763519 Z" id="Path" fill="#26192A"></path><path d="M26.48,79.0863519 C26.34,79.0863519 26.2,79.0063519 26.14,78.8763519 C26.05,78.6863519 26.13,78.4663519 26.32,78.3763519 C26.38,78.3463519 27.92,77.6363519 30.09,77.9363519 C30.3,77.9663519 30.44,78.1563519 30.41,78.3563519 C30.38,78.5563519 30.2,78.7163519 29.99,78.6763519 C28.04,78.4063519 26.66,79.0463519 26.64,79.0563519 C26.59,79.0763519 26.53,79.0863519 26.48,79.0863519 Z" id="Path" fill="#26192A"></path><path d="M89.14,60.2763519 C89.12,60.2763519 89.1,60.2763519 89.09,60.2763519 C88.88,60.2463519 88.74,60.0563519 88.77,59.8563519 C89.05,57.9063519 88.42,56.5163519 88.41,56.5063519 C88.32,56.3163519 88.4,56.0963519 88.59,56.0063519 C88.77,55.9163519 89,55.9963519 89.09,56.1863519 C89.12,56.2463519 89.82,57.7863519 89.51,59.9563519 C89.48,60.1463519 89.32,60.2763519 89.14,60.2763519 Z" id="Path" fill="#26192A"></path><path d="M86.85,65.5163519 C86.83,65.5163519 86.81,65.5163519 86.8,65.5163519 C86.59,65.4863519 86.45,65.2963519 86.48,65.0963519 C86.76,63.1563519 86.13,61.7563519 86.12,61.7463519 C86.03,61.5563519 86.12,61.3363519 86.3,61.2463519 C86.49,61.1563519 86.71,61.2363519 86.8,61.4263519 C86.83,61.4863519 87.53,63.0263519 87.22,65.1963519 C87.19,65.3863519 87.03,65.5163519 86.85,65.5163519 Z" id="Path" fill="#26192A"></path><path d="M85.47,72.2163519 C85.45,72.2163519 85.43,72.2163519 85.42,72.2163519 C85.21,72.1863519 85.07,71.9963519 85.1,71.7963519 C85.38,69.8463519 84.75,68.4563519 84.74,68.4463519 C84.65,68.2563519 84.73,68.0363519 84.92,67.9463519 C85.1,67.8563519 85.33,67.9363519 85.42,68.1263519 C85.45,68.1863519 86.15,69.7263519 85.84,71.8963519 C85.82,72.0763519 85.65,72.2163519 85.47,72.2163519 Z" id="Path" fill="#26192A"></path><path d="M90.39,74.5363519 C90.37,74.5363519 90.35,74.5363519 90.34,74.5363519 C90.13,74.5063519 89.99,74.3163519 90.02,74.1163519 C90.3,72.1763519 89.67,70.7763519 89.66,70.7663519 C89.57,70.5763519 89.66,70.3563519 89.84,70.2663519 C90.03,70.1763519 90.25,70.2563519 90.34,70.4463519 C90.37,70.5063519 91.07,72.0463519 90.76,74.2163519 C90.74,74.4063519 90.58,74.5363519 90.39,74.5363519 Z" id="Path" fill="#26192A"></path><path d="M86.85,87.7063519 C86.83,87.7063519 86.81,87.7063519 86.8,87.7063519 C86.59,87.6763519 86.45,87.4863519 86.48,87.2863519 C86.76,85.3463519 86.13,83.9463519 86.12,83.9363519 C86.03,83.7463519 86.12,83.5263519 86.3,83.4363519 C86.49,83.3463519 86.71,83.4263519 86.8,83.6163519 C86.83,83.6763519 87.53,85.2163519 87.22,87.3863519 C87.19,87.5763519 87.03,87.7063519 86.85,87.7063519 Z" id="Path" fill="#26192A"></path><path d="M111.59,134.116352 C111.39,134.116352 111.23,133.966352 111.22,133.766352 C111.1,131.806352 110.2,130.566352 110.19,130.556352 C110.07,130.386352 110.1,130.156352 110.27,130.036352 C110.44,129.916352 110.67,129.946352 110.79,130.116352 C110.83,130.176352 111.83,131.536352 111.97,133.726352 C111.98,133.936352 111.83,134.106352 111.62,134.126352 C111.6,134.116352 111.59,134.116352 111.59,134.116352 Z" id="Path" fill="#26192A"></path><path d="M109.77,149.026352 C109.57,149.026352 109.41,148.876352 109.4,148.676352 C109.28,146.716352 108.38,145.476352 108.37,145.466352 C108.25,145.296352 108.28,145.066352 108.45,144.946352 C108.62,144.826352 108.85,144.856352 108.97,145.026352 C109.01,145.086352 110.01,146.446352 110.15,148.636352 C110.16,148.846352 110.01,149.016352 109.8,149.036352 C109.78,149.026352 109.77,149.026352 109.77,149.026352 Z" id="Path" fill="#26192A"></path><path d="M109.88,168.666352 C109.81,168.666352 109.73,168.646352 109.67,168.606352 C109.5,168.486352 109.45,168.256352 109.57,168.086352 C110.68,166.456352 110.72,164.936352 110.72,164.916352 C110.72,164.706352 110.9,164.536352 111.1,164.546352 C111.31,164.546352 111.47,164.716352 111.47,164.926352 C111.47,164.996352 111.42,166.686352 110.19,168.506352 C110.11,168.606352 110,168.666352 109.88,168.666352 Z" id="Path" fill="#26192A"></path><path d="M109.49,174.596352 C109.39,174.596352 109.28,174.556352 109.21,174.476352 C109.07,174.326352 109.09,174.086352 109.24,173.946352 C110.7,172.636352 111.12,171.166352 111.12,171.146352 C111.17,170.946352 111.38,170.826352 111.58,170.886352 C111.78,170.936352 111.9,171.146352 111.84,171.346352 C111.82,171.416352 111.37,173.046352 109.74,174.506352 C109.67,174.566352 109.58,174.596352 109.49,174.596352 Z" id="Path" fill="#26192A"></path><path d="M91.29,89.4863519 C91.27,89.4863519 91.25,89.4863519 91.24,89.4863519 C91.03,89.4563519 90.89,89.2663519 90.92,89.0663519 C91.2,87.1163519 90.57,85.7263519 90.56,85.7163519 C90.47,85.5263519 90.55,85.3063519 90.74,85.2163519 C90.92,85.1263519 91.15,85.2063519 91.24,85.3963519 C91.27,85.4563519 91.97,86.9963519 91.66,89.1663519 C91.63,89.3563519 91.47,89.4863519 91.29,89.4863519 Z" id="Path" fill="#26192A"></path><path d="M115.42,143.296352 C115.4,143.296352 115.38,143.296352 115.37,143.296352 C115.16,143.266352 115.02,143.076352 115.05,142.876352 C115.33,140.926352 114.7,139.536352 114.69,139.526352 C114.6,139.336352 114.68,139.116352 114.87,139.026352 C115.06,138.936352 115.28,139.016352 115.37,139.206352 C115.4,139.266352 116.1,140.806352 115.79,142.976352 C115.76,143.156352 115.6,143.296352 115.42,143.296352 Z" id="Path" fill="#26192A"></path><path d="M117.48,152.586352 C117.46,152.586352 117.44,152.586352 117.43,152.586352 C117.22,152.556352 117.08,152.366352 117.11,152.166352 C117.39,150.216352 116.76,148.826352 116.75,148.816352 C116.66,148.626352 116.74,148.406352 116.93,148.316352 C117.11,148.226352 117.34,148.306352 117.43,148.496352 C117.46,148.556352 118.16,150.096352 117.85,152.266352 C117.83,152.456352 117.67,152.586352 117.48,152.586352 Z" id="Path" fill="#26192A"></path><path d="M111.74,143.296352 C111.72,143.296352 111.7,143.296352 111.69,143.296352 C111.48,143.266352 111.34,143.076352 111.37,142.876352 C111.65,140.926352 111.02,139.536352 111.01,139.526352 C110.92,139.336352 111,139.116352 111.19,139.026352 C111.38,138.936352 111.6,139.016352 111.69,139.206352 C111.72,139.266352 112.42,140.806352 112.11,142.976352 C112.09,143.156352 111.93,143.296352 111.74,143.296352 Z" id="Path" fill="#26192A"></path><path d="M113.69,152.206352 C113.68,152.206352 113.67,152.206352 113.66,152.206352 C113.45,152.186352 113.3,152.006352 113.32,151.796352 C113.49,149.836352 112.78,148.486352 112.77,148.476352 C112.67,148.296352 112.74,148.066352 112.92,147.966352 C113.1,147.866352 113.33,147.936352 113.43,148.116352 C113.46,148.176352 114.25,149.676352 114.07,151.856352 C114.05,152.056352 113.88,152.206352 113.69,152.206352 Z" id="Path" fill="#26192A"></path><path d="M44.32,147.326352 C44.21,147.326352 44.1,147.276352 44.02,147.176352 C42.69,145.436352 42.55,143.746352 42.54,143.676352 C42.52,143.466352 42.68,143.286352 42.88,143.276352 C43.08,143.266352 43.27,143.416352 43.28,143.616352 C43.28,143.636352 43.42,145.156352 44.61,146.716352 C44.74,146.876352 44.7,147.116352 44.54,147.246352 C44.48,147.296352 44.4,147.326352 44.32,147.326352 Z" id="Path" fill="#26192A"></path><path d="M41.08,139.796352 C40.92,139.796352 40.77,139.696352 40.72,139.536352 C40.07,137.436352 40.53,135.816352 40.55,135.746352 C40.61,135.546352 40.82,135.436352 41.01,135.486352 C41.21,135.546352 41.32,135.746352 41.27,135.946352 C41.27,135.956352 40.86,137.436352 41.44,139.316352 C41.5,139.516352 41.39,139.726352 41.19,139.786352 C41.15,139.786352 41.12,139.796352 41.08,139.796352 Z" id="Path" fill="#26192A"></path><path d="M46.69,145.756352 C46.56,145.756352 46.43,145.686352 46.36,145.566352 C45.28,143.656352 45.37,141.966352 45.38,141.896352 C45.39,141.686352 45.55,141.546352 45.78,141.546352 C45.99,141.556352 46.14,141.736352 46.13,141.946352 C46.13,141.966352 46.05,143.496352 47.02,145.196352 C47.12,145.376352 47.06,145.606352 46.88,145.706352 C46.82,145.736352 46.76,145.756352 46.69,145.756352 Z" id="Path" fill="#26192A"></path><path d="M41.38,132.436352 C41.25,132.436352 41.12,132.366352 41.05,132.246352 C39.97,130.336352 40.06,128.646352 40.07,128.576352 C40.08,128.366352 40.26,128.216352 40.47,128.226352 C40.68,128.236352 40.83,128.416352 40.82,128.626352 C40.82,128.636352 40.74,130.176352 41.7,131.876352 C41.8,132.056352 41.74,132.286352 41.56,132.386352 C41.51,132.416352 41.45,132.436352 41.38,132.436352 Z" id="Path" fill="#26192A"></path><path d="M44.32,137.876352 C44.2,137.876352 44.09,137.826352 44.02,137.726352 C42.73,135.956352 42.63,134.266352 42.63,134.196352 C42.62,133.986352 42.78,133.816352 42.99,133.806352 C43.2,133.816352 43.37,133.956352 43.38,134.156352 C43.38,134.166352 43.48,135.706352 44.63,137.286352 C44.75,137.456352 44.71,137.686352 44.55,137.806352 C44.47,137.856352 44.39,137.876352 44.32,137.876352 Z" id="Path" fill="#26192A"></path><path d="M55.46,155.256352 C55.37,155.256352 55.28,155.226352 55.2,155.156352 C53.6,153.666352 53.18,152.026352 53.16,151.956352 C53.11,151.756352 53.23,151.556352 53.43,151.506352 C53.63,151.456352 53.83,151.576352 53.89,151.776352 C53.89,151.786352 54.28,153.276352 55.72,154.606352 C55.87,154.746352 55.88,154.986352 55.74,155.136352 C55.66,155.216352 55.56,155.256352 55.46,155.256352 Z" id="Path" fill="#26192A"></path><path d="M66.75,167.926352 C66.71,167.926352 66.67,167.916352 66.63,167.906352 C64.56,167.196352 63.51,165.866352 63.47,165.806352 C63.34,165.646352 63.37,165.406352 63.54,165.286352 C63.7,165.156352 63.94,165.186352 64.07,165.346352 C64.08,165.356352 65.03,166.556352 66.89,167.196352 C67.09,167.266352 67.19,167.476352 67.12,167.676352 C67.05,167.826352 66.9,167.926352 66.75,167.926352 Z" id="Path" fill="#26192A"></path><path d="M54.81,186.986352 C54.8,186.986352 54.78,186.986352 54.77,186.986352 C54.56,186.966352 54.42,186.776352 54.44,186.566352 C54.7,184.386352 55.78,183.086352 55.82,183.026352 C55.95,182.866352 56.19,182.846352 56.35,182.976352 C56.51,183.106352 56.53,183.346352 56.4,183.506352 C56.39,183.516352 55.42,184.706352 55.18,186.646352 C55.16,186.846352 55,186.986352 54.81,186.986352 Z" id="Path" fill="#26192A"></path><path d="M52.74,192.866352 C52.73,192.866352 52.71,192.866352 52.7,192.866352 C52.49,192.846352 52.35,192.656352 52.37,192.446352 C52.63,190.266352 53.71,188.966352 53.76,188.906352 C53.89,188.746352 54.13,188.726352 54.29,188.856352 C54.45,188.986352 54.47,189.226352 54.34,189.386352 C54.33,189.396352 53.36,190.586352 53.12,192.526352 C53.09,192.726352 52.92,192.866352 52.74,192.866352 Z" id="Path" fill="#26192A"></path><path d="M57.06,191.196352 C57.05,191.196352 57.03,191.196352 57.02,191.196352 C56.81,191.176352 56.67,190.986352 56.69,190.776352 C56.95,188.596352 58.03,187.296352 58.07,187.236352 C58.2,187.076352 58.44,187.056352 58.6,187.186352 C58.76,187.316352 58.78,187.556352 58.65,187.716352 C58.64,187.726352 57.67,188.916352 57.43,190.856352 C57.41,191.056352 57.25,191.196352 57.06,191.196352 Z" id="Path" fill="#26192A"></path><path d="M59.14,183.956352 C59.13,183.956352 59.11,183.956352 59.1,183.956352 C58.89,183.936352 58.75,183.746352 58.77,183.536352 C59.03,181.356352 60.11,180.056352 60.15,179.996352 C60.28,179.836352 60.52,179.816352 60.68,179.946352 C60.84,180.076352 60.86,180.316352 60.73,180.476352 C60.72,180.486352 59.75,181.676352 59.51,183.616352 C59.49,183.816352 59.33,183.956352 59.14,183.956352 Z" id="Path" fill="#26192A"></path><path d="M58.49,179.516352 C58.48,179.516352 58.46,179.516352 58.45,179.516352 C58.24,179.496352 58.1,179.306352 58.12,179.096352 C58.38,176.916352 59.46,175.616352 59.5,175.556352 C59.63,175.396352 59.87,175.376352 60.03,175.506352 C60.19,175.636352 60.21,175.876352 60.08,176.036352 C60.07,176.046352 59.1,177.236352 58.86,179.176352 C58.84,179.376352 58.68,179.516352 58.49,179.516352 Z" id="Path" fill="#26192A"></path><path d="M88.01,183.956352 C88,183.956352 87.98,183.956352 87.97,183.956352 C87.76,183.936352 87.62,183.746352 87.64,183.536352 C87.9,181.356352 88.98,180.056352 89.03,179.996352 C89.16,179.836352 89.4,179.816352 89.56,179.946352 C89.72,180.076352 89.74,180.316352 89.61,180.476352 C89.6,180.486352 88.63,181.676352 88.39,183.616352 C88.36,183.816352 88.2,183.956352 88.01,183.956352 Z" id="Path" fill="#26192A"></path><path d="M89.31,188.656352 C89.3,188.656352 89.28,188.656352 89.27,188.656352 C89.06,188.636352 88.92,188.446352 88.94,188.236352 C89.2,186.056352 90.28,184.756352 90.32,184.696352 C90.45,184.536352 90.69,184.516352 90.85,184.646352 C91.01,184.776352 91.03,185.016352 90.9,185.176352 C90.89,185.186352 89.92,186.376352 89.68,188.316352 C89.66,188.516352 89.5,188.656352 89.31,188.656352 Z" id="Path" fill="#26192A"></path><path d="M85.14,190.326352 C85.13,190.326352 85.11,190.326352 85.1,190.326352 C84.89,190.306352 84.75,190.116352 84.77,189.906352 C85.03,187.726352 86.11,186.426352 86.15,186.366352 C86.28,186.206352 86.52,186.186352 86.68,186.316352 C86.84,186.446352 86.86,186.686352 86.73,186.846352 C86.72,186.856352 85.75,188.046352 85.51,189.986352 C85.49,190.186352 85.33,190.326352 85.14,190.326352 Z" id="Path" fill="#26192A"></path><path d="M88.01,193.666352 C88,193.666352 87.98,193.666352 87.97,193.666352 C87.76,193.646352 87.62,193.456352 87.64,193.246352 C87.9,191.066352 88.98,189.766352 89.03,189.706352 C89.16,189.546352 89.4,189.526352 89.56,189.656352 C89.72,189.786352 89.74,190.026352 89.61,190.186352 C89.6,190.196352 88.63,191.386352 88.39,193.326352 C88.36,193.526352 88.2,193.666352 88.01,193.666352 Z" id="Path" fill="#26192A"></path><path d="M83.84,197.006352 C83.83,197.006352 83.81,197.006352 83.8,197.006352 C83.59,196.986352 83.45,196.796352 83.47,196.586352 C83.73,194.406352 84.81,193.106352 84.85,193.046352 C84.98,192.886352 85.22,192.866352 85.38,192.996352 C85.54,193.126352 85.56,193.366352 85.43,193.526352 C85.42,193.536352 84.45,194.726352 84.21,196.666352 C84.19,196.866352 84.03,197.006352 83.84,197.006352 Z" id="Path" fill="#26192A"></path><path d="M64.52,170.726352 C64.48,170.726352 64.44,170.716352 64.4,170.706352 C62.33,169.996352 61.28,168.666352 61.23,168.606352 C61.1,168.446352 61.13,168.206352 61.3,168.076352 C61.46,167.946352 61.7,167.976352 61.83,168.136352 C61.84,168.146352 62.8,169.346352 64.65,169.986352 C64.85,170.056352 64.95,170.266352 64.88,170.466352 C64.82,170.636352 64.68,170.726352 64.52,170.726352 Z" id="Path" fill="#26192A"></path><path d="M61.05,163.436352 C60.98,163.436352 60.92,163.416352 60.86,163.386352 C58.98,162.256352 58.24,160.736352 58.21,160.666352 C58.12,160.476352 58.2,160.256352 58.38,160.166352 C58.56,160.076352 58.79,160.156352 58.88,160.336352 C58.89,160.346352 59.57,161.726352 61.25,162.736352 C61.43,162.846352 61.48,163.076352 61.38,163.256352 C61.3,163.366352 61.17,163.436352 61.05,163.436352 Z" id="Path" fill="#26192A"></path><path d="M65.78,163.436352 C65.71,163.436352 65.65,163.416352 65.59,163.386352 C63.71,162.256352 62.97,160.736352 62.94,160.666352 C62.85,160.476352 62.93,160.256352 63.11,160.166352 C63.3,160.076352 63.52,160.156352 63.61,160.336352 C63.62,160.346352 64.3,161.726352 65.98,162.736352 C66.16,162.846352 66.21,163.076352 66.11,163.256352 C66.03,163.366352 65.9,163.436352 65.78,163.436352 Z" id="Path" fill="#26192A"></path><path d="M73.1,166.566352 C73.03,166.566352 72.97,166.546352 72.91,166.516352 C71.03,165.386352 70.29,163.866352 70.26,163.796352 C70.17,163.606352 70.25,163.386352 70.43,163.296352 C70.62,163.206352 70.84,163.286352 70.93,163.466352 C70.94,163.476352 71.62,164.856352 73.3,165.866352 C73.48,165.976352 73.53,166.206352 73.43,166.386352 C73.35,166.506352 73.22,166.566352 73.1,166.566352 Z" id="Path" fill="#26192A"></path><path d="M71.84,171.396352 C71.82,171.396352 71.81,171.396352 71.79,171.396352 C69.62,171.116352 68.32,170.026352 68.27,169.976352 C68.11,169.846352 68.1,169.606352 68.23,169.446352 C68.36,169.286352 68.6,169.266352 68.76,169.406352 C68.77,169.416352 69.95,170.396352 71.89,170.656352 C72.1,170.686352 72.24,170.866352 72.21,171.076352 C72.19,171.256352 72.03,171.396352 71.84,171.396352 Z" id="Path" fill="#26192A"></path><path d="M77.85,171.396352 C77.83,171.396352 77.82,171.396352 77.8,171.396352 C75.63,171.116352 74.33,170.026352 74.28,169.976352 C74.12,169.846352 74.11,169.606352 74.24,169.446352 C74.37,169.286352 74.61,169.266352 74.77,169.406352 C74.78,169.416352 75.96,170.396352 77.9,170.656352 C78.11,170.686352 78.25,170.866352 78.22,171.076352 C78.19,171.256352 78.03,171.396352 77.85,171.396352 Z" id="Path" fill="#26192A"></path><path d="M72.65,175.456352 C72.63,175.456352 72.62,175.456352 72.6,175.456352 C70.43,175.176352 69.13,174.086352 69.08,174.036352 C68.92,173.906352 68.91,173.666352 69.04,173.506352 C69.17,173.346352 69.41,173.326352 69.57,173.466352 C69.58,173.476352 70.76,174.456352 72.7,174.716352 C72.91,174.746352 73.05,174.926352 73.02,175.136352 C72.99,175.316352 72.83,175.456352 72.65,175.456352 Z" id="Path" fill="#26192A"></path><path d="M79.51,175.456352 C79.49,175.456352 79.48,175.456352 79.46,175.456352 C77.29,175.176352 75.99,174.086352 75.94,174.036352 C75.78,173.906352 75.77,173.666352 75.9,173.506352 C76.03,173.346352 76.27,173.326352 76.43,173.466352 C76.44,173.476352 77.62,174.456352 79.56,174.716352 C79.77,174.746352 79.91,174.926352 79.88,175.136352 C79.86,175.316352 79.69,175.456352 79.51,175.456352 Z" id="Path" fill="#26192A"></path><path d="M57.71,166.476352 C57.64,166.476352 57.58,166.456352 57.52,166.426352 C55.64,165.296352 54.9,163.776352 54.87,163.706352 C54.78,163.516352 54.86,163.296352 55.04,163.206352 C55.23,163.116352 55.45,163.196352 55.54,163.376352 C55.55,163.386352 56.23,164.766352 57.91,165.776352 C58.09,165.886352 58.14,166.116352 58.04,166.296352 C57.96,166.406352 57.83,166.476352 57.71,166.476352 Z" id="Path" fill="#26192A"></path><path d="M47.17,154.776352 C47.08,154.776352 47,154.746352 46.92,154.686352 C45.26,153.256352 44.78,151.626352 44.76,151.566352 C44.7,151.366352 44.82,151.156352 45.02,151.106352 C45.22,151.046352 45.43,151.166352 45.48,151.356352 C45.48,151.366352 45.93,152.836352 47.41,154.126352 C47.57,154.256352 47.58,154.496352 47.45,154.656352 C47.38,154.736352 47.27,154.776352 47.17,154.776352 Z" id="Path" fill="#26192A"></path><path d="M51.71,163.146352 C51.62,163.146352 51.54,163.116352 51.46,163.056352 C49.8,161.626352 49.32,160.006352 49.3,159.936352 C49.24,159.736352 49.36,159.526352 49.56,159.476352 C49.76,159.416352 49.97,159.536352 50.02,159.726352 C50.02,159.736352 50.47,161.206352 51.95,162.486352 C52.11,162.616352 52.12,162.856352 51.99,163.016352 C51.92,163.106352 51.81,163.146352 51.71,163.146352 Z" id="Path" fill="#26192A"></path><path d="M49.95,152.366352 C49.86,152.366352 49.78,152.336352 49.7,152.276352 C48.04,150.846352 47.56,149.216352 47.54,149.156352 C47.48,148.956352 47.6,148.746352 47.8,148.696352 C48,148.636352 48.21,148.756352 48.26,148.946352 C48.26,148.956352 48.71,150.426352 50.19,151.716352 C50.35,151.846352 50.36,152.086352 50.23,152.246352 C50.16,152.316352 50.05,152.366352 49.95,152.366352 Z" id="Path" fill="#26192A"></path><path d="M54.32,160.366352 C54.23,160.366352 54.13,160.326352 54.06,160.256352 C52.49,158.726352 52.1,157.086352 52.09,157.016352 C52.05,156.816352 52.17,156.616352 52.37,156.566352 C52.58,156.526352 52.77,156.646352 52.82,156.846352 C52.82,156.856352 53.18,158.356352 54.58,159.716352 C54.73,159.856352 54.73,160.096352 54.59,160.246352 C54.52,160.336352 54.42,160.366352 54.32,160.366352 Z" id="Path" fill="#26192A"></path><path d="M116.73,160.066352 C116.7,160.066352 116.67,160.066352 116.65,160.056352 C116.45,160.006352 116.32,159.806352 116.37,159.606352 C116.81,157.686352 116.3,156.256352 116.3,156.236352 C116.23,156.046352 116.33,155.826352 116.52,155.756352 C116.72,155.686352 116.93,155.786352 117,155.976352 C117.02,156.046352 117.59,157.636352 117.1,159.776352 C117.05,159.946352 116.9,160.066352 116.73,160.066352 Z" id="Path" fill="#26192A"></path><path d="M114.55,168.756352 C114.51,168.756352 114.46,168.746352 114.42,168.736352 C114.23,168.666352 114.13,168.446352 114.2,168.256352 C114.9,166.426352 114.59,164.926352 114.59,164.906352 C114.55,164.706352 114.68,164.506352 114.88,164.456352 C115.08,164.416352 115.28,164.536352 115.32,164.746352 C115.34,164.816352 115.68,166.466352 114.9,168.516352 C114.84,168.666352 114.7,168.756352 114.55,168.756352 Z" id="Path" fill="#26192A"></path><path d="M113.27,160.266352 C113.26,160.266352 113.24,160.266352 113.23,160.266352 C113.02,160.246352 112.88,160.056352 112.9,159.846352 C113.13,157.886352 112.46,156.516352 112.46,156.506352 C112.37,156.316352 112.44,156.096352 112.63,156.006352 C112.81,155.916352 113.04,155.986352 113.13,156.176352 C113.16,156.236352 113.9,157.756352 113.65,159.936352 C113.62,160.126352 113.46,160.266352 113.27,160.266352 Z" id="Path" fill="#26192A"></path><path d="M87.08,79.9363519 C87.06,79.9363519 87.04,79.9363519 87.03,79.9363519 C86.82,79.9063519 86.68,79.7163519 86.71,79.5163519 C86.99,77.5763519 86.36,76.1763519 86.35,76.1663519 C86.26,75.9763519 86.35,75.7563519 86.53,75.6663519 C86.72,75.5763519 86.94,75.6563519 87.03,75.8463519 C87.06,75.9063519 87.76,77.4463519 87.45,79.6163519 C87.42,79.7963519 87.26,79.9363519 87.08,79.9363519 Z" id="Path" fill="#26192A"></path><path d="M91.82,81.7163519 C91.8,81.7163519 91.78,81.7163519 91.77,81.7163519 C91.56,81.6863519 91.42,81.4963519 91.45,81.2963519 C91.73,79.3463519 91.1,77.9563519 91.09,77.9463519 C91,77.7563519 91.08,77.5363519 91.27,77.4463519 C91.45,77.3563519 91.68,77.4363519 91.77,77.6263519 C91.8,77.6863519 92.5,79.2263519 92.19,81.3963519 C92.17,81.5763519 92,81.7163519 91.82,81.7163519 Z" id="Path" fill="#26192A"></path><path d="M90.63,67.3163519 C90.61,67.3163519 90.59,67.3163519 90.58,67.3163519 C90.37,67.2863519 90.23,67.0963519 90.26,66.8963519 C90.54,64.9463519 89.91,63.5563519 89.9,63.5463519 C89.81,63.3563519 89.89,63.1363519 90.08,63.0463519 C90.26,62.9563519 90.49,63.0363519 90.58,63.2263519 C90.61,63.2863519 91.31,64.8263519 91,66.9963519 C90.97,67.1863519 90.81,67.3163519 90.63,67.3163519 Z" id="Path" fill="#26192A"></path><path d="M33.61,81.7663519 C33.56,81.7663519 33.5,81.7563519 33.45,81.7263519 C31.69,80.8763519 30.16,81.0563519 30.15,81.0563519 C29.94,81.0763519 29.76,80.9363519 29.73,80.7263519 C29.7,80.5163519 29.85,80.3363519 30.05,80.3063519 C30.12,80.2963519 31.8,80.0963519 33.77,81.0463519 C33.96,81.1363519 34.03,81.3563519 33.94,81.5463519 C33.89,81.6963519 33.75,81.7663519 33.61,81.7663519 Z" id="Path" fill="#26192A"></path><path d="M37.05,79.8563519 C36.97,79.8563519 36.88,79.8263519 36.82,79.7763519 C35.29,78.5563519 33.77,78.3863519 33.75,78.3863519 C33.54,78.3663519 33.39,78.1863519 33.41,77.9763519 C33.43,77.7663519 33.6,77.6263519 33.82,77.6363519 C33.89,77.6463519 35.57,77.8163519 37.29,79.1863519 C37.45,79.3163519 37.48,79.5563519 37.35,79.7163519 C37.27,79.8163519 37.16,79.8563519 37.05,79.8563519 Z" id="Path" fill="#26192A"></path><path d="M131.51,208.036352 C131.47,208.036352 131.43,208.026352 131.39,208.016352 C131.19,207.956352 131.08,207.746352 131.15,207.546352 C139.58,181.416352 121.6,162.226352 121.41,162.036352 C121.27,161.886352 121.27,161.646352 121.42,161.506352 C121.57,161.366352 121.81,161.366352 121.95,161.516352 C122.14,161.706352 140.43,181.216352 131.86,207.776352 C131.82,207.936352 131.67,208.036352 131.51,208.036352 Z" id="Path" fill="#26192A"></path></g></g></g></g></svg>