<svg xmlns="http://www.w3.org/2000/svg" xmlns:xlink="http://www.w3.org/1999/xlink" width="174px" height="163px" viewBox="0 0 174 163"><title>lion</title><g id="Home-1" stroke="none" stroke-width="1" fill="none" fill-rule="evenodd"><g id="De-bebe---Home-1-" transform="translate(-1189.000000, -583.000000)" fill-rule="nonzero"><g id="Hero" transform="translate(-4.000000, 90.000000)"><g id="lion" transform="translate(1193.000000, 493.000000)"><path d="M43.4493355,115 C43.4493355,115 45.4493355,155.79 40.9593355,160.18 C37.8593355,163.21 56.0693355,162.95 57.1893355,160.18 C60.9593355,150.86 63.3093355,107.93 63.3093355,107.93 C63.3093355,107.93 48.4193355,106.56 43.4493355,115 Z" id="Path" fill="#EECE78"></path><path d="M66.8293355,115 C66.8293355,115 68.8293355,155.79 64.3393355,160.18 C61.2393355,163.21 79.4493355,162.95 80.5693355,160.18 C84.3393355,150.86 86.6893355,107.93 86.6893355,107.93 C86.6893355,107.93 71.8093355,106.56 66.8293355,115 Z" id="Path" fill="#EECE78"></path><path d="M113.759335,115 C113.759335,115 115.759335,155.79 111.269335,160.18 C108.169335,163.21 126.379335,162.95 127.499335,160.18 C131.269335,150.86 133.619335,107.93 133.619335,107.93 C133.619335,107.93 118.729335,106.56 113.759335,115 Z" id="Path" fill="#EECE78"></path><path d="M137.139335,115 C137.139335,115 139.139335,155.79 134.649335,160.18 C131.549335,163.21 149.759335,162.95 150.879335,160.18 C154.649335,150.86 156.999335,107.93 156.999335,107.93 C156.999335,107.93 142.119335,106.56 137.139335,115 Z" id="Path" fill="#EECE78"></path><path d="M49.8993355,101.29 C49.8993355,101.29 45.1693355,134.77 55.5593355,136.09 C65.9393355,137.42 150.129335,140.28 153.679335,127.43 C157.219335,114.58 153.679335,69.32 89.8693355,72.11 C37.1593355,74.42 49.8993355,101.29 49.8993355,101.29 Z" id="Path" fill="#EECE78"></path><g id="Group"><path d="M72.1493355,7.35 C78.3993355,10.12 74.1293355,22.42 72.1493355,18.65 C70.1693355,14.88 78.8293355,10.21 83.8793355,11.5 C95.3993355,14.44 92.0793355,27.62 88.7493355,25.85 C85.4293355,24.08 88.7893355,14.62 96.0993355,19.05 C103.409335,23.48 106.689335,36.6 98.4893355,37.71 C90.2893355,38.82 102.029335,22.2 106.689335,31.73 C111.339335,41.26 105.359335,54.99 99.8193355,51 C94.2793355,47.01 105.359335,39.28 106.239335,53.56 C107.129335,67.84 105.029335,66.54 102.919335,64.51 C98.0593355,59.85 109.239335,57.91 108.349335,69.05 C107.459335,80.19 96.0493355,90.21 94.7193355,81.79 C93.3893355,73.37 103.359335,74.85 103.139335,84.97 C102.919335,95.09 92.2793355,104.83 89.1793355,97.74 C86.0793355,90.65 101.369335,92.2 97.8193355,102.17 C94.2693355,112.14 69.6993355,115.91 72.1293355,103.94 C74.5593355,91.98 89.4193355,112.8 72.1293355,115.9 C54.8393355,119 51.7393355,104.38 57.4993355,104.6 C63.2593355,104.82 65.6993355,120.77 51.7393355,118.11 C37.7793355,115.45 31.5793355,99.72 38.9993355,101.49 C46.4193355,103.26 41.2593355,117 31.9893355,112.57 C22.7193355,108.14 25.2193355,88.63 28.3993355,92.29 C31.5793355,95.95 24.0493355,108.26 13.8593355,98.78 C3.66933548,89.3 19.3993355,78.24 20.2793355,82.88 C21.1693355,87.52 -0.990664517,87.22 2.32933548,72.09 C5.64933548,56.96 18.4993355,64.93 13.1893355,68.03 C7.86933548,71.13 -7.19066452,54.21 4.98933548,46.39 C17.1793355,38.56 19.3893355,55.85 11.8593355,54.52 C4.32933548,53.19 0.119335483,31.36 10.7493355,29.65 C21.3793355,27.94 27.3693355,35.33 20.7193355,35.51 C14.0693355,35.69 9.63933548,15.09 21.8293355,13.98 C34.0193355,12.87 37.6193355,23.95 30.4693355,24.17 C23.3193355,24.39 28.8993355,4.26 36.9793355,4.93 C45.0693355,5.59 52.8393355,17.08 44.4193355,17.75 C35.9993355,18.42 47.9593355,-3.3 57.7093355,0.91 C67.4593355,5.12 64.4293355,14.55 60.6693355,14.55 C56.9293355,14.57 58.9193355,1.5 72.1493355,7.35 Z" id="Path" fill="#FFFFFF"></path><path d="M54.6893355,118.8 C53.7593355,118.8 52.7493355,118.7 51.6893355,118.49 C47.3293355,117.66 43.2093355,115.43 40.0393355,112.2 C38.7593355,113.27 37.2293355,113.83 35.5793355,113.83 L35.5793355,113.83 C34.3693355,113.83 33.1093355,113.52 31.8493355,112.92 C26.9993355,110.6 25.6793355,104.6 25.3193355,101.55 C24.0993355,102.3 22.7293355,102.69 21.3293355,102.69 C21.3293355,102.69 21.3293355,102.69 21.3293355,102.69 C18.7893355,102.69 16.1993355,101.48 13.6193355,99.08 C7.62933548,93.51 10.6693355,87.94 12.3393355,85.71 C10.0893355,85.36 5.86933548,84.27 3.39933548,80.81 C1.69933548,78.44 1.22933548,75.48 1.98933548,72.03 C2.63933548,69.09 3.67933548,66.79 5.09933548,65.2 C2.42933548,62.5 -0.410664517,57.89 0.0493354828,53.34 C0.339335483,50.37 1.94933548,47.93 4.80933548,46.09 L4.87933548,46.05 C3.44933548,40.98 3.77933548,35.72 5.74933548,32.6 C6.91933548,30.75 8.58933548,29.64 10.7093355,29.29 C12.0093355,29.08 13.3193355,29 14.5493355,29.04 C13.5493355,25.63 13.2593355,20.69 15.5493355,17.2 C16.9493355,15.07 19.0493355,13.87 21.8093355,13.62 C23.9393355,13.43 25.9393355,13.59 27.7293355,14.1 C29.3093355,9.13 32.7793355,4.23 37.0293355,4.57 C39.3893355,4.76 41.8693355,5.85 44.0693355,7.64 C46.5793355,3.88 50.7193355,0 55.1093355,0 C56.0693355,0 56.9993355,0.19 57.8793355,0.57 C60.6893355,1.78 62.7293355,3.56 63.7993355,5.71 C66.1493355,5.12 69.0393355,5.55 72.2893355,6.99 C74.3193355,7.89 75.5393355,9.84 75.7493355,12.52 C78.4493355,11.12 81.7093355,10.54 83.9593355,11.12 C88.7993355,12.35 90.8193355,15.23 91.6593355,17.54 C93.0893355,17.33 94.6593355,17.72 96.2893355,18.71 C99.4793355,20.64 102.179335,24.42 103.219335,28.39 C104.369335,28.51 105.879335,29.19 107.019335,31.54 C109.969335,37.58 108.789335,45.3 105.939335,49.38 C106.289335,50.55 106.509335,51.94 106.609335,53.52 C106.829335,57.11 106.879335,59.83 106.749335,61.82 C107.859335,62.93 109.039335,65.07 108.719335,69.06 C108.299335,74.31 105.619335,79.02 103.209335,81.74 C103.429335,82.74 103.539335,83.82 103.509335,84.96 C103.399335,90.03 100.819335,94.56 98.3793355,97.18 C98.9093355,98.68 98.8393355,100.4 98.1693355,102.28 C96.0893355,108.13 86.8093355,112.02 79.8093355,111.76 C78.4993355,114.05 75.8793355,115.6 72.1893355,116.26 C68.0393355,117 64.3193355,116.79 61.2993355,115.64 C60.3693355,117.16 58.4693355,118.8 54.6893355,118.8 Z M40.5893355,111.7 C43.6493355,114.81 47.6293355,116.96 51.8293355,117.76 C55.9793355,118.55 59.0593355,117.7 60.6193355,115.37 C56.1493355,113.38 54.0393355,109.42 54.5793355,106.64 C54.8693355,105.13 55.9293355,104.23 57.3893355,104.23 L57.5293355,104.23 C58.9993355,104.29 60.3793355,105.29 61.3293355,106.98 C62.6893355,109.43 62.8193355,112.65 61.6893355,114.99 C64.5693355,116.06 68.1093355,116.24 72.0793355,115.53 C75.3593355,114.94 77.7293355,113.63 78.9793355,111.72 C76.0993355,111.48 73.9393355,110.53 72.7093355,108.95 C71.6693355,107.62 71.3593355,105.91 71.7693355,103.86 C72.4693355,100.4 74.1293355,99.89 75.0593355,99.89 C76.4993355,99.89 78.1293355,101.1 79.3093355,103.05 C80.5493355,105.1 81.3793355,108.22 80.1893355,111.03 C86.8793355,111.12 95.5393355,107.49 97.4793355,102.04 C98.0393355,100.47 98.1393355,99.05 97.7993355,97.8 C95.9793355,99.57 94.0893355,100.53 92.4493355,100.53 C92.4493355,100.53 92.4493355,100.53 92.4493355,100.53 C91.3393355,100.53 89.8093355,100.07 88.8493355,97.88 C88.0993355,96.16 88.4293355,95.06 88.8393355,94.43 C89.4493355,93.5 90.6493355,92.97 92.1293355,92.97 C94.1893355,92.97 96.8393355,94.06 98.0693355,96.43 C100.339335,93.88 102.669335,89.65 102.779335,84.95 C102.799335,84.06 102.739335,83.21 102.599335,82.42 C100.789335,84.25 98.9393355,85.29 97.4593355,85.29 C96.5093355,85.29 94.8393355,84.84 94.3693355,81.84 C93.9593355,79.22 94.6193355,77.78 95.2593355,77.04 C95.8693355,76.33 96.7293355,75.94 97.6793355,75.94 C99.5493355,75.94 101.929335,77.49 102.999335,80.87 C105.249335,78.2 107.619335,73.84 107.999335,69.01 C108.209335,66.42 107.739335,64.28 106.679335,62.87 C106.499335,64.52 106.069335,66.11 104.879335,66.11 C104.129335,66.11 103.349335,65.42 102.679335,64.77 C101.129335,63.28 101.249335,62.18 101.459335,61.66 C101.759335,60.9 102.609335,60.43 103.649335,60.43 C104.469335,60.43 105.309335,60.71 106.049335,61.23 C106.139335,59.33 106.079335,56.76 105.879335,53.57 C105.799335,52.29 105.629335,51.13 105.379335,50.13 C104.299335,51.4 103.089335,52.07 101.849335,52.07 C101.849335,52.07 101.849335,52.07 101.849335,52.07 C101.079335,52.07 100.329335,51.81 99.6093355,51.29 C98.1693355,50.25 97.5993355,48.84 98.0593355,47.42 C98.5293355,45.97 99.9793355,44.92 101.509335,44.92 C102.359335,44.92 104.389335,45.29 105.639335,48.5 C108.079335,44.55 109.029335,37.38 106.349335,31.89 C105.589335,30.33 104.599335,29.43 103.409335,29.2 C103.949335,31.84 103.659335,34.15 102.559335,35.75 C101.669335,37.05 100.319335,37.83 98.5393355,38.08 C96.6993355,38.32 95.8893355,37.67 95.5693355,37.12 C95.0293355,36.19 95.2693355,34.72 96.2093355,33.09 C97.4593355,30.93 99.9093355,28.61 102.449335,28.41 C101.409335,24.69 98.8793355,21.18 95.9093355,19.38 C94.4793355,18.52 93.1293355,18.15 91.8993355,18.3 C92.6793355,21.12 92.1093355,23.94 91.0893355,25.35 C90.5893355,26.04 89.9993355,26.4 89.3693355,26.4 L89.3693355,26.4 C89.0993355,26.4 88.8293355,26.33 88.5693355,26.19 C87.4593355,25.6 86.9093355,24.19 87.1393355,22.53 C87.3893355,20.67 88.6793355,18.45 90.9293355,17.74 C90.1293355,15.62 88.2393355,13.01 83.7793355,11.87 C81.6193355,11.32 78.3793355,11.95 75.7893355,13.38 C75.7993355,15.7 75.0493355,18.18 74.0293355,19.23 C73.6993355,19.57 73.3593355,19.74 73.0093355,19.74 L73.0093355,19.74 C72.6793355,19.74 72.2093355,19.58 71.8093355,18.83 C70.8293355,16.96 72.0593355,14.72 75.0293355,12.95 C74.9593355,11.36 74.4393355,8.78 71.9893355,7.7 C68.9593355,6.36 66.2693355,5.93 64.1093355,6.43 C64.9793355,8.68 64.7893355,11.25 63.5993355,13.09 C62.8393355,14.27 61.7793355,14.95 60.6893355,14.95 C59.6393355,14.95 58.8693355,14.12 58.6693355,12.78 C58.3593355,10.66 59.5393355,7.23 63.0693355,5.96 C62.0593355,4.01 60.1693355,2.4 57.5793355,1.28 C56.7893355,0.94 55.9593355,0.77 55.0993355,0.77 C50.9693355,0.77 46.9293355,4.69 44.6293355,8.15 C47.4393355,10.67 48.9393355,13.79 48.2793355,15.81 C47.9693355,16.76 47.0493355,17.94 44.4593355,18.14 C42.7593355,18.27 41.9493355,17.51 41.5993355,16.87 C40.6593355,15.15 41.4693355,11.8 43.6493355,8.29 C41.5493355,6.56 39.1893355,5.51 36.9593355,5.33 C33.1393355,4.99 29.8793355,9.78 28.4393355,14.33 C32.7993355,15.85 34.8093355,19.15 34.4693355,21.57 C34.2193355,23.38 32.7293355,24.5 30.4893355,24.57 L30.3593355,24.57 C30.3593355,24.57 30.3593355,24.57 30.3593355,24.57 C29.2993355,24.57 28.4193355,24.14 27.8193355,23.33 C26.5993355,21.7 26.4893355,18.46 27.5093355,14.83 C25.8093355,14.35 23.8993355,14.2 21.8693355,14.38 C19.3593355,14.61 17.4393355,15.7 16.1693355,17.63 C14.3393355,20.41 14.0193355,24.89 15.3393355,29.1 C20.4393355,29.5 23.9293355,31.97 23.8993355,33.99 C23.8893355,34.54 23.5593355,35.83 20.7393355,35.91 C20.7393355,35.91 20.6393355,35.91 20.6393355,35.91 L20.6393355,35.91 C18.3093355,35.91 16.0793355,33.58 14.7793355,29.81 C13.5193355,29.75 12.1593355,29.82 10.8093355,30.04 C8.90933548,30.35 7.40933548,31.34 6.35933548,33.01 C4.52933548,35.92 4.20933548,40.84 5.51933548,45.65 C7.40933548,44.55 9.16933548,44 10.7493355,44 C14.5393355,44 16.5793355,47.25 16.5793355,50.3 C16.5793355,52.63 15.3693355,54.99 12.6593355,54.99 C12.3793355,54.99 12.0893355,54.96 11.7893355,54.91 C9.06933548,54.43 6.52933548,51.34 5.07933548,46.8 C2.47933548,48.5 1.02933548,50.73 0.769335483,53.42 C0.339335483,57.71 3.04933548,62.09 5.59933548,64.67 C7.23933548,63.13 8.92933548,62.8 10.0793355,62.8 C12.2693355,62.8 14.3193355,64.05 14.7493355,65.64 C15.0393355,66.71 14.5393355,67.71 13.3693355,68.39 C11.5293355,69.46 8.47933548,68.4 5.60933548,65.74 C4.28933548,67.23 3.30933548,69.4 2.68933548,72.2 C1.97933548,75.44 2.40933548,78.2 3.97933548,80.39 C6.45933548,83.85 10.8693355,84.79 12.8593355,85.04 C14.7093355,82.91 17.1493355,81.44 18.8393355,81.44 C19.8093355,81.44 20.4693355,81.95 20.6393355,82.84 C20.7393355,83.37 20.5993355,83.88 20.2393355,84.31 C19.4093355,85.31 17.3993355,85.91 14.8593355,85.91 C14.3093355,85.91 13.7393355,85.88 13.1693355,85.82 C11.7293355,87.59 8.21933548,93.06 14.0993355,98.53 C16.5293355,100.79 18.9593355,101.94 21.2993355,101.94 C21.2993355,101.94 21.2993355,101.94 21.2993355,101.94 C22.6793355,101.94 24.0293355,101.52 25.2093355,100.72 C24.9093355,96.94 25.5193355,93.2 26.6493355,91.96 C27.2593355,91.3 28.0293355,91.33 28.6693355,92.07 C29.3293355,92.83 29.6093355,93.96 29.4593355,95.25 C29.2093355,97.39 27.8593355,99.66 25.9893355,101.08 C26.2593355,103.84 27.3993355,109.99 32.1393355,112.25 C34.8393355,113.54 37.4893355,113.31 39.4893355,111.66 C36.3993355,108.28 34.8093355,104.4 35.6993355,102.33 C35.9593355,101.72 36.5593355,101 37.9293355,101 C38.2793355,101 38.6693355,101.05 39.0793355,101.15 C40.9593355,101.6 42.2593355,102.83 42.7193355,104.62 C43.3493355,106.93 42.4593355,109.79 40.5893355,111.7 Z M57.3893355,104.98 C55.8893355,104.98 55.4393355,106.11 55.3093355,106.78 C54.8993355,108.9 56.3993355,112.71 60.9893355,114.72 C62.2193355,112.27 61.6993355,109.22 60.6693355,107.36 C59.8593355,105.9 58.6993355,105.04 57.4993355,104.99 L57.3893355,104.98 Z M37.9493355,101.75 C37.1793355,101.75 36.6593355,102.05 36.4093355,102.63 C35.7493355,104.17 36.9393355,107.74 40.0693355,111.16 C41.7593355,109.43 42.5593355,106.87 42.0193355,104.81 C41.7393355,103.74 40.9793355,102.37 38.9293355,101.88 C38.5693355,101.79 38.2493355,101.75 37.9493355,101.75 Z M75.0693355,100.65 C73.8593355,100.65 72.9493355,101.85 72.5093355,104.02 C72.1393355,105.84 72.4093355,107.35 73.2993355,108.5 C74.4193355,109.94 76.5793355,110.83 79.3793355,111 C80.6393355,108.38 79.8493355,105.39 78.6693355,103.44 C77.6593355,101.75 76.2393355,100.65 75.0693355,100.65 Z M27.6293355,92.23 C27.5093355,92.23 27.3793355,92.31 27.2393355,92.46 C26.4093355,93.37 25.7293355,96.45 25.9593355,100.17 C27.4693355,98.87 28.5393355,96.96 28.7493355,95.16 C28.8793355,94.08 28.6593355,93.15 28.1393355,92.56 C27.9993355,92.41 27.8093355,92.23 27.6293355,92.23 Z M92.1293355,93.74 C90.8993355,93.74 89.9293355,94.15 89.4693355,94.86 C89.0293355,95.53 89.0493355,96.48 89.5393355,97.6 C90.1793355,99.06 91.1593355,99.8 92.4493355,99.8 C92.4493355,99.8 92.4493355,99.8 92.4493355,99.8 C93.9393355,99.8 95.7793355,98.8 97.5193355,97.04 C96.4993355,94.77 94.0393355,93.74 92.1293355,93.74 Z M13.8093355,85.12 C16.4793355,85.31 18.9093355,84.76 19.6893355,83.83 C19.9093355,83.56 19.9893355,83.29 19.9293355,82.97 C19.8693355,82.63 19.6793355,82.18 18.8693355,82.18 C17.6793355,82.18 15.6293355,83.19 13.8093355,85.12 Z M97.6793355,76.7 C96.9393355,76.7 96.2993355,76.99 95.8293355,77.54 C95.0793355,78.42 94.8193355,79.91 95.1093355,81.74 C95.3993355,83.61 96.1993355,84.56 97.4593355,84.56 C98.8193355,84.56 100.659335,83.44 102.409335,81.56 C101.529335,78.22 99.3593355,76.7 97.6793355,76.7 Z M6.15933548,65.19 C8.72933548,67.57 11.4993355,68.62 13.0193355,67.73 C13.8993355,67.22 14.2493355,66.56 14.0493355,65.83 C13.7493355,64.73 12.1593355,63.55 10.0993355,63.55 C9.08933548,63.55 7.60933548,63.84 6.15933548,65.19 Z M103.649335,61.19 C102.909335,61.19 102.339335,61.48 102.149335,61.95 C101.909335,62.54 102.289335,63.38 103.199335,64.24 C103.579335,64.61 104.379335,65.37 104.879335,65.37 C105.199335,65.37 105.769335,64.94 105.999335,62.14 C105.299335,61.53 104.449335,61.19 103.649335,61.19 Z M5.75933548,46.39 C7.10933548,50.76 9.45933548,53.73 11.9393355,54.17 C12.1893355,54.21 12.4393355,54.24 12.6793355,54.24 C14.8693355,54.24 15.8493355,52.26 15.8493355,50.3 C15.8493355,47.54 14.0993355,44.75 10.7693355,44.75 C9.27933548,44.75 7.59933548,45.3 5.75933548,46.39 Z M101.519335,45.67 C100.299335,45.67 99.1493355,46.5 98.7793355,47.66 C98.4293355,48.75 98.8893355,49.86 100.049335,50.69 C100.639335,51.11 101.239335,51.33 101.849335,51.33 C101.849335,51.33 101.849335,51.33 101.849335,51.33 C103.249335,51.33 104.389335,50.24 105.129335,49.26 C104.369335,46.98 103.059335,45.67 101.519335,45.67 Z M102.639335,29.14 C100.429335,29.24 98.0793355,31.36 96.8693355,33.46 C96.0793355,34.83 95.8393355,36.06 96.2293355,36.74 C96.5493355,37.29 97.2893355,37.49 98.4493355,37.34 C100.009335,37.13 101.189335,36.45 101.949335,35.34 C102.969335,33.85 103.209335,31.66 102.639335,29.14 Z M15.6093355,29.87 C16.7993355,33.1 18.7393355,35.16 20.6493355,35.16 L20.6493355,35.16 C22.2293355,35.12 23.1393355,34.67 23.1493355,33.97 C23.1793355,32.55 20.2693355,30.32 15.6093355,29.87 Z M91.1693355,18.44 C89.2293355,19.05 88.1093355,20.99 87.8893355,22.62 C87.7093355,23.97 88.0993355,25.08 88.9293355,25.52 C89.4493355,25.8 89.9993355,25.56 90.4893355,24.9 C91.4093355,23.63 91.9093355,21.04 91.1693355,18.44 Z M28.2293355,15.05 C27.2893355,18.41 27.3593355,21.45 28.4293355,22.88 C28.8993355,23.5 29.5493355,23.82 30.3693355,23.82 L30.3693355,23.82 L30.4693355,23.82 C32.3393355,23.76 33.5293355,22.91 33.7293355,21.47 C34.0293355,19.33 32.0593355,16.39 28.2293355,15.05 Z M75.0393355,13.83 C73.1493355,15.06 71.6193355,16.83 72.4793355,18.48 C72.5793355,18.67 72.7793355,18.99 73.0093355,18.99 C73.1493355,18.99 73.3193355,18.89 73.4993355,18.71 C74.2293355,17.96 74.9493355,15.99 75.0393355,13.83 Z M44.2393355,8.78 C42.2693355,11.99 41.4793355,15.06 42.2693355,16.51 C42.6393355,17.19 43.3493355,17.48 44.4193355,17.39 C45.6193355,17.3 47.1493355,16.9 47.5793355,15.57 C48.1393355,13.87 46.7393355,11.06 44.2393355,8.78 Z M63.3893355,6.63 C60.2093355,7.74 59.1493355,10.79 59.4193355,12.66 C59.4693355,13.02 59.7193355,14.19 60.6993355,14.19 C61.5293355,14.19 62.3593355,13.64 62.9793355,12.68 C63.7993355,11.41 64.3693355,9.09 63.3893355,6.63 Z" id="Shape" fill="#26192A"></path></g><path d="M28.4193355,46.42 C28.4193355,46.42 30.4093355,94.9 57.3293355,92.21 C84.2493355,89.52 86.2393355,34.17 79.2593355,28.94 C72.2793355,23.71 73.2793355,46.42 73.2793355,46.42 L36.3893355,46.42 C36.3893355,46.42 40.3793355,31.43 34.3993355,31.56 C28.4193355,31.68 28.4193355,46.42 28.4193355,46.42 Z" id="Path" fill="#EECE78"></path><path d="M47.6393355,69.05 L62.1493355,69.05 C62.1493355,69.05 58.4393355,75.98 54.8993355,76.63 C51.3593355,77.28 47.6393355,69.05 47.6393355,69.05 Z" id="Path" fill="#26192A"></path><path d="M77.4593355,45.73 C77.2893355,45.73 77.1393355,45.62 77.0993355,45.45 C75.2893355,38.7 78.8293355,35.38 78.9793355,35.24 C79.1293355,35.1 79.3693355,35.11 79.5093355,35.26 C79.6493355,35.41 79.6393355,35.65 79.4893355,35.79 C79.3493355,35.92 76.1393355,38.96 77.8293355,45.25 C77.8793355,45.45 77.7693355,45.66 77.5593355,45.71 C77.5193355,45.73 77.4893355,45.73 77.4593355,45.73 Z" id="Path" fill="#26192A"></path><path d="M33.7793355,45.73 C33.7493355,45.73 33.7293355,45.73 33.6993355,45.72 C33.4993355,45.68 33.3693355,45.48 33.4093355,45.28 C34.6393355,39.42 31.7393355,35.8 31.7193355,35.76 C31.5893355,35.6 31.6093355,35.36 31.7693355,35.23 C31.9293355,35.1 32.1693355,35.12 32.2993355,35.28 C32.4293355,35.44 35.4593355,39.2 34.1493355,45.43 C34.1093355,45.61 33.9493355,45.73 33.7793355,45.73 Z" id="Path" fill="#26192A"></path><path d="M48.1793355,69.7 C47.9793355,69.7 47.8093355,69.54 47.7993355,69.33 L47.2493355,46.42 C47.2493355,46.21 47.4093355,46.04 47.6193355,46.04 C47.8493355,46.04 47.9993355,46.2 47.9993355,46.41 L48.5493355,69.32 C48.5593355,69.52 48.3993355,69.69 48.1793355,69.7 C48.1893355,69.7 48.1893355,69.7 48.1793355,69.7 Z" id="Path" fill="#26192A"></path><path d="M61.5993355,69.43 C61.5893355,69.43 61.5893355,69.43 61.5793355,69.43 C61.3693355,69.42 61.2093355,69.24 61.2293355,69.04 L62.4193355,46.41 C62.4293355,46.2 62.6093355,46.02 62.8093355,46.06 C63.0193355,46.07 63.1793355,46.25 63.1593355,46.45 L61.9693355,69.08 C61.9693355,69.27 61.7993355,69.43 61.5993355,69.43 Z" id="Path" fill="#26192A"></path><path d="M39.1793355,63.62 C39.0693355,63.62 38.9793355,63.6 38.8993355,63.57 C37.3793355,63.05 36.7793355,57.67 36.6293355,56.03 C36.6093355,55.82 36.7593355,55.64 36.9693355,55.62 C37.1693355,55.58 37.3593355,55.75 37.3793355,55.96 C37.6593355,59.08 38.4093355,62.61 39.1393355,62.86 C39.2393355,62.9 39.3893355,62.76 39.4693355,62.67 C41.2593355,60.74 40.5093355,56.1 40.4993355,56.06 C40.4693355,55.86 40.5993355,55.66 40.8093355,55.63 C41.0193355,55.6 41.2093355,55.73 41.2393355,55.94 C41.2693355,56.15 42.0493355,60.98 40.0193355,63.19 C39.7093355,63.52 39.4093355,63.62 39.1793355,63.62 Z" id="Path" fill="#26192A"></path><path d="M70.2893355,63.62 C70.1793355,63.62 70.0893355,63.6 70.0093355,63.57 C68.4893355,63.05 67.8893355,57.67 67.7393355,56.03 C67.7193355,55.82 67.8693355,55.64 68.0793355,55.62 C68.2793355,55.58 68.4693355,55.75 68.4893355,55.96 C68.7693355,59.08 69.5193355,62.61 70.2493355,62.86 C70.3493355,62.9 70.4993355,62.76 70.5793355,62.67 C72.3693355,60.74 71.6193355,56.1 71.6093355,56.06 C71.5793355,55.86 71.7093355,55.66 71.9193355,55.63 C72.1293355,55.6 72.3193355,55.73 72.3493355,55.94 C72.3793355,56.15 73.1593355,60.98 71.1293355,63.19 C70.8193355,63.52 70.5293355,63.62 70.2893355,63.62 Z" id="Path" fill="#26192A"></path><path d="M55.1093355,84.91 C55.0293355,84.91 54.9493355,84.91 54.8593355,84.9 C50.5793355,84.56 49.5593355,77.78 49.5193355,77.49 C49.4893355,77.28 49.6293355,77.1 49.8393355,77.07 C50.0393355,77.03 50.2393355,77.18 50.2593355,77.39 C50.2693355,77.45 51.2293355,83.87 54.9093355,84.16 C58.5693355,84.46 60.2993355,76 60.3093355,75.92 C60.3493355,75.72 60.5493355,75.59 60.7493355,75.63 C60.9493355,75.67 61.0793355,75.87 61.0393355,76.07 C60.9893355,76.42 59.2393355,84.91 55.1093355,84.91 Z" id="Path" fill="#26192A"></path><path d="M54.8893355,84.9 C54.6793355,84.9 54.5093355,84.73 54.5093355,84.52 L54.5093355,72.11 C54.5093355,71.9 54.6793355,71.73 54.8893355,71.73 C55.0993355,71.73 55.2693355,71.9 55.2693355,72.11 L55.2693355,84.52 C55.2693355,84.73 55.0993355,84.9 54.8893355,84.9 Z" id="Path" fill="#26192A"></path><path d="M148.379335,96.08 C148.379335,96.08 156.999335,113.77 164.749335,107.94 C173.689335,101.22 161.999335,83.14 161.999335,83.14 C161.999335,83.14 164.759335,79.41 166.469335,80.8 C168.509335,82.47 181.129335,109.73 167.829335,116.39 C154.529335,123.05 146.049335,110.59 146.049335,110.59 L148.379335,96.08 Z" id="Path" fill="#EECE78"></path><path d="M161.339335,83.82 C159.429335,83.82 150.719335,83.63 148.319335,80.23 C147.609335,79.23 147.499335,78.04 148.009335,76.71 C148.429335,75.6 149.439335,75.14 150.839335,75.36 C150.379335,74.07 150.389335,72.85 150.899335,71.82 C151.429335,70.75 152.399335,70.38 153.659335,70.76 C154.139335,70.91 154.659335,71.17 155.189335,71.51 C155.189335,69.99 155.649335,68.56 156.949335,67.82 C157.619335,67.44 158.649335,67.25 159.849335,68.44 C160.299335,66.8 161.229335,65.9 162.529335,65.88 C163.069335,65.88 163.599335,66.09 164.059335,66.54 C166.809335,69.24 166.839335,80.04 166.839335,80.49 C166.839335,80.7 166.669335,80.87 166.459335,80.87 C166.249335,80.87 166.079335,80.7 166.079335,80.49 C166.079335,80.38 166.049335,69.56 163.519335,67.07 C163.209335,66.76 162.879335,66.62 162.529335,66.62 C161.199335,66.64 160.659335,67.96 160.439335,69.15 C162.059335,71.38 163.089335,75.37 162.439335,76.41 C162.249335,76.71 161.929335,76.83 161.569335,76.71 C160.089335,76.22 159.239335,72.17 159.649335,69.35 C158.839335,68.34 158.049335,68.05 157.309335,68.47 C156.139335,69.14 155.829335,70.58 155.949335,72.06 C158.109335,73.74 160.119335,76.43 159.959335,77.59 C159.899335,78.01 159.589335,78.27 159.139335,78.29 C159.119335,78.29 159.109335,78.29 159.099335,78.29 C157.569335,78.29 156.159335,76.1 155.539335,73.92 C155.409335,73.46 155.309335,72.96 155.249335,72.47 C154.329335,71.79 153.429335,71.35 152.689335,71.37 C152.189335,71.39 151.829335,71.65 151.579335,72.16 C151.059335,73.21 151.219335,74.42 151.739335,75.58 C151.849335,75.62 151.969335,75.66 152.079335,75.7 C154.449335,76.58 157.919335,79.24 157.409335,80.62 C157.309335,80.89 157.089335,81.06 156.789335,81.11 C155.729335,81.25 153.499335,79.59 152.019335,77.54 C151.699335,77.09 151.419335,76.64 151.199335,76.2 C150.179335,75.93 149.099335,75.94 148.699335,76.98 C148.289335,78.08 148.359335,79 148.919335,79.8 C151.329335,83.22 161.569335,83.06 161.669335,83.07 C161.899335,83.07 162.049335,83.23 162.049335,83.44 C162.049335,83.65 161.889335,83.82 161.679335,83.82 C161.659335,83.82 161.529335,83.82 161.339335,83.82 Z M152.279335,76.59 C152.729335,77.3 153.289335,77.98 153.879335,78.56 C155.399335,80.06 156.519335,80.47 156.719335,80.36 C156.899335,79.83 154.759335,77.66 152.279335,76.59 Z M156.129335,73.18 C156.169335,73.36 156.209335,73.54 156.259335,73.71 C156.849335,75.83 158.119335,77.54 159.099335,77.54 C159.109335,77.54 159.109335,77.54 159.119335,77.54 C159.189335,77.54 159.219335,77.52 159.219335,77.52 C159.249335,77.46 159.249335,77.07 158.719335,76.21 C158.159335,75.27 157.189335,74.13 156.129335,73.18 Z M160.309335,70.32 C160.169335,72.98 161.069335,75.76 161.809335,76 C162.159335,75.66 161.649335,72.6 160.309335,70.32 Z" id="Shape" fill="#26192A"></path><path d="M45.3593355,162.74 C45.0893355,162.74 44.8693355,162.53 44.8593355,162.26 C44.7493355,159.67 47.6893355,157.06 47.8193355,156.96 C48.0293355,156.78 48.3393355,156.8 48.5293355,157.01 C48.7193355,157.22 48.6893355,157.53 48.4793355,157.72 C48.4493355,157.74 45.7693355,160.12 45.8593355,162.23 C45.8693355,162.51 45.6593355,162.74 45.3793355,162.75 C45.3693355,162.74 45.3593355,162.74 45.3593355,162.74 Z" id="Path" fill="#26192A"></path><path d="M50.3693355,162.74 C50.0993355,162.74 49.8793355,162.53 49.8693355,162.26 C49.7593355,159.67 52.6993355,157.06 52.8293355,156.96 C53.0393355,156.78 53.3493355,156.8 53.5393355,157.01 C53.7193355,157.22 53.6993355,157.53 53.4893355,157.72 C53.4593355,157.74 50.7793355,160.12 50.8693355,162.23 C50.8793355,162.51 50.6693355,162.74 50.3893355,162.75 C50.3793355,162.74 50.3693355,162.74 50.3693355,162.74 Z" id="Path" fill="#26192A"></path><path d="M68.0293355,162.74 C67.7593355,162.74 67.5393355,162.53 67.5293355,162.26 C67.4193355,159.67 70.3593355,157.06 70.4893355,156.96 C70.6993355,156.78 71.0093355,156.8 71.1993355,157.01 C71.3793355,157.22 71.3593355,157.53 71.1493355,157.72 C71.1193355,157.74 68.4393355,160.12 68.5293355,162.23 C68.5393355,162.51 68.3293355,162.74 68.0493355,162.75 C68.0393355,162.74 68.0393355,162.74 68.0293355,162.74 Z" id="Path" fill="#26192A"></path><path d="M73.0393355,162.74 C72.7693355,162.74 72.5493355,162.53 72.5393355,162.26 C72.4293355,159.67 75.3693355,157.06 75.4993355,156.96 C75.7093355,156.78 76.0193355,156.8 76.2093355,157.01 C76.3893355,157.22 76.3693355,157.53 76.1593355,157.72 C76.1293355,157.74 73.4493355,160.12 73.5393355,162.23 C73.5493355,162.51 73.3393355,162.74 73.0593355,162.75 C73.0493355,162.74 73.0493355,162.74 73.0393355,162.74 Z" id="Path" fill="#26192A"></path><path d="M114.629335,162.88 C114.359335,162.88 114.139335,162.67 114.129335,162.4 C114.009335,159.81 116.959335,157.2 117.089335,157.1 C117.299335,156.92 117.609335,156.94 117.799335,157.15 C117.989335,157.36 117.959335,157.67 117.749335,157.86 C117.719335,157.88 115.039335,160.26 115.129335,162.37 C115.139335,162.65 114.929335,162.88 114.649335,162.89 C114.639335,162.88 114.629335,162.88 114.629335,162.88 Z" id="Path" fill="#26192A"></path><path d="M119.639335,162.88 C119.369335,162.88 119.149335,162.67 119.139335,162.4 C119.019335,159.81 121.969335,157.2 122.099335,157.1 C122.309335,156.92 122.619335,156.94 122.809335,157.15 C122.989335,157.36 122.969335,157.67 122.759335,157.86 C122.729335,157.88 120.049335,160.26 120.139335,162.37 C120.149335,162.65 119.939335,162.88 119.659335,162.89 C119.649335,162.88 119.639335,162.88 119.639335,162.88 Z" id="Path" fill="#26192A"></path><path d="M137.649335,162.74 C137.379335,162.74 137.159335,162.53 137.149335,162.26 C137.029335,159.67 139.979335,157.06 140.109335,156.96 C140.319335,156.78 140.629335,156.8 140.819335,157.01 C140.999335,157.22 140.979335,157.53 140.769335,157.72 C140.739335,157.74 138.059335,160.12 138.149335,162.23 C138.159335,162.51 137.949335,162.74 137.669335,162.75 C137.669335,162.74 137.659335,162.74 137.649335,162.74 Z" id="Path" fill="#26192A"></path><path d="M142.659335,162.74 C142.389335,162.74 142.169335,162.53 142.159335,162.26 C142.049335,159.67 144.989335,157.07 145.119335,156.96 C145.329335,156.78 145.639335,156.8 145.829335,157.01 C146.009335,157.22 145.989335,157.53 145.779335,157.72 C145.749335,157.74 143.069335,160.12 143.159335,162.23 C143.169335,162.51 142.959335,162.74 142.679335,162.75 C142.679335,162.74 142.669335,162.74 142.659335,162.74 Z" id="Path" fill="#26192A"></path><path d="M84.3993355,137.33 C84.3993355,137.33 93.5793355,118.58 107.349335,118.36 C129.469335,118.02 137.589335,134.52 137.589335,134.52 C137.589335,134.52 90.7893355,138.93 84.3993355,137.33 Z" id="Path" fill="#E46A4B"></path><path d="M116.129335,77.67 C116.069335,77.67 116.009335,77.66 115.949335,77.62 C115.029335,77.11 113.479335,76.59 113.459335,76.58 C113.259335,76.51 113.159335,76.3 113.219335,76.11 C113.279335,75.91 113.489335,75.8 113.689335,75.87 C113.759335,75.89 115.329335,76.42 116.299335,76.96 C116.479335,77.06 116.549335,77.29 116.449335,77.47 C116.389335,77.6 116.259335,77.67 116.129335,77.67 Z" id="Path" fill="#26192A"></path><path d="M112.269335,80.26 C112.209335,80.26 112.149335,80.25 112.089335,80.21 C111.169335,79.7 109.619335,79.18 109.599335,79.17 C109.399335,79.1 109.299335,78.89 109.359335,78.7 C109.419335,78.5 109.629335,78.39 109.829335,78.46 C109.899335,78.48 111.469335,79.01 112.439335,79.55 C112.619335,79.65 112.689335,79.88 112.589335,80.06 C112.529335,80.19 112.399335,80.26 112.269335,80.26 Z" id="Path" fill="#26192A"></path><path d="M117.409335,84.35 C117.349335,84.35 117.289335,84.34 117.229335,84.3 C116.309335,83.79 114.759335,83.27 114.739335,83.26 C114.539335,83.19 114.439335,82.98 114.499335,82.79 C114.559335,82.59 114.769335,82.49 114.969335,82.55 C115.039335,82.57 116.609335,83.1 117.579335,83.64 C117.759335,83.74 117.829335,83.97 117.729335,84.15 C117.669335,84.28 117.539335,84.35 117.409335,84.35 Z" id="Path" fill="#26192A"></path><path d="M121.079335,81.93 C121.019335,81.93 120.959335,81.91 120.899335,81.88 C119.989335,81.37 118.429335,80.85 118.409335,80.84 C118.209335,80.77 118.109335,80.56 118.169335,80.37 C118.229335,80.17 118.449335,80.06 118.639335,80.13 C118.709335,80.15 120.279335,80.68 121.259335,81.22 C121.439335,81.32 121.509335,81.55 121.409335,81.73 C121.339335,81.86 121.209335,81.93 121.079335,81.93 Z" id="Path" fill="#26192A"></path><path d="M124.269335,79.73 C124.209335,79.73 124.149335,79.71 124.089335,79.68 C123.179335,79.17 121.619335,78.65 121.599335,78.64 C121.399335,78.57 121.299335,78.36 121.359335,78.17 C121.419335,77.97 121.639335,77.86 121.829335,77.93 C121.899335,77.95 123.469335,78.48 124.449335,79.02 C124.629335,79.12 124.699335,79.35 124.599335,79.53 C124.529335,79.66 124.399335,79.73 124.269335,79.73 Z" id="Path" fill="#26192A"></path><path d="M126.099335,84.89 C126.039335,84.89 125.979335,84.87 125.919335,84.84 C125.009335,84.33 123.449335,83.81 123.429335,83.8 C123.229335,83.73 123.129335,83.52 123.189335,83.33 C123.249335,83.13 123.469335,83.02 123.659335,83.09 C123.729335,83.11 125.299335,83.64 126.279335,84.18 C126.459335,84.28 126.529335,84.51 126.429335,84.69 C126.359335,84.82 126.229335,84.89 126.099335,84.89 Z" id="Path" fill="#26192A"></path><path d="M110.919335,84.05 C110.889335,84.05 110.849335,84.05 110.819335,84.04 C109.819335,83.75 108.179335,83.59 108.159335,83.59 C107.949335,83.57 107.799335,83.39 107.819335,83.18 C107.839335,82.97 108.009335,82.82 108.229335,82.84 C108.299335,82.85 109.949335,83.01 111.019335,83.32 C111.219335,83.38 111.329335,83.59 111.279335,83.78 C111.229335,83.95 111.079335,84.05 110.919335,84.05 Z" id="Path" fill="#26192A"></path><path d="M122.349335,88.05 C122.289335,88.05 122.229335,88.04 122.169335,88 C121.249335,87.49 119.699335,86.97 119.679335,86.97 C119.479335,86.9 119.379335,86.69 119.439335,86.5 C119.499335,86.3 119.719335,86.19 119.909335,86.26 C119.979335,86.28 121.549335,86.81 122.529335,87.35 C122.709335,87.45 122.779335,87.68 122.679335,87.86 C122.609335,87.98 122.479335,88.05 122.349335,88.05 Z" id="Path" fill="#26192A"></path><path d="M128.649335,91.03 C128.589335,91.03 128.529335,91.02 128.469335,90.98 C127.549335,90.47 125.999335,89.95 125.979335,89.95 C125.779335,89.88 125.679335,89.67 125.739335,89.48 C125.799335,89.28 126.019335,89.17 126.209335,89.24 C126.279335,89.26 127.849335,89.79 128.829335,90.33 C129.009335,90.43 129.079335,90.66 128.979335,90.84 C128.909335,90.96 128.779335,91.03 128.649335,91.03 Z" id="Path" fill="#26192A"></path><path d="M131.669335,88.05 C131.609335,88.05 131.549335,88.04 131.489335,88 C130.569335,87.49 129.019335,86.97 128.999335,86.97 C128.799335,86.9 128.699335,86.69 128.759335,86.5 C128.819335,86.3 129.039335,86.19 129.229335,86.26 C129.299335,86.28 130.869335,86.81 131.849335,87.35 C132.029335,87.45 132.099335,87.68 131.999335,87.86 C131.929335,87.98 131.799335,88.05 131.669335,88.05 Z" id="Path" fill="#26192A"></path><path d="M130.389335,83.29 C130.329335,83.29 130.269335,83.28 130.209335,83.24 C129.289335,82.73 127.739335,82.21 127.719335,82.21 C127.519335,82.14 127.419335,81.93 127.479335,81.74 C127.539335,81.54 127.759335,81.43 127.949335,81.5 C128.019335,81.52 129.589335,82.05 130.569335,82.59 C130.749335,82.69 130.819335,82.92 130.719335,83.1 C130.649335,83.22 130.519335,83.29 130.389335,83.29 Z" id="Path" fill="#26192A"></path><path d="M136.849335,85.95 C136.789335,85.95 136.729335,85.94 136.669335,85.9 C135.749335,85.39 134.199335,84.87 134.179335,84.87 C133.979335,84.8 133.879335,84.59 133.939335,84.4 C133.999335,84.2 134.219335,84.09 134.409335,84.16 C134.479335,84.18 136.049335,84.71 137.029335,85.25 C137.209335,85.35 137.279335,85.58 137.179335,85.76 C137.109335,85.88 136.979335,85.95 136.849335,85.95 Z" id="Path" fill="#26192A"></path><path d="M138.569335,90.94 C138.459335,90.94 138.349335,90.89 138.279335,90.8 C137.619335,89.99 136.369335,88.92 136.349335,88.91 C136.189335,88.78 136.169335,88.54 136.309335,88.38 C136.439335,88.22 136.679335,88.2 136.839335,88.34 C136.889335,88.38 138.159335,89.46 138.859335,90.32 C138.989335,90.48 138.969335,90.72 138.809335,90.85 C138.739335,90.91 138.659335,90.94 138.569335,90.94 Z" id="Path" fill="#26192A"></path><path d="M143.599335,92.52 C143.499335,92.52 143.389335,92.48 143.319335,92.39 C142.629335,91.6 141.339335,90.59 141.319335,90.58 C141.159335,90.45 141.129335,90.22 141.249335,90.05 C141.379335,89.89 141.609335,89.86 141.779335,89.98 C141.839335,90.02 143.139335,91.05 143.879335,91.88 C144.019335,92.04 143.999335,92.27 143.849335,92.41 C143.779335,92.49 143.689335,92.52 143.599335,92.52 Z" id="Path" fill="#26192A"></path><path d="M141.549335,96.02 C141.449335,96.02 141.339335,95.98 141.269335,95.89 C140.579335,95.1 139.289335,94.09 139.269335,94.08 C139.109335,93.95 139.079335,93.72 139.199335,93.55 C139.329335,93.39 139.559335,93.36 139.729335,93.48 C139.789335,93.52 141.089335,94.55 141.829335,95.39 C141.969335,95.55 141.949335,95.78 141.799335,95.92 C141.729335,95.99 141.639335,96.02 141.549335,96.02 Z" id="Path" fill="#26192A"></path><path d="M145.649335,96.95 C145.549335,96.95 145.439335,96.91 145.369335,96.82 C144.679335,96.03 143.389335,95.02 143.369335,95.01 C143.209335,94.88 143.179335,94.65 143.299335,94.48 C143.429335,94.32 143.659335,94.29 143.829335,94.41 C143.889335,94.45 145.189335,95.48 145.929335,96.32 C146.069335,96.48 146.049335,96.71 145.899335,96.85 C145.819335,96.92 145.729335,96.95 145.649335,96.95 Z" id="Path" fill="#26192A"></path><path d="M134.789335,94 C134.709335,94 134.619335,93.97 134.559335,93.92 C133.739335,93.27 132.289335,92.5 132.279335,92.49 C132.099335,92.39 132.029335,92.17 132.119335,91.98 C132.219335,91.8 132.449335,91.73 132.629335,91.82 C132.689335,91.85 134.159335,92.63 135.029335,93.33 C135.189335,93.46 135.219335,93.69 135.089335,93.86 C135.009335,93.95 134.899335,94 134.789335,94 Z" id="Path" fill="#26192A"></path><path d="M151.269335,144.6 C151.239335,144.6 151.209335,144.6 151.189335,144.59 C150.989335,144.54 150.859335,144.34 150.909335,144.14 C151.139335,143.12 151.209335,141.48 151.209335,141.46 C151.219335,141.25 151.389335,141.08 151.599335,141.1 C151.809335,141.11 151.969335,141.28 151.959335,141.49 C151.959335,141.56 151.889335,143.22 151.639335,144.31 C151.599335,144.49 151.439335,144.6 151.269335,144.6 Z" id="Path" fill="#26192A"></path><path d="M151.279335,138.66 C151.249335,138.66 151.229335,138.66 151.199335,138.65 C150.999335,138.61 150.869335,138.41 150.909335,138.2 C151.129335,137.18 151.189335,135.53 151.189335,135.52 C151.199335,135.32 151.359335,135.16 151.569335,135.16 C151.569335,135.16 151.579335,135.16 151.579335,135.16 C151.789335,135.17 151.949335,135.34 151.939335,135.55 C151.939335,135.62 151.889335,137.28 151.649335,138.37 C151.609335,138.54 151.459335,138.66 151.279335,138.66 Z" id="Path" fill="#26192A"></path><path d="M148.069335,143.23 C148.039335,143.23 148.009335,143.23 147.989335,143.22 C147.789335,143.17 147.659335,142.97 147.709335,142.77 C147.939335,141.75 148.009335,140.11 148.009335,140.09 C148.019335,139.88 148.179335,139.72 148.399335,139.73 C148.609335,139.74 148.769335,139.91 148.759335,140.12 C148.759335,140.19 148.689335,141.85 148.439335,142.94 C148.399335,143.11 148.239335,143.23 148.069335,143.23 Z" id="Path" fill="#26192A"></path><path d="M146.049335,150.11 C146.019335,150.11 145.989335,150.11 145.969335,150.1 C145.769335,150.05 145.639335,149.85 145.689335,149.65 C145.919335,148.63 145.989335,146.99 145.989335,146.97 C145.999335,146.76 146.169335,146.61 146.379335,146.61 C146.589335,146.62 146.749335,146.79 146.739335,147 C146.739335,147.07 146.669335,148.73 146.419335,149.82 C146.369335,149.99 146.219335,150.11 146.049335,150.11 Z" id="Path" fill="#26192A"></path><path d="M150.809335,151.49 C150.779335,151.49 150.749335,151.49 150.729335,151.48 C150.529335,151.43 150.399335,151.23 150.449335,151.03 C150.679335,150.01 150.749335,148.37 150.749335,148.35 C150.759335,148.14 150.929335,147.99 151.139335,147.99 C151.349335,148 151.509335,148.17 151.499335,148.38 C151.499335,148.45 151.429335,150.11 151.179335,151.2 C151.129335,151.37 150.979335,151.49 150.809335,151.49 Z" id="Path" fill="#26192A"></path><path d="M127.589335,146.9 C127.559335,146.9 127.529335,146.9 127.509335,146.89 C127.309335,146.84 127.179335,146.64 127.229335,146.44 C127.459335,145.42 127.529335,143.78 127.529335,143.76 C127.539335,143.55 127.709335,143.39 127.919335,143.4 C128.129335,143.41 128.289335,143.58 128.279335,143.79 C128.279335,143.86 128.209335,145.52 127.959335,146.61 C127.909335,146.78 127.759335,146.9 127.589335,146.9 Z" id="Path" fill="#26192A"></path><path d="M127.599335,140.95 C127.569335,140.95 127.549335,140.95 127.519335,140.94 C127.319335,140.9 127.189335,140.7 127.229335,140.49 C127.449335,139.47 127.499335,137.82 127.499335,137.81 C127.509335,137.6 127.699335,137.45 127.889335,137.45 C128.099335,137.46 128.259335,137.63 128.249335,137.84 C128.249335,137.91 128.199335,139.57 127.959335,140.66 C127.929335,140.83 127.769335,140.95 127.599335,140.95 Z" id="Path" fill="#26192A"></path><path d="M124.389335,145.53 C124.359335,145.53 124.329335,145.53 124.309335,145.52 C124.109335,145.47 123.979335,145.27 124.029335,145.07 C124.259335,144.05 124.329335,142.41 124.329335,142.39 C124.339335,142.18 124.499335,142.02 124.719335,142.03 C124.929335,142.04 125.089335,142.21 125.079335,142.42 C125.079335,142.49 125.009335,144.15 124.759335,145.24 C124.719335,145.41 124.559335,145.53 124.389335,145.53 Z" id="Path" fill="#26192A"></path><path d="M122.359335,152.41 C122.329335,152.41 122.299335,152.41 122.279335,152.4 C122.079335,152.35 121.949335,152.15 121.999335,151.95 C122.229335,150.93 122.299335,149.29 122.299335,149.27 C122.309335,149.06 122.479335,148.91 122.689335,148.91 C122.899335,148.92 123.059335,149.09 123.049335,149.3 C123.049335,149.37 122.979335,151.03 122.729335,152.12 C122.689335,152.29 122.539335,152.41 122.359335,152.41 Z" id="Path" fill="#26192A"></path><path d="M127.129335,153.78 C127.099335,153.78 127.069335,153.78 127.049335,153.77 C126.849335,153.72 126.719335,153.52 126.769335,153.32 C126.999335,152.3 127.069335,150.66 127.069335,150.64 C127.079335,150.43 127.249335,150.27 127.459335,150.28 C127.669335,150.29 127.829335,150.46 127.819335,150.67 C127.819335,150.74 127.749335,152.4 127.499335,153.49 C127.449335,153.66 127.299335,153.78 127.129335,153.78 Z" id="Path" fill="#26192A"></path><path d="M71.7093355,145.96 C71.6793355,145.96 71.6493355,145.96 71.6293355,145.95 C71.4293355,145.9 71.2993355,145.7 71.3493355,145.5 C71.5793355,144.48 71.6493355,142.84 71.6493355,142.82 C71.6593355,142.61 71.8593355,142.46 72.0393355,142.46 C72.2493355,142.47 72.4093355,142.64 72.3993355,142.85 C72.3993355,142.92 72.3293355,144.58 72.0793355,145.67 C72.0393355,145.84 71.8793355,145.96 71.7093355,145.96 Z" id="Path" fill="#26192A"></path><path d="M70.6193355,140.03 C70.6093355,140.03 70.5893355,140.03 70.5793355,140.03 C70.3693355,140.01 70.2293355,139.82 70.2493355,139.62 C70.3693355,138.58 70.2493355,136.94 70.2493355,136.92 C70.2293355,136.71 70.3893355,136.53 70.5993355,136.52 C70.7993355,136.5 70.9893355,136.66 70.9993355,136.87 C71.0093355,136.94 71.1293355,138.59 70.9993355,139.7 C70.9693355,139.89 70.7993355,140.03 70.6193355,140.03 Z" id="Path" fill="#26192A"></path><path d="M68.9393355,145.07 C68.9093355,145.07 68.8793355,145.07 68.8593355,145.06 C68.6593355,145.01 68.5293355,144.81 68.5793355,144.61 C68.8093355,143.59 68.8793355,141.95 68.8793355,141.93 C68.8893355,141.72 69.0793355,141.58 69.2693355,141.57 C69.4793355,141.58 69.6393355,141.75 69.6293355,141.96 C69.6293355,142.03 69.5593355,143.69 69.3093355,144.78 C69.2593355,144.95 69.1093355,145.07 68.9393355,145.07 Z" id="Path" fill="#26192A"></path><path d="M68.6293355,150.08 C68.5993355,150.08 68.5693355,150.08 68.5493355,150.07 C68.3493355,150.02 68.2193355,149.82 68.2693355,149.62 C68.4993355,148.6 68.5693355,146.96 68.5693355,146.94 C68.5793355,146.73 68.7793355,146.58 68.9593355,146.58 C69.1693355,146.59 69.3293355,146.76 69.3193355,146.97 C69.3193355,147.04 69.2493355,148.7 68.9993355,149.79 C68.9493355,149.97 68.7993355,150.08 68.6293355,150.08 Z" id="Path" fill="#26192A"></path><path d="M70.8193355,151.84 C70.7893355,151.84 70.7593355,151.84 70.7393355,151.83 C70.5393355,151.78 70.4093355,151.58 70.4593355,151.38 C70.6893355,150.36 70.7593355,148.72 70.7593355,148.7 C70.7693355,148.49 70.9693355,148.35 71.1493355,148.34 C71.3593355,148.35 71.5193355,148.52 71.5093355,148.73 C71.5093355,148.8 71.4393355,150.46 71.1893355,151.55 C71.1393355,151.72 70.9893355,151.84 70.8193355,151.84 Z" id="Path" fill="#26192A"></path><path d="M47.3493355,139.58 C47.3193355,139.58 47.2893355,139.58 47.2693355,139.57 C47.0693355,139.52 46.9393355,139.32 46.9893355,139.12 C47.2193355,138.1 47.2893355,136.46 47.2893355,136.44 C47.2993355,136.23 47.4893355,136.09 47.6793355,136.08 C47.8893355,136.09 48.0493355,136.26 48.0393355,136.47 C48.0393355,136.54 47.9693355,138.2 47.7193355,139.29 C47.6693355,139.46 47.5193355,139.58 47.3493355,139.58 Z" id="Path" fill="#26192A"></path><path d="M48.6893355,144.59 C48.6593355,144.59 48.6393355,144.59 48.6093355,144.58 C48.4093355,144.54 48.2793355,144.34 48.3193355,144.13 C48.5393355,143.11 48.5893355,141.46 48.5893355,141.45 C48.5993355,141.24 48.7293355,141.07 48.9793355,141.09 C49.1893355,141.1 49.3493355,141.27 49.3393355,141.48 C49.3393355,141.55 49.2893355,143.21 49.0493355,144.3 C49.0093355,144.47 48.8593355,144.59 48.6893355,144.59 Z" id="Path" fill="#26192A"></path><path d="M45.3493355,143.7 C45.3193355,143.7 45.2893355,143.7 45.2693355,143.69 C45.0693355,143.64 44.9393355,143.44 44.9893355,143.24 C45.2193355,142.22 45.2893355,140.58 45.2893355,140.56 C45.2993355,140.35 45.4893355,140.2 45.6793355,140.2 C45.8893355,140.21 46.0493355,140.38 46.0393355,140.59 C46.0393355,140.66 45.9693355,142.32 45.7193355,143.41 C45.6793355,143.58 45.5293355,143.7 45.3493355,143.7 Z" id="Path" fill="#26192A"></path><path d="M45.5993355,149.09 C45.5693355,149.09 45.5393355,149.09 45.5193355,149.08 C45.3193355,149.03 45.1893355,148.83 45.2393355,148.63 C45.4693355,147.61 45.5393355,145.97 45.5393355,145.95 C45.5493355,145.74 45.7493355,145.6 45.9293355,145.59 C46.1393355,145.6 46.2993355,145.77 46.2893355,145.98 C46.2893355,146.05 46.2193355,147.71 45.9693355,148.8 C45.9293355,148.97 45.7693355,149.09 45.5993355,149.09 Z" id="Path" fill="#26192A"></path><path d="M47.2493355,151.35 C47.1993355,151.35 47.1493355,151.34 47.0993355,151.32 C46.9093355,151.24 46.8193355,151.02 46.9093355,150.83 C47.3293355,149.87 47.7093355,148.27 47.7093355,148.26 C47.7593355,148.06 47.9593355,147.93 48.1593355,147.98 C48.3593355,148.03 48.4893355,148.23 48.4393355,148.43 C48.4193355,148.5 48.0493355,150.11 47.5993355,151.14 C47.5293355,151.27 47.3893355,151.35 47.2493355,151.35 Z" id="Path" fill="#26192A"></path><path d="M90.4993355,133.82 C90.3293355,133.82 90.1793355,133.71 90.1393355,133.54 C90.0893355,133.34 90.1993355,133.13 90.3993355,133.08 C90.4693355,133.06 92.0693355,132.63 93.1793355,132.54 C93.3893355,132.53 93.5693355,132.68 93.5793355,132.88 C93.5993355,133.09 93.4393355,133.27 93.2393355,133.28 C92.1993355,133.36 90.6093355,133.79 90.5893355,133.79 C90.5593355,133.82 90.5293355,133.82 90.4993355,133.82 Z" id="Path" fill="#26192A"></path><path d="M93.6593355,129.2 C93.4893355,129.2 93.3393355,129.09 93.2993355,128.92 C93.2493355,128.72 93.3593355,128.51 93.5593355,128.46 C93.6293355,128.44 95.2293355,128.01 96.3393355,127.92 C96.5493355,127.9 96.7293355,128.06 96.7393355,128.26 C96.7593355,128.47 96.5993355,128.65 96.3993355,128.66 C95.3593355,128.74 93.7693355,129.17 93.7493355,129.17 C93.7193355,129.2 93.6893355,129.2 93.6593355,129.2 Z" id="Path" fill="#26192A"></path><path d="M100.559335,131.89 C100.519335,131.89 100.489335,131.88 100.449335,131.87 C99.4493355,131.56 97.8193355,131.36 97.7993355,131.36 C97.5893355,131.34 97.4493355,131.15 97.4693355,130.94 C97.4893355,130.73 97.6893355,130.58 97.8893355,130.61 C97.9593355,130.62 99.6093355,130.82 100.669335,131.15 C100.869335,131.21 100.979335,131.42 100.919335,131.62 C100.869335,131.79 100.719335,131.89 100.559335,131.89 Z" id="Path" fill="#26192A"></path><path d="M105.629335,130.44 C105.599335,130.44 105.559335,130.44 105.529335,130.43 C104.519335,130.16 102.879335,130.02 102.859335,130.02 C102.649335,130 102.499335,129.82 102.519335,129.62 C102.539335,129.42 102.719335,129.26 102.919335,129.28 C102.989335,129.29 104.639335,129.42 105.719335,129.71 C105.919335,129.76 106.039335,129.97 105.979335,130.17 C105.949335,130.33 105.799335,130.44 105.629335,130.44 Z" id="Path" fill="#26192A"></path><path d="M113.629335,129.15 C113.599335,129.15 113.559335,129.15 113.529335,129.14 C112.519335,128.87 110.879335,128.73 110.869335,128.73 C110.659335,128.71 110.509335,128.53 110.529335,128.33 C110.549335,128.13 110.729335,127.96 110.929335,127.99 C110.999335,128 112.649335,128.13 113.729335,128.42 C113.929335,128.47 114.049335,128.68 113.989335,128.88 C113.949335,129.04 113.799335,129.15 113.629335,129.15 Z" id="Path" fill="#26192A"></path><path d="M120.259335,130.65 C120.229335,130.65 120.189335,130.65 120.159335,130.64 C119.149335,130.37 117.509335,130.23 117.499335,130.23 C117.289335,130.21 117.139335,130.03 117.159335,129.83 C117.179335,129.63 117.359335,129.47 117.559335,129.49 C117.629335,129.5 119.279335,129.63 120.359335,129.92 C120.559335,129.97 120.679335,130.18 120.619335,130.38 C120.579335,130.54 120.429335,130.65 120.259335,130.65 Z" id="Path" fill="#26192A"></path><path d="M119.699335,133.35 C119.509335,133.35 119.349335,133.21 119.329335,133.02 C119.309335,132.81 119.459335,132.63 119.659335,132.61 C119.729335,132.6 121.379335,132.42 122.489335,132.51 C122.699335,132.53 122.849335,132.71 122.839335,132.91 C122.819335,133.12 122.659335,133.27 122.439335,133.26 C121.399335,133.18 119.759335,133.35 119.749335,133.36 C119.719335,133.34 119.709335,133.35 119.699335,133.35 Z" id="Path" fill="#26192A"></path><path d="M105.849335,134.48 C105.819335,134.48 105.779335,134.48 105.749335,134.47 C104.739335,134.2 103.099335,134.06 103.079335,134.06 C102.869335,134.04 102.719335,133.86 102.739335,133.66 C102.759335,133.46 102.939335,133.29 103.139335,133.32 C103.209335,133.33 104.859335,133.46 105.939335,133.75 C106.139335,133.8 106.259335,134.01 106.199335,134.21 C106.169335,134.37 106.009335,134.48 105.849335,134.48 Z" id="Path" fill="#26192A"></path><path d="M109.779335,133 C109.749335,133 109.709335,133 109.679335,132.99 C108.669335,132.72 107.029335,132.58 107.019335,132.58 C106.809335,132.56 106.659335,132.38 106.679335,132.18 C106.699335,131.98 106.879335,131.82 107.079335,131.84 C107.149335,131.85 108.799335,131.98 109.879335,132.27 C110.079335,132.32 110.199335,132.53 110.139335,132.73 C110.089335,132.89 109.939335,133 109.779335,133 Z" id="Path" fill="#26192A"></path><path d="M116.219335,134.03 C116.189335,134.03 116.149335,134.03 116.119335,134.02 C115.109335,133.75 113.469335,133.61 113.459335,133.61 C113.249335,133.59 113.099335,133.41 113.119335,133.21 C113.139335,133.01 113.319335,132.85 113.519335,132.87 C113.589335,132.88 115.239335,133.01 116.319335,133.3 C116.519335,133.35 116.639335,133.56 116.579335,133.76 C116.539335,133.92 116.389335,134.03 116.219335,134.03 Z" id="Path" fill="#26192A"></path><path d="M96.3293355,136.59 C96.1393355,136.59 95.9793355,136.45 95.9593355,136.25 C95.9393355,136.04 96.0893355,135.86 96.2993355,135.84 C96.3693355,135.83 98.0193355,135.68 99.1293355,135.77 C99.3393355,135.79 99.4893355,135.97 99.4693355,136.18 C99.4493355,136.39 99.2893355,136.56 99.0593355,136.52 C98.0193355,136.43 96.3793355,136.58 96.3693355,136.59 C96.3593355,136.59 96.3393355,136.59 96.3293355,136.59 Z" id="Path" fill="#26192A"></path><path d="M23.1993355,76.35 C23.0193355,76.35 22.8593355,76.22 22.8293355,76.03 C22.7993355,75.82 22.9393355,75.63 23.1393355,75.6 L43.2793355,72.48 C43.4893355,72.44 43.6793355,72.59 43.7093355,72.79 C43.7393355,73 43.5993355,73.19 43.3993355,73.22 L23.2593355,76.34 C23.2293355,76.35 23.2093355,76.35 23.1993355,76.35 Z" id="Path" fill="#26192A"></path><path d="M26.4893355,82.23 C26.3393355,82.23 26.1993355,82.14 26.1393355,82 C26.0593355,81.81 26.1493355,81.59 26.3393355,81.51 L43.1793355,74.51 C43.3693355,74.43 43.5893355,74.52 43.6693355,74.71 C43.7493355,74.9 43.6593355,75.12 43.4693355,75.2 L26.6293355,82.2 C26.5893355,82.22 26.5393355,82.23 26.4893355,82.23 Z" id="Path" fill="#26192A"></path><path d="M42.2193355,69.82 C42.1993355,69.82 42.1693355,69.82 42.1493355,69.81 L25.4093355,66.61 C25.2093355,66.57 25.0693355,66.37 25.1093355,66.17 C25.1493355,65.97 25.3393355,65.83 25.5493355,65.87 L42.2893355,69.07 C42.4893355,69.11 42.6293355,69.31 42.5893355,69.51 C42.5493355,69.7 42.3893355,69.82 42.2193355,69.82 Z" id="Path" fill="#26192A"></path><path d="M88.1593355,76.35 C88.1393355,76.35 88.1193355,76.35 88.0993355,76.35 L67.9593355,73.23 C67.7593355,73.2 67.6193355,73.01 67.6493355,72.8 C67.6793355,72.6 67.8693355,72.45 68.0793355,72.49 L88.2193355,75.61 C88.4193355,75.64 88.5593355,75.83 88.5293355,76.04 C88.4993355,76.22 88.3393355,76.35 88.1593355,76.35 Z" id="Path" fill="#26192A"></path><path d="M84.8693355,82.23 C84.8193355,82.23 84.7693355,82.22 84.7293355,82.2 L67.8893355,75.2 C67.6993355,75.12 67.6093355,74.9 67.6893355,74.71 C67.7693355,74.52 67.9893355,74.43 68.1793355,74.51 L85.0193355,81.51 C85.2093355,81.59 85.2993355,81.81 85.2193355,82 C85.1493355,82.14 85.0093355,82.23 84.8693355,82.23 Z" id="Path" fill="#26192A"></path><path d="M69.1393355,69.82 C68.9593355,69.82 68.8093355,69.7 68.7693355,69.52 C68.7293355,69.32 68.8593355,69.12 69.0693355,69.08 L85.8093355,65.88 C86.0093355,65.84 86.2093355,65.97 86.2493355,66.18 C86.2893355,66.39 86.1593355,66.58 85.9493355,66.62 L69.2093355,69.82 C69.1893355,69.82 69.1693355,69.82 69.1393355,69.82 Z" id="Path" fill="#26192A"></path><path d="M49.5393355,34.72 C49.4593355,34.72 49.3693355,34.71 49.2793355,34.7 C48.6693355,34.6 48.1793355,34.13 47.9293355,33.38 C47.3993355,31.81 47.8093355,29.09 49.3093355,26.9 C48.3493355,25.94 46.7893355,25.17 44.2693355,25.4 C41.4093355,25.67 39.5993355,26.51 38.8893355,27.91 C37.9293355,29.8 39.3193355,32.15 39.3393355,32.17 C39.4493355,32.35 39.3893355,32.58 39.2093355,32.68 C39.0293355,32.79 38.7993355,32.73 38.6993355,32.55 C38.6293355,32.44 37.0793355,29.83 38.2193355,27.57 C39.0493355,25.92 41.0593355,24.94 44.1993355,24.65 C46.4993355,24.43 48.4193355,25.01 49.7593355,26.29 C49.8793355,26.14 50.0193355,25.99 50.1493355,25.84 C51.6093355,24.3 54.2393355,22.72 58.5293355,23.93 C59.9593355,24.33 61.1593355,25.5 61.9993355,26.93 C64.2193355,24.79 66.8593355,24.2 69.2893355,25.32 C70.9193355,26.07 71.9693355,27.18 72.3993355,28.6 C73.2393355,31.39 71.4193355,34.39 71.3393355,34.51 C71.2293355,34.69 70.9993355,34.74 70.8193355,34.63 C70.6393355,34.52 70.5893355,34.29 70.6993355,34.11 C70.7193355,34.08 72.4193355,31.27 71.6793355,28.8 C71.3093355,27.59 70.3993355,26.64 68.9693355,25.98 C65.9793355,24.61 63.5593355,26.39 62.3493355,27.6 C62.9793355,28.94 63.2993355,30.42 63.1893355,31.69 C63.0493355,33.41 62.1393355,34.49 60.7093355,34.65 C59.9793355,34.73 59.4193355,34.46 59.1393355,33.88 C58.4693355,32.51 59.5293355,29.6 61.4293355,27.47 C60.6893355,26.11 59.5893355,24.99 58.2993355,24.62 C54.3693355,23.52 51.9793355,24.94 50.6693355,26.33 C50.5193355,26.49 50.3793355,26.65 50.2493355,26.82 C50.4293355,27.04 50.5893355,27.28 50.7393355,27.53 C52.0293355,29.72 51.8693355,32.5 50.9793355,33.81 C50.6193355,34.42 50.1093355,34.72 49.5393355,34.72 Z M49.8193355,27.49 C48.5793355,29.41 48.1793355,31.78 48.6393355,33.13 C48.7593355,33.47 48.9793355,33.89 49.3993355,33.95 C49.7793355,34.01 50.1093355,33.83 50.3893355,33.42 C51.1593355,32.29 51.2293355,29.82 50.1193355,27.94 C50.0293355,27.8 49.9293355,27.65 49.8193355,27.49 Z M61.8193355,28.24 C60.1493355,30.22 59.3793355,32.64 59.8393355,33.59 C59.9293355,33.77 60.1093355,34.01 60.6493355,33.95 C62.0093355,33.8 62.3793355,32.63 62.4593355,31.67 C62.5493355,30.62 62.3093355,29.38 61.8193355,28.24 Z" id="Shape" fill="#26192A"></path></g></g></g></g></svg>