<svg xmlns="http://www.w3.org/2000/svg" xmlns:xlink="http://www.w3.org/1999/xlink" width="94px" height="32px" viewBox="0 0 94 32"><title>Logo</title><g id="Home-1" stroke="none" stroke-width="1" fill="none" fill-rule="evenodd"><g id="De-Bebe---Home-1-" transform="translate(-58.000000, -25.000000)" fill-rule="nonzero"><g id="Header" transform="translate(50.000000, 25.920000)"><g id="Group-2" transform="translate(8.120000, 0.000000)"><g id="de-bebe" fill="#0A1E33"><path d="M18.592,22.944 C18.8693333,22.944 19.088,23.072 19.248,23.328 C19.408,23.584 19.488,23.936 19.488,24.384 C19.488,25.2373333 19.2853333,25.8986667 18.88,26.368 C18.0053333,27.4346667 17.0453333,28.3466667 16,29.104 C14.9546667,29.8613333 13.92,30.24 12.896,30.24 C11.2746667,30.24 10.0373333,29.2906667 9.184,27.392 C8.288,28.5226667 7.504,29.28 6.832,29.664 C6.16,30.048 5.376,30.24 4.48,30.24 C3.17866667,30.24 2.10666667,29.7546667 1.264,28.784 C0.421333333,27.8133333 0,26.5493333 0,24.992 C0,23.2853333 0.362666667,21.7013333 1.088,20.24 C1.81333333,18.7786667 2.81066667,17.584 4.08,16.656 C5.34933333,15.728 6.77333333,15.1786667 8.352,15.008 C8.75733333,10.8693333 9.53066667,7.33333333 10.672,4.4 C11.8133333,1.46666667 13.312,0 15.168,0 C16.0853333,0 16.848,0.416 17.456,1.248 C18.064,2.08 18.368,3.33866667 18.368,5.024 C18.368,7.41333333 17.7813333,10.208 16.608,13.408 C15.4346667,16.608 13.8666667,19.8933333 11.904,23.264 C11.9893333,24.5013333 12.176,25.3866667 12.464,25.92 C12.752,26.4533333 13.12,26.72 13.568,26.72 C14.144,26.72 14.7306667,26.464 15.328,25.952 C15.9253333,25.44 16.7253333,24.5866667 17.728,23.392 C17.984,23.0933333 18.272,22.944 18.592,22.944 Z M14.816,3.136 C14.4106667,3.136 14.0053333,3.856 13.6,5.296 C13.1946667,6.736 12.848,8.61866667 12.56,10.944 C12.272,13.2693333 12.064,15.7013333 11.936,18.24 C14.3253333,13.0346667 15.52,8.85333333 15.52,5.696 C15.52,4.88533333 15.4506667,4.256 15.312,3.808 C15.1733333,3.36 15.008,3.136 14.816,3.136 Z M5.6,27.008 C6.00533333,27.008 6.41066667,26.8426667 6.816,26.512 C7.22133333,26.1813333 7.73333333,25.568 8.352,24.672 C8.13866667,23.52 8.032,22.2293333 8.032,20.8 C8.032,20.288 8.05333333,19.456 8.096,18.304 C6.92266667,18.6666667 5.94666667,19.4506667 5.168,20.656 C4.38933333,21.8613333 4,23.2 4,24.672 C4,26.2293333 4.53333333,27.008 5.6,27.008 Z" id="Shape"></path><path d="M28.352,23.904 C28.6293333,23.904 28.848,24.032 29.008,24.288 C29.168,24.544 29.248,24.896 29.248,25.344 C29.248,26.112 29.0666667,26.7733333 28.704,27.328 C28.1066667,28.2453333 27.3226667,28.96 26.352,29.472 C25.3813333,29.984 24.224,30.24 22.88,30.24 C20.832,30.24 19.2426667,29.6266667 18.112,28.4 C16.9813333,27.1733333 16.416,25.5146667 16.416,23.424 C16.416,21.952 16.7253333,20.5813333 17.344,19.312 C17.9626667,18.0426667 18.8213333,17.0346667 19.92,16.288 C21.0186667,15.5413333 22.2613333,15.168 23.648,15.168 C24.8853333,15.168 25.8773333,15.536 26.624,16.272 C27.3706667,17.008 27.744,18.0053333 27.744,19.264 C27.744,20.736 27.216,22 26.16,23.056 C25.104,24.112 23.3066667,24.9493333 20.768,25.568 C21.28,26.5493333 22.144,27.04 23.36,27.04 C24.2346667,27.04 24.9546667,26.8373333 25.52,26.432 C26.0853333,26.0266667 26.7413333,25.344 27.488,24.384 C27.744,24.064 28.032,23.904 28.352,23.904 Z M23.104,18.304 C22.3146667,18.304 21.648,18.7626667 21.104,19.68 C20.56,20.5973333 20.288,21.7066667 20.288,23.008 L20.288,23.072 C21.5466667,22.7733333 22.5386667,22.3253333 23.264,21.728 C23.9893333,21.1306667 24.352,20.4373333 24.352,19.648 C24.352,19.2426667 24.24,18.9173333 24.016,18.672 C23.792,18.4266667 23.488,18.304 23.104,18.304 Z" id="Shape"></path><path d="M55.552,20.256 C55.8293333,20.256 56.0426667,20.3946667 56.192,20.672 C56.3413333,20.9493333 56.416,21.3013333 56.416,21.728 C56.416,22.2613333 56.3413333,22.672 56.192,22.96 C56.0426667,23.248 55.808,23.4453333 55.488,23.552 C54.208,24 52.8,24.256 51.264,24.32 C50.8373333,26.0906667 50.032,27.52 48.848,28.608 C47.664,29.696 46.3573333,30.24 44.928,30.24 C42.7733333,30.24 41.2053333,29.4186667 40.224,27.776 C39.2426667,26.1333333 38.752,23.7546667 38.752,20.64 C38.752,17.888 39.0933333,14.896 39.776,11.664 C40.4586667,8.432 41.456,5.68 42.768,3.408 C44.08,1.136 45.6426667,0 47.456,0 C48.4373333,0 49.2266667,0.421333333 49.824,1.264 C50.4213333,2.10666667 50.72,3.2 50.72,4.544 C50.72,6.29333333 50.3893333,8.032 49.728,9.76 C49.0666667,11.488 47.968,13.3013333 46.432,15.2 C47.8613333,15.3066667 49.024,15.8986667 49.92,16.976 C50.816,18.0533333 51.3493333,19.3813333 51.52,20.96 C52.5226667,20.896 53.7173333,20.6826667 55.104,20.32 C55.232,20.2773333 55.3813333,20.256 55.552,20.256 Z M46.72,3.168 C46.2933333,3.168 45.8293333,3.80266667 45.328,5.072 C44.8266667,6.34133333 44.3626667,8.064 43.936,10.24 C43.5093333,12.416 43.1893333,14.7946667 42.976,17.376 C44.384,14.7946667 45.5093333,12.5173333 46.352,10.544 C47.1946667,8.57066667 47.616,6.816 47.616,5.28 C47.616,4.59733333 47.536,4.07466667 47.376,3.712 C47.216,3.34933333 46.9973333,3.168 46.72,3.168 Z M45.056,26.848 C45.7173333,26.848 46.304,26.5706667 46.816,26.016 C47.328,25.4613333 47.6693333,24.6613333 47.84,23.616 C47.1786667,23.168 46.672,22.5813333 46.32,21.856 C45.968,21.1306667 45.792,20.3626667 45.792,19.552 C45.792,19.2533333 45.8346667,18.848 45.92,18.336 L45.824,18.336 C44.9493333,18.336 44.2186667,18.768 43.632,19.632 C43.0453333,20.496 42.752,21.6533333 42.752,23.104 C42.752,24.32 42.9813333,25.248 43.44,25.888 C43.8986667,26.528 44.4373333,26.848 45.056,26.848 Z" id="Shape"></path><path d="M67.936,22.944 C68.2133333,22.944 68.432,23.072 68.592,23.328 C68.752,23.584 68.832,23.936 68.832,24.384 C68.832,25.2373333 68.6293333,25.8986667 68.224,26.368 C67.4346667,27.328 66.32,28.2133333 64.88,29.024 C63.44,29.8346667 61.8986667,30.24 60.256,30.24 C58.016,30.24 56.2773333,29.632 55.04,28.416 C53.8026667,27.2 53.184,25.536 53.184,23.424 C53.184,21.952 53.4933333,20.5813333 54.112,19.312 C54.7306667,18.0426667 55.5893333,17.0346667 56.688,16.288 C57.7866667,15.5413333 59.0293333,15.168 60.416,15.168 C61.6533333,15.168 62.6453333,15.536 63.392,16.272 C64.1386667,17.008 64.512,18.0053333 64.512,19.264 C64.512,20.736 63.984,22 62.928,23.056 C61.872,24.112 60.0853333,24.9493333 57.568,25.568 C58.1013333,26.5493333 59.1146667,27.04 60.608,27.04 C61.568,27.04 62.6613333,26.704 63.888,26.032 C65.1146667,25.36 66.176,24.48 67.072,23.392 C67.328,23.0933333 67.616,22.944 67.936,22.944 Z M59.872,18.304 C59.0826667,18.304 58.416,18.7626667 57.872,19.68 C57.328,20.5973333 57.056,21.7066667 57.056,23.008 L57.056,23.072 C58.3146667,22.7733333 59.3066667,22.3253333 60.032,21.728 C60.7573333,21.1306667 61.12,20.4373333 61.12,19.648 C61.12,19.2426667 61.008,18.9173333 60.784,18.672 C60.56,18.4266667 60.256,18.304 59.872,18.304 Z" id="Shape"></path><path d="M83.264,20.256 C83.5413333,20.256 83.7546667,20.3946667 83.904,20.672 C84.0533333,20.9493333 84.128,21.3013333 84.128,21.728 C84.128,22.2613333 84.0533333,22.672 83.904,22.96 C83.7546667,23.248 83.52,23.4453333 83.2,23.552 C81.92,24 80.512,24.256 78.976,24.32 C78.5493333,26.0906667 77.744,27.52 76.56,28.608 C75.376,29.696 74.0693333,30.24 72.64,30.24 C70.4853333,30.24 68.9173333,29.4186667 67.936,27.776 C66.9546667,26.1333333 66.464,23.7546667 66.464,20.64 C66.464,17.888 66.8053333,14.896 67.488,11.664 C68.1706667,8.432 69.168,5.68 70.48,3.408 C71.792,1.136 73.3546667,0 75.168,0 C76.1493333,0 76.9386667,0.421333333 77.536,1.264 C78.1333333,2.10666667 78.432,3.2 78.432,4.544 C78.432,6.29333333 78.1013333,8.032 77.44,9.76 C76.7786667,11.488 75.68,13.3013333 74.144,15.2 C75.5733333,15.3066667 76.736,15.8986667 77.632,16.976 C78.528,18.0533333 79.0613333,19.3813333 79.232,20.96 C80.2346667,20.896 81.4293333,20.6826667 82.816,20.32 C82.944,20.2773333 83.0933333,20.256 83.264,20.256 Z M74.432,3.168 C74.0053333,3.168 73.5413333,3.80266667 73.04,5.072 C72.5386667,6.34133333 72.0746667,8.064 71.648,10.24 C71.2213333,12.416 70.9013333,14.7946667 70.688,17.376 C72.096,14.7946667 73.2213333,12.5173333 74.064,10.544 C74.9066667,8.57066667 75.328,6.816 75.328,5.28 C75.328,4.59733333 75.248,4.07466667 75.088,3.712 C74.928,3.34933333 74.7093333,3.168 74.432,3.168 Z M72.768,26.848 C73.4293333,26.848 74.016,26.5706667 74.528,26.016 C75.04,25.4613333 75.3813333,24.6613333 75.552,23.616 C74.8906667,23.168 74.384,22.5813333 74.032,21.856 C73.68,21.1306667 73.504,20.3626667 73.504,19.552 C73.504,19.2533333 73.5466667,18.848 73.632,18.336 L73.536,18.336 C72.6613333,18.336 71.9306667,18.768 71.344,19.632 C70.7573333,20.496 70.464,21.6533333 70.464,23.104 C70.464,24.32 70.6933333,25.248 71.152,25.888 C71.6106667,26.528 72.1493333,26.848 72.768,26.848 Z" id="Shape"></path><path d="M92.832,23.904 C93.1093333,23.904 93.328,24.032 93.488,24.288 C93.648,24.544 93.728,24.896 93.728,25.344 C93.728,26.112 93.5466667,26.7733333 93.184,27.328 C92.5866667,28.2453333 91.8026667,28.96 90.832,29.472 C89.8613333,29.984 88.704,30.24 87.36,30.24 C85.312,30.24 83.7226667,29.6266667 82.592,28.4 C81.4613333,27.1733333 80.896,25.5146667 80.896,23.424 C80.896,21.952 81.2053333,20.5813333 81.824,19.312 C82.4426667,18.0426667 83.3013333,17.0346667 84.4,16.288 C85.4986667,15.5413333 86.7413333,15.168 88.128,15.168 C89.3653333,15.168 90.3573333,15.536 91.104,16.272 C91.8506667,17.008 92.224,18.0053333 92.224,19.264 C92.224,20.736 91.696,22 90.64,23.056 C89.584,24.112 87.7866667,24.9493333 85.248,25.568 C85.76,26.5493333 86.624,27.04 87.84,27.04 C88.7146667,27.04 89.4346667,26.8373333 90,26.432 C90.5653333,26.0266667 91.2213333,25.344 91.968,24.384 C92.224,24.064 92.512,23.904 92.832,23.904 Z M87.584,18.304 C86.7946667,18.304 86.128,18.7626667 85.584,19.68 C85.04,20.5973333 84.768,21.7066667 84.768,23.008 L84.768,23.072 C86.0266667,22.7733333 87.0186667,22.3253333 87.744,21.728 C88.4693333,21.1306667 88.832,20.4373333 88.832,19.648 C88.832,19.2426667 88.72,18.9173333 88.496,18.672 C88.272,18.4266667 87.968,18.304 87.584,18.304 Z" id="Shape"></path></g><path d="M61.0709956,7.63311813 C61.2808056,7.12223829 61.8650401,6.87817293 62.37592,7.08798291 C62.8503084,7.28280646 63.0946374,7.80047567 62.9591356,8.28247343 L62.9210552,8.39290727 L61.6890044,11.3929073 C61.4791944,11.9037871 60.8949599,12.1478525 60.38408,11.9380425 C59.9096916,11.7432189 59.6653626,11.2255497 59.8008644,10.743552 L59.8389448,10.6331181 L61.0709956,7.63311813 Z" id="Line-2" fill="#E46A4B"></path><path d="M88.0709956,7.63311813 C88.2808056,7.12223829 88.8650401,6.87817293 89.37592,7.08798291 C89.8503084,7.28280646 90.0946374,7.80047567 89.9591356,8.28247343 L89.9210552,8.39290727 L88.6890044,11.3929073 C88.4791944,11.9037871 87.8949599,12.1478525 87.38408,11.9380425 C86.9096916,11.7432189 86.6653626,11.2255497 86.8008644,10.743552 L86.8389448,10.6331181 L88.0709956,7.63311813 Z" id="Line-2-Copy" fill="#E46A4B"></path></g></g></g></g></svg>