<svg xmlns="http://www.w3.org/2000/svg" xmlns:xlink="http://www.w3.org/1999/xlink" width="139px" height="120px" viewBox="0 0 139 120"><title>path</title><g id="Standart-Shop" stroke="none" stroke-width="1" fill="none" fill-rule="evenodd"><g id="Standart-Home-V3" transform="translate(-244.000000, -491.000000)" fill="#0A1E33" fill-rule="nonzero"><g id="Hero" transform="translate(93.000000, 180.000000)"><g id="Group-28" transform="translate(-77.000000, 51.000000)"><g id="yellow-shape-banner" transform="translate(0.000000, 40.000000)"><g id="path" transform="translate(297.630431, 280.312100) rotate(39.000000) translate(-297.630431, -280.312100) translate(221.511966, 265.246321)"><path d="M134.682016,19.3950937 C134.577888,19.3950937 134.47376,19.3950937 134.334923,19.3634343 C134.265504,19.3634343 128.781434,18.0020829 125.136957,17.7488082 C124.408062,17.6854895 123.887422,17.1156215 123.956841,16.4824348 C124.02626,15.849248 124.616318,15.3110393 125.345213,15.4060173 C129.197946,15.6909514 134.786144,17.0523028 134.9944,17.1156215 C135.688586,17.2739182 136.105098,17.9387642 135.896842,18.5719509 C135.758005,19.046841 135.237365,19.3950937 134.682016,19.3950937 Z" id="Path"></path><path d="M123.502075,4 C123.397947,4 123.293819,4 123.154982,3.96834503 C123.085563,3.96834503 117.601493,2.6071814 113.957016,2.35394166 C113.228121,2.29063172 112.707481,1.72084229 112.7769,1.08774293 C112.846318,0.422988601 113.436376,-0.0834908891 114.165272,0.0114740153 C118.018005,0.296368728 123.606203,1.65753236 123.814458,1.72084229 C124.508644,1.87911714 124.925156,2.54387147 124.7169,3.17697083 C124.578063,3.65179535 124.057424,4 123.502075,4 Z" id="Path"></path><path d="M100.861375,14.6984466 C100.307782,14.6984466 99.7887879,14.3844312 99.6157899,13.8820064 C99.4081924,13.2539754 99.7887879,12.5945429 100.48078,12.4061336 C104.182935,11.3698825 109.857268,10.7418515 110.099465,10.7104499 C110.791457,10.6162453 111.448849,11.0872685 111.552647,11.746701 C111.621847,12.4061336 111.137452,12.9713615 110.410861,13.0655661 C110.341662,13.0655661 104.701929,13.6935971 101.241971,14.6670451 C101.138172,14.6670451 100.999773,14.6984466 100.861375,14.6984466 Z" id="Path"></path><path d="M83.6330373,9.33446114 C83.0457658,9.33446114 82.5275852,8.95893566 82.3894037,8.37857811 C82.2166768,7.69580452 82.5966759,6.97889226 83.2875835,6.80819886 C87.0184842,5.81817716 92.7184715,5.37437432 92.9602891,5.34023564 C93.6857421,5.27195829 94.3075589,5.81817716 94.3421042,6.50095074 C94.411195,7.21786301 93.858469,7.83235924 93.1675614,7.86649792 C93.0984707,7.86649792 87.4675741,8.31030075 83.978491,9.26618378 C83.8403095,9.30032246 83.7366734,9.33446114 83.6330373,9.33446114 Z" id="Path"></path><path d="M56.429133,4.34216298 C55.8416554,4.34216298 55.3232927,3.96663751 55.1850627,3.38627996 C55.0122752,2.70350637 55.3924078,1.98659411 56.0835579,1.81590071 C59.8157687,0.825879005 65.5177575,0.382076172 65.75966,0.347937493 C66.4853677,0.279660134 67.1074028,0.825879005 67.1419603,1.50865259 C67.1765179,2.19142618 66.6581552,2.84006109 65.9670051,2.87419977 C65.8978901,2.87419977 60.2650163,3.3180026 56.7747081,4.27388563 C56.6710355,4.34216298 56.5328055,4.34216298 56.429133,4.34216298 Z" id="Path"></path><path d="M33.8154126,9.78643158 C33.2281412,9.78643158 32.7099606,9.41051491 32.5717791,8.82955278 C32.3990522,8.14606792 32.7790513,7.42840882 33.4699589,7.25753761 C37.2008596,6.26648456 42.9008469,5.8222194 43.1426645,5.78804516 C43.8335721,5.75387092 44.4899342,6.26648456 44.5244796,6.94996942 C44.5935704,7.66762852 44.0408443,8.28276489 43.3499368,8.31693914 C43.280846,8.31693914 37.6499495,8.76120429 34.1608664,9.7180831 C34.0572303,9.78643158 33.9190488,9.78643158 33.8154126,9.78643158 Z" id="Path"></path><path d="M36.5653788,18.7906351 C36.5312257,18.7906351 36.4629194,18.7906351 36.4287663,18.7906351 C36.36046,18.7906351 30.7934999,18.0706351 27.2415744,18.3906351 C26.5585118,18.5106351 25.9096024,17.8306351 25.8754492,16.9906351 C25.807143,16.1506351 26.353593,15.4306351 27.0708088,15.3906351 C30.8959593,15.0306351 36.4970725,15.7506351 36.7361444,15.7906351 C37.4533602,15.8706351 37.931504,16.6306351 37.8631977,17.4306351 C37.7607383,18.2306351 37.2142882,18.7906351 36.5653788,18.7906351 Z" id="Path"></path><path d="M82.9323788,22.7698043 C82.3449011,22.7698043 81.8265385,22.3942788 81.6883085,21.8139212 C81.515521,21.1311477 81.8956535,20.4142354 82.5868037,20.243542 C86.3190145,19.2535203 92.0210033,18.8097175 92.2629058,18.7755788 C92.9886135,18.7073014 93.6106486,19.2535203 93.6452061,19.9362939 C93.6797636,20.6190675 93.161401,21.2677024 92.4702509,21.3018411 C92.4011358,21.3018411 86.7682621,21.7456439 83.2779538,22.7015269 C83.1397238,22.7356656 83.0360513,22.7698043 82.9323788,22.7698043 Z" id="Path"></path><path d="M69.3107407,17.0721495 C68.7234693,17.0721495 68.2052886,16.696624 68.0671071,16.1162665 C67.8943802,15.4334929 68.2743794,14.7165806 68.9652869,14.5458872 C72.6961877,13.5558655 78.3961749,13.1120627 78.6379926,13.077924 C79.3634455,13.0096467 79.9852623,13.5558655 80.0198077,14.2386391 C80.0888984,14.9555514 79.5361724,15.5700476 78.8452649,15.6041863 C78.7761741,15.6041863 73.1452776,16.0479891 69.6561945,17.0038722 C69.518013,17.0721495 69.4143768,17.0721495 69.3107407,17.0721495 Z" id="Path"></path><path d="M61.7251248,28.3618984 C61.1378534,28.3618984 60.6196727,27.986373 60.4814912,27.4060154 C60.3087643,26.7232418 60.6887634,26.0063296 61.379671,25.8356362 C65.1105717,24.8456145 70.810559,24.4018116 71.0523767,24.3676729 C71.7432842,24.2993956 72.3996464,24.8456145 72.4341917,25.528388 C72.5032825,26.2453003 71.9505565,26.8597965 71.2596489,26.8939352 C71.1905582,26.8939352 65.5596617,27.3377381 62.0705785,28.2936211 C61.9669424,28.3618984 61.8633063,28.3618984 61.7251248,28.3618984 Z" id="Path"></path><path d="M29.7105192,28.551989 C29.1230415,28.551989 28.6046789,28.1764635 28.4664489,27.596106 C28.2936613,26.9133324 28.6737939,26.1964201 29.3649441,26.0257267 C33.0971549,25.035705 38.7991437,24.5919022 39.0410462,24.5577635 C39.7667539,24.4894861 40.388789,25.035705 40.4233465,25.7184786 C40.457904,26.4012522 39.9395414,27.0498871 39.2483913,27.0840258 C39.1792762,27.0840258 33.5464025,27.5278286 30.0560942,28.4837116 C29.9524217,28.551989 29.8487492,28.551989 29.7105192,28.551989 Z" id="Path"></path><path d="M1.28554097,28.4084103 C0.698063337,28.4084103 0.179700723,28.0328848 0.0414706921,27.4525273 C-0.131316846,26.7697537 0.248815738,26.0528414 0.93996589,25.882148 C4.67217671,24.8921263 10.3741655,24.4483235 10.616068,24.4141848 C11.3417757,24.3459074 11.9638108,24.8921263 11.9983683,25.5748999 C12.0329258,26.2576735 11.5145632,26.9063084 10.8234131,26.9404471 C10.7542981,26.9404471 5.12142431,27.3842499 1.63111604,28.3401329 C1.52744352,28.4084103 1.38921349,28.4084103 1.28554097,28.4084103 Z" id="Path"></path><path d="M141.522471,26.7948659 C140.934993,26.7948659 140.416631,26.4189492 140.2784,25.8379871 C140.105613,25.1545023 140.485746,24.4368432 141.176896,24.2659719 C144.909106,23.2749189 150.611095,22.8306537 150.852998,22.7964795 C151.578705,22.7623052 152.200741,23.2749189 152.235298,23.9584038 C152.269856,24.6418886 151.751493,25.2911992 151.060343,25.3253735 C150.991228,25.3253735 145.358354,25.7696386 141.868046,26.7265174 C141.764373,26.7948659 141.626143,26.7948659 141.522471,26.7948659 Z" id="Path"></path><path d="M115.066367,29.8370511 C115.032214,29.8370511 114.998061,29.8370511 114.929754,29.8370511 C114.861448,29.8370511 109.294469,29.1970511 105.742532,29.5570511 C105.025314,29.6770511 104.410555,29.0370511 104.342249,28.1970511 C104.273942,27.3570511 104.786241,26.6370511 105.503459,26.5570511 C109.294469,26.1570511 114.929754,26.7970511 115.168827,26.8370511 C115.886045,26.9170511 116.398344,27.6370511 116.330037,28.4770511 C116.295884,29.2370511 115.749432,29.8370511 115.066367,29.8370511 Z" id="Path"></path></g></g></g></g></g></g></svg>