<svg xmlns="http://www.w3.org/2000/svg" xmlns:xlink="http://www.w3.org/1999/xlink" width="187px" height="164px" viewBox="0 0 187 164"><title>path</title><g id="Page-1" stroke="none" stroke-width="1" fill="none" fill-rule="evenodd"><g id="Standart-Home-Banners" transform="translate(-977.000000, -737.000000)" fill="#0A1E33" fill-rule="nonzero"><g id="Standart-Home-Slide-3" transform="translate(80.000000, 620.000000)"><g id="path" transform="translate(990.399536, 199.022949) rotate(39.000000) translate(-990.399536, -199.022949) translate(886.899536, 178.522949)"><path d="M183.308507,27 C183.16967,27 183.030833,27 182.845716,26.952511 C182.753158,26.952511 175.441065,24.9104838 170.581762,24.5305718 C169.609902,24.4355938 168.915715,23.5807917 169.008274,22.6310117 C169.100832,21.6812316 169.887576,20.8739185 170.859436,21.0163855 C175.996414,21.4437866 183.447344,23.4858137 183.725019,23.5807917 C184.6506,23.8182368 185.205949,24.8155058 184.928275,25.7652859 C184.743158,26.477621 184.048972,27 183.308507,27 Z" id="Path"></path><path d="M168.308507,6 C168.16967,6 168.030833,6 167.845716,5.95251755 C167.753158,5.95251755 160.441065,3.9107721 155.581762,3.53091249 C154.609902,3.43594758 153.915715,2.58126344 154.008274,1.6316144 C154.100832,0.634482902 154.887576,-0.125236334 155.859436,0.0172110229 C160.996414,0.444553093 168.447344,2.48629854 168.725019,2.58126344 C169.6506,2.8186757 170.205949,3.8158072 169.928275,4.76545624 C169.743158,5.47769303 169.048972,6 168.308507,6 Z" id="Path"></path><path d="M136.736216,20 C135.998092,20 135.3061,19.5289768 135.075436,18.7753396 C134.798639,17.8332931 135.3061,16.8441443 136.228755,16.5615304 C141.164963,15.0071537 148.73074,14.0651072 149.053669,14.0180049 C149.976325,13.8766979 150.852848,14.5832328 150.991246,15.5723816 C151.083512,16.5615304 150.437653,17.4093722 149.468864,17.5506792 C149.376599,17.5506792 141.856955,18.4927256 137.243677,19.9528977 C137.105278,19.9528977 136.920747,20 136.736216,20 Z" id="Path"></path><path d="M113.713453,12 C112.930424,12 112.239517,11.5305932 112.055275,10.8051462 C111.824972,9.95167923 112.331638,9.0555389 113.252848,8.84217215 C118.227382,7.60464503 125.827365,7.04989148 126.149789,7.00721814 C127.117059,6.92187144 127.946148,7.60464503 127.992209,8.45811201 C128.08433,9.35425235 127.347362,10.1223726 126.426152,10.165046 C126.334031,10.165046 118.826169,10.7197995 114.174058,11.9146533 C113.989816,11.9573267 113.851634,12 113.713453,12 Z" id="Path"></path><path d="M76.7140546,6 C75.9307511,6 75.239601,5.53059316 75.0552943,4.80514622 C74.8249109,3.95167923 75.3317543,3.0555389 76.2532879,2.84217215 C81.2295689,1.60464503 88.8322206,1.04989148 89.1547574,1.00721814 C90.1223676,0.921871437 90.9517478,1.60464503 90.9978244,2.45811201 C91.0439011,3.311579 90.352751,4.12237263 89.4312174,4.16504598 C89.3390641,4.16504598 81.8285657,4.71979952 77.1748214,5.9146533 C77.0365914,6 76.8522847,6 76.7140546,6 Z" id="Path"></path><path d="M46.713453,13 C45.9304244,13 45.2395169,12.5301042 45.0552748,11.8039015 C44.8249723,10.9495454 45.3316379,10.0524715 46.2528479,9.83888253 C51.2273823,8.60006622 58.8273653,8.04473478 59.1497888,8.00201697 C60.0709989,7.95929917 60.9461484,8.60006622 60.9922089,9.4544223 C61.0843299,10.3514962 60.3473619,11.1204166 59.4261518,11.1631344 C59.3340308,11.1631344 51.8261688,11.7184659 47.174058,12.9145644 C47.0358765,13 46.8516345,13 46.713453,13 Z" id="Path"></path><path d="M49.2609337,25.6878016 C49.2153962,25.6878016 49.1243212,25.6878016 49.0787837,25.6878016 C48.9877087,25.6878016 41.5650952,24.7878016 36.8291945,25.1878016 C35.9184444,25.3378016 35.0532318,24.4878016 35.0076943,23.4378016 C34.9166193,22.3878016 35.6452194,21.4878016 36.601507,21.4378016 C41.7017077,20.9878016 49.1698587,21.8878016 49.4886212,21.9378016 C50.4449089,22.0378016 51.0824339,22.9878016 50.9913589,23.9878016 C50.8547464,24.9878016 50.1261463,25.6878016 49.2609337,25.6878016 Z" id="Path"></path><path d="M112.714055,30 C111.930751,30 111.239601,29.5305932 111.055294,28.8051462 C110.824911,27.9516792 111.331754,27.0555389 112.253288,26.8421722 C117.229569,25.604645 124.832221,25.0498915 125.154757,25.0072181 C126.122368,24.9218714 126.951748,25.604645 126.997824,26.458112 C127.043901,27.311579 126.352751,28.1223726 125.431217,28.165046 C125.339064,28.165046 117.828566,28.7197995 113.174821,29.9146533 C112.990515,29.9573267 112.852285,30 112.714055,30 Z" id="Path"></path><path d="M94.713453,23 C93.9304244,23 93.2395169,22.5305932 93.0552748,21.8051462 C92.8249723,20.9516792 93.3316379,20.0555389 94.2528479,19.8421722 C99.2273823,18.604645 106.827365,18.0498915 107.149789,18.0072181 C108.117059,17.9218714 108.946148,18.604645 108.992209,19.458112 C109.08433,20.3542523 108.347362,21.1223726 107.426152,21.165046 C107.334031,21.165046 99.8261688,21.7197995 95.174058,22.9146533 C94.989816,23 94.8516345,23 94.713453,23 Z" id="Path"></path><path d="M83.713453,39 C82.9304244,39 82.2395169,38.5305932 82.0552748,37.8051462 C81.8249723,36.9516792 82.3316379,36.0555389 83.2528479,35.8421722 C88.2273823,34.604645 95.8273653,34.0498915 96.1497888,34.0072181 C97.0709989,33.9218714 97.9461484,34.604645 97.9922089,35.458112 C98.0843299,36.3542523 97.3473619,37.1223726 96.4261518,37.165046 C96.3340308,37.165046 88.8261688,37.7197995 84.174058,38.9146533 C84.0358765,39 83.897695,39 83.713453,39 Z" id="Path"></path><path d="M39.7140546,39 C38.9307511,39 38.239601,38.5305932 38.0552943,37.8051462 C37.8249109,36.9516792 38.3317543,36.0555389 39.2532879,35.8421722 C44.2295689,34.604645 51.8322206,34.0498915 52.1547574,34.0072181 C53.1223676,33.9218714 53.9517478,34.604645 53.9978244,35.458112 C54.0439011,36.311579 53.352751,37.1223726 52.4312174,37.165046 C52.3390641,37.165046 44.8285657,37.7197995 40.1748214,38.9146533 C40.0365914,39 39.8983613,39 39.7140546,39 Z" id="Path"></path><path d="M1.71405462,38 C0.930751116,38 0.239600963,37.5305932 0.0552942561,36.8051462 C-0.175089128,35.9516792 0.331754317,35.0555389 1.25328785,34.8421722 C6.22956895,33.604645 13.8322206,33.0498915 14.1547574,33.0072181 C15.1223676,32.9218714 15.9517478,33.604645 15.9978244,34.458112 C16.0439011,35.311579 15.352751,36.1223726 14.4312174,36.165046 C14.3390641,36.165046 6.82856575,36.7197995 2.17482139,37.9146533 C2.03659136,38 1.85228465,38 1.71405462,38 Z" id="Path"></path><path d="M192.714055,36 C191.930751,36 191.239601,35.5301042 191.055294,34.8039015 C190.824911,33.9495454 191.331754,33.0524715 192.253288,32.8388825 C197.229569,31.6000662 204.832221,31.0447348 205.154757,31.002017 C206.122368,30.9592992 206.951748,31.6000662 206.997824,32.4544223 C207.043901,33.3087784 206.352751,34.1204166 205.431217,34.1631344 C205.339064,34.1631344 197.828566,34.7184659 193.174821,35.9145644 C193.036591,36 192.852285,36 192.714055,36 Z" id="Path"></path><path d="M156.306966,40.6318658 C156.261428,40.6318658 156.21589,40.6318658 156.124815,40.6318658 C156.03374,40.6318658 148.611101,39.8318658 143.875185,40.2818658 C142.918894,40.4318658 142.099216,39.6318658 142.008141,38.5818658 C141.917066,37.5318658 142.600131,36.6318658 143.556421,36.5318658 C148.611101,36.0318658 156.124815,36.8318658 156.443579,36.8818658 C157.399869,36.9818658 158.082934,37.8818658 157.991859,38.9318658 C157.946321,39.8818658 157.217719,40.6318658 156.306966,40.6318658 Z" id="Path"></path></g></g></g></g></svg>