<svg xmlns="http://www.w3.org/2000/svg" xmlns:xlink="http://www.w3.org/1999/xlink" width="77px" height="69px" viewBox="0 0 77 69"><title>path-dots</title><g id="Home-2" stroke="none" stroke-width="1" fill="none" fill-rule="evenodd"><g id="De-bebe---Home-3" transform="translate(-206.000000, -4564.000000)" fill="#0A1E33" fill-rule="nonzero"><g id="Group-21-Copy" transform="translate(94.000000, 4019.000000)"><g id="Group-7" transform="translate(49.105995, 544.648653)"><g id="path-dots" transform="translate(101.647527, 34.720604) rotate(14.000000) translate(-101.647527, -34.720604) translate(69.168257, 7.939997)"><path d="M57.3215807,34.8326682 C57.2781941,34.8326682 57.2348074,34.8326682 57.1769586,34.7693495 C57.1480342,34.7693495 54.863005,32.0466466 53.3444729,31.5400972 C53.0407665,31.4134599 52.8238333,30.2737238 52.8527577,29.0073504 C52.8816822,27.7409769 53.1275397,26.6645595 53.4312462,26.8545155 C55.0365515,27.4243836 57.3649673,30.1470865 57.4517406,30.2737238 C57.7409848,30.5903172 57.9145313,31.9200093 57.8277581,33.1863827 C57.7699092,34.1361628 57.5529761,34.8326682 57.3215807,34.8326682 Z" id="Path"></path><path d="M52.3207888,8 C52.2774022,8 52.2340155,8 52.1761667,7.93669006 C52.1472423,7.93669006 49.8622131,5.2143628 48.343681,4.70788331 C48.0399746,4.58126344 47.8230414,3.44168459 47.8519659,2.17548586 C47.8808903,0.845977202 48.1267479,-0.166981778 48.4304543,0.0229480306 C50.0357596,0.592737457 52.3641754,3.31506472 52.4509487,3.44168459 C52.7401929,3.75823427 52.9137394,5.08774293 52.8269662,6.35394166 C52.7691173,7.3035907 52.5521842,8 52.3207888,8 Z" id="Path"></path><path d="M42.8801368,26.6177318 C42.6494729,26.6177318 42.4332255,25.9897009 42.361143,24.9848513 C42.274644,23.7287893 42.4332255,22.4099243 42.7215554,22.0331057 C44.2641203,19.9606034 46.6284254,18.7045415 46.7293409,18.6417384 C47.0176708,18.4533291 47.2915842,19.3953756 47.3348336,20.7142406 C47.3636666,22.0331057 47.1618357,23.1635614 46.8590893,23.3519707 C46.8302563,23.3519707 44.4803677,24.6080327 43.0387182,26.5549287 C42.9954688,26.5549287 42.9378028,26.6177318 42.8801368,26.6177318 Z" id="Path"></path><path d="M36.0983246,15.6626599 C35.8536282,15.6626599 35.6377196,15.0993717 35.5801439,14.2288354 C35.5081744,13.204675 35.6665074,12.1293066 35.9543855,11.8732665 C37.5089275,10.3882339 39.8839222,9.72252969 39.9846795,9.67132167 C40.2869516,9.56890563 40.5460419,10.3882339 40.5604358,11.4123943 C40.5892237,12.4877627 40.3589211,13.4095071 40.071043,13.4607151 C40.0422552,13.4607151 37.6960483,14.1264193 36.2422637,15.5602439 C36.184688,15.6114519 36.1415063,15.6626599 36.0983246,15.6626599 Z" id="Path"></path><path d="M24.1794433,7.29989801 C23.934661,7.29989801 23.7186765,6.7366098 23.6610807,5.86607347 C23.5890859,4.84191309 23.7474745,3.76654469 24.0354537,3.51050459 C25.5905415,2.02547204 27.9663702,1.35976779 28.0671629,1.30855977 C28.3695411,1.20614373 28.6287224,2.02547204 28.6431214,3.04963242 C28.6575203,4.0737928 28.4415359,5.04674517 28.1535567,5.09795319 C28.1247587,5.09795319 25.777728,5.76365743 24.3234329,7.19748197 C24.280236,7.29989801 24.2226402,7.29989801 24.1794433,7.29989801 Z" id="Path"></path><path d="M14.7056782,16.2582091 C14.4609817,16.2582091 14.2450731,15.694334 14.1874975,14.8228909 C14.115528,13.7976636 14.273861,12.7211749 14.5617391,12.4648681 C16.1162811,10.9782885 18.4912758,10.3118908 18.5920331,10.2606294 C18.8799113,10.2093681 19.1533955,10.9782885 19.1677894,12.0035158 C19.1965772,13.0800045 18.9662747,14.002709 18.6783966,14.0539704 C18.6496087,14.0539704 16.3034019,14.7203681 14.8496172,16.1556863 C14.8064355,16.2582091 14.7488599,16.2582091 14.7056782,16.2582091 Z" id="Path"></path><path d="M15.2985671,34.019808 C15.2843367,34.019808 15.2558757,34.019808 15.2416452,34.019808 C15.2131843,34.019808 12.8936176,32.939808 11.4136486,33.419808 C11.1290392,33.599808 10.8586603,32.579808 10.8444298,31.319808 C10.8159689,30.059808 11.0436564,28.979808 11.3424963,28.919808 C12.936309,28.379808 15.2701062,29.459808 15.3697195,29.519808 C15.6685594,29.639808 15.867786,30.779808 15.839325,31.979808 C15.7966336,33.179808 15.5689461,34.019808 15.2985671,34.019808 Z" id="Path"></path><path d="M34.9919443,39.7204135 C34.7471619,39.7204135 34.5311775,39.1571253 34.4735817,38.2865889 C34.4015869,37.2624285 34.5599754,36.1870601 34.8479547,35.9310201 C36.4030425,34.4459875 38.7788711,33.7802832 38.8796639,33.7290752 C39.1820421,33.6266592 39.4412234,34.4459875 39.4556223,35.4701479 C39.4700213,36.4943083 39.2540369,37.4672606 38.9660576,37.5184686 C38.9372597,37.5184686 36.590229,38.1841729 35.1359339,39.6179974 C35.078338,39.6692054 35.0351412,39.7204135 34.9919443,39.7204135 Z" id="Path"></path><path d="M29.6235239,29.9131671 C29.3788275,29.9131671 29.1629188,29.3498789 29.1053432,28.4793426 C29.0333737,27.4551822 29.1917067,26.3798138 29.4795848,26.1237737 C31.0341268,24.6387411 33.4091215,23.9730369 33.5098788,23.9218289 C33.8121509,23.8194128 34.0712412,24.6387411 34.0856351,25.6629015 C34.1144229,26.7382699 33.8841204,27.6600143 33.5962423,27.7112223 C33.5674545,27.7112223 31.2212476,28.3769265 29.7674629,29.8107511 C29.7098873,29.9131671 29.6667056,29.9131671 29.6235239,29.9131671 Z" id="Path"></path><path d="M25.999674,50.8623368 C25.7549775,50.8623368 25.5390689,50.2990486 25.4814933,49.4285123 C25.4095238,48.4043519 25.5678567,47.3289835 25.8557349,47.0729434 C27.4102769,45.5879109 29.7852716,44.9222066 29.8860289,44.8709986 C30.1739071,44.7685826 30.4473913,45.5879109 30.4617852,46.6120712 C30.490573,47.6874396 30.2602705,48.609184 29.9723924,48.660392 C29.9436045,48.660392 27.5973977,49.3260963 26.143613,50.7599208 C26.1004313,50.8623368 26.0572496,50.8623368 25.999674,50.8623368 Z" id="Path"></path><path d="M12.4166933,51.5676934 C12.1719109,51.5676934 11.9559265,51.0044052 11.8983307,50.1338689 C11.8263359,49.1097085 11.9847244,48.0343401 12.2727037,47.7783 C13.8277915,46.2932675 16.2036202,45.6275632 16.3044129,45.5763552 C16.6067911,45.4739392 16.8659724,46.2932675 16.8803713,47.3174278 C16.8947703,48.3415882 16.6787859,49.3145406 16.3908067,49.3657486 C16.3620087,49.3657486 14.014978,50.0314529 12.5606829,51.4652774 C12.517486,51.5676934 12.4742891,51.5676934 12.4166933,51.5676934 Z" id="Path"></path><path d="M0.535642069,49.6079429 C0.290859724,49.6079429 0.0748753011,49.0446547 0.017279455,48.1741184 C-0.0547153525,47.149958 0.103673224,46.0745896 0.391652454,45.8185495 C1.9467403,44.3335169 4.32256894,43.6678127 4.42336168,43.6166047 C4.72573987,43.5141886 4.98492117,44.3335169 4.99932014,45.3576773 C5.0137191,46.3818377 4.79773467,47.3547901 4.50975544,47.4059981 C4.48095752,47.4059981 2.1339268,48.0717023 0.679631684,49.5055269 C0.6364348,49.6079429 0.578838954,49.6079429 0.535642069,49.6079429 Z" id="Path"></path><path d="M60.4941823,47.3778188 C60.2494,47.3778188 60.0334155,46.8139437 59.9758197,45.9425006 C59.9038249,44.9172733 60.0622135,43.8407846 60.3501927,43.5844778 C61.9052805,42.0978982 64.2811092,41.4315005 64.3819019,41.3802391 C64.6842801,41.3289778 64.9434614,42.0978982 64.9578604,43.1231255 C64.9722593,44.1483528 64.7562749,45.1223187 64.4682957,45.1735801 C64.4394977,45.1735801 62.092467,45.8399778 60.6381719,47.275296 C60.594975,47.3778188 60.5373792,47.3778188 60.4941823,47.3778188 Z" id="Path"></path><path d="M48.8485296,53.1194542 C48.8342991,53.1194542 48.8200686,53.1194542 48.7916076,53.1194542 C48.7631465,53.1194542 46.4435721,52.1594542 44.9635982,52.6994542 C44.6647573,52.8794542 44.408608,51.9194542 44.380147,50.6594542 C44.3516859,49.3994542 44.5651437,48.3194542 44.8639846,48.1994542 C46.4435721,47.5994542 48.7916076,48.5594542 48.8912212,48.6194542 C49.1900621,48.7394542 49.4035199,49.8194542 49.3750588,51.0794542 C49.3608283,52.2194542 49.13314,53.1194542 48.8485296,53.1194542 Z" id="Path"></path></g></g></g></g></g></svg>