<svg xmlns="http://www.w3.org/2000/svg" xmlns:xlink="http://www.w3.org/1999/xlink" width="149px" height="108px" viewBox="0 0 149 108"><title>v974-10 [Converted]</title><g id="Home-2" stroke="none" stroke-width="1" fill="none" fill-rule="evenodd"><g id="De-bebe---Home-3" transform="translate(-945.000000, -3367.000000)" fill-rule="nonzero"><g id="Rectangle-2" transform="translate(94.000000, 3263.000000)"><g id="v974-10-[Converted]" transform="translate(851.000000, 104.000000)"><path d="M64.5477053,103.396103 C64.8291504,97.8379243 65.233505,92.2688508 65.938899,86.7488041 C66.4911013,82.4417151 68.1886782,80.6567789 72.2963511,79.2840305 C73.7855162,78.7864999 74.3590941,78.4015493 75.2337113,79.7289026 C76.355929,81.4303118 76.2419259,84.126782 76.3701794,86.0842196 C76.7442519,91.7803993 77.0595417,97.4802107 77.4033322,103.178206 C77.8237185,110.152713 88.4081905,108.858044 87.9878042,101.887169 C87.5460423,94.5876336 87.8916141,86.6616455 86.3329785,79.5110061 C84.7743428,72.3603666 79.0100628,66.5824756 71.4110461,68.3074902 C65.4597298,69.658449 59.1966865,73.101215 56.7794652,79.1187922 C55.4256789,82.4871102 55.2386426,86.2912213 54.8841643,89.8719885 C54.4922788,93.8322588 54.2108337,97.7997924 54.009547,101.774589 C53.8616993,104.703482 55.4345853,107.487111 58.482386,107.948326 C61.1151443,108.35325 64.3980763,106.335891 64.5387988,103.38884 L64.5477053,103.396103 Z" id="Path" fill="#99B8BA"></path><path d="M45.6544947,100.995058 C45.4979398,90.2299518 47.8503786,79.5765502 52.5250198,69.8807673 C56.3157162,62.0466206 63.308002,53.2211047 72.9790227,53.5760615 C82.1003297,53.9112984 88.6378036,62.0573768 91.7373291,69.8753891 C95.5996493,79.6241511 96.6005937,90.6385669 97.3436919,101.012985 C97.8361064,107.895202 108.475841,106.622377 107.983426,99.7365748 C106.660174,81.2716524 104.106781,57.9359344 86.8060217,47.210145 C78.6176163,42.1349804 68.6887495,41.5147025 60.1099937,46.0789445 C51.5043789,50.6467719 45.76014,58.6601896 41.8602172,67.4122043 C36.95935,78.4069004 34.824957,90.2818175 35.0111792,102.280432 C35.0559441,105.179245 38.3076704,107.28568 40.9684993,106.968371 C44.0859307,106.597279 45.6956784,103.911799 45.6509135,101.005814 L45.6544947,100.995058 Z" id="Path" fill="#F1AF58"></path><path d="M27.6254702,100.63191 C28.3754854,93.6447161 29.0861204,86.6539765 29.8844661,79.6721015 C30.6004711,73.3976335 31.4632572,67.0628851 33.7938535,61.1483257 C37.6280605,51.4166062 44.4587485,43.0642414 53.4356616,37.5432768 C63.4275118,31.3982341 75.6926781,30.451479 87.0127176,32.8431879 C92.180484,33.9335518 97.3947906,35.9688977 101.288068,39.6016711 C105.618108,43.6333582 107.29714,49.6950723 108.985122,55.1468919 C113.494164,69.662029 115.85698,84.7693312 116.359974,99.9369137 C116.454845,102.802 119.621377,104.890534 122.315346,104.573176 C125.392377,104.218587 127.091099,101.548525 126.996229,98.6763466 C126.474783,83.507853 124.037512,68.4637444 119.741308,53.8951896 C117.749024,47.1012473 115.624279,39.7878308 110.893276,34.3023252 C106.616935,29.3380668 100.824455,25.9215932 94.5880509,23.9500734 C81.4762087,19.8049176 66.4508431,19.7889611 53.775764,25.4340321 C42.3196835,30.5401265 33.1172288,39.537845 27.0651962,50.3670202 C18.8812587,65.0222203 18.784598,82.7800819 17.0357557,99.048666 C16.3090106,105.816014 26.893355,107.43649 27.6254702,100.63191 L27.6254702,100.63191 Z" id="Path" fill="#F4C3B7"></path><path d="M10.5690805,102.574265 C12.0661655,85.1926918 13.4722477,67.3676743 19.282151,50.7839433 C21.9711941,43.1153925 25.3757689,34.7879091 31.3676778,29.0569763 C36.8242761,23.8442851 43.9278464,19.9601445 50.8351363,17.0376893 C64.7210906,11.1607228 81.1693979,8.62828452 96.0260486,11.9906217 C104.128865,13.8231667 109.783528,19.5665658 115.11879,25.5557289 C120.454051,31.5448921 125.489539,38.0220215 128.647871,45.4697409 C132.230882,53.9254491 133.581649,63.0347471 134.878885,72.0621239 C136.329576,82.1616018 137.76064,92.2699842 138.385168,102.460288 C138.804495,109.300721 149.407212,108.03094 148.987885,101.194069 C148.384769,91.356383 147.02508,81.6041804 145.631488,71.8501969 C144.337821,62.7925449 142.969211,53.6529715 139.90545,44.9906791 C136.904143,36.5064765 131.943599,28.9002572 126.165814,22.0509198 C120.430854,15.2621331 114.165937,8.09223394 106.002452,4.20453155 C97.7408266,0.272306688 87.9018196,-0.215659622 78.8943283,0.065722411 C70.2544168,0.334638151 61.6573302,1.97128428 53.4528046,4.67290797 C45.3978328,7.34273617 37.7667713,11.1484495 30.7913268,15.9744926 C22.9597342,21.3902063 17.5049202,28.357083 13.4401291,36.9178642 C3.96513327,56.8817413 1.89348164,79.2640792 0.0234636271,100.976799 C-0.561809186,107.77449 9.99094513,109.414698 10.5797867,102.567142 L10.5690805,102.574265 Z" id="Path" fill="#E46A4B"></path></g></g></g></g></svg>