<svg xmlns="http://www.w3.org/2000/svg" xmlns:xlink="http://www.w3.org/1999/xlink" width="114px" height="112px" viewBox="0 0 114 112"><title>sun</title><g id="Home-1" stroke="none" stroke-width="1" fill="none" fill-rule="evenodd"><g id="De-bebe---Home-1-" transform="translate(-856.000000, -107.000000)" fill="#EECE78" fill-rule="nonzero"><g id="Hero" transform="translate(-4.000000, 90.000000)"><g id="sun" transform="translate(860.000000, 17.000000)"><circle id="Oval" cx="56" cy="57" r="36"></circle><path d="M72.8708967,19 C72.7330826,19 72.5952686,18.9776091 72.4574545,18.9104366 C72.0440124,18.6865279 71.8832293,18.193929 72.0899504,17.7685026 L79.3711261,4.44594005 C79.6008161,4.04290454 80.1061343,3.88616851 80.5425455,4.08768627 C80.9559876,4.31159488 81.1167707,4.80419383 80.9100496,5.2296202 L73.6288739,18.5521828 C73.4910599,18.843264 73.1924628,19 72.8708967,19 Z" id="Path"></path><path d="M65.6646091,16 C65.6122408,16 65.5598725,16 65.5075043,15.9781144 C65.1583824,15.8686862 64.9314533,15.4309735 65.0187337,14.9932609 L67.7069717,0.6362852 C67.7942521,0.198572527 68.1259178,-0.0859407099 68.4924957,0.0234874582 C68.8416176,0.132915626 69.0685467,0.570628299 68.9812663,1.00834097 L66.2930283,15.3653166 C66.223204,15.7373724 65.9613626,16 65.6646091,16 Z" id="Path"></path><path d="M81.8069266,22 C81.6574959,22 81.5294124,21.9594257 81.3799817,21.8985643 C80.9957313,21.6754058 80.888995,21.2088015 81.1238147,20.843633 L88.5099616,9.36111176 C88.7447813,8.99594324 89.2357679,8.89450754 89.6200183,9.11766608 C90.0042687,9.34082462 90.111005,9.80742884 89.8761853,10.1725974 L82.4900384,21.6551186 C82.3406077,21.8782772 82.0844408,22 81.8069266,22 Z" id="Path"></path><path d="M92.7982067,34 C92.4739263,34 92.1928834,33.83622 92.0631713,33.5291325 C91.8902218,33.1401549 92.0847899,32.6897599 92.495545,32.5259799 L105.877513,27.059822 C106.288268,26.896042 106.763879,27.0802945 106.936829,27.4692721 C107.109778,27.8582496 106.91521,28.3086446 106.504455,28.4724246 L93.122487,33.9385825 C93.0143935,33.9795275 92.9063001,34 92.7982067,34 Z" id="Path"></path><path d="M88.797595,28 C88.5613372,28 88.3250794,27.8981951 88.1747335,27.7149463 C87.8955197,27.3891706 87.9599536,26.900507 88.3036014,26.6358143 L99.6869333,18.1656461 C100.030581,17.9009534 100.546053,17.9620363 100.825267,18.287812 C101.10448,18.6135877 101.040046,19.1022513 100.696399,19.366944 L89.3130667,27.8371122 C89.1627208,27.9389171 88.9908969,28 88.797595,28 Z" id="Path"></path><path d="M94.8153303,41 C94.4512784,41 94.1300562,40.7958083 94.0229822,40.5065367 C93.9159081,40.1662171 94.1943007,39.8258976 94.6225969,39.7408177 L109.013351,37.0182614 C109.463062,36.9331815 109.869944,37.1543892 109.977018,37.4947087 C110.084092,37.8350283 109.805699,38.1753478 109.377403,38.2604277 L94.9866488,40.982984 C94.9438191,41 94.8795747,41 94.8153303,41 Z" id="Path"></path><path d="M113.183408,60 C113.140069,60 113.09673,60 113.053391,59.9790229 L98.6649065,57.5456792 C98.2315184,57.4617708 97.9281468,57.0632058 98.0148244,56.6436638 C98.101502,56.2241218 98.5132207,55.9304424 98.9466088,56.0143508 L113.335093,58.4476945 C113.768482,58.5316029 114.071853,58.9301678 113.985176,59.3497099 C113.920167,59.7272977 113.573457,60 113.183408,60 Z" id="Path"></path><path d="M98.795766,50 C98.388989,50 98.0250307,49.6595272 98.0036214,49.2282617 C97.9608027,48.7515997 98.3033517,48.3430324 98.731538,48.297636 L113.118597,47.0038394 C113.65383,46.958443 113.95356,47.321614 113.996379,47.7755777 C114.039197,48.2522396 113.696648,48.660807 113.268462,48.7062034 L98.8814032,50 C98.8385846,50 98.8171753,50 98.795766,50 Z" id="Path"></path><path d="M109.156941,71 C109.089585,71 108.999778,71 108.932423,70.9830185 L95.6185419,68.2489899 C95.1695072,68.1640822 94.9000863,67.8074698 95.0347967,67.4678389 C95.1470554,67.128208 95.6185419,66.9244295 96.0675767,67.0263188 L109.381458,69.7603473 C109.830493,69.845255 110.099914,70.2018674 109.965203,70.5414983 C109.875396,70.813203 109.53862,71 109.156941,71 Z" id="Path"></path><path d="M100.152899,91 C99.954164,91 99.7775109,90.9414477 99.6229395,90.824343 L88.2950604,82.2952213 C87.9417542,82.0414946 87.8975909,81.573076 88.2067338,81.2607969 C88.4937951,80.9485179 89.0237543,80.909483 89.3770605,81.1827272 L100.70494,89.7118489 C101.058246,89.9655756 101.102409,90.4339942 100.793266,90.7462733 C100.616613,90.9024128 100.373715,91 100.152899,91 Z" id="Path"></path><path d="M106.172648,82 C106.062901,82 105.931204,81.9809399 105.821456,81.9237596 L92.47616,76.3582095 C92.0591195,76.1866686 91.8835235,75.7673463 92.081069,75.4052043 C92.2786145,75.0430624 92.783453,74.9096417 93.178544,75.0621225 L106.52384,80.6276726 C106.940881,80.7992135 107.116477,81.2185358 106.918931,81.5806777 C106.765285,81.8475192 106.479941,82 106.172648,82 Z" id="Path"></path><path d="M83.1507732,104 C82.8811777,104 82.5891158,103.869303 82.4318517,103.607909 L75.1303053,92.2590489 C74.883176,91.8669578 74.9955075,91.3659524 75.3999008,91.1263412 C75.7818279,90.8867299 76.321019,90.9956442 76.5681483,91.3877353 L83.8696947,102.736595 C84.116824,103.128686 84.0044925,103.629692 83.6000992,103.869303 C83.4653014,103.956434 83.3080373,104 83.1507732,104 Z" id="Path"></path><path d="M63.2530341,112 C62.8814069,112 62.5684576,111.699079 62.529339,111.290687 L61.0037115,96.9109782 C60.9645929,96.4595972 61.2384234,96.0726992 61.6491693,96.0082162 C62.0599152,95.9437332 62.411983,96.2661482 62.470661,96.7175292 L63.9962885,111.097238 C64.0354071,111.548619 63.7615766,111.935517 63.3508307,112 C63.311712,112 63.2725934,112 63.2530341,112 Z" id="Path"></path><path d="M51.8321,112 C51.7876086,112 51.7431172,112 51.6986257,112 C51.2537114,111.935192 50.9422715,111.524741 51.0090086,111.071085 L53.3448086,96.6837018 C53.4115457,96.2516483 53.8342143,95.9276081 54.3013743,96.0140188 C54.7462886,96.0788268 55.0577285,96.4892777 54.9909914,96.9429339 L52.6551914,111.330317 C52.5884543,111.719165 52.2325229,112 51.8321,112 Z" id="Path"></path><path d="M74.1802093,111 C73.8546778,111 73.5508484,110.807792 73.4206358,110.487445 L68.0602172,97.0969505 C67.8866004,96.6911779 68.1036214,96.221336 68.5159613,96.0504844 C68.9500033,95.9009893 69.4057474,96.0931973 69.5793642,96.4989699 L74.9397828,109.889465 C75.1133996,110.295237 74.8963786,110.765079 74.4840387,110.935931 C74.3755282,110.978644 74.2887198,111 74.1802093,111 Z" id="Path"></path><path d="M93.1826269,97 C92.9639506,97 92.7452744,96.9167214 92.592201,96.7501641 L82.2269473,86.3195134 C81.9208006,86.0072185 81.9208006,85.5075466 82.2488149,85.2160713 C82.5768293,84.924596 83.1016523,84.924596 83.407799,85.236891 L93.7730527,95.6675416 C94.0791994,95.9798366 94.0791994,96.4795085 93.7511851,96.7709837 C93.5981117,96.937541 93.3794355,97 93.1826269,97 Z" id="Path"></path><path d="M41.1174365,19 C40.8197993,19 40.5221621,18.8434117 40.3618959,18.5526048 L33.1041278,5.24259616 C32.8751762,4.83994044 33.0354423,4.3254359 33.4704505,4.10173828 C33.8825635,3.87804066 34.4091524,4.03462899 34.6381041,4.45965448 L41.8958722,17.7696631 C42.1248238,18.1723188 41.9645577,18.6868233 41.5295495,18.910521 C41.3921785,18.9776302 41.2319123,19 41.1174365,19 Z" id="Path"></path><path d="M47.352847,16 C47.0560935,16 46.7942521,15.7373724 46.7069717,15.3653166 L44.0187337,1.00834097 C43.9314533,0.570628299 44.1583824,0.132915626 44.5075043,0.0234874582 C44.8740822,-0.0859407099 45.2057479,0.198572527 45.2930283,0.6362852 L47.9812663,14.9932609 C48.0685467,15.4309735 47.8416176,15.8686862 47.4924957,15.9781144 C47.4575836,15.9781144 47.4052153,16 47.352847,16 Z" id="Path"></path><path d="M33.1972638,22 C32.9194347,22 32.6629771,21.8784216 32.5133768,21.6352647 L25.1188493,10.1663652 C24.8837631,9.80162986 25.0119919,9.33557918 25.3753069,9.11268537 C25.7386218,8.88979156 26.251537,9.01137 26.4866232,9.35584225 L33.8811507,20.8247417 C34.1162369,21.1894771 33.9880081,21.6555278 33.6246931,21.8784216 C33.4750928,21.9594739 33.3254926,22 33.1972638,22 Z" id="Path"></path><path d="M21.2017933,34 C21.0936999,34 20.9856065,33.9795275 20.877513,33.9385825 L7.49554502,28.4724246 C7.08478994,28.3086446 6.89022175,27.8582496 7.06317126,27.4692721 C7.23612076,27.0802945 7.7117319,26.896042 8.12248698,27.059822 L21.504455,32.5259799 C21.9152101,32.6897599 22.1097782,33.1401549 21.9368287,33.5291325 C21.8287353,33.83622 21.5260737,34 21.2017933,34 Z" id="Path"></path><path d="M25.180927,28 C25.0091031,28 24.8372792,27.9389171 24.6869333,27.8371122 L13.3036014,19.366944 C12.9599536,19.1022513 12.8955197,18.6339487 13.1747335,18.287812 C13.4539473,17.9620363 13.9479409,17.9009534 14.3130667,18.1656461 L25.6963986,26.6358143 C26.0400464,26.900507 26.1044803,27.3688096 25.8252665,27.7149463 C25.6534426,27.8981951 25.4171848,28 25.180927,28 Z" id="Path"></path><path d="M19.2060846,41 C19.1418401,41 19.0775957,41 19.0133512,40.9829618 L4.62259694,38.2568477 C4.19430068,38.1716567 3.91590811,37.8308924 4.02298218,37.4901282 C4.13005624,37.1493639 4.5583525,36.9449054 4.98664876,37.0130582 L19.3774031,39.7391723 C19.8056993,39.8243633 20.0840919,40.1651276 19.9770178,40.5058918 C19.9127734,40.8125797 19.5701364,41 19.2060846,41 Z" id="Path"></path><path d="M0.816592364,60 C0.426543081,60 0.0798326064,59.7272977 0.0148243925,59.3497099 C-0.071853226,58.9301678 0.231518439,58.5106258 0.664906532,58.4476945 L15.0533912,56.0143508 C15.4867793,55.9304424 15.9201674,56.2241218 15.9851756,56.6436638 C16.0718532,57.0632058 15.7684816,57.4827479 15.3350935,57.5456792 L0.946608792,59.9790229 C0.903269983,60 0.859931173,60 0.816592364,60 Z" id="Path"></path><path d="M15.1826397,50 C15.1612309,50 15.1398221,50 15.1184134,50 L0.731725283,48.7062976 C0.28214128,48.6609045 -0.0389901511,48.2523669 0.003827373,47.7757397 C0.0466448971,47.2991125 0.346367566,46.9586645 0.881586617,47.0040576 L15.2682747,48.29776 C15.7178587,48.3431531 16.0389902,48.7516907 15.9961726,49.2283179 C15.9319463,49.659552 15.5894061,50 15.1826397,50 Z" id="Path"></path><path d="M4.83608128,71 C4.45400163,71 4.11687252,70.8137172 4.02697142,70.5258257 C3.91459505,70.1871297 4.16182307,69.831499 4.61132855,69.746825 L17.939166,67.0203226 C18.3886715,66.9356486 18.8606522,67.1219314 18.9730286,67.4606273 C19.0854049,67.7993233 18.8381769,68.154954 18.3886715,68.239628 L5.06083402,70.9661304 C4.9934082,71 4.92598238,71 4.83608128,71 Z" id="Path"></path><path d="M13.7741913,91 C13.5498229,91 13.3458516,90.9218683 13.1826746,90.7460719 C12.917512,90.433545 12.9379091,89.9842875 13.2642631,89.7108265 L23.7279892,81.174935 C24.0543433,80.9210069 24.5234772,80.9405398 24.809037,81.2530667 C25.0945968,81.5655936 25.0538025,82.0148511 24.7274485,82.2883121 L14.2637223,90.8242036 C14.1209425,90.9414012 13.9577654,91 13.7741913,91 Z" id="Path"></path><path d="M7.827352,82 C7.520059,82 7.23471549,81.8472839 7.08106899,81.5991202 C6.88352349,81.2364194 7.05911949,80.81645 7.47616,80.6446444 L20.821456,75.0705058 C21.2384965,74.8987002 21.7213855,75.0514163 21.918931,75.4141171 C22.1164765,75.7768179 21.9408805,76.1967873 21.52384,76.3685929 L8.178544,81.9427315 C8.0687965,81.9809105 7.959049,82 7.827352,82 Z" id="Path"></path><path d="M30.8492268,104 C30.6919627,104 30.5346986,103.956434 30.3999008,103.869303 C29.9955075,103.629692 29.883176,103.128686 30.1303053,102.736595 L37.4318517,91.3877353 C37.678981,90.9956442 38.1957058,90.8867299 38.6000992,91.1263412 C39.0044925,91.3659524 39.116824,91.8669578 38.8696947,92.2590489 L31.5681483,103.607909 C31.3884179,103.84752 31.1188223,104 30.8492268,104 Z" id="Path"></path><path d="M40.8197907,111 C40.7112802,111 40.6244718,110.978656 40.5159613,110.935968 C40.1036214,110.765216 39.8866004,110.316993 40.0602172,109.890114 L45.4206358,96.5074467 C45.5942526,96.1019114 46.0499967,95.8884717 46.4840387,96.0592234 C46.8963786,96.2299752 47.1133996,96.6781985 46.9397828,97.1050778 L41.5793642,110.487745 C41.4491516,110.807904 41.1453222,111 40.8197907,111 Z" id="Path"></path><path d="M20.8246211,97 C20.6280877,97 20.4097173,96.9374742 20.256858,96.7915807 C19.9293024,96.4997937 19.9074653,95.9995875 20.235021,95.6869586 L30.5857788,85.245153 C30.8914974,84.9325241 31.4155864,84.9116821 31.743142,85.2243111 C32.0706976,85.516098 32.0925347,86.0163043 31.764979,86.3289332 L21.4142212,96.7707388 C21.2613619,96.9166323 21.0429915,97 20.8246211,97 Z" id="Path"></path><path d="M57.0198373,16 C56.9923994,16 56.9923994,16 56.9649615,16 C56.3887662,15.9785909 55.9497603,15.5932265 56.0046361,15.1650438 L56.9649615,0.756696702 C56.9923994,0.307104891 57.4039675,-0.0568503844 58.0350385,0.00737701714 C58.6112338,0.028786151 59.0502397,0.41415056 58.9953639,0.842333237 L58.0350385,15.2506803 C58.0350385,15.678863 57.5685947,16 57.0198373,16 Z" id="Path"></path></g></g></g></g></svg>