<svg xmlns="http://www.w3.org/2000/svg" xmlns:xlink="http://www.w3.org/1999/xlink" width="1253px" height="194px" viewBox="0 0 1253 194"><title>wave-4</title><g id="Home-2" stroke="none" stroke-width="1" fill="none" fill-rule="evenodd"><g id="De-bebe---Home-3" transform="translate(-94.000000, -3692.000000)" fill="#E7EEEF" fill-rule="nonzero"><g id="Rectangle-2" transform="translate(94.000000, 3263.000000)"><path d="M1183.38106,623 C1168.43006,623 1153.96082,623 1139.97334,623 L1113.76213,623 L1087.55092,623 L1044.14932,623 L1000.74771,623 L974.542627,623 L948.331416,623 L904.929815,623 L861.528213,623 L835.317002,623 L809.111915,623 L765.710314,623 L722.308713,623 L696.097502,623 L669.892415,623 L626.490814,623 L583.089213,623 L556.878002,623 L530.672915,623 L487.271313,623 L443.869712,623 L417.664625,623 L391.453414,623 L348.051813,623 L304.650212,623 L278.445125,623 L252.233914,623 L208.832313,623 L165.430711,623 L139.2195,623 L113.008289,623 L69.6066881,623 L26.205087,623 L0,623 L0,429 C22.4203841,429 34.0562021,435.805397 43.4016012,441.269345 C51.4425638,445.966232 57.2298522,449.358025 69.6066881,449.358025 C81.983524,449.358025 87.7891848,445.966232 95.8178992,441.269345 C105.163298,435.816303 116.792992,429 139.2195,429 C161.646009,429 173.275702,435.805397 182.621102,441.269345 C190.643692,445.966232 196.443229,449.358025 208.832313,449.358025 C221.221397,449.358025 227.014809,445.966232 235.043524,441.269345 C244.388923,435.816303 256.018617,429 278.445125,429 C300.871633,429 312.501327,435.805397 321.846726,441.269345 C329.869316,445.966232 335.668853,449.358025 348.051813,449.358025 C360.434773,449.358025 366.23431,445.966232 374.263024,441.269345 C383.608423,435.816303 395.238117,429 417.664625,429 C440.091133,429 451.720827,435.805397 461.066226,441.269345 C469.094941,445.966232 474.894478,449.358025 487.277438,449.358025 C499.660398,449.358025 505.45381,445.966232 513.482525,441.269345 C522.827924,435.816303 534.463742,429 556.884126,429 C579.30451,429 590.940328,435.805397 600.285727,441.269345 C608.314441,445.966232 614.113978,449.358025 626.496938,449.358025 C638.879898,449.358025 644.679435,445.966232 652.702025,441.269345 C662.053548,435.816303 673.683242,429 696.103626,429 C718.52401,429 730.159828,435.805397 739.505227,441.269345 C747.533942,445.966232 753.333478,449.358025 765.716438,449.358025 C778.099398,449.358025 783.898935,445.966232 791.921525,441.269345 C801.273049,435.816303 812.902742,429 835.323126,429 C857.743511,429 869.379329,435.805397 878.724728,441.269345 C886.753442,445.966232 892.552979,449.358025 904.935939,449.358025 C917.318899,449.358025 923.118435,445.966232 931.14715,441.269345 C940.492549,435.816303 952.122243,429 974.548751,429 C996.975259,429 1008.60495,435.805397 1017.95035,441.269345 C1025.97294,445.966232 1031.77248,449.358025 1044.15544,449.358025 C1056.5384,449.358025 1062.33794,445.966232 1070.36665,441.269345 C1079.71205,435.816303 1091.34787,429 1113.76825,429 C1136.18864,429 1147.82445,435.805397 1157.17598,441.269345 C1165.19857,445.966232 1170.9981,449.358025 1183.38719,449.358025 C1195.77627,449.358025 1201.56968,445.966232 1209.5984,441.269345 C1218.9438,435.816303 1230.57349,429 1253,429 L1253,623 L1226.78879,623 C1212.79723,623 1198.32799,623 1183.38106,623 Z" id="wave-4" transform="translate(626.500000, 526.000000) scale(1, -1) translate(-626.500000, -526.000000) "></path></g></g></g></svg>