<svg xmlns="http://www.w3.org/2000/svg" xmlns:xlink="http://www.w3.org/1999/xlink" width="1253px" height="194px" viewBox="0 0 1253 194"><title>wave-3</title><g id="Home-2" stroke="none" stroke-width="1" fill="none" fill-rule="evenodd"><g id="De-bebe---Home-3" transform="translate(-94.000000, -3263.000000)" fill="#E7EEEF" fill-rule="nonzero"><g id="Rectangle-2" transform="translate(94.000000, 3263.000000)"><path d="M1183.38106,194 C1168.43006,194 1153.96082,194 1139.97334,194 L1113.76213,194 L1087.55092,194 L1044.14932,194 L1000.74771,194 L974.542627,194 L948.331416,194 L904.929815,194 L861.528213,194 L835.317002,194 L809.111915,194 L765.710314,194 L722.308713,194 L696.097502,194 L669.892415,194 L626.490814,194 L583.089213,194 L556.878002,194 L530.672915,194 L487.271313,194 L443.869712,194 L417.664625,194 L391.453414,194 L348.051813,194 L304.650212,194 L278.445125,194 L252.233914,194 L208.832313,194 L165.430711,194 L139.2195,194 L113.008289,194 L69.6066881,194 L26.205087,194 L0,194 L0,0 C22.4203841,0 34.0562021,6.80539683 43.4016012,12.2693452 C51.4425638,16.9662324 57.2298522,20.3580247 69.6066881,20.3580247 C81.983524,20.3580247 87.7891848,16.9662324 95.8178992,12.2693452 C105.163298,6.81630291 116.792992,0 139.2195,0 C161.646009,0 173.275702,6.80539683 182.621102,12.2693452 C190.643692,16.9662324 196.443229,20.3580247 208.832313,20.3580247 C221.221397,20.3580247 227.014809,16.9662324 235.043524,12.2693452 C244.388923,6.81630291 256.018617,0 278.445125,0 C300.871633,0 312.501327,6.80539683 321.846726,12.2693452 C329.869316,16.9662324 335.668853,20.3580247 348.051813,20.3580247 C360.434773,20.3580247 366.23431,16.9662324 374.263024,12.2693452 C383.608423,6.81630291 395.238117,0 417.664625,0 C440.091133,0 451.720827,6.80539683 461.066226,12.2693452 C469.094941,16.9662324 474.894478,20.3580247 487.277438,20.3580247 C499.660398,20.3580247 505.45381,16.9662324 513.482525,12.2693452 C522.827924,6.81630291 534.463742,0 556.884126,0 C579.30451,0 590.940328,6.80539683 600.285727,12.2693452 C608.314441,16.9662324 614.113978,20.3580247 626.496938,20.3580247 C638.879898,20.3580247 644.679435,16.9662324 652.702025,12.2693452 C662.053548,6.81630291 673.683242,0 696.103626,0 C718.52401,0 730.159828,6.80539683 739.505227,12.2693452 C747.533942,16.9662324 753.333478,20.3580247 765.716438,20.3580247 C778.099398,20.3580247 783.898935,16.9662324 791.921525,12.2693452 C801.273049,6.81630291 812.902742,0 835.323126,0 C857.743511,0 869.379329,6.80539683 878.724728,12.2693452 C886.753442,16.9662324 892.552979,20.3580247 904.935939,20.3580247 C917.318899,20.3580247 923.118435,16.9662324 931.14715,12.2693452 C940.492549,6.81630291 952.122243,0 974.548751,0 C996.975259,0 1008.60495,6.80539683 1017.95035,12.2693452 C1025.97294,16.9662324 1031.77248,20.3580247 1044.15544,20.3580247 C1056.5384,20.3580247 1062.33794,16.9662324 1070.36665,12.2693452 C1079.71205,6.81630291 1091.34787,0 1113.76825,0 C1136.18864,0 1147.82445,6.80539683 1157.17598,12.2693452 C1165.19857,16.9662324 1170.9981,20.3580247 1183.38719,20.3580247 C1195.77627,20.3580247 1201.56968,16.9662324 1209.5984,12.2693452 C1218.9438,6.81630291 1230.57349,0 1253,0 L1253,194 L1226.78879,194 C1212.79723,194 1198.32799,194 1183.38106,194 Z" id="wave-3"></path></g></g></g></svg>